<?xml version="1.0" encoding="UTF-8" standalone="no"?>
<!-- Created with Inkscape (http://www.inkscape.org/) -->

<svg
   xmlns:dc="http://purl.org/dc/elements/1.1/"
   xmlns:cc="http://creativecommons.org/ns#"
   xmlns:rdf="http://www.w3.org/1999/02/22-rdf-syntax-ns#"
   xmlns:svg="http://www.w3.org/2000/svg"
   xmlns="http://www.w3.org/2000/svg"
   xmlns:sodipodi="http://sodipodi.sourceforge.net/DTD/sodipodi-0.dtd"
   xmlns:inkscape="http://www.inkscape.org/namespaces/inkscape"
   width="400"
   height="178.82286"
   id="svg2"
   version="1.1"
   inkscape:version="0.91pre2 r"
   viewBox="0 0 400 178.82286"
   sodipodi:docname="event3.svg">
  <defs
     id="defs4" />
  <sodipodi:namedview
     id="base"
     pagecolor="#ffffff"
     bordercolor="#666666"
     borderopacity="1.0"
     inkscape:pageopacity="0.0"
     inkscape:pageshadow="2"
     inkscape:zoom="2.0724617"
     inkscape:cx="200.00001"
     inkscape:cy="133.82286"
     inkscape:document-units="px"
     inkscape:current-layer="layer1"
     showgrid="false"
     inkscape:window-width="1855"
     inkscape:window-height="1056"
     inkscape:window-x="65"
     inkscape:window-y="24"
     inkscape:window-maximized="1"
     fit-margin-top="0"
     fit-margin-left="0"
     fit-margin-right="0"
     fit-margin-bottom="0"
     showguides="false" />
  <metadata
     id="metadata7">
    <rdf:RDF>
      <cc:Work
         rdf:about="">
        <dc:format>image/svg+xml</dc:format>
        <dc:type
           rdf:resource="http://purl.org/dc/dcmitype/StillImage" />
        <dc:title></dc:title>
      </cc:Work>
    </rdf:RDF>
  </metadata>
  <g
     inkscape:label="Layer 1"
     inkscape:groupmode="layer"
     id="layer1"
     transform="translate(-31.364999,-228.65188)">
    <rect
       ry="0"
       rx="0"
       y="228.65189"
       x="31.365002"
       height="89.999985"
       width="400"
       id="rect4154"
       style="color:#000000;text-decoration:none;text-decoration-line:none;text-decoration-style:solid;text-decoration-color:#000000;clip-rule:nonzero;display:inline;overflow:visible;visibility:visible;opacity:1;isolation:auto;mix-blend-mode:normal;color-interpolation:sRGB;color-interpolation-filters:linearRGB;solid-color:#000000;solid-opacity:1;fill:#43b02a;fill-opacity:1;fill-rule:nonzero;stroke:#afc6e9;stroke-width:0;stroke-linecap:butt;stroke-linejoin:round;stroke-miterlimit:4;stroke-dasharray:none;stroke-dashoffset:0;stroke-opacity:1;marker:none;color-rendering:auto;image-rendering:auto;shape-rendering:auto;text-rendering:auto;enable-background:accumulate" />
    <g
       id="g4761"
       transform="translate(-11.646483,-2.7413066)">
      <path
         inkscape:connector-curvature="0"
         id="path4630"
         d="m 375.28492,247.57032 c -2.47579,0 -4.47222,0.33306 -5.99609,1.04687 -1.52386,0.71381 -2.56983,1.83998 -3.03125,3.30664 l -0.002,0.002 0,0.002 c -0.83119,2.70906 -1.23632,6.11347 -1.23632,10.22656 l 0,1.25586 0,0.5 0,2.92383 c 0,0.99505 0.0148,1.99129 0.0449,2.98633 l 0,0.006 0,0.006 c 0.21404,3.88325 1.20458,6.50777 3.16601,7.6914 l 0.002,0 0.002,0.002 c 1.89046,1.12146 4.55251,1.64453 7.99414,1.64453 l 0.63086,0 c 0.18619,0 0.39109,0.0132 0.61328,0.041 l 0.0312,0.004 0.34571,0 0.35937,0 0.31445,0 0.36133,0 c 3.84349,0 6.57632,-0.71096 8.14258,-2.31055 1.58058,-1.6135 2.34518,-4.30692 2.4375,-8.02734 l 0,-0.006 c 0.0601,-1.77368 0.0898,-3.54857 0.0898,-5.32227 l 0,-5.35351 c 0,-2.39162 -0.25939,-4.33671 -0.80664,-5.85156 -0.54725,-1.51485 -1.40626,-2.61592 -2.57812,-3.19336 -2.18597,-1.07715 -5.30841,-1.58008 -9.40039,-1.58008 l -1.48438,0 z m -197.04297,0.17969 c -0.49042,0 -0.98229,0.0143 -1.47265,0.0449 -0.48971,0.0306 -0.99324,0.0777 -1.51172,0.13867 l 0.0273,-0.004 c -0.48971,0.0306 -0.97922,0.0775 -1.46875,0.13868 -3.17597,0.34049 -5.42152,1.46975 -6.54101,3.44531 l 0,0.002 c -1.04581,1.86979 -1.54883,4.26594 -1.54883,7.17383 -0.0778,5.21351 -0.0571,10.9219 1.14062,15.5625 l 0,0.002 c 0.38998,1.46242 1.27042,2.63384 2.57422,3.43555 1.30379,0.80171 3.01461,1.25016 5.12305,1.38867 l 0.0176,0.002 4.19922,-0.0449 c 0.81617,0 1.63305,-0.0167 2.44921,-0.0469 l -0.0195,0.002 c 0.82234,0 1.64456,-0.0309 2.4668,-0.0918 l 0.002,0 c 2.42193,-0.18631 4.25987,-0.96566 5.38867,-2.38867 l 0.002,-0.002 c 2.00389,-3.02583 1.5957,-5.45654 1.5957,-8.77734 l -3.83008,0 -0.5,0 c -0.008,2.18498 0.40511,4.63061 -0.95117,6.33984 l -0.004,0.004 -0.004,0.002 c -0.61748,0.43739 -1.55185,0.74051 -2.81641,0.85547 l -0.002,0 c -0.91888,0.0889 -1.85328,0.14806 -2.80274,0.17773 l -2.82031,0 -0.92187,0 -0.97266,-0.0879 -0.004,0 c -0.79741,-0.0569 -1.54683,-0.21295 -2.25196,-0.4668 -0.65582,-0.2361 -1.09547,-0.60212 -1.39648,-1.12695 -0.32646,-0.60051 -0.5669,-1.3232 -0.70899,-2.17578 -0.14669,-0.88011 -0.24951,-1.80676 -0.30859,-2.7793 l 0,-0.004 c -0.03,-0.5391 -0.0599,-1.0649 -0.0898,-1.57422 l 0,-1.5 0,-1.57813 -0.0449,-4.81445 0,-0.53711 c 0,-2.08323 0.28608,-3.66398 0.80274,-4.72656 l 0.002,-0.002 c 0.49411,-0.98548 1.68258,-1.60399 3.81445,-1.74804 l 0.004,0 0.004,0 c 1.03993,-0.0891 2.08125,-0.14994 3.12109,-0.17969 1.0755,-0.0299 2.1364,-0.0449 3.18164,-0.0449 1.20986,0 2.16242,0.13244 2.83984,0.36719 0.67744,0.23475 1.06319,0.55148 1.26172,0.9375 0.47357,0.92083 0.75391,2.5107 0.75391,4.7207 l 0,0.5 4.35547,0 -0.0254,-0.52539 c -0.21239,-4.15679 -0.89505,-6.87385 -2.37305,-8.17774 -1.45687,-1.31565 -4.18726,-1.83593 -8.25195,-1.83593 l -1.48438,0 z m -109.298821,0.13476 0,31.01563 4.419922,0 0,-31.01563 -0.5,0 -3.919922,0 z m 7.970703,0 0,31.01563 20.259766,0 0,-3.88086 -15.97461,0 0,-10.11524 15.298828,0 0,-3.83398 -15.298828,0 0,-9.16992 15.97461,0 0,-4.01563 -20.259766,0 z m 22.41211,0 0,31.01563 20.259768,0 0,-3.88086 -15.97461,0 0,-10.11524 15.29883,0 0,-3.83398 -15.29883,0 0,-9.16992 15.97461,0 0,-4.01563 -20.259768,0 z m 22.412108,0 0,31.01563 20.25976,0 0,-3.88086 -15.9746,0 0,-10.11524 15.29882,0 0,-3.83398 -15.29882,0 0,-9.16992 15.9746,0 0,-4.01563 -20.25976,0 z m 36.0625,0 0,31.01563 4.41992,0 0,-31.01563 -0.5,0 -3.91992,0 z m 35.77148,0 0,31.01563 15.21485,0 c 2.40649,0 4.37707,-0.3689 5.9082,-1.14649 1.53113,-0.77759 2.60846,-1.9863 3.1582,-3.55469 1.042,-2.97277 1.55857,-6.34367 1.5586,-10.10937 l 0,-2.88086 c 0,-4.25509 -0.70486,-7.5264 -2.19532,-9.81055 l 0,-0.002 c -1.54135,-2.39273 -4.70481,-3.51172 -9.28515,-3.51172 l -14.35938,0 z m 29.40039,0 0,31.01563 19.81055,0 0,-4.10547 -15.25586,0 0,-26.91016 -0.5,0 -4.05469,0 z m 56.00196,0 0,31.01563 20.25976,0 0,-3.88086 -15.97461,0 0,-10.11524 15.29883,0 0,-3.83398 -15.29883,0 0,-9.16992 15.97461,0 0,-4.01563 -20.25976,0 z m 23.58203,0 0,31.01563 4.28515,0 0,-11.7461 c 4.46938,-0.1045 9.25593,0.2575 13.47852,-0.36523 l 0.006,0 0.004,-0.002 c 1.33332,-0.22764 2.53208,-0.87193 3.55469,-1.89454 0.65008,-0.65009 1.12935,-1.40902 1.42383,-2.25976 l 0.002,-0.002 0,-0.004 c 0.28112,-0.84338 0.46867,-1.70435 0.5625,-2.58008 l 0.002,-0.006 0,-0.008 c 0.1609,-2.50614 0.12757,-5.1932 -0.60743,-7.56836 -0.35707,-1.13611 -1.01176,-2.13334 -1.9414,-2.9668 l -0.002,0 0,-0.002 c -0.62506,-0.55926 -1.34659,-0.94479 -2.14257,-1.14453 -0.71802,-0.21701 -1.46504,-0.3575 -2.24024,-0.41992 l -0.006,0 c -0.34142,-0.0309 -0.66957,-0.0469 -0.98437,-0.0469 l -0.90039,0 -1.5293,0 -12.96484,0 z m 26.45507,0 0,31.01563 4.41993,0 0,-31.01563 -0.5,0 -3.91993,0 z m 9.14063,0 0,31.01563 4.33008,0 0,-12.10547 9.71484,0 c 1.88589,0 3.19152,0.37151 3.95508,1.00781 l 0.002,0.004 0.004,0.002 c 0.76264,0.61503 1.20898,1.80336 1.20898,3.70508 l 0,7.38672 4.46485,0 0,-8.15039 c 0,-1.72505 -0.39714,-3.17536 -1.22266,-4.29883 -0.54648,-0.76337 -1.39504,-1.22354 -2.36914,-1.54492 0.52916,-0.18279 1.18782,-0.29777 1.59766,-0.54688 0.84021,-0.51072 1.43267,-1.18658 1.69922,-2.0039 l 0,-0.002 0.002,-0.002 c 0.47093,-1.47556 0.69726,-3.23393 0.69726,-5.28125 0,-3.28057 -0.71365,-5.6854 -2.27343,-7.11524 l -0.002,-0.002 c -1.51741,-1.41718 -3.90026,-2.06836 -7.08789,-2.06836 l -14.7207,0 z m 54.84375,0 0,31.01563 15.80078,0 c 3.11415,0 5.36523,-0.79785 6.57227,-2.50782 1.15991,-1.64321 1.71093,-3.86615 1.71093,-6.63281 0,-1.99853 -0.30068,-3.60512 -0.95703,-4.82226 -0.55492,-1.05435 -1.70617,-1.77886 -3.1582,-2.33789 1.19036,-0.59752 2.12455,-1.3305 2.50586,-2.33594 0.48051,-1.21883 0.71094,-2.70271 0.71094,-4.45508 0,-2.92098 -0.63827,-5.03549 -2.06641,-6.22852 l -0.002,-0.002 c -1.3659,-1.16488 -3.43759,-1.69336 -6.17188,-1.69336 l -14.94531,0 z m -17.17188,3.51953 1.125,0 c 3.17729,0 5.3882,0.33629 6.53125,0.89453 l 0.002,0.002 0.002,0 c 0.48876,0.23328 0.91591,0.78321 1.22266,1.78711 0.30675,1.0039 0.47265,2.42699 0.47265,4.24218 l 0,2.47461 0,2.47461 c 0,0.83404 -0.0151,1.6679 -0.0449,2.50196 l 0,0.01 0,2.42578 c -0.0442,1.79832 -0.25419,3.21825 -0.60351,4.23828 -0.34892,1.01884 -0.81977,1.61314 -1.37305,1.89649 -1.26889,0.61922 -3.62222,0.98242 -6.97461,0.98242 -2.97408,0 -4.79687,-0.52869 -5.47461,-1.27344 -0.67756,-0.77699 -1.16521,-2.61911 -1.22461,-5.47656 l 0,-0.004 -0.0449,-4.79492 0,-0.0156 0.0898,-5.52149 c 0.0591,-3.22152 0.6189,-5.16179 1.27344,-5.7539 0.75502,-0.65441 2.43662,-1.08985 5.02148,-1.08985 z m -68.98242,0.45118 8.58985,0 c 1.35825,0 2.82004,0.004 4.08789,0.3164 0.61456,0.23128 0.97623,0.542 1.18164,0.94141 0.47711,0.92772 0.75586,2.45326 0.75586,4.54101 0,1.38991 -0.14995,2.48577 -0.42188,3.26758 -0.27193,0.7818 -0.64317,1.23175 -1.10156,1.46094 -1.06732,0.53367 -2.94948,0.84766 -5.58203,0.84766 l -7.50977,0 0,-11.375 z m 35.64063,0 10.43554,0 c 1.1924,0 2.12836,0.13813 2.79493,0.38476 0.66657,0.24664 1.04923,0.57734 1.2539,0.99805 l 0.002,0.002 0.002,0.002 c 0.48037,0.96074 0.75586,2.51838 0.75586,4.63672 0,2.20272 -0.50084,3.53088 -1.32422,4.13867 -0.87736,0.61703 -2.43043,0.98633 -4.6543,0.98633 l -9.26562,0 0,-11.14843 z m 54.88867,0 10.20898,0 c 3.38331,0.0859 4.11472,1.27146 4.13672,4.2246 0,2.09518 -0.43347,3.38025 -1.08594,3.93946 -0.67475,0.57836 -2.09967,0.96094 -4.26562,0.96094 l -8.99414,0 0,-9.125 z m -199.46875,0.0449 9.98437,0 c 1.89615,0 3.45584,0.30576 4.68946,0.89453 l 0.004,0.002 0.006,0.002 c 1.11293,0.50588 1.85198,1.752 2.14063,3.97461 0.1478,1.15278 0.23604,2.32067 0.26562,3.50391 0.0299,1.16562 0.0449,2.34714 0.0449,3.54297 l 0,1.48437 c 0,0.43889 -0.0155,0.89298 -0.0449,1.36329 l 0,0.0156 0,0.0156 c 0,0.43891 -0.0155,0.893 -0.0449,1.36329 l 0,0.002 0,0.002 c -0.0583,1.02075 -0.20358,1.99398 -0.43555,2.92188 -0.22544,0.90175 -0.58532,1.65938 -1.07812,2.28906 l -0.002,0.002 -0.002,0.002 c -0.42085,0.55236 -0.95812,0.93853 -1.65234,1.17968 -0.70943,0.22635 -1.44719,0.36877 -2.2168,0.42578 l -0.0176,0 -0.0156,0.002 c -0.3969,0.0567 -0.79326,0.0859 -1.18945,0.0859 l -1.125,0 -9.31055,0 0,-23.07422 z m 199.89453,13.54297 10.20898,0 c 3.38333,0.0859 4.11472,1.27342 4.13672,4.22656 0,2.09518 -0.43349,3.38024 -1.08593,3.93945 -0.67475,0.57836 -2.09968,0.96094 -4.26563,0.96094 l -8.99414,0 0,-9.12695 z m -143.42773,0.0371 0,3.92382 11.4414,0 0,-3.92382 -10.9414,0 -0.5,0 z"
         style="color:#000000;font-style:normal;font-variant:normal;font-weight:normal;font-stretch:normal;font-size:45px;line-height:125%;font-family:Eurostile-Normal;-inkscape-font-specification:Eurostile-Normal;text-indent:0;text-align:center;text-decoration:none;text-decoration-line:none;text-decoration-style:solid;text-decoration-color:#000000;letter-spacing:0px;word-spacing:0px;text-transform:none;direction:ltr;block-progression:tb;writing-mode:lr-tb;baseline-shift:baseline;text-anchor:middle;clip-rule:nonzero;display:inline;overflow:visible;visibility:visible;opacity:1;isolation:auto;mix-blend-mode:normal;color-interpolation:sRGB;color-interpolation-filters:linearRGB;solid-color:#000000;solid-opacity:1;fill:#ffffff;fill-opacity:1;fill-rule:nonzero;stroke:none;stroke-width:1px;stroke-linecap:butt;stroke-linejoin:miter;stroke-miterlimit:4;stroke-dasharray:none;stroke-dashoffset:0;stroke-opacity:1;color-rendering:auto;image-rendering:auto;shape-rendering:auto;text-rendering:auto;enable-background:accumulate" />
      <path
         inkscape:connector-curvature="0"
         id="path4623"
         d="m 209.83618,287.2154 c -2.19888,0 -3.48899,0.60271 -3.86904,1.81073 -0.36648,1.19446 -0.54834,2.71463 -0.54834,4.56059 l 0,0.79386 0,1.32379 c 0,0.44792 0.007,0.89632 0.0204,1.34424 0.095,1.72381 0.53654,2.82314 1.32379,3.2982 0.80083,0.47506 1.96697,0.71202 3.50075,0.71202 l 0.28439,0 c 0.095,0 0.19833,0.007 0.30691,0.0204 l 0.14118,0 0.16368,0 0.14322,0 0.16163,0 c 1.71024,0 2.88533,-0.32443 3.52327,-0.97596 0.65152,-0.66509 0.99662,-1.82639 1.03734,-3.48234 0.0272,-0.80082 0.041,-1.60121 0.041,-2.40203 l 0,-2.4225 c 0,-2.13101 -0.46702,-3.428 -1.40358,-3.88951 -0.93655,-0.46149 -2.32104,-0.69155 -4.15343,-0.69155 l -0.67314,0 z m -115.760191,0.0409 c -1.80525,0 -3.04715,0.38642 -3.72582,1.1601 -0.66508,0.77368 -0.99845,2.05001 -0.99845,3.82812 l 0,0.93504 0,0.91662 c -0.0136,0.31218 -0.0205,0.62488 -0.0205,0.93708 l 0,0.93708 c 0,2.09029 0.39331,3.46099 1.18057,4.11251 0.80082,0.63795 2.28859,0.9555 4.46033,0.9555 0.47507,0 0.94208,-0.007 1.40358,-0.0204 0.4615,-0.0136 0.92367,-0.0391 1.38517,-0.0798 1.27588,-0.13574 2.06249,-0.62547 2.361101,-1.46701 0.29862,-0.85511 0.44809,-1.79808 0.44809,-2.82966 l 0,-0.978 0,-0.73247 c 0,-0.24433 -0.0138,-0.48816 -0.0409,-0.73248 l -5.823011,0 0,1.32378 4.31713,0 0,1.20101 c 0,1.2759 -0.19768,2.09006 -0.59131,2.44297 -0.39362,0.33933 -1.24221,0.50946 -2.54525,0.50946 l -0.79386,0 -0.54833,0 c -0.17645,0 -0.35347,-0.007 -0.52993,-0.0204 -0.17645,0 -0.36035,-0.007 -0.55038,-0.0204 -0.17645,-0.0136 -0.35142,-0.0342 -0.52788,-0.0614 -0.99086,-0.1493 -1.57494,-0.57016 -1.75139,-1.2624 -0.17647,-0.70581 -0.26599,-1.46692 -0.26599,-2.28131 l -0.0204,-1.9335 0.0204,-1.77187 c 0.0272,-1.60165 0.21793,-2.61832 0.57084,-3.05267 0.36648,-0.44792 1.27016,-0.67314 2.70894,-0.67314 0.47506,0 0.94208,0.007 1.40357,0.0204 0.47508,0 0.94414,0.0138 1.40563,0.041 0.92297,0.0407 1.48641,0.29145 1.69002,0.75294 0.21717,0.46149 0.32532,1.10069 0.32532,1.91508 l 1.505881,0 0,-0.50946 c 0,-1.11301 -0.24384,-1.96849 -0.732491,-2.56572 -0.47507,-0.59723 -1.29611,-0.91682 -2.46341,-0.95754 l -0.81432,0 c -0.27147,-0.0136 -0.54285,-0.0204 -0.81432,-0.0204 -0.27148,-0.0136 -0.54286,-0.0185 -0.81432,-0.0185 l -0.81432,0 z m 206.319441,0.0962 c -1.61522,0 -2.69388,0.31271 -3.23681,0.93709 -0.54293,0.62437 -0.81433,1.74436 -0.81433,3.35958 l 1.42405,0 0,-0.24348 c 0,-0.0815 0.007,-0.16408 0.0204,-0.24553 l 0,-0.24348 0,-0.24347 0,-0.14322 0,-0.14322 c 0.0136,-0.21718 0.0481,-0.42658 0.10231,-0.63018 0.0543,-0.21717 0.14867,-0.40796 0.28439,-0.57084 0.17646,-0.17644 0.40858,-0.29836 0.69361,-0.36624 0.28504,-0.0814 0.58397,-0.12967 0.89616,-0.14322 0.095,-0.0136 0.18249,-0.0204 0.26393,-0.0204 l 0.28441,0 0.55038,0 0.57084,0 c 0.19002,0 0.37187,0.007 0.54834,0.0204 l 0.57084,0 c 0.80082,0.0407 1.30227,0.24528 1.50588,0.61176 0.21716,0.35291 0.32532,0.90945 0.32532,1.66956 0,1.09943 -0.16119,1.78479 -0.48696,2.05625 -0.31218,0.2715 -1.02508,0.41408 -2.1381,0.42763 l -0.44809,0 -0.42761,0 c -0.14931,0.0136 -0.29878,0.0204 -0.44808,0.0204 l -0.42762,0 0,1.30332 1.87416,0 c 1.00442,0 1.71528,0.12881 2.13606,0.3867 0.42077,0.24432 0.63222,0.90901 0.63222,1.99488 0,1.16731 -0.17701,1.9126 -0.52993,2.23835 -0.3529,0.32576 -1.13262,0.48901 -2.34065,0.48901 l -0.55038,0 c -0.17645,-0.0136 -0.35347,-0.0204 -0.52992,-0.0204 l -0.54834,0 c -0.17645,-0.0135 -0.36035,-0.0204 -0.55038,-0.0204 -0.88227,-0.0272 -1.43881,-0.23655 -1.66956,-0.63018 -0.23075,-0.39363 -0.34579,-0.98461 -0.34579,-1.77186 l 0,-0.79386 -1.48745,0 c -0.0135,0.13573 -0.0185,0.27143 -0.0185,0.40716 l 0,0.40716 c 0,1.76453 0.46701,2.82457 1.40358,3.17748 0.95012,0.35291 2.1507,0.52787 3.60305,0.52787 0.44792,0 0.89632,-0.0138 1.34424,-0.0409 0.44791,-0.0136 0.89632,-0.046 1.34425,-0.10026 1.12658,-0.1493 1.81193,-0.61148 2.05626,-1.38516 0.25789,-0.77368 0.38669,-1.61538 0.38669,-2.5248 0,-1.00443 -0.17701,-1.72421 -0.52992,-2.15856 -0.33934,-0.43434 -1.01091,-0.71951 -2.01534,-0.85524 l 0.0818,0 c 0.0272,-0.0136 0.0478,-0.0204 0.0614,-0.0204 0.31219,-0.0543 0.60424,-0.128 0.87571,-0.22302 0.28503,-0.095 0.52887,-0.27203 0.73247,-0.52992 0.17644,-0.23075 0.29836,-0.48147 0.36624,-0.75293 0.0815,-0.28504 0.13651,-0.5702 0.16368,-0.85525 0.0136,-0.16287 0.0204,-0.31923 0.0204,-0.46854 l 0,-0.44808 c 0,-1.71023 -0.46906,-2.7083 -1.40561,-2.99334 -0.92299,-0.29861 -2.09601,-0.44808 -3.52122,-0.44808 l -0.65269,0 z m 53.15172,0 c -0.35393,0 -0.70793,0.0137 -1.06188,0.0409 -0.34033,0.0136 -0.68749,0.041 -1.04143,0.0818 -1.4294,0.17697 -2.27914,0.68161 -2.55141,1.51201 -0.25864,0.83041 -0.38874,1.87187 -0.38874,3.12429 l 1.49156,0 -0.0204,-0.59335 0,-0.1023 0,-0.1023 c 0,-0.55814 0.0664,-1.08128 0.20255,-1.57135 0.13614,-0.49008 0.53122,-0.803 1.18466,-0.93913 0.17697,-0.0409 0.355,-0.0682 0.53196,-0.0818 l 0.57084,-0.041 c 0.17696,-0.0136 0.355,-0.0204 0.53197,-0.0204 l 0.55038,0 c 1.30687,0 2.1792,0.15544 2.61483,0.46854 0.43562,0.31311 0.65267,1.15121 0.65267,2.51253 0,1.26603 -0.2102,2.04935 -0.63221,2.34884 -0.4084,0.29949 -1.10955,0.49601 -2.10332,0.5913 -0.12252,0.0136 -0.2526,0.0273 -0.38875,0.041 -0.12251,0.0136 -0.25946,0.0273 -0.4092,0.0409 -0.0544,0 -0.10717,0.007 -0.16164,0.0204 l -0.14322,0 c -1.3477,0.13612 -2.43026,0.39427 -3.24705,0.77544 -0.81679,0.38118 -1.22557,1.40209 -1.22557,3.06291 l 0,2.53298 9.80252,0 0,-1.26649 -8.27004,0 c 0,-0.0953 -0.007,-0.19115 -0.0204,-0.28644 l 0,-0.28441 c -0.0136,-0.0817 -0.0204,-0.17068 -0.0204,-0.26597 l 0,-0.28645 c 0,-1.2388 0.36085,-1.98104 1.08235,-2.22608 0.73512,-0.25863 1.58486,-0.41406 2.5514,-0.46853 l 0.36828,0 c 0.13613,-0.0136 0.26418,-0.0273 0.3867,-0.0409 0.54452,-0.0409 1.07655,-0.12302 1.59386,-0.24553 0.5173,-0.12252 0.97881,-0.35328 1.3872,-0.6936 0.35395,-0.31311 0.59361,-0.6808 0.71612,-1.10281 0.13611,-0.42201 0.21828,-0.85132 0.24551,-1.28695 0.0136,-0.16336 0.0204,-0.32565 0.0204,-0.48901 l 0,-0.47058 c 0,-1.85139 -0.38139,-3.0298 -1.14372,-3.53349 -0.76235,-0.50369 -1.98184,-0.75499 -3.65627,-0.75499 z m 11.8506,0 c -0.13613,0 -0.27307,0.007 -0.40921,0.0204 l -0.38874,0 c -0.34033,0.0136 -0.68063,0.0409 -1.02097,0.0818 -0.32671,0.0272 -0.64648,0.10939 -0.95958,0.24552 -0.66705,0.28588 -1.18334,0.73369 -1.5509,1.34628 -0.35392,0.59898 -0.55933,1.26111 -0.6138,1.98261 -0.0273,0.50369 -0.0478,1.00627 -0.0614,1.50996 l 0,1.53249 0,1.0005 0,1.24399 c 0.0136,0.40838 0.041,0.81717 0.0818,1.22557 0.12251,1.5383 0.64769,2.52498 1.57339,2.9606 0.92569,0.422 2.04932,0.64111 3.3698,0.65472 l 1.08031,-0.0204 0.79795,0 c 0.27226,0 0.53725,-0.0137 0.79591,-0.0409 1.33408,-0.068 2.30023,-0.44946 2.89922,-1.14373 0.59896,-0.70789 0.91873,-1.70143 0.95958,-2.98106 0.0136,-0.47647 0.0204,-0.94687 0.0204,-1.40972 0.0136,-0.46285 0.0204,-0.92436 0.0204,-1.38721 l 0,-0.49104 0,-0.49105 c -0.0136,-0.16336 -0.0204,-0.3188 -0.0204,-0.46854 l 0,-0.49104 c -0.0817,-2.27341 -0.55687,-3.65519 -1.42812,-4.14526 -0.85762,-0.49008 -2.31471,-0.73453 -4.37032,-0.73453 l -0.4092,0 -0.36624,0 z m -203.45705,0.004 0,13.58154 1.54885,0 0,-13.58154 -1.54885,0 z m 82.87641,0 0,13.58154 1.40563,0 -0.0818,-1.20102 c 0.32576,0.48864 0.74662,0.81997 1.2624,0.99642 0.52936,0.16291 1.07214,0.25039 1.62863,0.26393 l 0.0614,0 0.0818,0 c 1.79168,0 2.88411,-0.46012 3.27773,-1.38311 0.39363,-0.93656 0.58926,-2.13714 0.58926,-3.60306 0,-1.53379 -0.23006,-2.70197 -0.69156,-3.5028 -0.4615,-0.81439 -1.54015,-1.22147 -3.23681,-1.22147 l -0.24553,0 c -0.0815,0 -0.16203,0.007 -0.24347,0.0204 -0.48865,0.0408 -0.95772,0.15576 -1.40563,0.34579 -0.43435,0.17645 -0.76565,0.50294 -0.99642,0.978 l 0,-5.27466 -1.40562,0 z m -61.19874,0.002 0,13.5795 1.44654,0 0,-13.5795 -1.44654,0 z m 147.39792,0.0143 c -0.21717,0 -0.44035,0.007 -0.67109,0.0204 l -0.67315,0 c -0.23075,0.0136 -0.46081,0.0342 -0.69156,0.0614 -0.21717,0.0272 -0.44035,0.0615 -0.67109,0.10229 -0.89585,0.16289 -1.53503,0.55619 -1.91508,1.18056 -0.38005,0.62438 -0.5688,1.35794 -0.5688,2.19949 l 0,0.75294 c 0,0.24431 0.007,0.49504 0.0204,0.75294 l 0,0.77339 0,0.73453 -0.0409,2.46342 c 0,1.96813 0.3933,3.2493 1.18055,3.84653 0.78726,0.58365 2.10286,0.8757 3.94884,0.8757 0.39363,0 0.78898,-0.007 1.1826,-0.0204 0.39364,0 0.78005,-0.0207 1.16009,-0.0614 1.11303,-0.095 1.82593,-0.5207 2.13811,-1.28081 0.32575,-0.7601 0.5007,-1.58803 0.52788,-2.48388 l 0,-0.22506 0,-0.24348 c 0,-1.77811 -0.35198,-2.90497 -1.0578,-3.38004 -0.70582,-0.48864 -1.88089,-0.73248 -3.52326,-0.73248 l -0.46649,0 c -0.16289,0 -0.31924,0.007 -0.46855,0.0204 -0.32576,0 -0.64535,0.0186 -0.95754,0.0593 -0.31218,0.0407 -0.618,0.10958 -0.91662,0.2046 -0.25789,0.0814 -0.47418,0.20336 -0.65064,0.36624 -0.17646,0.1493 -0.3397,0.33321 -0.489,0.55038 l 0,-2.77032 0,-0.32532 c 0,-0.10859 0.007,-0.22362 0.0204,-0.34578 0.0135,-0.17645 0.0411,-0.35347 0.0818,-0.52992 0.0408,-0.17646 0.10065,-0.3397 0.1821,-0.48901 0.16288,-0.27146 0.42049,-0.4602 0.7734,-0.56879 0.35291,-0.10856 0.72759,-0.17743 1.12123,-0.2046 0.16287,-0.0136 0.31718,-0.0204 0.46649,-0.0204 0.16289,-0.0136 0.31923,-0.0204 0.46853,-0.0204 l 0.48901,0 c 0.28504,0 0.57019,0.007 0.85524,0.0204 0.2986,0 0.59754,0.0207 0.89616,0.0614 0.61079,0.0814 0.98343,0.33904 1.11918,0.77339 0.13572,0.42078 0.2046,0.88984 0.2046,1.40563 l 1.48542,0 0,-0.10231 c 0.0135,-0.0407 0.0204,-0.0821 0.0204,-0.12276 l 0,-0.10025 0,-0.12277 c 0,-1.49306 -0.47391,-2.37609 -1.42404,-2.64756 -0.95014,-0.28503 -2.00328,-0.42761 -3.15702,-0.42761 z m 47.33283,0.0614 -3.75857,4.10434 0.95959,0.8982 3.49257,-3.83834 0,12.45621 1.43018,0 0,-13.62041 -2.12377,0 z m 14.01324,0 -6.86033,8.67925 0,1.79642 7.69716,0 0,3.14474 1.45062,0 0,-3.14474 2.04194,0 0,-1.28696 -2.04194,0 0,-9.18871 -2.28745,0 z m -103.92391,0.041 -3.74628,4.09206 0.95754,0.89615 3.4803,-3.82811 0,12.41939 1.42607,0 0,-13.57949 -2.11763,0 z m 29.70423,0 -3.74628,4.09206 0.95755,0.89615 3.48234,-3.82811 0,12.41939 1.42402,0 0,-13.57949 -2.11763,0 z m 75.05651,0.95959 0,8.1882 -6.41226,0 6.41226,-8.1882 z m -183.11749,0.0634 0.50742,0 c 1.45235,0 2.47106,0.14257 3.05472,0.42761 0.59722,0.28504 0.89615,1.2604 0.89615,2.92991 l 0,1.12123 0,1.11918 c 0,0.38004 -0.007,0.75958 -0.0204,1.13963 l 0,1.10076 c -0.0407,1.65596 -0.38099,2.64713 -1.01893,2.97288 -0.63795,0.3122 -1.72348,0.4665 -3.25727,0.4665 -1.3709,0 -2.25189,-0.21629 -2.64552,-0.65063 -0.38004,-0.43435 -0.5846,-1.3105 -0.61176,-2.62711 l -0.0204,-2.17697 0.0409,-2.50434 c 0.0272,-1.47949 0.24344,-2.40384 0.65064,-2.77033 0.42078,-0.36647 1.2301,-0.54832 2.42454,-0.54832 z m 155.35492,0.14117 1.51202,0 c 1.37494,0 2.29316,0.21021 2.756,0.63222 0.47647,0.4084 0.71612,1.30813 0.71612,2.69667 l 0,2.20561 0,2.36726 c 0,1.443 -0.27389,2.35641 -0.81842,2.73759 -0.54452,0.36755 -1.36004,0.55038 -2.44909,0.55038 l -0.73453,0 c -0.24504,-0.0136 -0.48468,-0.0273 -0.71611,-0.041 l -0.16369,0 -0.14117,0 c -0.19058,-0.0136 -0.38915,-0.0204 -0.59334,-0.0204 -0.19059,-0.0136 -0.38027,-0.0204 -0.57085,-0.0204 -0.9257,-0.0409 -1.53305,-0.35375 -1.81891,-0.93913 -0.27226,-0.59898 -0.42085,-1.29329 -0.44809,-2.08285 l -0.0204,-2.5514 0,-0.69565 0,-0.73453 0,-0.6936 c 0.0136,-0.24503 0.0273,-0.48468 0.041,-0.71611 0.0409,-1.29325 0.38116,-2.06084 1.02097,-2.30587 0.63982,-0.25866 1.44849,-0.38874 2.42863,-0.38874 z m -199.50207,0.50946 0,2.29974 -1.24194,0 0,1.12121 1.24194,0 0,5.84347 c 0,1.00442 0.19767,1.69666 0.59131,2.07671 0.39361,0.38005 1.11825,0.5688 2.17696,0.5688 1.20804,0 1.96226,-0.33132 2.26087,-0.99642 0.29861,-0.66509 0.44808,-1.49302 0.44808,-2.48387 l -1.34424,0 0,0.63017 c 0,0.50221 -0.0669,0.90929 -0.20256,1.22148 -0.12217,0.31219 -0.50374,0.46854 -1.14169,0.46854 -0.57007,0 -0.93583,-0.10814 -1.09872,-0.32532 -0.16287,-0.23075 -0.24348,-0.61716 -0.24348,-1.16009 l 0,-5.84347 3.66445,0 0,-1.12121 -3.66445,0 0,-2.29974 -1.44653,0 z m 61.86167,0 0,2.29974 -1.24194,0 0,1.12121 1.24194,0 0,5.84347 c 0,1.00442 0.19562,1.69666 0.58925,2.07671 0.39362,0.38005 1.1203,0.5688 2.17903,0.5688 1.20801,0 1.96225,-0.33132 2.26085,-0.99642 0.29861,-0.66509 0.44604,-1.49302 0.44604,-2.48387 l -1.3422,0 0,0.63017 c 0,0.50221 -0.0688,0.90929 -0.2046,1.22148 -0.12217,0.31219 -0.50169,0.46854 -1.13964,0.46854 -0.57009,0 -0.93583,-0.10814 -1.09871,-0.32532 -0.16289,-0.23075 -0.24554,-0.61716 -0.24554,-1.16009 l 0,-5.84347 3.66445,0 0,-1.12121 -3.66445,0 0,-2.29974 -1.44448,0 z m -110.71264,2.07671 c -0.65153,0 -1.26111,0.0944 -1.8312,0.28441 -0.57007,0.17645 -1.03913,0.55802 -1.40562,1.14168 l 0,-1.22148 -1.32377,0 0,9.50789 1.42607,0 0,-5.82299 c 0,-0.96371 0.24384,-1.65595 0.73248,-2.07672 0.48864,-0.42078 1.18777,-0.63223 2.09719,-0.63223 0.9637,0 1.59599,0.15636 1.89461,0.46855 0.29861,0.31218 0.44604,0.94244 0.44604,1.89258 l 0,6.17081 1.44654,0 0,-6.29153 c 0,-1.28947 -0.2576,-2.17938 -0.7734,-2.66803 -0.51578,-0.5022 -1.41948,-0.75294 -2.70894,-0.75294 z m 9.86799,0.041 c -1.73739,0 -2.85048,0.37265 -3.33912,1.11918 -0.47507,0.74654 -0.71201,1.92851 -0.71201,3.54373 l 0,0.89615 c 0,1.77811 0.31754,2.93048 0.9555,3.45984 0.65152,0.52936 1.82659,0.79386 3.52326,0.79386 1.95454,0 3.09519,-0.48079 3.42095,-1.4445 0.33934,-0.9637 0.50742,-2.22626 0.50742,-3.7872 0,-1.79168 -0.27139,-2.99914 -0.81433,-3.62352 -0.54293,-0.63794 -1.72284,-0.95754 -3.54167,-0.95754 z m 111.45534,0 c -1.73739,0 -2.85048,0.37265 -3.33911,1.11918 -0.47507,0.74654 -0.71201,1.92851 -0.71201,3.54373 l 0,0.89615 c 0,1.77811 0.31959,2.93048 0.95753,3.45984 0.65153,0.52936 1.82455,0.79386 3.52122,0.79386 1.95454,0 3.0952,-0.48079 3.42095,-1.4445 0.33934,-0.9637 0.50947,-2.22626 0.50947,-3.7872 0,-1.79168 -0.27139,-2.99914 -0.81432,-3.62352 -0.54293,-0.63794 -1.7249,-0.95754 -3.54373,-0.95754 z m -132.29618,0.0204 c -1.88669,0 -3.03218,0.44152 -3.43938,1.32378 -0.40719,0.88227 -0.61176,2.1517 -0.61176,3.80766 0,1.72381 0.26451,2.9244 0.79387,3.60305 0.52935,0.67867 1.68377,1.01688 3.46186,1.01688 1.20804,0 2.18544,-0.14946 2.93197,-0.44808 0.74653,-0.29862 1.11917,-1.14517 1.11917,-2.54321 l -1.46495,0 0,0.30485 0,0.1821 c 0,0.0679 -0.007,0.12988 -0.0204,0.18415 -0.0136,0.16287 -0.0481,0.32611 -0.1023,0.489 -0.0408,0.1493 -0.13026,0.27122 -0.26599,0.36623 -0.13573,0.095 -0.29692,0.16876 -0.48695,0.22302 -0.19002,0.0543 -0.3877,0.0887 -0.59131,0.1023 -0.17645,0.0272 -0.34658,0.041 -0.50945,0.041 l -0.42763,0 -0.38669,0 c -1.2759,0 -2.02807,-0.3196 -2.25882,-0.95754 -0.21716,-0.63795 -0.32737,-1.48654 -0.32737,-2.54526 l 6.84192,0 0,-0.71201 c -0.0136,-1.76455 -0.28496,-2.94445 -0.81431,-3.54169 -0.51579,-0.59722 -1.66332,-0.89615 -3.44142,-0.89615 z m 164.46793,0.0368 c -0.54293,0 -1.04438,0.10126 -1.50587,0.30486 -0.44792,0.2036 -0.81573,0.54386 -1.10077,1.01892 l 0.0614,-1.10077 -1.38311,0 0,9.5079 1.42404,0 0,-5.82095 0,-0.50946 c 0,-0.74654 0.1839,-1.30309 0.55038,-1.66956 0.38004,-0.36648 0.9366,-0.55038 1.66956,-0.55038 0.5565,0 0.97046,0.10126 1.24193,0.30485 0.28504,0.20361 0.42763,0.59691 0.42763,1.18057 l 0,0.36828 c 0,0.12216 -0.007,0.23719 -0.0204,0.34578 l 1.38311,0 c 0.0136,-0.10859 0.0204,-0.205 0.0204,-0.28644 l 0,-0.2844 c 0,-0.95014 -0.22317,-1.65615 -0.67109,-2.11764 -0.43435,-0.46149 -1.13347,-0.69156 -2.09719,-0.69156 z m -48.57271,0.005 c -1.68309,0 -2.80307,0.35887 -3.35958,1.07825 -0.5565,0.70582 -0.83478,1.86713 -0.83478,3.48235 0,1.7781 0.19769,3.07994 0.5913,3.9079 0.4072,0.81441 1.61468,1.22149 3.62353,1.22149 1.43877,0 2.46233,-0.2163 3.07313,-0.65064 0.6108,-0.44792 0.91662,-1.40466 0.91662,-2.87058 l -1.40357,0 c 0,1.08587 -0.1908,1.75745 -0.57085,2.01534 -0.38005,0.24432 -1.09985,0.36624 -2.15855,0.36624 -1.23518,0 -1.97358,-0.26451 -2.2179,-0.79386 -0.24432,-0.54293 -0.36828,-1.3502 -0.36828,-2.4225 l 0,-0.95754 c 0,-1.35733 0.16324,-2.23347 0.48899,-2.6271 0.32576,-0.40719 1.11925,-0.60971 2.38158,-0.60971 0.82796,0 1.41207,0.1288 1.7514,0.38669 0.35291,0.2579 0.52993,0.81444 0.52993,1.66956 l 1.38515,0 0,-0.0818 c 0,-0.0271 0.007,-0.0546 0.0204,-0.0818 l 0,-0.0593 0,-0.0818 c 0,-1.26232 -0.38158,-2.05582 -1.14168,-2.38158 -0.76011,-0.33933 -1.66175,-0.50946 -2.7069,-0.50946 z m 38.23005,0.0777 c -1.8867,0 -3.03217,0.44152 -3.43939,1.32379 -0.40719,0.88226 -0.61175,2.14966 -0.61175,3.80561 0,1.72381 0.2645,2.92644 0.79386,3.6051 0.52936,0.67867 1.68377,1.01687 3.46188,1.01687 1.20802,0 2.18542,-0.14946 2.93196,-0.44807 0.74653,-0.29862 1.11917,-1.14721 1.11917,-2.54526 l -1.46496,0 0,0.30691 0,0.18209 c 0,0.0679 -0.007,0.12988 -0.0204,0.18414 -0.0136,0.16288 -0.0481,0.32613 -0.10231,0.489 -0.0407,0.14931 -0.12822,0.27123 -0.26394,0.36624 -0.13573,0.095 -0.29897,0.16875 -0.489,0.22302 -0.19001,0.0544 -0.3877,0.0887 -0.5913,0.1023 -0.17645,0.0272 -0.34454,0.0409 -0.50742,0.0409 l -0.42761,0 -0.38874,0 c -1.2759,0 -2.02808,-0.31959 -2.25883,-0.95754 -0.21718,-0.63794 -0.32531,-1.48654 -0.32531,-2.54525 l 6.83987,0 0,-0.71202 c -0.0136,-1.76453 -0.28497,-2.94445 -0.81432,-3.54167 -0.51579,-0.59723 -1.66331,-0.89617 -3.44141,-0.89617 z m -114.9377,0.005 c -1.07228,0 -1.96705,0.1357 -2.68643,0.40717 -0.71939,0.25788 -1.0803,1.04449 -1.0803,2.36111 l 1.467,0 c -0.0136,-0.0543 -0.0204,-0.10251 -0.0204,-0.14323 l 0,-0.14117 0,-0.12276 c 0,-0.0543 0.007,-0.10251 0.0204,-0.14322 0.0136,-0.16289 0.0481,-0.31235 0.10231,-0.44808 0.0543,-0.14931 0.14866,-0.27123 0.28439,-0.36624 0.12217,-0.0951 0.27163,-0.16875 0.44808,-0.22302 0.17645,-0.0544 0.3652,-0.0887 0.5688,-0.10231 0.13573,-0.0136 0.27831,-0.0204 0.42762,-0.0204 0.14931,-0.0136 0.27812,-0.0204 0.3867,-0.0204 1.16731,0 1.91464,0.14258 2.2404,0.42762 0.32576,0.28504 0.489,1.01171 0.489,2.17902 l 0,1.13964 c -0.0815,-0.14932 -0.17581,-0.27812 -0.2844,-0.3867 -0.10858,-0.12219 -0.23943,-0.20967 -0.38874,-0.26394 -0.21718,-0.0814 -0.44724,-0.14343 -0.69157,-0.18414 -0.23073,-0.0544 -0.46769,-0.0887 -0.71201,-0.1023 -0.16289,-0.0136 -0.32613,-0.0204 -0.489,-0.0204 -0.16289,-0.0136 -0.31924,-0.0204 -0.46855,-0.0204 -1.07228,0 -1.96016,0.16324 -2.66597,0.489 -0.69223,0.32576 -1.03937,1.11926 -1.03937,2.38158 0,1.30304 0.33336,2.13302 0.99845,2.48592 0.6651,0.33933 1.58052,0.50742 2.74782,0.50742 0.62438,0 1.20847,-0.053 1.7514,-0.16164 0.5565,-0.12216 1.03729,-0.44175 1.4445,-0.95754 l -0.0593,0.978 1.32173,0 0,-6.18924 c 0,-1.49305 -0.35887,-2.4243 -1.07826,-2.79077 -0.70582,-0.36649 -1.71763,-0.54834 -3.03426,-0.54834 z m 31.06485,0 c -1.07228,0 -1.96704,0.1357 -2.68643,0.40717 -0.71938,0.25788 -1.0803,1.04449 -1.0803,2.36111 l 1.467,0 c -0.0135,-0.0543 -0.0204,-0.10251 -0.0204,-0.14323 l 0,-0.14117 0,-0.12276 c 0,-0.0543 0.007,-0.10251 0.0204,-0.14322 0.0136,-0.16289 0.046,-0.31235 0.10026,-0.44808 0.0543,-0.14931 0.15071,-0.27123 0.28644,-0.36624 0.12216,-0.0951 0.27162,-0.16875 0.44807,-0.22302 0.17646,-0.0544 0.36521,-0.0887 0.56881,-0.10231 0.13573,-0.0136 0.27831,-0.0204 0.42762,-0.0204 0.14929,-0.0136 0.2781,-0.0204 0.3867,-0.0204 1.1673,0 1.91463,0.14258 2.2404,0.42762 0.32576,0.28504 0.489,1.01171 0.489,2.17902 l 0,1.13964 c -0.0815,-0.14932 -0.17582,-0.27812 -0.2844,-0.3867 -0.1086,-0.12219 -0.23945,-0.20967 -0.38874,-0.26394 -0.21719,-0.0814 -0.44724,-0.14343 -0.69156,-0.18414 -0.23075,-0.0544 -0.46771,-0.0887 -0.71202,-0.1023 -0.16288,-0.0136 -0.32613,-0.0204 -0.489,-0.0204 -0.16289,-0.0136 -0.31924,-0.0204 -0.46855,-0.0204 -1.07228,0 -1.96015,0.16324 -2.66597,0.489 -0.69224,0.32576 -1.03938,1.11926 -1.03938,2.38158 0,1.30304 0.33337,2.13302 0.99846,2.48592 0.66509,0.33933 1.58051,0.50742 2.74782,0.50742 0.62438,0 1.20847,-0.053 1.7514,-0.16164 0.5565,-0.12216 1.03729,-0.44175 1.44449,-0.95754 l -0.0614,0.978 1.32378,0 0,-6.18924 c 0,-1.49305 -0.35886,-2.4243 -1.07825,-2.79077 -0.70582,-0.36649 -1.71766,-0.54834 -3.03427,-0.54834 z m -44.3047,0.0204 3.15498,9.5079 1.99488,0 3.17749,-9.5079 -1.54885,0 -2.60459,8.4276 -2.7294,-8.4276 -1.44451,0 z m 54.17475,0 3.44142,9.5079 0.50946,0 c -0.0408,0.16287 -0.089,0.34678 -0.14323,0.55038 -0.0407,0.21717 -0.0958,0.44035 -0.16368,0.6711 -0.12215,0.46149 -0.3109,0.88235 -0.5688,1.2624 -0.24431,0.39362 -0.61211,0.5913 -1.10076,0.5913 l -0.14117,0 c -0.0408,0 -0.0821,-0.007 -0.12276,-0.0204 -0.0407,0 -0.0889,-0.007 -0.14323,-0.0204 l -0.12071,0 0,1.13964 c 0.10858,0.0272 0.21672,0.0478 0.32531,0.0614 0.12217,0.0272 0.2372,0.0409 0.34578,0.0409 0.95014,0 1.64238,-0.33337 2.07672,-0.99846 0.44793,-0.65153 0.78818,-1.3782 1.01892,-2.17902 0.0272,-0.095 0.0458,-0.18939 0.0593,-0.2844 0.0271,-0.095 0.0547,-0.1825 0.0818,-0.26394 l 2.68847,-10.05828 -1.467,0 -2.15855,8.46852 -2.97083,-8.46852 -1.44655,0 z m -79.99971,0.9555 c 1.24876,0 2.00781,0.19767 2.27928,0.5913 0.28503,0.39363 0.42761,1.18023 0.42761,2.36112 l -5.39538,0 c 0,-1.15372 0.17013,-1.93346 0.50947,-2.34065 0.35291,-0.40721 1.07958,-0.61177 2.17902,-0.61177 z m 142.63477,0.041 c 1.34375,0 2.12553,0.31271 2.3427,0.93708 0.23074,0.62437 0.34578,1.51224 0.34578,2.66598 0,0.31218 -0.007,0.62489 -0.0204,0.93707 -0.0136,0.29862 -0.0411,0.60444 -0.0818,0.91663 -0.095,0.80083 -0.32507,1.32983 -0.69155,1.58772 -0.36648,0.25789 -0.93681,0.38669 -1.71049,0.38669 -1.30304,0 -2.09653,-0.27827 -2.38157,-0.83478 -0.27147,-0.57008 -0.40717,-1.43244 -0.40717,-2.58618 l 0,-0.52787 -0.002,0 c 0,-1.09945 0.13085,-1.95492 0.38874,-2.56572 0.2579,-0.61079 0.99631,-0.91662 2.2179,-0.91662 z m -121.7346,0.0204 0.30691,0 c 1.16731,0 1.85956,0.25073 2.07672,0.75294 0.21718,0.50222 0.32532,1.33704 0.32532,2.50434 l 0,0.55038 c 0,0.17645 -0.007,0.35346 -0.0204,0.52992 0,0.19003 -0.007,0.37189 -0.0204,0.54834 0,0.17646 -0.007,0.36036 -0.0205,0.55038 -0.0543,0.89584 -0.30501,1.45927 -0.75293,1.69002 -0.43435,0.23074 -1.06665,0.34577 -1.89463,0.34577 l -0.65063,0 -0.16368,0 -0.14118,0 c -0.24431,-0.0136 -0.47642,-0.048 -0.6936,-0.10229 -0.21718,-0.0543 -0.39903,-0.14868 -0.54834,-0.28441 -0.17645,-0.19002 -0.30526,-0.46141 -0.3867,-0.81431 -0.0814,-0.35291 -0.13651,-0.72556 -0.16368,-1.11918 -0.0136,-0.14931 -0.0204,-0.29878 -0.0204,-0.44808 l 0,-0.44808 0,-0.79386 0,-0.3069 c 0,-1.34376 0.14947,-2.20408 0.44809,-2.58414 0.31219,-0.38005 1.08501,-0.57084 2.32019,-0.57084 z m 111.45741,0 0.30484,0 c 1.16732,0 1.85956,0.25073 2.07672,0.75294 0.21718,0.50222 0.32533,1.33704 0.32533,2.50434 l 0,0.55038 c 0,0.17645 -0.007,0.35346 -0.0204,0.52992 0,0.19003 -0.007,0.37189 -0.0204,0.54834 0,0.17646 -0.007,0.36036 -0.0204,0.55038 -0.0543,0.89584 -0.30502,1.45927 -0.75293,1.69002 -0.43435,0.23074 -1.0646,0.34577 -1.89257,0.34577 l -0.65269,0 -0.16164,0 -0.14323,0 c -0.24431,-0.0136 -0.47438,-0.048 -0.69155,-0.10229 -0.21717,-0.0543 -0.40108,-0.14868 -0.55038,-0.28441 -0.17645,-0.19002 -0.30526,-0.46141 -0.3867,-0.81431 -0.0814,-0.35291 -0.13652,-0.72556 -0.16368,-1.11918 -0.0136,-0.14931 -0.0185,-0.29878 -0.0185,-0.44808 l 0,-0.44808 0,-0.79386 -0.002,0 0,-0.3069 c 0,-1.34376 0.14948,-2.20408 0.44809,-2.58414 0.31219,-0.38005 1.08707,-0.57084 2.32225,-0.57084 z m 21.76768,0.0573 c 1.24876,0 2.00986,0.19769 2.28133,0.5913 0.28503,0.39363 0.42762,1.18025 0.42762,2.36113 l -5.39539,0 c 0,-1.15374 0.16809,-1.93345 0.50742,-2.34066 0.35291,-0.4072 1.07958,-0.61177 2.17902,-0.61177 z m 70.41406,1.50588 0.50947,0 c 1.52021,0 2.42184,0.21145 2.70689,0.63222 0.28504,0.40721 0.42763,1.29712 0.42763,2.66803 -2e-5,1.19445 -0.23696,1.91908 -0.71203,2.17697 -0.47506,0.25789 -1.27545,0.3867 -2.40203,0.3867 l -0.67314,0 c -1.4795,0 -2.38803,-0.23695 -2.72737,-0.71202 -0.32574,-0.47506 -0.48899,-1.41114 -0.48899,-2.80919 l 0,-0.14322 0,-0.20256 0,-0.2046 c 0.0136,-0.23075 0.0549,-0.45393 0.12277,-0.6711 0.0679,-0.23076 0.19666,-0.42154 0.38669,-0.57085 0.20361,-0.16286 0.46122,-0.27789 0.7734,-0.34577 0.31218,-0.0814 0.63662,-0.13652 0.97595,-0.16369 0.19002,-0.0136 0.38082,-0.0204 0.57085,-0.0204 0.19002,-0.0136 0.36704,-0.0204 0.52991,-0.0204 z m -23.24492,1.42608 0,1.32379 4.72223,0 0,-1.32379 -4.72223,0 z m -162.85976,0.8798 0.3867,0 0.34578,0 c 0.71939,0 1.33792,0.0944 1.8537,0.28439 0.51579,0.19002 0.7734,0.71214 0.7734,1.56727 0,0.7058 -0.239,1.17487 -0.71407,1.40561 -0.47506,0.21716 -0.99718,0.33907 -1.56725,0.36624 -0.14931,0.0136 -0.29878,0.0204 -0.44809,0.0204 l -0.42762,0 c -0.78724,0 -1.35067,-0.12882 -1.69001,-0.3867 -0.33934,-0.27146 -0.50741,-0.82112 -0.50741,-1.6491 l 0,-0.2046 c 0,-0.0679 0.007,-0.13468 0.0204,-0.20256 0.0135,-0.1493 0.0391,-0.29189 0.0798,-0.42762 0.0543,-0.13574 0.13693,-0.24388 0.24552,-0.32532 0.14931,-0.13576 0.33117,-0.23218 0.54833,-0.28645 0.23076,-0.0678 0.46286,-0.114 0.69361,-0.14117 0.13574,-0.0136 0.27143,-0.0204 0.40716,-0.0204 z m 31.06485,0 0.3867,0 0.34578,0 c 0.71939,0 1.33587,0.0944 1.85165,0.28439 0.51579,0.19002 0.77544,0.71214 0.77544,1.56727 0,0.7058 -0.239,1.17487 -0.71406,1.40561 -0.47505,0.21716 -0.99718,0.33907 -1.56725,0.36624 -0.14931,0.0136 -0.29878,0.0204 -0.44809,0.0204 l -0.42762,0 c -0.78725,0 -1.35068,-0.12882 -1.69001,-0.3867 -0.33934,-0.27146 -0.50742,-0.82112 -0.50742,-1.6491 l 0,-0.2046 c 0,-0.0679 0.005,-0.13468 0.0184,-0.20256 0.0136,-0.1493 0.0411,-0.29189 0.0819,-0.42762 0.0543,-0.13574 0.13692,-0.24388 0.24551,-0.32532 0.14931,-0.13576 0.33116,-0.23218 0.54834,-0.28645 0.23073,-0.0678 0.46286,-0.114 0.6936,-0.14117 0.13573,-0.0136 0.27143,-0.0204 0.40716,-0.0204 z m -23.78099,2.76828 0,1.8537 0.67315,0 c 0.0136,0.0272 0.0204,0.0596 0.0204,0.10025 l 0,0.12276 c 0,0.35291 -0.062,0.59675 -0.18413,0.73248 -0.12217,0.14929 -0.35913,0.23881 -0.71203,0.26598 l 0,0.73248 0.10229,0 c 0.0408,0 0.0731,0.007 0.10027,0.0204 l 0.0818,0 0.12276,0 c 0.59723,0 0.97675,-0.17014 1.13964,-0.50946 0.17645,-0.33934 0.26394,-0.78085 0.26394,-1.32379 l 0,-1.99487 -1.60818,0 z m 43.4781,0 0,1.8537 1.60818,0 0,-1.8537 -1.60818,0 z m 79.27336,0.11866 0,1.85166 0.67111,0 c 0.0135,0.0272 0.0204,0.0616 0.0204,0.1023 l 0,0.12276 c 0,0.35291 -0.0599,0.59675 -0.1821,0.73248 -0.12216,0.14928 -0.36115,0.23882 -0.71406,0.26598 l 0,0.73248 0.10231,0 c 0.0407,0 0.0751,0.007 0.10228,0.0204 l 0.0819,0 0.12071,0 c 0.59723,0 0.97881,-0.17012 1.14168,-0.50946 0.17646,-0.33933 0.26394,-0.78084 0.26394,-1.32378 l 0,-1.99487 -1.60818,0 z m 63.81153,0 0,1.85166 0.67111,0 c 0.0135,0.0272 0.0204,0.0616 0.0204,0.1023 l 0,0.12276 c 0,0.35291 -0.0599,0.59675 -0.18211,0.73248 -0.12215,0.14928 -0.36114,0.23882 -0.71406,0.26598 l 0,0.73248 0.10231,0 c 0.0407,0 0.0751,0.007 0.10229,0.0204 l 0.0819,0 0.12071,0 c 0.59724,0 0.97882,-0.17012 1.14169,-0.50946 0.17645,-0.33933 0.26393,-0.78084 0.26393,-1.32378 l 0,-1.99487 -1.60818,0 z"
         style="font-style:normal;font-variant:normal;font-weight:normal;font-stretch:normal;font-size:19.4926033px;line-height:125%;font-family:Eurostile-Normal;-inkscape-font-specification:Eurostile-Normal;text-align:center;letter-spacing:0px;word-spacing:0px;text-anchor:middle;fill:#e1e1e1;fill-opacity:1;stroke:none;stroke-width:1px;stroke-linecap:butt;stroke-linejoin:miter;stroke-opacity:1" />
    </g>
    <g
       id="g4553">
      <text
         xml:space="preserve"
         style="font-style:normal;font-variant:normal;font-weight:bold;font-stretch:normal;font-size:19.4926033px;line-height:125%;font-family:AgencyFB;-inkscape-font-specification:'AgencyFB Bold';text-align:center;letter-spacing:0px;word-spacing:0px;text-anchor:middle;fill:#000000;fill-opacity:1;stroke:none;stroke-width:1px;stroke-linecap:butt;stroke-linejoin:miter;stroke-opacity:1"
         x="589.33612"
         y="184.92583"
         id="text4525"
         sodipodi:linespacing="125%"><tspan
           sodipodi:role="line"
           id="tspan4527"
           x="589.33612"
           y="184.92583"
           style="font-style:normal;font-variant:normal;font-weight:normal;font-stretch:normal;font-size:19.4926033px;font-family:Eurostile-Normal;-inkscape-font-specification:Eurostile-Normal">2014</tspan></text>
      <text
         xml:space="preserve"
         style="font-style:normal;font-variant:normal;font-weight:bold;font-stretch:normal;font-size:19.43551254px;line-height:125%;font-family:AgencyFB;-inkscape-font-specification:'AgencyFB Bold';text-align:center;letter-spacing:0px;word-spacing:0px;text-anchor:middle;fill:#000000;fill-opacity:1;stroke:none;stroke-width:1px;stroke-linecap:butt;stroke-linejoin:miter;stroke-opacity:1"
         x="452.72638"
         y="184.81403"
         id="text4529"
         sodipodi:linespacing="125%"><tspan
           sodipodi:role="line"
           x="452.72638"
           y="184.81403"
           style="font-style:normal;font-variant:normal;font-weight:normal;font-stretch:normal;font-size:19.43551254px;font-family:Eurostile-Normal;-inkscape-font-specification:Eurostile-Normal"
           id="tspan4531">Octob</tspan></text>
      <text
         sodipodi:linespacing="125%"
         id="text4533"
         y="184.92705"
         x="488.06799"
         style="font-style:normal;font-variant:normal;font-weight:bold;font-stretch:normal;font-size:19.43551254px;line-height:125%;font-family:AgencyFB;-inkscape-font-specification:'AgencyFB Bold';text-align:center;letter-spacing:0px;word-spacing:0px;text-anchor:middle;fill:#000000;fill-opacity:1;stroke:none;stroke-width:1px;stroke-linecap:butt;stroke-linejoin:miter;stroke-opacity:1"
         xml:space="preserve"><tspan
           id="tspan4535"
           style="font-style:normal;font-variant:normal;font-weight:normal;font-stretch:normal;font-size:19.43551254px;font-family:Eurostile-Normal;-inkscape-font-specification:Eurostile-Normal"
           y="184.92705"
           x="488.06799"
           sodipodi:role="line">er,</tspan></text>
      <text
         xml:space="preserve"
         style="font-style:normal;font-variant:normal;font-weight:bold;font-stretch:normal;font-size:19.43551254px;line-height:125%;font-family:AgencyFB;-inkscape-font-specification:'AgencyFB Bold';text-align:center;letter-spacing:0px;word-spacing:0px;text-anchor:middle;fill:#000000;fill-opacity:1;stroke:none;stroke-width:1px;stroke-linecap:butt;stroke-linejoin:miter;stroke-opacity:1"
         x="531.57745"
         y="184.92705"
         id="text4537"
         sodipodi:linespacing="125%"><tspan
           sodipodi:role="line"
           x="531.57745"
           y="184.92705"
           style="font-style:normal;font-variant:normal;font-weight:normal;font-stretch:normal;font-size:19.43551254px;font-family:Eurostile-Normal;-inkscape-font-specification:Eurostile-Normal"
           id="tspan4539">13-16,</tspan></text>
      <text
         sodipodi:linespacing="125%"
         id="text4541"
         y="184.81403"
         x="349.89917"
         style="font-style:normal;font-variant:normal;font-weight:bold;font-stretch:normal;font-size:19.43551254px;line-height:125%;font-family:AgencyFB;-inkscape-font-specification:'AgencyFB Bold';text-align:center;letter-spacing:0px;word-spacing:0px;text-anchor:middle;fill:#000000;fill-opacity:1;stroke:none;stroke-width:1px;stroke-linecap:butt;stroke-linejoin:miter;stroke-opacity:1"
         xml:space="preserve"><tspan
           id="tspan4543"
           style="font-style:normal;font-variant:normal;font-weight:normal;font-stretch:normal;font-size:19.43551254px;font-family:Eurostile-Normal;-inkscape-font-specification:Eurostile-Normal"
           y="184.81403"
           x="349.89917"
           sodipodi:role="line">Genova,</tspan></text>
      <text
         xml:space="preserve"
         style="font-style:normal;font-variant:normal;font-weight:bold;font-stretch:normal;font-size:19.43551254px;line-height:125%;font-family:AgencyFB;-inkscape-font-specification:'AgencyFB Bold';text-align:center;letter-spacing:0px;word-spacing:0px;text-anchor:middle;fill:#000000;fill-opacity:1;stroke:none;stroke-width:1px;stroke-linecap:butt;stroke-linejoin:miter;stroke-opacity:1"
         x="397.22375"
         y="184.81403"
         id="text4545"
         sodipodi:linespacing="125%"><tspan
           sodipodi:role="line"
           x="397.22375"
           y="184.81403"
           style="font-style:normal;font-variant:normal;font-weight:normal;font-stretch:normal;font-size:19.43551254px;font-family:Eurostile-Normal;-inkscape-font-specification:Eurostile-Normal"
           id="tspan4547">Ita</tspan></text>
      <text
         sodipodi:linespacing="125%"
         id="text4549"
         y="184.81483"
         x="415.48868"
         style="font-style:normal;font-variant:normal;font-weight:bold;font-stretch:normal;font-size:19.43551254px;line-height:125%;font-family:AgencyFB;-inkscape-font-specification:'AgencyFB Bold';text-align:center;letter-spacing:0px;word-spacing:0px;text-anchor:middle;fill:#000000;fill-opacity:1;stroke:none;stroke-width:1px;stroke-linecap:butt;stroke-linejoin:miter;stroke-opacity:1"
         xml:space="preserve"><tspan
           id="tspan4551"
           style="font-style:normal;font-variant:normal;font-weight:normal;font-stretch:normal;font-size:19.43551254px;font-family:Eurostile-Normal;-inkscape-font-specification:Eurostile-Normal"
           y="184.81483"
           x="415.48868"
           sodipodi:role="line">ly.</tspan></text>
    </g>
    <g
       transform="translate(-11.646483,102.25869)"
       id="g4765">
      <path
         style="color:#000000;font-style:normal;font-variant:normal;font-weight:normal;font-stretch:normal;font-size:45px;line-height:125%;font-family:Eurostile-Normal;-inkscape-font-specification:Eurostile-Normal;text-indent:0;text-align:center;text-decoration:none;text-decoration-line:none;text-decoration-style:solid;text-decoration-color:#000000;letter-spacing:0px;word-spacing:0px;text-transform:none;direction:ltr;block-progression:tb;writing-mode:lr-tb;baseline-shift:baseline;text-anchor:middle;clip-rule:nonzero;display:inline;overflow:visible;visibility:visible;opacity:1;isolation:auto;mix-blend-mode:normal;color-interpolation:sRGB;color-interpolation-filters:linearRGB;solid-color:#000000;solid-opacity:1;fill:#ffffff;fill-opacity:1;fill-rule:nonzero;stroke:none;stroke-width:1px;stroke-linecap:butt;stroke-linejoin:miter;stroke-miterlimit:4;stroke-dasharray:none;stroke-dashoffset:0;stroke-opacity:1;color-rendering:auto;image-rendering:auto;shape-rendering:auto;text-rendering:auto;enable-background:accumulate"
         d="m 375.28492,247.57032 c -2.47579,0 -4.47222,0.33306 -5.99609,1.04687 -1.52386,0.71381 -2.56983,1.83998 -3.03125,3.30664 l -0.002,0.002 0,0.002 c -0.83119,2.70906 -1.23632,6.11347 -1.23632,10.22656 l 0,1.25586 0,0.5 0,2.92383 c 0,0.99505 0.0148,1.99129 0.0449,2.98633 l 0,0.006 0,0.006 c 0.21404,3.88325 1.20458,6.50777 3.16601,7.6914 l 0.002,0 0.002,0.002 c 1.89046,1.12146 4.55251,1.64453 7.99414,1.64453 l 0.63086,0 c 0.18619,0 0.39109,0.0132 0.61328,0.041 l 0.0312,0.004 0.34571,0 0.35937,0 0.31445,0 0.36133,0 c 3.84349,0 6.57632,-0.71096 8.14258,-2.31055 1.58058,-1.6135 2.34518,-4.30692 2.4375,-8.02734 l 0,-0.006 c 0.0601,-1.77368 0.0898,-3.54857 0.0898,-5.32227 l 0,-5.35351 c 0,-2.39162 -0.25939,-4.33671 -0.80664,-5.85156 -0.54725,-1.51485 -1.40626,-2.61592 -2.57812,-3.19336 -2.18597,-1.07715 -5.30841,-1.58008 -9.40039,-1.58008 l -1.48438,0 z m -197.04297,0.17969 c -0.49042,0 -0.98229,0.0143 -1.47265,0.0449 -0.48971,0.0306 -0.99324,0.0777 -1.51172,0.13867 l 0.0273,-0.004 c -0.48971,0.0306 -0.97922,0.0775 -1.46875,0.13868 -3.17597,0.34049 -5.42152,1.46975 -6.54101,3.44531 l 0,0.002 c -1.04581,1.86979 -1.54883,4.26594 -1.54883,7.17383 -0.0778,5.21351 -0.0571,10.9219 1.14062,15.5625 l 0,0.002 c 0.38998,1.46242 1.27042,2.63384 2.57422,3.43555 1.30379,0.80171 3.01461,1.25016 5.12305,1.38867 l 0.0176,0.002 4.19922,-0.0449 c 0.81617,0 1.63305,-0.0167 2.44921,-0.0469 l -0.0195,0.002 c 0.82234,0 1.64456,-0.0309 2.4668,-0.0918 l 0.002,0 c 2.42193,-0.18631 4.25987,-0.96566 5.38867,-2.38867 l 0.002,-0.002 c 2.00389,-3.02583 1.5957,-5.45654 1.5957,-8.77734 l -3.83008,0 -0.5,0 c -0.008,2.18498 0.40511,4.63061 -0.95117,6.33984 l -0.004,0.004 -0.004,0.002 c -0.61748,0.43739 -1.55185,0.74051 -2.81641,0.85547 l -0.002,0 c -0.91888,0.0889 -1.85328,0.14806 -2.80274,0.17773 l -2.82031,0 -0.92187,0 -0.97266,-0.0879 -0.004,0 c -0.79741,-0.0569 -1.54683,-0.21295 -2.25196,-0.4668 -0.65582,-0.2361 -1.09547,-0.60212 -1.39648,-1.12695 -0.32646,-0.60051 -0.5669,-1.3232 -0.70899,-2.17578 -0.14669,-0.88011 -0.24951,-1.80676 -0.30859,-2.7793 l 0,-0.004 c -0.03,-0.5391 -0.0599,-1.0649 -0.0898,-1.57422 l 0,-1.5 0,-1.57813 -0.0449,-4.81445 0,-0.53711 c 0,-2.08323 0.28608,-3.66398 0.80274,-4.72656 l 0.002,-0.002 c 0.49411,-0.98548 1.68258,-1.60399 3.81445,-1.74804 l 0.004,0 0.004,0 c 1.03993,-0.0891 2.08125,-0.14994 3.12109,-0.17969 1.0755,-0.0299 2.1364,-0.0449 3.18164,-0.0449 1.20986,0 2.16242,0.13244 2.83984,0.36719 0.67744,0.23475 1.06319,0.55148 1.26172,0.9375 0.47357,0.92083 0.75391,2.5107 0.75391,4.7207 l 0,0.5 4.35547,0 -0.0254,-0.52539 c -0.21239,-4.15679 -0.89505,-6.87385 -2.37305,-8.17774 -1.45687,-1.31565 -4.18726,-1.83593 -8.25195,-1.83593 l -1.48438,0 z m -109.298821,0.13476 0,31.01563 4.419922,0 0,-31.01563 -0.5,0 -3.919922,0 z m 7.970703,0 0,31.01563 20.259766,0 0,-3.88086 -15.97461,0 0,-10.11524 15.298828,0 0,-3.83398 -15.298828,0 0,-9.16992 15.97461,0 0,-4.01563 -20.259766,0 z m 22.41211,0 0,31.01563 20.259768,0 0,-3.88086 -15.97461,0 0,-10.11524 15.29883,0 0,-3.83398 -15.29883,0 0,-9.16992 15.97461,0 0,-4.01563 -20.259768,0 z m 22.412108,0 0,31.01563 20.25976,0 0,-3.88086 -15.9746,0 0,-10.11524 15.29882,0 0,-3.83398 -15.29882,0 0,-9.16992 15.9746,0 0,-4.01563 -20.25976,0 z m 36.0625,0 0,31.01563 4.41992,0 0,-31.01563 -0.5,0 -3.91992,0 z m 35.77148,0 0,31.01563 15.21485,0 c 2.40649,0 4.37707,-0.3689 5.9082,-1.14649 1.53113,-0.77759 2.60846,-1.9863 3.1582,-3.55469 1.042,-2.97277 1.55857,-6.34367 1.5586,-10.10937 l 0,-2.88086 c 0,-4.25509 -0.70486,-7.5264 -2.19532,-9.81055 l 0,-0.002 c -1.54135,-2.39273 -4.70481,-3.51172 -9.28515,-3.51172 l -14.35938,0 z m 29.40039,0 0,31.01563 19.81055,0 0,-4.10547 -15.25586,0 0,-26.91016 -0.5,0 -4.05469,0 z m 56.00196,0 0,31.01563 20.25976,0 0,-3.88086 -15.97461,0 0,-10.11524 15.29883,0 0,-3.83398 -15.29883,0 0,-9.16992 15.97461,0 0,-4.01563 -20.25976,0 z m 23.58203,0 0,31.01563 4.28515,0 0,-11.7461 c 4.46938,-0.1045 9.25593,0.2575 13.47852,-0.36523 l 0.006,0 0.004,-0.002 c 1.33332,-0.22764 2.53208,-0.87193 3.55469,-1.89454 0.65008,-0.65009 1.12935,-1.40902 1.42383,-2.25976 l 0.002,-0.002 0,-0.004 c 0.28112,-0.84338 0.46867,-1.70435 0.5625,-2.58008 l 0.002,-0.006 0,-0.008 c 0.1609,-2.50614 0.12757,-5.1932 -0.60743,-7.56836 -0.35707,-1.13611 -1.01176,-2.13334 -1.9414,-2.9668 l -0.002,0 0,-0.002 c -0.62506,-0.55926 -1.34659,-0.94479 -2.14257,-1.14453 -0.71802,-0.21701 -1.46504,-0.3575 -2.24024,-0.41992 l -0.006,0 c -0.34142,-0.0309 -0.66957,-0.0469 -0.98437,-0.0469 l -0.90039,0 -1.5293,0 -12.96484,0 z m 26.45507,0 0,31.01563 4.41993,0 0,-31.01563 -0.5,0 -3.91993,0 z m 9.14063,0 0,31.01563 4.33008,0 0,-12.10547 9.71484,0 c 1.88589,0 3.19152,0.37151 3.95508,1.00781 l 0.002,0.004 0.004,0.002 c 0.76264,0.61503 1.20898,1.80336 1.20898,3.70508 l 0,7.38672 4.46485,0 0,-8.15039 c 0,-1.72505 -0.39714,-3.17536 -1.22266,-4.29883 -0.54648,-0.76337 -1.39504,-1.22354 -2.36914,-1.54492 0.52916,-0.18279 1.18782,-0.29777 1.59766,-0.54688 0.84021,-0.51072 1.43267,-1.18658 1.69922,-2.0039 l 0,-0.002 0.002,-0.002 c 0.47093,-1.47556 0.69726,-3.23393 0.69726,-5.28125 0,-3.28057 -0.71365,-5.6854 -2.27343,-7.11524 l -0.002,-0.002 c -1.51741,-1.41718 -3.90026,-2.06836 -7.08789,-2.06836 l -14.7207,0 z m 54.84375,0 0,31.01563 15.80078,0 c 3.11415,0 5.36523,-0.79785 6.57227,-2.50782 1.15991,-1.64321 1.71093,-3.86615 1.71093,-6.63281 0,-1.99853 -0.30068,-3.60512 -0.95703,-4.82226 -0.55492,-1.05435 -1.70617,-1.77886 -3.1582,-2.33789 1.19036,-0.59752 2.12455,-1.3305 2.50586,-2.33594 0.48051,-1.21883 0.71094,-2.70271 0.71094,-4.45508 0,-2.92098 -0.63827,-5.03549 -2.06641,-6.22852 l -0.002,-0.002 c -1.3659,-1.16488 -3.43759,-1.69336 -6.17188,-1.69336 l -14.94531,0 z m -17.17188,3.51953 1.125,0 c 3.17729,0 5.3882,0.33629 6.53125,0.89453 l 0.002,0.002 0.002,0 c 0.48876,0.23328 0.91591,0.78321 1.22266,1.78711 0.30675,1.0039 0.47265,2.42699 0.47265,4.24218 l 0,2.47461 0,2.47461 c 0,0.83404 -0.0151,1.6679 -0.0449,2.50196 l 0,0.01 0,2.42578 c -0.0442,1.79832 -0.25419,3.21825 -0.60351,4.23828 -0.34892,1.01884 -0.81977,1.61314 -1.37305,1.89649 -1.26889,0.61922 -3.62222,0.98242 -6.97461,0.98242 -2.97408,0 -4.79687,-0.52869 -5.47461,-1.27344 -0.67756,-0.77699 -1.16521,-2.61911 -1.22461,-5.47656 l 0,-0.004 -0.0449,-4.79492 0,-0.0156 0.0898,-5.52149 c 0.0591,-3.22152 0.6189,-5.16179 1.27344,-5.7539 0.75502,-0.65441 2.43662,-1.08985 5.02148,-1.08985 z m -68.98242,0.45118 8.58985,0 c 1.35825,0 2.82004,0.004 4.08789,0.3164 0.61456,0.23128 0.97623,0.542 1.18164,0.94141 0.47711,0.92772 0.75586,2.45326 0.75586,4.54101 0,1.38991 -0.14995,2.48577 -0.42188,3.26758 -0.27193,0.7818 -0.64317,1.23175 -1.10156,1.46094 -1.06732,0.53367 -2.94948,0.84766 -5.58203,0.84766 l -7.50977,0 0,-11.375 z m 35.64063,0 10.43554,0 c 1.1924,0 2.12836,0.13813 2.79493,0.38476 0.66657,0.24664 1.04923,0.57734 1.2539,0.99805 l 0.002,0.002 0.002,0.002 c 0.48037,0.96074 0.75586,2.51838 0.75586,4.63672 0,2.20272 -0.50084,3.53088 -1.32422,4.13867 -0.87736,0.61703 -2.43043,0.98633 -4.6543,0.98633 l -9.26562,0 0,-11.14843 z m 54.88867,0 10.20898,0 c 3.38331,0.0859 4.11472,1.27146 4.13672,4.2246 0,2.09518 -0.43347,3.38025 -1.08594,3.93946 -0.67475,0.57836 -2.09967,0.96094 -4.26562,0.96094 l -8.99414,0 0,-9.125 z m -199.46875,0.0449 9.98437,0 c 1.89615,0 3.45584,0.30576 4.68946,0.89453 l 0.004,0.002 0.006,0.002 c 1.11293,0.50588 1.85198,1.752 2.14063,3.97461 0.1478,1.15278 0.23604,2.32067 0.26562,3.50391 0.0299,1.16562 0.0449,2.34714 0.0449,3.54297 l 0,1.48437 c 0,0.43889 -0.0155,0.89298 -0.0449,1.36329 l 0,0.0156 0,0.0156 c 0,0.43891 -0.0155,0.893 -0.0449,1.36329 l 0,0.002 0,0.002 c -0.0583,1.02075 -0.20358,1.99398 -0.43555,2.92188 -0.22544,0.90175 -0.58532,1.65938 -1.07812,2.28906 l -0.002,0.002 -0.002,0.002 c -0.42085,0.55236 -0.95812,0.93853 -1.65234,1.17968 -0.70943,0.22635 -1.44719,0.36877 -2.2168,0.42578 l -0.0176,0 -0.0156,0.002 c -0.3969,0.0567 -0.79326,0.0859 -1.18945,0.0859 l -1.125,0 -9.31055,0 0,-23.07422 z m 199.89453,13.54297 10.20898,0 c 3.38333,0.0859 4.11472,1.27342 4.13672,4.22656 0,2.09518 -0.43349,3.38024 -1.08593,3.93945 -0.67475,0.57836 -2.09968,0.96094 -4.26563,0.96094 l -8.99414,0 0,-9.12695 z m -143.42773,0.0371 0,3.92382 11.4414,0 0,-3.92382 -10.9414,0 -0.5,0 z"
         id="path4767"
         inkscape:connector-curvature="0" />
      <path
         style="font-style:normal;font-variant:normal;font-weight:normal;font-stretch:normal;font-size:19.4926033px;line-height:125%;font-family:Eurostile-Normal;-inkscape-font-specification:Eurostile-Normal;text-align:center;letter-spacing:0px;word-spacing:0px;text-anchor:middle;fill:#e1e1e1;fill-opacity:1;stroke:none;stroke-width:1px;stroke-linecap:butt;stroke-linejoin:miter;stroke-opacity:1"
         d="m 209.83618,287.2154 c -2.19888,0 -3.48899,0.60271 -3.86904,1.81073 -0.36648,1.19446 -0.54834,2.71463 -0.54834,4.56059 l 0,0.79386 0,1.32379 c 0,0.44792 0.007,0.89632 0.0204,1.34424 0.095,1.72381 0.53654,2.82314 1.32379,3.2982 0.80083,0.47506 1.96697,0.71202 3.50075,0.71202 l 0.28439,0 c 0.095,0 0.19833,0.007 0.30691,0.0204 l 0.14118,0 0.16368,0 0.14322,0 0.16163,0 c 1.71024,0 2.88533,-0.32443 3.52327,-0.97596 0.65152,-0.66509 0.99662,-1.82639 1.03734,-3.48234 0.0272,-0.80082 0.041,-1.60121 0.041,-2.40203 l 0,-2.4225 c 0,-2.13101 -0.46702,-3.428 -1.40358,-3.88951 -0.93655,-0.46149 -2.32104,-0.69155 -4.15343,-0.69155 l -0.67314,0 z m -115.760191,0.0409 c -1.80525,0 -3.04715,0.38642 -3.72582,1.1601 -0.66508,0.77368 -0.99845,2.05001 -0.99845,3.82812 l 0,0.93504 0,0.91662 c -0.0136,0.31218 -0.0205,0.62488 -0.0205,0.93708 l 0,0.93708 c 0,2.09029 0.39331,3.46099 1.18057,4.11251 0.80082,0.63795 2.28859,0.9555 4.46033,0.9555 0.47507,0 0.94208,-0.007 1.40358,-0.0204 0.4615,-0.0136 0.92367,-0.0391 1.38517,-0.0798 1.27588,-0.13574 2.06249,-0.62547 2.361101,-1.46701 0.29862,-0.85511 0.44809,-1.79808 0.44809,-2.82966 l 0,-0.978 0,-0.73247 c 0,-0.24433 -0.0138,-0.48816 -0.0409,-0.73248 l -5.823011,0 0,1.32378 4.31713,0 0,1.20101 c 0,1.2759 -0.19768,2.09006 -0.59131,2.44297 -0.39362,0.33933 -1.24221,0.50946 -2.54525,0.50946 l -0.79386,0 -0.54833,0 c -0.17645,0 -0.35347,-0.007 -0.52993,-0.0204 -0.17645,0 -0.36035,-0.007 -0.55038,-0.0204 -0.17645,-0.0136 -0.35142,-0.0342 -0.52788,-0.0614 -0.99086,-0.1493 -1.57494,-0.57016 -1.75139,-1.2624 -0.17647,-0.70581 -0.26599,-1.46692 -0.26599,-2.28131 l -0.0204,-1.9335 0.0204,-1.77187 c 0.0272,-1.60165 0.21793,-2.61832 0.57084,-3.05267 0.36648,-0.44792 1.27016,-0.67314 2.70894,-0.67314 0.47506,0 0.94208,0.007 1.40357,0.0204 0.47508,0 0.94414,0.0138 1.40563,0.041 0.92297,0.0407 1.48641,0.29145 1.69002,0.75294 0.21717,0.46149 0.32532,1.10069 0.32532,1.91508 l 1.505881,0 0,-0.50946 c 0,-1.11301 -0.24384,-1.96849 -0.732491,-2.56572 -0.47507,-0.59723 -1.29611,-0.91682 -2.46341,-0.95754 l -0.81432,0 c -0.27147,-0.0136 -0.54285,-0.0204 -0.81432,-0.0204 -0.27148,-0.0136 -0.54286,-0.0185 -0.81432,-0.0185 l -0.81432,0 z m 206.319441,0.0962 c -1.61522,0 -2.69388,0.31271 -3.23681,0.93709 -0.54293,0.62437 -0.81433,1.74436 -0.81433,3.35958 l 1.42405,0 0,-0.24348 c 0,-0.0815 0.007,-0.16408 0.0204,-0.24553 l 0,-0.24348 0,-0.24347 0,-0.14322 0,-0.14322 c 0.0136,-0.21718 0.0481,-0.42658 0.10231,-0.63018 0.0543,-0.21717 0.14867,-0.40796 0.28439,-0.57084 0.17646,-0.17644 0.40858,-0.29836 0.69361,-0.36624 0.28504,-0.0814 0.58397,-0.12967 0.89616,-0.14322 0.095,-0.0136 0.18249,-0.0204 0.26393,-0.0204 l 0.28441,0 0.55038,0 0.57084,0 c 0.19002,0 0.37187,0.007 0.54834,0.0204 l 0.57084,0 c 0.80082,0.0407 1.30227,0.24528 1.50588,0.61176 0.21716,0.35291 0.32532,0.90945 0.32532,1.66956 0,1.09943 -0.16119,1.78479 -0.48696,2.05625 -0.31218,0.2715 -1.02508,0.41408 -2.1381,0.42763 l -0.44809,0 -0.42761,0 c -0.14931,0.0136 -0.29878,0.0204 -0.44808,0.0204 l -0.42762,0 0,1.30332 1.87416,0 c 1.00442,0 1.71528,0.12881 2.13606,0.3867 0.42077,0.24432 0.63222,0.90901 0.63222,1.99488 0,1.16731 -0.17701,1.9126 -0.52993,2.23835 -0.3529,0.32576 -1.13262,0.48901 -2.34065,0.48901 l -0.55038,0 c -0.17645,-0.0136 -0.35347,-0.0204 -0.52992,-0.0204 l -0.54834,0 c -0.17645,-0.0135 -0.36035,-0.0204 -0.55038,-0.0204 -0.88227,-0.0272 -1.43881,-0.23655 -1.66956,-0.63018 -0.23075,-0.39363 -0.34579,-0.98461 -0.34579,-1.77186 l 0,-0.79386 -1.48745,0 c -0.0135,0.13573 -0.0185,0.27143 -0.0185,0.40716 l 0,0.40716 c 0,1.76453 0.46701,2.82457 1.40358,3.17748 0.95012,0.35291 2.1507,0.52787 3.60305,0.52787 0.44792,0 0.89632,-0.0138 1.34424,-0.0409 0.44791,-0.0136 0.89632,-0.046 1.34425,-0.10026 1.12658,-0.1493 1.81193,-0.61148 2.05626,-1.38516 0.25789,-0.77368 0.38669,-1.61538 0.38669,-2.5248 0,-1.00443 -0.17701,-1.72421 -0.52992,-2.15856 -0.33934,-0.43434 -1.01091,-0.71951 -2.01534,-0.85524 l 0.0818,0 c 0.0272,-0.0136 0.0478,-0.0204 0.0614,-0.0204 0.31219,-0.0543 0.60424,-0.128 0.87571,-0.22302 0.28503,-0.095 0.52887,-0.27203 0.73247,-0.52992 0.17644,-0.23075 0.29836,-0.48147 0.36624,-0.75293 0.0815,-0.28504 0.13651,-0.5702 0.16368,-0.85525 0.0136,-0.16287 0.0204,-0.31923 0.0204,-0.46854 l 0,-0.44808 c 0,-1.71023 -0.46906,-2.7083 -1.40561,-2.99334 -0.92299,-0.29861 -2.09601,-0.44808 -3.52122,-0.44808 l -0.65269,0 z m 53.15172,0 c -0.35393,0 -0.70793,0.0137 -1.06188,0.0409 -0.34033,0.0136 -0.68749,0.041 -1.04143,0.0818 -1.4294,0.17697 -2.27914,0.68161 -2.55141,1.51201 -0.25864,0.83041 -0.38874,1.87187 -0.38874,3.12429 l 1.49156,0 -0.0204,-0.59335 0,-0.1023 0,-0.1023 c 0,-0.55814 0.0664,-1.08128 0.20255,-1.57135 0.13614,-0.49008 0.53122,-0.803 1.18466,-0.93913 0.17697,-0.0409 0.355,-0.0682 0.53196,-0.0818 l 0.57084,-0.041 c 0.17696,-0.0136 0.355,-0.0204 0.53197,-0.0204 l 0.55038,0 c 1.30687,0 2.1792,0.15544 2.61483,0.46854 0.43562,0.31311 0.65267,1.15121 0.65267,2.51253 0,1.26603 -0.2102,2.04935 -0.63221,2.34884 -0.4084,0.29949 -1.10955,0.49601 -2.10332,0.5913 -0.12252,0.0136 -0.2526,0.0273 -0.38875,0.041 -0.12251,0.0136 -0.25946,0.0273 -0.4092,0.0409 -0.0544,0 -0.10717,0.007 -0.16164,0.0204 l -0.14322,0 c -1.3477,0.13612 -2.43026,0.39427 -3.24705,0.77544 -0.81679,0.38118 -1.22557,1.40209 -1.22557,3.06291 l 0,2.53298 9.80252,0 0,-1.26649 -8.27004,0 c 0,-0.0953 -0.007,-0.19115 -0.0204,-0.28644 l 0,-0.28441 c -0.0136,-0.0817 -0.0204,-0.17068 -0.0204,-0.26597 l 0,-0.28645 c 0,-1.2388 0.36085,-1.98104 1.08235,-2.22608 0.73512,-0.25863 1.58486,-0.41406 2.5514,-0.46853 l 0.36828,0 c 0.13613,-0.0136 0.26418,-0.0273 0.3867,-0.0409 0.54452,-0.0409 1.07655,-0.12302 1.59386,-0.24553 0.5173,-0.12252 0.97881,-0.35328 1.3872,-0.6936 0.35395,-0.31311 0.59361,-0.6808 0.71612,-1.10281 0.13611,-0.42201 0.21828,-0.85132 0.24551,-1.28695 0.0136,-0.16336 0.0204,-0.32565 0.0204,-0.48901 l 0,-0.47058 c 0,-1.85139 -0.38139,-3.0298 -1.14372,-3.53349 -0.76235,-0.50369 -1.98184,-0.75499 -3.65627,-0.75499 z m 11.8506,0 c -0.13613,0 -0.27307,0.007 -0.40921,0.0204 l -0.38874,0 c -0.34033,0.0136 -0.68063,0.0409 -1.02097,0.0818 -0.32671,0.0272 -0.64648,0.10939 -0.95958,0.24552 -0.66705,0.28588 -1.18334,0.73369 -1.5509,1.34628 -0.35392,0.59898 -0.55933,1.26111 -0.6138,1.98261 -0.0273,0.50369 -0.0478,1.00627 -0.0614,1.50996 l 0,1.53249 0,1.0005 0,1.24399 c 0.0136,0.40838 0.041,0.81717 0.0818,1.22557 0.12251,1.5383 0.64769,2.52498 1.57339,2.9606 0.92569,0.422 2.04932,0.64111 3.3698,0.65472 l 1.08031,-0.0204 0.79795,0 c 0.27226,0 0.53725,-0.0137 0.79591,-0.0409 1.33408,-0.068 2.30023,-0.44946 2.89922,-1.14373 0.59896,-0.70789 0.91873,-1.70143 0.95958,-2.98106 0.0136,-0.47647 0.0204,-0.94687 0.0204,-1.40972 0.0136,-0.46285 0.0204,-0.92436 0.0204,-1.38721 l 0,-0.49104 0,-0.49105 c -0.0136,-0.16336 -0.0204,-0.3188 -0.0204,-0.46854 l 0,-0.49104 c -0.0817,-2.27341 -0.55687,-3.65519 -1.42812,-4.14526 -0.85762,-0.49008 -2.31471,-0.73453 -4.37032,-0.73453 l -0.4092,0 -0.36624,0 z m -203.45705,0.004 0,13.58154 1.54885,0 0,-13.58154 -1.54885,0 z m 82.87641,0 0,13.58154 1.40563,0 -0.0818,-1.20102 c 0.32576,0.48864 0.74662,0.81997 1.2624,0.99642 0.52936,0.16291 1.07214,0.25039 1.62863,0.26393 l 0.0614,0 0.0818,0 c 1.79168,0 2.88411,-0.46012 3.27773,-1.38311 0.39363,-0.93656 0.58926,-2.13714 0.58926,-3.60306 0,-1.53379 -0.23006,-2.70197 -0.69156,-3.5028 -0.4615,-0.81439 -1.54015,-1.22147 -3.23681,-1.22147 l -0.24553,0 c -0.0815,0 -0.16203,0.007 -0.24347,0.0204 -0.48865,0.0408 -0.95772,0.15576 -1.40563,0.34579 -0.43435,0.17645 -0.76565,0.50294 -0.99642,0.978 l 0,-5.27466 -1.40562,0 z m -61.19874,0.002 0,13.5795 1.44654,0 0,-13.5795 -1.44654,0 z m 147.39792,0.0143 c -0.21717,0 -0.44035,0.007 -0.67109,0.0204 l -0.67315,0 c -0.23075,0.0136 -0.46081,0.0342 -0.69156,0.0614 -0.21717,0.0272 -0.44035,0.0615 -0.67109,0.10229 -0.89585,0.16289 -1.53503,0.55619 -1.91508,1.18056 -0.38005,0.62438 -0.5688,1.35794 -0.5688,2.19949 l 0,0.75294 c 0,0.24431 0.007,0.49504 0.0204,0.75294 l 0,0.77339 0,0.73453 -0.0409,2.46342 c 0,1.96813 0.3933,3.2493 1.18055,3.84653 0.78726,0.58365 2.10286,0.8757 3.94884,0.8757 0.39363,0 0.78898,-0.007 1.1826,-0.0204 0.39364,0 0.78005,-0.0207 1.16009,-0.0614 1.11303,-0.095 1.82593,-0.5207 2.13811,-1.28081 0.32575,-0.7601 0.5007,-1.58803 0.52788,-2.48388 l 0,-0.22506 0,-0.24348 c 0,-1.77811 -0.35198,-2.90497 -1.0578,-3.38004 -0.70582,-0.48864 -1.88089,-0.73248 -3.52326,-0.73248 l -0.46649,0 c -0.16289,0 -0.31924,0.007 -0.46855,0.0204 -0.32576,0 -0.64535,0.0186 -0.95754,0.0593 -0.31218,0.0407 -0.618,0.10958 -0.91662,0.2046 -0.25789,0.0814 -0.47418,0.20336 -0.65064,0.36624 -0.17646,0.1493 -0.3397,0.33321 -0.489,0.55038 l 0,-2.77032 0,-0.32532 c 0,-0.10859 0.007,-0.22362 0.0204,-0.34578 0.0135,-0.17645 0.0411,-0.35347 0.0818,-0.52992 0.0408,-0.17646 0.10065,-0.3397 0.1821,-0.48901 0.16288,-0.27146 0.42049,-0.4602 0.7734,-0.56879 0.35291,-0.10856 0.72759,-0.17743 1.12123,-0.2046 0.16287,-0.0136 0.31718,-0.0204 0.46649,-0.0204 0.16289,-0.0136 0.31923,-0.0204 0.46853,-0.0204 l 0.48901,0 c 0.28504,0 0.57019,0.007 0.85524,0.0204 0.2986,0 0.59754,0.0207 0.89616,0.0614 0.61079,0.0814 0.98343,0.33904 1.11918,0.77339 0.13572,0.42078 0.2046,0.88984 0.2046,1.40563 l 1.48542,0 0,-0.10231 c 0.0135,-0.0407 0.0204,-0.0821 0.0204,-0.12276 l 0,-0.10025 0,-0.12277 c 0,-1.49306 -0.47391,-2.37609 -1.42404,-2.64756 -0.95014,-0.28503 -2.00328,-0.42761 -3.15702,-0.42761 z m 47.33283,0.0614 -3.75857,4.10434 0.95959,0.8982 3.49257,-3.83834 0,12.45621 1.43018,0 0,-13.62041 -2.12377,0 z m 14.01324,0 -6.86033,8.67925 0,1.79642 7.69716,0 0,3.14474 1.45062,0 0,-3.14474 2.04194,0 0,-1.28696 -2.04194,0 0,-9.18871 -2.28745,0 z m -103.92391,0.041 -3.74628,4.09206 0.95754,0.89615 3.4803,-3.82811 0,12.41939 1.42607,0 0,-13.57949 -2.11763,0 z m 29.70423,0 -3.74628,4.09206 0.95755,0.89615 3.48234,-3.82811 0,12.41939 1.42402,0 0,-13.57949 -2.11763,0 z m 75.05651,0.95959 0,8.1882 -6.41226,0 6.41226,-8.1882 z m -183.11749,0.0634 0.50742,0 c 1.45235,0 2.47106,0.14257 3.05472,0.42761 0.59722,0.28504 0.89615,1.2604 0.89615,2.92991 l 0,1.12123 0,1.11918 c 0,0.38004 -0.007,0.75958 -0.0204,1.13963 l 0,1.10076 c -0.0407,1.65596 -0.38099,2.64713 -1.01893,2.97288 -0.63795,0.3122 -1.72348,0.4665 -3.25727,0.4665 -1.3709,0 -2.25189,-0.21629 -2.64552,-0.65063 -0.38004,-0.43435 -0.5846,-1.3105 -0.61176,-2.62711 l -0.0204,-2.17697 0.0409,-2.50434 c 0.0272,-1.47949 0.24344,-2.40384 0.65064,-2.77033 0.42078,-0.36647 1.2301,-0.54832 2.42454,-0.54832 z m 155.35492,0.14117 1.51202,0 c 1.37494,0 2.29316,0.21021 2.756,0.63222 0.47647,0.4084 0.71612,1.30813 0.71612,2.69667 l 0,2.20561 0,2.36726 c 0,1.443 -0.27389,2.35641 -0.81842,2.73759 -0.54452,0.36755 -1.36004,0.55038 -2.44909,0.55038 l -0.73453,0 c -0.24504,-0.0136 -0.48468,-0.0273 -0.71611,-0.041 l -0.16369,0 -0.14117,0 c -0.19058,-0.0136 -0.38915,-0.0204 -0.59334,-0.0204 -0.19059,-0.0136 -0.38027,-0.0204 -0.57085,-0.0204 -0.9257,-0.0409 -1.53305,-0.35375 -1.81891,-0.93913 -0.27226,-0.59898 -0.42085,-1.29329 -0.44809,-2.08285 l -0.0204,-2.5514 0,-0.69565 0,-0.73453 0,-0.6936 c 0.0136,-0.24503 0.0273,-0.48468 0.041,-0.71611 0.0409,-1.29325 0.38116,-2.06084 1.02097,-2.30587 0.63982,-0.25866 1.44849,-0.38874 2.42863,-0.38874 z m -199.50207,0.50946 0,2.29974 -1.24194,0 0,1.12121 1.24194,0 0,5.84347 c 0,1.00442 0.19767,1.69666 0.59131,2.07671 0.39361,0.38005 1.11825,0.5688 2.17696,0.5688 1.20804,0 1.96226,-0.33132 2.26087,-0.99642 0.29861,-0.66509 0.44808,-1.49302 0.44808,-2.48387 l -1.34424,0 0,0.63017 c 0,0.50221 -0.0669,0.90929 -0.20256,1.22148 -0.12217,0.31219 -0.50374,0.46854 -1.14169,0.46854 -0.57007,0 -0.93583,-0.10814 -1.09872,-0.32532 -0.16287,-0.23075 -0.24348,-0.61716 -0.24348,-1.16009 l 0,-5.84347 3.66445,0 0,-1.12121 -3.66445,0 0,-2.29974 -1.44653,0 z m 61.86167,0 0,2.29974 -1.24194,0 0,1.12121 1.24194,0 0,5.84347 c 0,1.00442 0.19562,1.69666 0.58925,2.07671 0.39362,0.38005 1.1203,0.5688 2.17903,0.5688 1.20801,0 1.96225,-0.33132 2.26085,-0.99642 0.29861,-0.66509 0.44604,-1.49302 0.44604,-2.48387 l -1.3422,0 0,0.63017 c 0,0.50221 -0.0688,0.90929 -0.2046,1.22148 -0.12217,0.31219 -0.50169,0.46854 -1.13964,0.46854 -0.57009,0 -0.93583,-0.10814 -1.09871,-0.32532 -0.16289,-0.23075 -0.24554,-0.61716 -0.24554,-1.16009 l 0,-5.84347 3.66445,0 0,-1.12121 -3.66445,0 0,-2.29974 -1.44448,0 z m -110.71264,2.07671 c -0.65153,0 -1.26111,0.0944 -1.8312,0.28441 -0.57007,0.17645 -1.03913,0.55802 -1.40562,1.14168 l 0,-1.22148 -1.32377,0 0,9.50789 1.42607,0 0,-5.82299 c 0,-0.96371 0.24384,-1.65595 0.73248,-2.07672 0.48864,-0.42078 1.18777,-0.63223 2.09719,-0.63223 0.9637,0 1.59599,0.15636 1.89461,0.46855 0.29861,0.31218 0.44604,0.94244 0.44604,1.89258 l 0,6.17081 1.44654,0 0,-6.29153 c 0,-1.28947 -0.2576,-2.17938 -0.7734,-2.66803 -0.51578,-0.5022 -1.41948,-0.75294 -2.70894,-0.75294 z m 9.86799,0.041 c -1.73739,0 -2.85048,0.37265 -3.33912,1.11918 -0.47507,0.74654 -0.71201,1.92851 -0.71201,3.54373 l 0,0.89615 c 0,1.77811 0.31754,2.93048 0.9555,3.45984 0.65152,0.52936 1.82659,0.79386 3.52326,0.79386 1.95454,0 3.09519,-0.48079 3.42095,-1.4445 0.33934,-0.9637 0.50742,-2.22626 0.50742,-3.7872 0,-1.79168 -0.27139,-2.99914 -0.81433,-3.62352 -0.54293,-0.63794 -1.72284,-0.95754 -3.54167,-0.95754 z m 111.45534,0 c -1.73739,0 -2.85048,0.37265 -3.33911,1.11918 -0.47507,0.74654 -0.71201,1.92851 -0.71201,3.54373 l 0,0.89615 c 0,1.77811 0.31959,2.93048 0.95753,3.45984 0.65153,0.52936 1.82455,0.79386 3.52122,0.79386 1.95454,0 3.0952,-0.48079 3.42095,-1.4445 0.33934,-0.9637 0.50947,-2.22626 0.50947,-3.7872 0,-1.79168 -0.27139,-2.99914 -0.81432,-3.62352 -0.54293,-0.63794 -1.7249,-0.95754 -3.54373,-0.95754 z m -132.29618,0.0204 c -1.88669,0 -3.03218,0.44152 -3.43938,1.32378 -0.40719,0.88227 -0.61176,2.1517 -0.61176,3.80766 0,1.72381 0.26451,2.9244 0.79387,3.60305 0.52935,0.67867 1.68377,1.01688 3.46186,1.01688 1.20804,0 2.18544,-0.14946 2.93197,-0.44808 0.74653,-0.29862 1.11917,-1.14517 1.11917,-2.54321 l -1.46495,0 0,0.30485 0,0.1821 c 0,0.0679 -0.007,0.12988 -0.0204,0.18415 -0.0136,0.16287 -0.0481,0.32611 -0.1023,0.489 -0.0408,0.1493 -0.13026,0.27122 -0.26599,0.36623 -0.13573,0.095 -0.29692,0.16876 -0.48695,0.22302 -0.19002,0.0543 -0.3877,0.0887 -0.59131,0.1023 -0.17645,0.0272 -0.34658,0.041 -0.50945,0.041 l -0.42763,0 -0.38669,0 c -1.2759,0 -2.02807,-0.3196 -2.25882,-0.95754 -0.21716,-0.63795 -0.32737,-1.48654 -0.32737,-2.54526 l 6.84192,0 0,-0.71201 c -0.0136,-1.76455 -0.28496,-2.94445 -0.81431,-3.54169 -0.51579,-0.59722 -1.66332,-0.89615 -3.44142,-0.89615 z m 164.46793,0.0368 c -0.54293,0 -1.04438,0.10126 -1.50587,0.30486 -0.44792,0.2036 -0.81573,0.54386 -1.10077,1.01892 l 0.0614,-1.10077 -1.38311,0 0,9.5079 1.42404,0 0,-5.82095 0,-0.50946 c 0,-0.74654 0.1839,-1.30309 0.55038,-1.66956 0.38004,-0.36648 0.9366,-0.55038 1.66956,-0.55038 0.5565,0 0.97046,0.10126 1.24193,0.30485 0.28504,0.20361 0.42763,0.59691 0.42763,1.18057 l 0,0.36828 c 0,0.12216 -0.007,0.23719 -0.0204,0.34578 l 1.38311,0 c 0.0136,-0.10859 0.0204,-0.205 0.0204,-0.28644 l 0,-0.2844 c 0,-0.95014 -0.22317,-1.65615 -0.67109,-2.11764 -0.43435,-0.46149 -1.13347,-0.69156 -2.09719,-0.69156 z m -48.57271,0.005 c -1.68309,0 -2.80307,0.35887 -3.35958,1.07825 -0.5565,0.70582 -0.83478,1.86713 -0.83478,3.48235 0,1.7781 0.19769,3.07994 0.5913,3.9079 0.4072,0.81441 1.61468,1.22149 3.62353,1.22149 1.43877,0 2.46233,-0.2163 3.07313,-0.65064 0.6108,-0.44792 0.91662,-1.40466 0.91662,-2.87058 l -1.40357,0 c 0,1.08587 -0.1908,1.75745 -0.57085,2.01534 -0.38005,0.24432 -1.09985,0.36624 -2.15855,0.36624 -1.23518,0 -1.97358,-0.26451 -2.2179,-0.79386 -0.24432,-0.54293 -0.36828,-1.3502 -0.36828,-2.4225 l 0,-0.95754 c 0,-1.35733 0.16324,-2.23347 0.48899,-2.6271 0.32576,-0.40719 1.11925,-0.60971 2.38158,-0.60971 0.82796,0 1.41207,0.1288 1.7514,0.38669 0.35291,0.2579 0.52993,0.81444 0.52993,1.66956 l 1.38515,0 0,-0.0818 c 0,-0.0271 0.007,-0.0546 0.0204,-0.0818 l 0,-0.0593 0,-0.0818 c 0,-1.26232 -0.38158,-2.05582 -1.14168,-2.38158 -0.76011,-0.33933 -1.66175,-0.50946 -2.7069,-0.50946 z m 38.23005,0.0777 c -1.8867,0 -3.03217,0.44152 -3.43939,1.32379 -0.40719,0.88226 -0.61175,2.14966 -0.61175,3.80561 0,1.72381 0.2645,2.92644 0.79386,3.6051 0.52936,0.67867 1.68377,1.01687 3.46188,1.01687 1.20802,0 2.18542,-0.14946 2.93196,-0.44807 0.74653,-0.29862 1.11917,-1.14721 1.11917,-2.54526 l -1.46496,0 0,0.30691 0,0.18209 c 0,0.0679 -0.007,0.12988 -0.0204,0.18414 -0.0136,0.16288 -0.0481,0.32613 -0.10231,0.489 -0.0407,0.14931 -0.12822,0.27123 -0.26394,0.36624 -0.13573,0.095 -0.29897,0.16875 -0.489,0.22302 -0.19001,0.0544 -0.3877,0.0887 -0.5913,0.1023 -0.17645,0.0272 -0.34454,0.0409 -0.50742,0.0409 l -0.42761,0 -0.38874,0 c -1.2759,0 -2.02808,-0.31959 -2.25883,-0.95754 -0.21718,-0.63794 -0.32531,-1.48654 -0.32531,-2.54525 l 6.83987,0 0,-0.71202 c -0.0136,-1.76453 -0.28497,-2.94445 -0.81432,-3.54167 -0.51579,-0.59723 -1.66331,-0.89617 -3.44141,-0.89617 z m -114.9377,0.005 c -1.07228,0 -1.96705,0.1357 -2.68643,0.40717 -0.71939,0.25788 -1.0803,1.04449 -1.0803,2.36111 l 1.467,0 c -0.0136,-0.0543 -0.0204,-0.10251 -0.0204,-0.14323 l 0,-0.14117 0,-0.12276 c 0,-0.0543 0.007,-0.10251 0.0204,-0.14322 0.0136,-0.16289 0.0481,-0.31235 0.10231,-0.44808 0.0543,-0.14931 0.14866,-0.27123 0.28439,-0.36624 0.12217,-0.0951 0.27163,-0.16875 0.44808,-0.22302 0.17645,-0.0544 0.3652,-0.0887 0.5688,-0.10231 0.13573,-0.0136 0.27831,-0.0204 0.42762,-0.0204 0.14931,-0.0136 0.27812,-0.0204 0.3867,-0.0204 1.16731,0 1.91464,0.14258 2.2404,0.42762 0.32576,0.28504 0.489,1.01171 0.489,2.17902 l 0,1.13964 c -0.0815,-0.14932 -0.17581,-0.27812 -0.2844,-0.3867 -0.10858,-0.12219 -0.23943,-0.20967 -0.38874,-0.26394 -0.21718,-0.0814 -0.44724,-0.14343 -0.69157,-0.18414 -0.23073,-0.0544 -0.46769,-0.0887 -0.71201,-0.1023 -0.16289,-0.0136 -0.32613,-0.0204 -0.489,-0.0204 -0.16289,-0.0136 -0.31924,-0.0204 -0.46855,-0.0204 -1.07228,0 -1.96016,0.16324 -2.66597,0.489 -0.69223,0.32576 -1.03937,1.11926 -1.03937,2.38158 0,1.30304 0.33336,2.13302 0.99845,2.48592 0.6651,0.33933 1.58052,0.50742 2.74782,0.50742 0.62438,0 1.20847,-0.053 1.7514,-0.16164 0.5565,-0.12216 1.03729,-0.44175 1.4445,-0.95754 l -0.0593,0.978 1.32173,0 0,-6.18924 c 0,-1.49305 -0.35887,-2.4243 -1.07826,-2.79077 -0.70582,-0.36649 -1.71763,-0.54834 -3.03426,-0.54834 z m 31.06485,0 c -1.07228,0 -1.96704,0.1357 -2.68643,0.40717 -0.71938,0.25788 -1.0803,1.04449 -1.0803,2.36111 l 1.467,0 c -0.0135,-0.0543 -0.0204,-0.10251 -0.0204,-0.14323 l 0,-0.14117 0,-0.12276 c 0,-0.0543 0.007,-0.10251 0.0204,-0.14322 0.0136,-0.16289 0.046,-0.31235 0.10026,-0.44808 0.0543,-0.14931 0.15071,-0.27123 0.28644,-0.36624 0.12216,-0.0951 0.27162,-0.16875 0.44807,-0.22302 0.17646,-0.0544 0.36521,-0.0887 0.56881,-0.10231 0.13573,-0.0136 0.27831,-0.0204 0.42762,-0.0204 0.14929,-0.0136 0.2781,-0.0204 0.3867,-0.0204 1.1673,0 1.91463,0.14258 2.2404,0.42762 0.32576,0.28504 0.489,1.01171 0.489,2.17902 l 0,1.13964 c -0.0815,-0.14932 -0.17582,-0.27812 -0.2844,-0.3867 -0.1086,-0.12219 -0.23945,-0.20967 -0.38874,-0.26394 -0.21719,-0.0814 -0.44724,-0.14343 -0.69156,-0.18414 -0.23075,-0.0544 -0.46771,-0.0887 -0.71202,-0.1023 -0.16288,-0.0136 -0.32613,-0.0204 -0.489,-0.0204 -0.16289,-0.0136 -0.31924,-0.0204 -0.46855,-0.0204 -1.07228,0 -1.96015,0.16324 -2.66597,0.489 -0.69224,0.32576 -1.03938,1.11926 -1.03938,2.38158 0,1.30304 0.33337,2.13302 0.99846,2.48592 0.66509,0.33933 1.58051,0.50742 2.74782,0.50742 0.62438,0 1.20847,-0.053 1.7514,-0.16164 0.5565,-0.12216 1.03729,-0.44175 1.44449,-0.95754 l -0.0614,0.978 1.32378,0 0,-6.18924 c 0,-1.49305 -0.35886,-2.4243 -1.07825,-2.79077 -0.70582,-0.36649 -1.71766,-0.54834 -3.03427,-0.54834 z m -44.3047,0.0204 3.15498,9.5079 1.99488,0 3.17749,-9.5079 -1.54885,0 -2.60459,8.4276 -2.7294,-8.4276 -1.44451,0 z m 54.17475,0 3.44142,9.5079 0.50946,0 c -0.0408,0.16287 -0.089,0.34678 -0.14323,0.55038 -0.0407,0.21717 -0.0958,0.44035 -0.16368,0.6711 -0.12215,0.46149 -0.3109,0.88235 -0.5688,1.2624 -0.24431,0.39362 -0.61211,0.5913 -1.10076,0.5913 l -0.14117,0 c -0.0408,0 -0.0821,-0.007 -0.12276,-0.0204 -0.0407,0 -0.0889,-0.007 -0.14323,-0.0204 l -0.12071,0 0,1.13964 c 0.10858,0.0272 0.21672,0.0478 0.32531,0.0614 0.12217,0.0272 0.2372,0.0409 0.34578,0.0409 0.95014,0 1.64238,-0.33337 2.07672,-0.99846 0.44793,-0.65153 0.78818,-1.3782 1.01892,-2.17902 0.0272,-0.095 0.0458,-0.18939 0.0593,-0.2844 0.0271,-0.095 0.0547,-0.1825 0.0818,-0.26394 l 2.68847,-10.05828 -1.467,0 -2.15855,8.46852 -2.97083,-8.46852 -1.44655,0 z m -79.99971,0.9555 c 1.24876,0 2.00781,0.19767 2.27928,0.5913 0.28503,0.39363 0.42761,1.18023 0.42761,2.36112 l -5.39538,0 c 0,-1.15372 0.17013,-1.93346 0.50947,-2.34065 0.35291,-0.40721 1.07958,-0.61177 2.17902,-0.61177 z m 142.63477,0.041 c 1.34375,0 2.12553,0.31271 2.3427,0.93708 0.23074,0.62437 0.34578,1.51224 0.34578,2.66598 0,0.31218 -0.007,0.62489 -0.0204,0.93707 -0.0136,0.29862 -0.0411,0.60444 -0.0818,0.91663 -0.095,0.80083 -0.32507,1.32983 -0.69155,1.58772 -0.36648,0.25789 -0.93681,0.38669 -1.71049,0.38669 -1.30304,0 -2.09653,-0.27827 -2.38157,-0.83478 -0.27147,-0.57008 -0.40717,-1.43244 -0.40717,-2.58618 l 0,-0.52787 -0.002,0 c 0,-1.09945 0.13085,-1.95492 0.38874,-2.56572 0.2579,-0.61079 0.99631,-0.91662 2.2179,-0.91662 z m -121.7346,0.0204 0.30691,0 c 1.16731,0 1.85956,0.25073 2.07672,0.75294 0.21718,0.50222 0.32532,1.33704 0.32532,2.50434 l 0,0.55038 c 0,0.17645 -0.007,0.35346 -0.0204,0.52992 0,0.19003 -0.007,0.37189 -0.0204,0.54834 0,0.17646 -0.007,0.36036 -0.0205,0.55038 -0.0543,0.89584 -0.30501,1.45927 -0.75293,1.69002 -0.43435,0.23074 -1.06665,0.34577 -1.89463,0.34577 l -0.65063,0 -0.16368,0 -0.14118,0 c -0.24431,-0.0136 -0.47642,-0.048 -0.6936,-0.10229 -0.21718,-0.0543 -0.39903,-0.14868 -0.54834,-0.28441 -0.17645,-0.19002 -0.30526,-0.46141 -0.3867,-0.81431 -0.0814,-0.35291 -0.13651,-0.72556 -0.16368,-1.11918 -0.0136,-0.14931 -0.0204,-0.29878 -0.0204,-0.44808 l 0,-0.44808 0,-0.79386 0,-0.3069 c 0,-1.34376 0.14947,-2.20408 0.44809,-2.58414 0.31219,-0.38005 1.08501,-0.57084 2.32019,-0.57084 z m 111.45741,0 0.30484,0 c 1.16732,0 1.85956,0.25073 2.07672,0.75294 0.21718,0.50222 0.32533,1.33704 0.32533,2.50434 l 0,0.55038 c 0,0.17645 -0.007,0.35346 -0.0204,0.52992 0,0.19003 -0.007,0.37189 -0.0204,0.54834 0,0.17646 -0.007,0.36036 -0.0204,0.55038 -0.0543,0.89584 -0.30502,1.45927 -0.75293,1.69002 -0.43435,0.23074 -1.0646,0.34577 -1.89257,0.34577 l -0.65269,0 -0.16164,0 -0.14323,0 c -0.24431,-0.0136 -0.47438,-0.048 -0.69155,-0.10229 -0.21717,-0.0543 -0.40108,-0.14868 -0.55038,-0.28441 -0.17645,-0.19002 -0.30526,-0.46141 -0.3867,-0.81431 -0.0814,-0.35291 -0.13652,-0.72556 -0.16368,-1.11918 -0.0136,-0.14931 -0.0185,-0.29878 -0.0185,-0.44808 l 0,-0.44808 0,-0.79386 -0.002,0 0,-0.3069 c 0,-1.34376 0.14948,-2.20408 0.44809,-2.58414 0.31219,-0.38005 1.08707,-0.57084 2.32225,-0.57084 z m 21.76768,0.0573 c 1.24876,0 2.00986,0.19769 2.28133,0.5913 0.28503,0.39363 0.42762,1.18025 0.42762,2.36113 l -5.39539,0 c 0,-1.15374 0.16809,-1.93345 0.50742,-2.34066 0.35291,-0.4072 1.07958,-0.61177 2.17902,-0.61177 z m 70.41406,1.50588 0.50947,0 c 1.52021,0 2.42184,0.21145 2.70689,0.63222 0.28504,0.40721 0.42763,1.29712 0.42763,2.66803 -2e-5,1.19445 -0.23696,1.91908 -0.71203,2.17697 -0.47506,0.25789 -1.27545,0.3867 -2.40203,0.3867 l -0.67314,0 c -1.4795,0 -2.38803,-0.23695 -2.72737,-0.71202 -0.32574,-0.47506 -0.48899,-1.41114 -0.48899,-2.80919 l 0,-0.14322 0,-0.20256 0,-0.2046 c 0.0136,-0.23075 0.0549,-0.45393 0.12277,-0.6711 0.0679,-0.23076 0.19666,-0.42154 0.38669,-0.57085 0.20361,-0.16286 0.46122,-0.27789 0.7734,-0.34577 0.31218,-0.0814 0.63662,-0.13652 0.97595,-0.16369 0.19002,-0.0136 0.38082,-0.0204 0.57085,-0.0204 0.19002,-0.0136 0.36704,-0.0204 0.52991,-0.0204 z m -23.24492,1.42608 0,1.32379 4.72223,0 0,-1.32379 -4.72223,0 z m -162.85976,0.8798 0.3867,0 0.34578,0 c 0.71939,0 1.33792,0.0944 1.8537,0.28439 0.51579,0.19002 0.7734,0.71214 0.7734,1.56727 0,0.7058 -0.239,1.17487 -0.71407,1.40561 -0.47506,0.21716 -0.99718,0.33907 -1.56725,0.36624 -0.14931,0.0136 -0.29878,0.0204 -0.44809,0.0204 l -0.42762,0 c -0.78724,0 -1.35067,-0.12882 -1.69001,-0.3867 -0.33934,-0.27146 -0.50741,-0.82112 -0.50741,-1.6491 l 0,-0.2046 c 0,-0.0679 0.007,-0.13468 0.0204,-0.20256 0.0135,-0.1493 0.0391,-0.29189 0.0798,-0.42762 0.0543,-0.13574 0.13693,-0.24388 0.24552,-0.32532 0.14931,-0.13576 0.33117,-0.23218 0.54833,-0.28645 0.23076,-0.0678 0.46286,-0.114 0.69361,-0.14117 0.13574,-0.0136 0.27143,-0.0204 0.40716,-0.0204 z m 31.06485,0 0.3867,0 0.34578,0 c 0.71939,0 1.33587,0.0944 1.85165,0.28439 0.51579,0.19002 0.77544,0.71214 0.77544,1.56727 0,0.7058 -0.239,1.17487 -0.71406,1.40561 -0.47505,0.21716 -0.99718,0.33907 -1.56725,0.36624 -0.14931,0.0136 -0.29878,0.0204 -0.44809,0.0204 l -0.42762,0 c -0.78725,0 -1.35068,-0.12882 -1.69001,-0.3867 -0.33934,-0.27146 -0.50742,-0.82112 -0.50742,-1.6491 l 0,-0.2046 c 0,-0.0679 0.005,-0.13468 0.0184,-0.20256 0.0136,-0.1493 0.0411,-0.29189 0.0819,-0.42762 0.0543,-0.13574 0.13692,-0.24388 0.24551,-0.32532 0.14931,-0.13576 0.33116,-0.23218 0.54834,-0.28645 0.23073,-0.0678 0.46286,-0.114 0.6936,-0.14117 0.13573,-0.0136 0.27143,-0.0204 0.40716,-0.0204 z m -23.78099,2.76828 0,1.8537 0.67315,0 c 0.0136,0.0272 0.0204,0.0596 0.0204,0.10025 l 0,0.12276 c 0,0.35291 -0.062,0.59675 -0.18413,0.73248 -0.12217,0.14929 -0.35913,0.23881 -0.71203,0.26598 l 0,0.73248 0.10229,0 c 0.0408,0 0.0731,0.007 0.10027,0.0204 l 0.0818,0 0.12276,0 c 0.59723,0 0.97675,-0.17014 1.13964,-0.50946 0.17645,-0.33934 0.26394,-0.78085 0.26394,-1.32379 l 0,-1.99487 -1.60818,0 z m 43.4781,0 0,1.8537 1.60818,0 0,-1.8537 -1.60818,0 z m 79.27336,0.11866 0,1.85166 0.67111,0 c 0.0135,0.0272 0.0204,0.0616 0.0204,0.1023 l 0,0.12276 c 0,0.35291 -0.0599,0.59675 -0.1821,0.73248 -0.12216,0.14928 -0.36115,0.23882 -0.71406,0.26598 l 0,0.73248 0.10231,0 c 0.0407,0 0.0751,0.007 0.10228,0.0204 l 0.0819,0 0.12071,0 c 0.59723,0 0.97881,-0.17012 1.14168,-0.50946 0.17646,-0.33933 0.26394,-0.78084 0.26394,-1.32378 l 0,-1.99487 -1.60818,0 z m 63.81153,0 0,1.85166 0.67111,0 c 0.0135,0.0272 0.0204,0.0616 0.0204,0.1023 l 0,0.12276 c 0,0.35291 -0.0599,0.59675 -0.18211,0.73248 -0.12215,0.14928 -0.36114,0.23882 -0.71406,0.26598 l 0,0.73248 0.10231,0 c 0.0407,0 0.0751,0.007 0.10229,0.0204 l 0.0819,0 0.12071,0 c 0.59724,0 0.97882,-0.17012 1.14169,-0.50946 0.17645,-0.33933 0.26393,-0.78084 0.26393,-1.32378 l 0,-1.99487 -1.60818,0 z"
         id="path4769"
         inkscape:connector-curvature="0" />
    </g>
  </g>
</svg>
