<?xml version="1.0" encoding="UTF-8" standalone="no"?>
<svg
   xmlns:dc="http://purl.org/dc/elements/1.1/"
   xmlns:cc="http://creativecommons.org/ns#"
   xmlns:rdf="http://www.w3.org/1999/02/22-rdf-syntax-ns#"
   xmlns:svg="http://www.w3.org/2000/svg"
   xmlns="http://www.w3.org/2000/svg"
   xmlns:sodipodi="http://sodipodi.sourceforge.net/DTD/sodipodi-0.dtd"
   xmlns:inkscape="http://www.inkscape.org/namespaces/inkscape"
   width="700.82538"
   height="137.52499"
   viewBox="0 0 700.82538 137.52499"
   enable-background="new 0 0 512 512"
   id="svg2"
   version="1.1"
   inkscape:version="0.48+devel r"
   sodipodi:docname="2_Davanti_B.svg">
  <metadata
     id="metadata76">
    <rdf:RDF>
      <cc:Work
         rdf:about="">
        <dc:format>image/svg+xml</dc:format>
        <dc:type
           rdf:resource="http://purl.org/dc/dcmitype/StillImage" />
        <dc:title></dc:title>
      </cc:Work>
    </rdf:RDF>
  </metadata>
  <defs
     id="defs74" />
  <sodipodi:namedview
     pagecolor="#ffffff"
     bordercolor="#666666"
     borderopacity="1"
     objecttolerance="10"
     gridtolerance="10"
     guidetolerance="10"
     inkscape:pageopacity="0"
     inkscape:pageshadow="2"
     inkscape:window-width="1375"
     inkscape:window-height="876"
     id="namedview72"
     showgrid="false"
     inkscape:zoom="1.2927614"
     inkscape:cx="333.78162"
     inkscape:cy="68.762497"
     inkscape:window-x="1985"
     inkscape:window-y="24"
     inkscape:window-maximized="1"
     inkscape:current-layer="svg2"
     fit-margin-top="40"
     fit-margin-left="40"
     fit-margin-right="40"
     fit-margin-bottom="40" />
  <path
     inkscape:connector-curvature="0"
     id="path4215"
     style="color:#000000;font-style:normal;font-variant:normal;font-weight:bold;font-stretch:normal;font-size:75px;line-height:125%;font-family:AgencyFB;-inkscape-font-specification:'AgencyFB Bold';text-align:center;text-decoration:none;text-decoration-line:none;text-decoration-style:solid;text-decoration-color:#000000;letter-spacing:0px;word-spacing:0px;text-anchor:middle;clip-rule:nonzero;display:inline;overflow:visible;visibility:visible;isolation:auto;color-interpolation:sRGB;color-interpolation-filters:linearRGB;fill:#007382;fill-opacity:1;fill-rule:nonzero;stroke:none;stroke-width:1.63910341;stroke-linecap:butt;stroke-linejoin:miter;stroke-miterlimit:4;stroke-dasharray:none;stroke-dashoffset:0;stroke-opacity:1;color-rendering:auto;image-rendering:auto;shape-rendering:auto;text-rendering:auto;enable-background:accumulate"
     d="m 48.625,97.299998 q -4.65,0 -4.65,-4.575 l 0,-25.275 -3.975,0 0,-7.125 3.975,0 0,-10.05 8.325,0 0,10.05 5.4,0 0,7.125 -5.4,0 0,22.725 5.625,0 0,7.125 -9.3,0 z" />
  <path
     inkscape:connector-curvature="0"
     id="path4217"
     style="color:#000000;font-style:normal;font-variant:normal;font-weight:bold;font-stretch:normal;font-size:75px;line-height:125%;font-family:AgencyFB;-inkscape-font-specification:'AgencyFB Bold';text-align:center;text-decoration:none;text-decoration-line:none;text-decoration-style:solid;text-decoration-color:#000000;letter-spacing:0px;word-spacing:0px;text-anchor:middle;clip-rule:nonzero;display:inline;overflow:visible;visibility:visible;isolation:auto;color-interpolation:sRGB;color-interpolation-filters:linearRGB;fill:#007382;fill-opacity:1;fill-rule:nonzero;stroke:none;stroke-width:1.63910341;stroke-linecap:butt;stroke-linejoin:miter;stroke-miterlimit:4;stroke-dasharray:none;stroke-dashoffset:0;stroke-opacity:1;color-rendering:auto;image-rendering:auto;shape-rendering:auto;text-rendering:auto;enable-background:accumulate"
     d="m 78.8793,97.299998 0,-30 -7.875,0.15 0,29.85 -8.4,0 0,-57.3 8.4,0 0,21.675 9,-1.2 q 0.675,-0.15 1.35,-0.225 0.75,-0.075 1.35,-0.075 4.575,0 4.575,4.5 l 0,32.625 -8.4,0 z" />
  <path
     inkscape:connector-curvature="0"
     id="path4219"
     style="color:#000000;font-style:normal;font-variant:normal;font-weight:bold;font-stretch:normal;font-size:75px;line-height:125%;font-family:AgencyFB;-inkscape-font-specification:'AgencyFB Bold';text-align:center;text-decoration:none;text-decoration-line:none;text-decoration-style:solid;text-decoration-color:#000000;letter-spacing:0px;word-spacing:0px;text-anchor:middle;clip-rule:nonzero;display:inline;overflow:visible;visibility:visible;isolation:auto;color-interpolation:sRGB;color-interpolation-filters:linearRGB;fill:#007382;fill-opacity:1;fill-rule:nonzero;stroke:none;stroke-width:1.63910341;stroke-linecap:butt;stroke-linejoin:miter;stroke-miterlimit:4;stroke-dasharray:none;stroke-dashoffset:0;stroke-opacity:1;color-rendering:auto;image-rendering:auto;shape-rendering:auto;text-rendering:auto;enable-background:accumulate"
     d="m 117.14453,92.724998 q 0,4.575 -4.725,4.575 l -14.475,0 q -4.725,0 -4.725,-4.575 l 0,-27.825 q 0,-4.575 4.725,-4.575 l 14.475,0 q 4.725,0 4.725,4.575 l 0,13.575 -2.325,2.325 -13.575,0 0,10.35 7.875,0 0,-6.15 8.025,0 0,7.725 0,0 z m -8.025,-26.25 -7.875,0 0,8.85 7.875,0 0,-8.85 z" />
  <path
     inkscape:connector-curvature="0"
     id="path4221"
     style="color:#000000;font-style:normal;font-variant:normal;font-weight:bold;font-stretch:normal;font-size:75px;line-height:125%;font-family:AgencyFB;-inkscape-font-specification:'AgencyFB Bold';text-align:center;text-decoration:none;text-decoration-line:none;text-decoration-style:solid;text-decoration-color:#000000;letter-spacing:0px;word-spacing:0px;text-anchor:middle;clip-rule:nonzero;display:inline;overflow:visible;visibility:visible;isolation:auto;color-interpolation:sRGB;color-interpolation-filters:linearRGB;fill:#007382;fill-opacity:1;fill-rule:nonzero;stroke:none;stroke-width:1.63910341;stroke-linecap:butt;stroke-linejoin:miter;stroke-miterlimit:4;stroke-dasharray:none;stroke-dashoffset:0;stroke-opacity:1;color-rendering:auto;image-rendering:auto;shape-rendering:auto;text-rendering:auto;enable-background:accumulate"
     d="m 138.77969,54.999998 0,-8.625 8.4,0 0,8.625 -8.4,0 z m 0.075,42.3 0,-36.975 8.25,0 0,36.975 -8.25,0 z" />
  <path
     inkscape:connector-curvature="0"
     id="path4223"
     style="color:#000000;font-style:normal;font-variant:normal;font-weight:bold;font-stretch:normal;font-size:75px;line-height:125%;font-family:AgencyFB;-inkscape-font-specification:'AgencyFB Bold';text-align:center;text-decoration:none;text-decoration-line:none;text-decoration-style:solid;text-decoration-color:#000000;letter-spacing:0px;word-spacing:0px;text-anchor:middle;clip-rule:nonzero;display:inline;overflow:visible;visibility:visible;isolation:auto;color-interpolation:sRGB;color-interpolation-filters:linearRGB;fill:#007382;fill-opacity:1;fill-rule:nonzero;stroke:none;stroke-width:1.63910341;stroke-linecap:butt;stroke-linejoin:miter;stroke-miterlimit:4;stroke-dasharray:none;stroke-dashoffset:0;stroke-opacity:1;color-rendering:auto;image-rendering:auto;shape-rendering:auto;text-rendering:auto;enable-background:accumulate"
     d="m 181.92813,92.049998 q 0,5.25 -5.25,5.25 l -17.85,0 q -5.1,0 -5.1,-5.25 l 0,-46.8 q 0,-5.25 5.1,-5.25 l 17.85,0 q 5.25,0 5.25,5.25 l 0,13.425 -8.55,0 0,-11.325 -11.1,0 0,42.6 11.1,0 0,-12.075 8.55,0 0,14.175 0,0 z" />
  <path
     inkscape:connector-curvature="0"
     id="path4225"
     style="color:#000000;font-style:normal;font-variant:normal;font-weight:bold;font-stretch:normal;font-size:75px;line-height:125%;font-family:AgencyFB;-inkscape-font-specification:'AgencyFB Bold';text-align:center;text-decoration:none;text-decoration-line:none;text-decoration-style:solid;text-decoration-color:#000000;letter-spacing:0px;word-spacing:0px;text-anchor:middle;clip-rule:nonzero;display:inline;overflow:visible;visibility:visible;isolation:auto;color-interpolation:sRGB;color-interpolation-filters:linearRGB;fill:#007382;fill-opacity:1;fill-rule:nonzero;stroke:none;stroke-width:1.63910341;stroke-linecap:butt;stroke-linejoin:miter;stroke-miterlimit:4;stroke-dasharray:none;stroke-dashoffset:0;stroke-opacity:1;color-rendering:auto;image-rendering:auto;shape-rendering:auto;text-rendering:auto;enable-background:accumulate"
     d="m 204.56289,97.299998 0,-1.275 -8.85,1.2 q -0.75,0.15 -1.5,0.225 -0.75,0.075 -1.35,0.075 -4.575,0 -4.575,-4.575 l 0,-32.625 8.325,0 0,30 7.95,-0.15 0,-29.85 8.325,0 0,36.975 -8.325,0 z" />
  <path
     inkscape:connector-curvature="0"
     id="path4227"
     style="color:#000000;font-style:normal;font-variant:normal;font-weight:bold;font-stretch:normal;font-size:75px;line-height:125%;font-family:AgencyFB;-inkscape-font-specification:'AgencyFB Bold';text-align:center;text-decoration:none;text-decoration-line:none;text-decoration-style:solid;text-decoration-color:#000000;letter-spacing:0px;word-spacing:0px;text-anchor:middle;clip-rule:nonzero;display:inline;overflow:visible;visibility:visible;isolation:auto;color-interpolation:sRGB;color-interpolation-filters:linearRGB;fill:#007382;fill-opacity:1;fill-rule:nonzero;stroke:none;stroke-width:1.63910341;stroke-linecap:butt;stroke-linejoin:miter;stroke-miterlimit:4;stroke-dasharray:none;stroke-dashoffset:0;stroke-opacity:1;color-rendering:auto;image-rendering:auto;shape-rendering:auto;text-rendering:auto;enable-background:accumulate"
     d="m 243.57813,89.874998 q 0,3.375 -2.025,5.4 -2.025,2.025 -5.625,2.025 l -17.025,0 0,-57.3 8.4,0 0,21.675 9,-1.2 q 0.675,-0.15 1.35,-0.225 0.75,-0.075 1.35,-0.075 4.575,0 4.575,4.5 l 0,25.2 0,0 z m -8.4,-22.575 -7.875,0.15 0,22.875 5.175,0 q 2.7,0 2.7,-2.775 l 0,-20.25 z" />
  <path
     inkscape:connector-curvature="0"
     id="path4229"
     style="color:#000000;font-style:normal;font-variant:normal;font-weight:bold;font-stretch:normal;font-size:75px;line-height:125%;font-family:AgencyFB;-inkscape-font-specification:'AgencyFB Bold';text-align:center;text-decoration:none;text-decoration-line:none;text-decoration-style:solid;text-decoration-color:#000000;letter-spacing:0px;word-spacing:0px;text-anchor:middle;clip-rule:nonzero;display:inline;overflow:visible;visibility:visible;isolation:auto;color-interpolation:sRGB;color-interpolation-filters:linearRGB;fill:#007382;fill-opacity:1;fill-rule:nonzero;stroke:none;stroke-width:1.63910341;stroke-linecap:butt;stroke-linejoin:miter;stroke-miterlimit:4;stroke-dasharray:none;stroke-dashoffset:0;stroke-opacity:1;color-rendering:auto;image-rendering:auto;shape-rendering:auto;text-rendering:auto;enable-background:accumulate"
     d="m 292.79922,92.049998 q 0,2.55 -1.35,3.9 -1.35,1.35 -3.825,1.35 l -17.25,0 q -2.475,0 -3.825,-1.35 -1.35,-1.35 -1.35,-3.9 l 0,-13.65 8.55,0 0,11.7 10.5,0 0,-11.25 -17.175,-16.275 q -1.05,-0.975 -1.5,-1.95 -0.375,-0.975 -0.375,-2.625 l 0,-12.75 q 0,-2.55 1.35,-3.9 1.35,-1.35 3.825,-1.35 l 17.25,0 q 2.475,0 3.825,1.35 1.35,1.35 1.35,3.825 l 0,12.825 -8.55,0 0,-10.8 -10.5,0 0,10.35 17.175,16.2 q 1.05,1.05 1.425,2.025 0.45,0.975 0.45,2.625 l 0,13.65 0,0 z" />
  <path
     inkscape:connector-curvature="0"
     id="path4231"
     style="color:#000000;font-style:normal;font-variant:normal;font-weight:bold;font-stretch:normal;font-size:75px;line-height:125%;font-family:AgencyFB;-inkscape-font-specification:'AgencyFB Bold';text-align:center;text-decoration:none;text-decoration-line:none;text-decoration-style:solid;text-decoration-color:#000000;letter-spacing:0px;word-spacing:0px;text-anchor:middle;clip-rule:nonzero;display:inline;overflow:visible;visibility:visible;isolation:auto;color-interpolation:sRGB;color-interpolation-filters:linearRGB;fill:#007382;fill-opacity:1;fill-rule:nonzero;stroke:none;stroke-width:1.63910341;stroke-linecap:butt;stroke-linejoin:miter;stroke-miterlimit:4;stroke-dasharray:none;stroke-dashoffset:0;stroke-opacity:1;color-rendering:auto;image-rendering:auto;shape-rendering:auto;text-rendering:auto;enable-background:accumulate"
     d="m 315.45156,97.299998 0,-1.275 -8.85,1.2 q -0.75,0.15 -1.5,0.225 -0.75,0.075 -1.35,0.075 -4.575,0 -4.575,-4.575 l 0,-32.625 8.325,0 0,30 7.95,-0.15 0,-29.85 8.325,0 0,36.975 -8.325,0 z" />
  <path
     inkscape:connector-curvature="0"
     id="path4233"
     style="color:#000000;font-style:normal;font-variant:normal;font-weight:bold;font-stretch:normal;font-size:75px;line-height:125%;font-family:AgencyFB;-inkscape-font-specification:'AgencyFB Bold';text-align:center;text-decoration:none;text-decoration-line:none;text-decoration-style:solid;text-decoration-color:#000000;letter-spacing:0px;word-spacing:0px;text-anchor:middle;clip-rule:nonzero;display:inline;overflow:visible;visibility:visible;isolation:auto;color-interpolation:sRGB;color-interpolation-filters:linearRGB;fill:#007382;fill-opacity:1;fill-rule:nonzero;stroke:none;stroke-width:1.63910341;stroke-linecap:butt;stroke-linejoin:miter;stroke-miterlimit:4;stroke-dasharray:none;stroke-dashoffset:0;stroke-opacity:1;color-rendering:auto;image-rendering:auto;shape-rendering:auto;text-rendering:auto;enable-background:accumulate"
     d="m 362.2668,97.299998 0,-30 -7.875,0.15 0,29.85 -8.325,0 0,-30 -7.875,0.15 0,29.85 -8.4,0 0,-36.975 8.4,0 0,1.35 8.775,-1.2 q 0.75,-0.15 1.5,-0.225 0.825,-0.075 1.425,-0.075 1.35,0 2.25,0.45 0.9,0.375 1.275,0.825 l 0.225,0.375 9.675,-1.35 q 0.675,-0.15 1.35,-0.225 0.75,-0.075 1.35,-0.075 4.575,0 4.575,4.5 l 0,32.625 -8.325,0 z" />
  <path
     inkscape:connector-curvature="0"
     id="path4235"
     style="color:#000000;font-style:normal;font-variant:normal;font-weight:bold;font-stretch:normal;font-size:75px;line-height:125%;font-family:AgencyFB;-inkscape-font-specification:'AgencyFB Bold';text-align:center;text-decoration:none;text-decoration-line:none;text-decoration-style:solid;text-decoration-color:#000000;letter-spacing:0px;word-spacing:0px;text-anchor:middle;clip-rule:nonzero;display:inline;overflow:visible;visibility:visible;isolation:auto;color-interpolation:sRGB;color-interpolation-filters:linearRGB;fill:#007382;fill-opacity:1;fill-rule:nonzero;stroke:none;stroke-width:1.63910341;stroke-linecap:butt;stroke-linejoin:miter;stroke-miterlimit:4;stroke-dasharray:none;stroke-dashoffset:0;stroke-opacity:1;color-rendering:auto;image-rendering:auto;shape-rendering:auto;text-rendering:auto;enable-background:accumulate"
     d="m 408.99531,97.299998 0,-30 -7.875,0.15 0,29.85 -8.325,0 0,-30 -7.875,0.15 0,29.85 -8.4,0 0,-36.975 8.4,0 0,1.35 8.775,-1.2 q 0.75,-0.15 1.5,-0.225 0.825,-0.075 1.425,-0.075 1.35,0 2.25,0.45 0.9,0.375 1.275,0.825 l 0.225,0.375 9.675,-1.35 q 0.675,-0.15 1.35,-0.225 0.75,-0.075 1.35,-0.075 4.575,0 4.575,4.5 l 0,32.625 -8.325,0 z" />
  <path
     inkscape:connector-curvature="0"
     id="path4237"
     style="color:#000000;font-style:normal;font-variant:normal;font-weight:bold;font-stretch:normal;font-size:75px;line-height:125%;font-family:AgencyFB;-inkscape-font-specification:'AgencyFB Bold';text-align:center;text-decoration:none;text-decoration-line:none;text-decoration-style:solid;text-decoration-color:#000000;letter-spacing:0px;word-spacing:0px;text-anchor:middle;clip-rule:nonzero;display:inline;overflow:visible;visibility:visible;isolation:auto;color-interpolation:sRGB;color-interpolation-filters:linearRGB;fill:#007382;fill-opacity:1;fill-rule:nonzero;stroke:none;stroke-width:1.63910341;stroke-linecap:butt;stroke-linejoin:miter;stroke-miterlimit:4;stroke-dasharray:none;stroke-dashoffset:0;stroke-opacity:1;color-rendering:auto;image-rendering:auto;shape-rendering:auto;text-rendering:auto;enable-background:accumulate"
     d="m 447.17383,92.724998 q 0,4.575 -4.725,4.575 l -14.475,0 q -4.725,0 -4.725,-4.575 l 0,-27.825 q 0,-4.575 4.725,-4.575 l 14.475,0 q 4.725,0 4.725,4.575 l 0,13.575 -2.325,2.325 -13.575,0 0,10.35 7.875,0 0,-6.15 8.025,0 0,7.725 0,0 z m -8.025,-26.25 -7.875,0 0,8.85 7.875,0 0,-8.85 z" />
  <path
     inkscape:connector-curvature="0"
     id="path4239"
     style="color:#000000;font-style:normal;font-variant:normal;font-weight:bold;font-stretch:normal;font-size:75px;line-height:125%;font-family:AgencyFB;-inkscape-font-specification:'AgencyFB Bold';text-align:center;text-decoration:none;text-decoration-line:none;text-decoration-style:solid;text-decoration-color:#000000;letter-spacing:0px;word-spacing:0px;text-anchor:middle;clip-rule:nonzero;display:inline;overflow:visible;visibility:visible;isolation:auto;color-interpolation:sRGB;color-interpolation-filters:linearRGB;fill:#007382;fill-opacity:1;fill-rule:nonzero;stroke:none;stroke-width:1.63910341;stroke-linecap:butt;stroke-linejoin:miter;stroke-miterlimit:4;stroke-dasharray:none;stroke-dashoffset:0;stroke-opacity:1;color-rendering:auto;image-rendering:auto;shape-rendering:auto;text-rendering:auto;enable-background:accumulate"
     d="m 468.27813,75.774998 0,-8.475 -6.6,0.15 0,29.85 -8.4,0 0,-36.975 8.4,0 0,1.35 7.65,-1.2 q 0.675,-0.15 1.35,-0.225 0.75,-0.075 1.35,-0.075 4.575,0 4.575,4.5 l 0,11.1 -8.325,0 z" />
  <path
     inkscape:connector-curvature="0"
     id="path4241"
     style="color:#000000;font-style:normal;font-variant:normal;font-weight:bold;font-stretch:normal;font-size:75px;line-height:125%;font-family:AgencyFB;-inkscape-font-specification:'AgencyFB Bold';text-align:center;text-decoration:none;text-decoration-line:none;text-decoration-style:solid;text-decoration-color:#000000;letter-spacing:0px;word-spacing:0px;text-anchor:middle;clip-rule:nonzero;display:inline;overflow:visible;visibility:visible;isolation:auto;color-interpolation:sRGB;color-interpolation-filters:linearRGB;fill:#007382;fill-opacity:1;fill-rule:nonzero;stroke:none;stroke-width:1.63910341;stroke-linecap:butt;stroke-linejoin:miter;stroke-miterlimit:4;stroke-dasharray:none;stroke-dashoffset:0;stroke-opacity:1;color-rendering:auto;image-rendering:auto;shape-rendering:auto;text-rendering:auto;enable-background:accumulate"
     d="m 524.5375,92.049998 q 0,2.55 -1.35,3.9 -1.35,1.35 -3.825,1.35 l -17.25,0 q -2.475,0 -3.825,-1.35 -1.35,-1.35 -1.35,-3.9 l 0,-13.65 8.55,0 0,11.7 10.5,0 0,-11.25 -17.175,-16.275 q -1.05,-0.975 -1.5,-1.95 -0.375,-0.975 -0.375,-2.625 l 0,-12.75 q 0,-2.55 1.35,-3.9 1.35,-1.35 3.825,-1.35 l 17.25,0 q 2.475,0 3.825,1.35 1.35,1.35 1.35,3.825 l 0,12.825 -8.55,0 0,-10.8 -10.5,0 0,10.35 17.175,16.2 q 1.05,1.05 1.425,2.025 0.45,0.975 0.45,2.625 l 0,13.65 0,0 z" />
  <path
     inkscape:connector-curvature="0"
     id="path4243"
     style="color:#000000;font-style:normal;font-variant:normal;font-weight:bold;font-stretch:normal;font-size:75px;line-height:125%;font-family:AgencyFB;-inkscape-font-specification:'AgencyFB Bold';text-align:center;text-decoration:none;text-decoration-line:none;text-decoration-style:solid;text-decoration-color:#000000;letter-spacing:0px;word-spacing:0px;text-anchor:middle;clip-rule:nonzero;display:inline;overflow:visible;visibility:visible;isolation:auto;color-interpolation:sRGB;color-interpolation-filters:linearRGB;fill:#007382;fill-opacity:1;fill-rule:nonzero;stroke:none;stroke-width:1.63910341;stroke-linecap:butt;stroke-linejoin:miter;stroke-miterlimit:4;stroke-dasharray:none;stroke-dashoffset:0;stroke-opacity:1;color-rendering:auto;image-rendering:auto;shape-rendering:auto;text-rendering:auto;enable-background:accumulate"
     d="m 554.83985,92.724998 q 0,4.575 -4.65,4.575 l -14.55,0 q -4.725,0 -4.725,-4.575 l 0,-27.825 q 0,-4.575 4.725,-4.575 l 14.55,0 q 4.65,0 4.65,4.575 l 0,8.775 -8.175,0 0,-6.375 -7.5,0 0,23.025 7.5,0 0,-7.05 8.175,0 0,9.45 0,0 z" />
  <path
     inkscape:connector-curvature="0"
     id="path4245"
     style="color:#000000;font-style:normal;font-variant:normal;font-weight:bold;font-stretch:normal;font-size:75px;line-height:125%;font-family:AgencyFB;-inkscape-font-specification:'AgencyFB Bold';text-align:center;text-decoration:none;text-decoration-line:none;text-decoration-style:solid;text-decoration-color:#000000;letter-spacing:0px;word-spacing:0px;text-anchor:middle;clip-rule:nonzero;display:inline;overflow:visible;visibility:visible;isolation:auto;color-interpolation:sRGB;color-interpolation-filters:linearRGB;fill:#007382;fill-opacity:1;fill-rule:nonzero;stroke:none;stroke-width:1.63910341;stroke-linecap:butt;stroke-linejoin:miter;stroke-miterlimit:4;stroke-dasharray:none;stroke-dashoffset:0;stroke-opacity:1;color-rendering:auto;image-rendering:auto;shape-rendering:auto;text-rendering:auto;enable-background:accumulate"
     d="m 577.07266,97.299998 0,-30 -7.875,0.15 0,29.85 -8.4,0 0,-57.3 8.4,0 0,21.675 9,-1.2 q 0.675,-0.15 1.35,-0.225 0.75,-0.075 1.35,-0.075 4.575,0 4.575,4.5 l 0,32.625 -8.4,0 z" />
  <path
     inkscape:connector-curvature="0"
     id="path4247"
     style="color:#000000;font-style:normal;font-variant:normal;font-weight:bold;font-stretch:normal;font-size:75px;line-height:125%;font-family:AgencyFB;-inkscape-font-specification:'AgencyFB Bold';text-align:center;text-decoration:none;text-decoration-line:none;text-decoration-style:solid;text-decoration-color:#000000;letter-spacing:0px;word-spacing:0px;text-anchor:middle;clip-rule:nonzero;display:inline;overflow:visible;visibility:visible;isolation:auto;color-interpolation:sRGB;color-interpolation-filters:linearRGB;fill:#007382;fill-opacity:1;fill-rule:nonzero;stroke:none;stroke-width:1.63910341;stroke-linecap:butt;stroke-linejoin:miter;stroke-miterlimit:4;stroke-dasharray:none;stroke-dashoffset:0;stroke-opacity:1;color-rendering:auto;image-rendering:auto;shape-rendering:auto;text-rendering:auto;enable-background:accumulate"
     d="m 615.78789,92.724998 q 0,4.575 -4.65,4.575 l -15,0 q -4.725,0 -4.725,-4.575 l 0,-27.825 q 0,-4.575 4.725,-4.575 l 15,0 q 4.65,0 4.65,4.575 l 0,27.825 0,0 z m -8.175,-25.425 -7.95,0 0,23.025 7.95,0 0,-23.025 z" />
  <path
     inkscape:connector-curvature="0"
     id="path4249"
     style="color:#000000;font-style:normal;font-variant:normal;font-weight:bold;font-stretch:normal;font-size:75px;line-height:125%;font-family:AgencyFB;-inkscape-font-specification:'AgencyFB Bold';text-align:center;text-decoration:none;text-decoration-line:none;text-decoration-style:solid;text-decoration-color:#000000;letter-spacing:0px;word-spacing:0px;text-anchor:middle;clip-rule:nonzero;display:inline;overflow:visible;visibility:visible;isolation:auto;color-interpolation:sRGB;color-interpolation-filters:linearRGB;fill:#007382;fill-opacity:1;fill-rule:nonzero;stroke:none;stroke-width:1.63910341;stroke-linecap:butt;stroke-linejoin:miter;stroke-miterlimit:4;stroke-dasharray:none;stroke-dashoffset:0;stroke-opacity:1;color-rendering:auto;image-rendering:auto;shape-rendering:auto;text-rendering:auto;enable-background:accumulate"
     d="m 646.25664,92.724998 q 0,4.575 -4.65,4.575 l -15,0 q -4.725,0 -4.725,-4.575 l 0,-27.825 q 0,-4.575 4.725,-4.575 l 15,0 q 4.65,0 4.65,4.575 l 0,27.825 0,0 z m -8.175,-25.425 -7.95,0 0,23.025 7.95,0 0,-23.025 z" />
  <path
     inkscape:connector-curvature="0"
     id="path4251"
     style="color:#000000;font-style:normal;font-variant:normal;font-weight:bold;font-stretch:normal;font-size:75px;line-height:125%;font-family:AgencyFB;-inkscape-font-specification:'AgencyFB Bold';text-align:center;text-decoration:none;text-decoration-line:none;text-decoration-style:solid;text-decoration-color:#000000;letter-spacing:0px;word-spacing:0px;text-anchor:middle;clip-rule:nonzero;display:inline;overflow:visible;visibility:visible;isolation:auto;color-interpolation:sRGB;color-interpolation-filters:linearRGB;fill:#007382;fill-opacity:1;fill-rule:nonzero;stroke:none;stroke-width:1.63910341;stroke-linecap:butt;stroke-linejoin:miter;stroke-miterlimit:4;stroke-dasharray:none;stroke-dashoffset:0;stroke-opacity:1;color-rendering:auto;image-rendering:auto;shape-rendering:auto;text-rendering:auto;enable-background:accumulate"
     d="m 652.57539,97.299998 0,-57.3 8.25,0 0,57.3 -8.25,0 z" />
</svg>
