<?xml version="1.0" encoding="UTF-8" standalone="no"?>
<!-- Generator: Adobe Illustrator 15.1.0, SVG Export Plug-In . SVG Version: 6.00 Build 0)  -->

<svg
   xmlns:dc="http://purl.org/dc/elements/1.1/"
   xmlns:cc="http://creativecommons.org/ns#"
   xmlns:rdf="http://www.w3.org/1999/02/22-rdf-syntax-ns#"
   xmlns:svg="http://www.w3.org/2000/svg"
   xmlns="http://www.w3.org/2000/svg"
   xmlns:sodipodi="http://sodipodi.sourceforge.net/DTD/sodipodi-0.dtd"
   xmlns:inkscape="http://www.inkscape.org/namespaces/inkscape"
   version="1.1"
   id="Layer_1"
   x="0px"
   y="0px"
   width="179.99998"
   height="165.48512"
   viewBox="0 0 179.99998 165.48512"
   enable-background="new 0 0 743.814 800.002"
   xml:space="preserve"
   inkscape:version="0.48+devel r"
   sodipodi:docname="3_Dietro.svg"><metadata
     id="metadata80"><rdf:RDF><cc:Work
         rdf:about=""><dc:format>image/svg+xml</dc:format><dc:type
           rdf:resource="http://purl.org/dc/dcmitype/StillImage" /><dc:title /></cc:Work></rdf:RDF></metadata><defs
     id="defs78" /><sodipodi:namedview
     pagecolor="#ffffff"
     bordercolor="#666666"
     borderopacity="1"
     objecttolerance="10"
     gridtolerance="10"
     guidetolerance="10"
     inkscape:pageopacity="0"
     inkscape:pageshadow="2"
     inkscape:window-width="1855"
     inkscape:window-height="1056"
     id="namedview76"
     showgrid="false"
     inkscape:object-paths="true"
     inkscape:snap-intersection-paths="true"
     fit-margin-top="40"
     fit-margin-left="40"
     fit-margin-right="40"
     fit-margin-bottom="40"
     inkscape:zoom="0.21909028"
     inkscape:cx="137.89867"
     inkscape:cy="266.03162"
     inkscape:window-x="65"
     inkscape:window-y="24"
     inkscape:window-maximized="1"
     inkscape:current-layer="Layer_1" /><g
     id="side"
     display="none"
     style="display:none"
     transform="translate(-1160.4399,1422.3491)" /><g
     id="back"
     display="none"
     style="display:none"
     transform="translate(-1160.4399,1422.3491)" /><g
     id="secondary"
     transform="translate(-1160.4399,1422.3491)" /><path
     id="path36102"
     style="fill:#fafaf5;fill-opacity:1"
     d="m 86.132716,40 c -4.1365,-4e-4 -8.0352,0.21514 -11.1755,0.69331 -19.154,2.91659 -33.8948,21.3407 -34.913,43.62891 -0.4974,10.88823 3.2195,21.46219 10.2015,29.0034 3.9764,4.29488 6.9347,5.9033 13.2389,7.18069 l 4.3084,0.87489 5.0182,-1.61772 c 2.9061,-0.93088 6.8605,-1.74441 9.4092,-1.94787 10.8495,-1.69632 7.6576,-1.456 10.9444,-1.23805 -1.1265,0.69624 -0.2805,1.07074 4.9192,2.11294 2.709604,0.54312 6.107704,1.33464 7.560404,1.76629 1.4526,0.43165 5.1826,1.48169 8.2866,2.34404 3.1041,0.86234 6.0754,1.82259 6.603,2.12945 1.3607,0.79142 5.9134,0.72625 8.7654,-0.13206 5.2853,-1.59065 7.3658,-4.55758 8.2536,-11.73672 0.2908,-2.35076 1.0217,-5.54402 1.6343,-7.09816 1.3143,-3.3345 1.1253,-4.4509 -1.2381,-7.27974 -3.0059,-3.59785 -3.2772,-4.80616 -2.4761,-10.61422 3.6525,-26.48025 -2.7551,-38.45711 -24.1667,-45.16409 C 105.47832,41.07971 95.233016,40.00089 86.132716,40 Z m 0.4457,53.03809 c 2.1253,0 2.3274,2.17925 1.6672,2.87228 -0.587,0.61619 -1.803,0.96557 -2.6247,0.39618 -1.3601,-0.94257 -0.9153,-3.26846 0.9575,-3.26846 z"
     inkscape:connector-curvature="0"
     sodipodi:nodetypes="sssscccccsssssssssssssss" /><path
     d="m 130.50092,95.28865 c -1.7815,-1.95556 -2.2789,-3.34795 -2.2544,-6.31108 0.043,-5.26676 3.3667,-11.14754 4.5528,-8.05663 0.1925,0.5016 -0.1172,1.13013 -0.7884,1.60028 -2.454,1.71889 -2.9346,7.96913 -0.8491,11.04238 1.541,2.2708 1.0363,3.58811 -0.6609,1.72505 z M 86.132716,40 c -4.1365,-4e-4 -8.0352,0.21514 -11.1755,0.69331 -19.154,2.91659 -33.8948,21.3407 -34.913,43.62891 -0.4974,10.88823 3.2195,21.46219 10.2015,29.0034 3.9764,4.29488 6.9347,5.9033 13.2389,7.18068 l 4.3084,0.8749 5.0182,-1.61773 c 2.9061,-0.93086 6.8605,-1.74439 9.4092,-1.94786 5.7361,-0.4579 5.7281,-0.44259 5.7281,-6.05819 l 0,-4.67158 2.2615,-1.55169 c 1.2414,-0.8541 3.2125,-2.60076 4.3909,-3.87922 8.484404,-9.20443 6.612604,-22.06032 -3.8462,-26.39524 l -2.7732,-1.15552 -0.1486,-16.83749 -0.1485,-16.17719 c 0.2906,-0.0412 0.8158,-0.0455 1.5351,-0.033 1.2112,0.021 3.2961,0.24023 6.2233,0.51172 14.491204,1.34403 26.889804,6.18352 32.602004,12.38051 5.8937,6.3939 8.2028,17.98706 6.1242,30.63762 -1.3319,8.1064 -0.7342,12.16356 2.113,14.52647 2.1111,1.75204 2.4529,3.45726 1.3041,6.37183 -0.5888,1.49357 -1.3035,4.52799 -1.6013,6.7515 -0.9834,7.34506 -2.4073,9.52768 -7.1146,10.94438 -3.5222,1.06001 -5.1978,0.95718 -9.7559,-0.59428 -9.4189,-3.20596 -24.737404,-6.75776 -25.949504,-6.00868 -1.1265,0.69626 -0.2805,1.07075 4.9192,2.11296 2.709604,0.54311 6.107704,1.33463 7.560404,1.76628 1.4526,0.43164 5.1826,1.4817 8.2866,2.34405 3.1041,0.86233 6.0754,1.82259 6.603,2.12944 1.3607,0.79143 5.9134,0.72625 8.7654,-0.13206 5.2853,-1.59066 7.3658,-4.55758 8.2536,-11.73671 0.2908,-2.35077 1.0217,-5.54403 1.6343,-7.09817 1.3143,-3.3345 1.1253,-4.4509 -1.2381,-7.27974 -3.0059,-3.59785 -3.2772,-4.80616 -2.4761,-10.61422 3.6525,-26.48025 -2.7551,-38.4571 -24.1667,-45.16408 -5.8281,-1.82558 -16.073404,-2.9044 -25.173704,-2.90529 z m 0.4457,53.03809 c 2.1253,0 2.3274,2.17925 1.6672,2.87228 -0.587,0.61619 -1.803,0.96557 -2.6247,0.39618 -1.3601,-0.94257 -0.9153,-3.26846 0.9575,-3.26846 z"
     style="fill:#232323;fill-opacity:1"
     id="path3808"
     inkscape:connector-curvature="0" /><path
     d="m 130.50092,95.28865 c -1.7815,-1.95556 -2.2789,-3.34796 -2.2544,-6.31109 0.043,-5.26676 3.3667,-11.14753 4.5528,-8.05662 0.1925,0.5016 -0.1172,1.13013 -0.7884,1.60027 -2.454,1.71889 -2.9347,7.96914 -0.8491,11.04239 1.541,2.27079 1.0363,3.58811 -0.6609,1.72505 z M 86.132616,40 c -4.1365,-4e-4 -8.0351,0.21514 -11.1754,0.69331 -19.1541,2.91659 -33.8948,21.3407 -34.913,43.6289 -0.4975,10.88824 3.2195,21.46219 10.2015,29.0034 3.9764,4.29489 6.9347,5.9033 13.2389,7.18069 l 4.3084,0.87489 5.0182,-1.61772 c 2.906,-0.93087 6.8605,-1.7444 9.4092,-1.94786 5.7361,-0.4579 5.7281,-0.4426 5.7281,-6.0582 l 0,-4.67157 2.2615,-1.55169 c 1.2414,-0.85411 3.2125,-2.60076 4.3909,-3.87923 8.484404,-9.20442 6.612604,-22.06032 -3.8462,-26.39524 l -2.7732,-1.15551 -0.1486,-16.83749 -0.1486,-16.1772 c 0.2907,-0.0411 0.8159,-0.0455 1.5352,-0.033 1.2112,0.021 3.2961,0.24023 6.2233,0.51173 14.491204,1.34402 26.889804,6.18351 32.602004,12.3805 5.8937,6.39391 8.2027,17.98707 6.1242,30.63763 -1.3319,8.10639 -0.7342,12.16356 2.113,14.52646 2.111,1.75205 2.4529,3.45726 1.304,6.37183 -0.5887,1.49357 -1.3035,4.52799 -1.6012,6.7515 -0.9834,7.34507 -2.4073,9.52768 -7.1146,10.94438 -3.5222,1.06002 -5.1978,0.95719 -9.7559,-0.59428 -9.4189,-3.20596 -24.737504,-6.75776 -25.949504,-6.00867 -1.1266,0.69625 -0.2805,1.07074 4.9192,2.11295 2.709604,0.54311 6.107704,1.33464 7.560304,1.76628 1.4527,0.43164 5.1827,1.48171 8.2867,2.34405 3.104,0.86233 6.0754,1.82259 6.603,2.12944 1.3607,0.79143 5.9134,0.72625 8.7654,-0.13206 5.2853,-1.59065 7.3657,-4.55758 8.2536,-11.73671 0.2908,-2.35077 1.0217,-5.54403 1.6342,-7.09816 1.3144,-3.33451 1.1254,-4.4509 -1.238,-7.27974 -3.0059,-3.59785 -3.2772,-4.80617 -2.4761,-10.61422 3.6525,-26.48026 -2.7551,-38.45711 -24.1668,-45.16409 -5.828,-1.82558 -16.073404,-2.9044 -25.173704,-2.90529 z m 0.4457,53.03809 c 2.1254,0 2.3275,2.17924 1.6673,2.87228 -0.587,0.61618 -1.803,0.96557 -2.6247,0.39617 -1.3601,-0.94257 -0.9153,-3.26845 0.9574,-3.26845 z"
     style="color:#000000;text-decoration:none;text-decoration-line:none;text-decoration-style:solid;text-decoration-color:#000000;clip-rule:nonzero;display:inline;overflow:visible;visibility:visible;opacity:1;isolation:auto;color-interpolation:sRGB;color-interpolation-filters:linearRGB;fill:#0b5a64;fill-opacity:1;fill-rule:nonzero;stroke:none;stroke-width:4.10362101;stroke-linecap:butt;stroke-linejoin:miter;stroke-miterlimit:4;stroke-dasharray:none;stroke-dashoffset:0;stroke-opacity:1;color-rendering:auto;image-rendering:auto;shape-rendering:auto;text-rendering:auto;enable-background:accumulate"
     id="path5473"
     inkscape:connector-curvature="0" /></svg>