<?xml version="1.0" encoding="UTF-8" standalone="no"?>
<!-- Created with Inkscape (http://www.inkscape.org/) -->

<svg
   xmlns:dc="http://purl.org/dc/elements/1.1/"
   xmlns:cc="http://creativecommons.org/ns#"
   xmlns:rdf="http://www.w3.org/1999/02/22-rdf-syntax-ns#"
   xmlns:svg="http://www.w3.org/2000/svg"
   xmlns="http://www.w3.org/2000/svg"
   xmlns:sodipodi="http://sodipodi.sourceforge.net/DTD/sodipodi-0.dtd"
   xmlns:inkscape="http://www.inkscape.org/namespaces/inkscape"
   inkscape:export-ydpi="90"
   inkscape:export-xdpi="90"
   inkscape:export-filename="/home/alecive/Scrivania/iCubAttempt1.jpg.png"
   sodipodi:docname="iCub_transparent.svg"
   inkscape:version="0.48.3.1 r9886"
   version="1.1"
   id="svg36198"
   height="512"
   width="512">
  <defs
     id="defs36200" />
  <sodipodi:namedview
     id="base"
     pagecolor="#ffffff"
     bordercolor="#666666"
     borderopacity="1.0"
     inkscape:pageopacity="0.0"
     inkscape:pageshadow="2"
     inkscape:zoom="0.70710678"
     inkscape:cx="388.3076"
     inkscape:cy="90.187321"
     inkscape:document-units="px"
     inkscape:current-layer="layer1"
     showgrid="false"
     fit-margin-top="0"
     fit-margin-left="0"
     fit-margin-right="0"
     fit-margin-bottom="0"
     inkscape:window-width="1317"
     inkscape:window-height="744"
     inkscape:window-x="49"
     inkscape:window-y="24"
     inkscape:window-maximized="1" />
  <metadata
     id="metadata36203">
    <rdf:RDF>
      <cc:Work
         rdf:about="">
        <dc:format>image/svg+xml</dc:format>
        <dc:type
           rdf:resource="http://purl.org/dc/dcmitype/StillImage" />
        <dc:title />
      </cc:Work>
    </rdf:RDF>
  </metadata>
  <g
     inkscape:label="Livello 1"
     inkscape:groupmode="layer"
     id="layer1"
     transform="translate(-280.33287,-101.27761)">
    <path
       style="fill:#0a0a0a;fill-opacity:1"
       d="M 234.71875 35.46875 C 214.01819 35.46675 194.49633 36.54455 178.78125 38.9375 C 82.92745 53.53319 9.15795 145.71166 4.0625 257.25 C 1.5733 311.73874 20.18449 364.66727 55.125 402.40625 C 75.02436 423.89942 89.82668 431.95123 121.375 438.34375 L 142.9375 442.71875 L 168.0625 434.625 C 182.6053 429.96652 202.37041 425.89319 215.125 424.875 C 243.83054 422.58347 243.8125 422.66501 243.8125 394.5625 L 243.8125 371.1875 L 255.125 363.40625 C 261.33742 359.132 271.19638 350.39791 277.09375 344 C 319.55253 297.93768 310.18333 233.5998 257.84375 211.90625 L 243.96875 206.125 L 243.21875 121.875 L 242.46875 40.90625 C 243.92309 40.70032 246.5563 40.68761 250.15625 40.75 C 256.21743 40.8551 266.6636 41.95383 281.3125 43.3125 C 353.83158 50.0385 415.88285 74.23797 444.46875 105.25 C 473.96297 137.24744 485.49551 195.2857 475.09375 258.59375 C 468.42837 299.16112 471.43942 319.45642 485.6875 331.28125 C 496.25214 340.04914 497.96785 348.57066 492.21875 363.15625 C 489.27262 370.63062 485.67734 385.84146 484.1875 396.96875 C 479.26605 433.72607 472.15103 444.62907 448.59375 451.71875 C 430.96749 457.02348 422.59161 456.51409 399.78125 448.75 C 352.64559 432.70621 275.97185 414.93875 269.90625 418.6875 C 264.26866 422.17174 268.5103 424.03444 294.53125 429.25 C 308.09128 431.96795 325.07418 435.93363 332.34375 438.09375 C 339.61332 440.25387 358.31004 445.49699 373.84375 449.8125 C 389.37745 454.12798 404.23477 458.93313 406.875 460.46875 C 413.68458 464.42932 436.47779 464.10782 450.75 459.8125 C 477.19975 451.85232 487.58793 437.0208 492.03125 401.09375 C 493.4862 389.32967 497.15316 373.33996 500.21875 365.5625 C 506.79619 348.87541 505.85868 343.28155 494.03125 329.125 C 478.98851 311.12003 477.61587 305.09688 481.625 276.03125 C 499.90359 143.51432 467.83906 83.56418 360.6875 50 C 331.52176 40.86411 280.25999 35.4732 234.71875 35.46875 z M 463.53125 235.96875 C 456.23022 236.60016 445.64212 259.55942 445.46875 280.5625 C 445.34631 295.3911 447.83473 302.3699 456.75 312.15625 C 465.24353 321.47968 467.77425 314.8639 460.0625 303.5 C 449.62559 288.12033 452.03154 256.85194 464.3125 248.25 C 467.67157 245.89722 469.21326 242.76019 468.25 240.25 C 467.04432 237.10805 465.3923 235.8078 463.53125 235.96875 z M 236.9375 300.875 C 247.57358 300.875 248.58502 311.7818 245.28125 315.25 C 242.34384 318.33362 236.26805 320.09946 232.15625 317.25 C 225.34966 312.53305 227.56546 300.875 236.9375 300.875 z "
       transform="translate(280.33287,101.27761)"
       id="path36150" />
  </g>
</svg>
