<?xml version="1.0" encoding="UTF-8" standalone="no"?>
<!-- Created with Inkscape (http://www.inkscape.org/) -->

<svg
   xmlns:dc="http://purl.org/dc/elements/1.1/"
   xmlns:cc="http://creativecommons.org/ns#"
   xmlns:rdf="http://www.w3.org/1999/02/22-rdf-syntax-ns#"
   xmlns:svg="http://www.w3.org/2000/svg"
   xmlns="http://www.w3.org/2000/svg"
   xmlns:sodipodi="http://sodipodi.sourceforge.net/DTD/sodipodi-0.dtd"
   xmlns:inkscape="http://www.inkscape.org/namespaces/inkscape"
   inkscape:export-ydpi="90"
   inkscape:export-xdpi="90"
   inkscape:export-filename="/home/alecive/Scrivania/iCubAttempt1.jpg.png"
   sodipodi:docname="iCub_World_solidcolor.svg"
   inkscape:version="0.91+devel r"
   version="1.1"
   id="svg36198"
   height="512"
   width="512"
   viewBox="0 0 512 512">
  <defs
     id="defs36200">
    <linearGradient
       id="linearGradient4132">
      <stop
         offset="0"
         style="stop-color:#9ccaf4;stop-opacity:1"
         id="stop4134" />
      <stop
         offset="1"
         style="stop-color:#b2cade;stop-opacity:0.12156863"
         id="stop4136" />
    </linearGradient>
  </defs>
  <sodipodi:namedview
     id="base"
     pagecolor="#ffffff"
     bordercolor="#666666"
     borderopacity="1.0"
     inkscape:pageopacity="0.0"
     inkscape:pageshadow="2"
     inkscape:zoom="1.0966833"
     inkscape:cx="178.69798"
     inkscape:cy="261.40711"
     inkscape:document-units="px"
     inkscape:current-layer="layer1"
     showgrid="false"
     fit-margin-top="0"
     fit-margin-left="0"
     fit-margin-right="0"
     fit-margin-bottom="0"
     inkscape:window-width="1855"
     inkscape:window-height="1056"
     inkscape:window-x="65"
     inkscape:window-y="24"
     inkscape:window-maximized="1" />
  <metadata
     id="metadata36203">
    <rdf:RDF>
      <cc:Work
         rdf:about="">
        <dc:format>image/svg+xml</dc:format>
        <dc:type
           rdf:resource="http://purl.org/dc/dcmitype/StillImage" />
        <dc:title></dc:title>
      </cc:Work>
    </rdf:RDF>
  </metadata>
  <g
     inkscape:label="Livello 1"
     inkscape:groupmode="layer"
     id="layer1"
     transform="translate(-280.33287,-101.27761)">
    <path
       id="path36102"
       style="fill:#fafaf5;fill-opacity:1"
       d="m 515.04786,136.73854 c -20.70056,-0.002 -40.21107,1.07662 -55.92615,3.46957 -95.8538,14.59569 -169.62216,106.7967 -174.71761,218.33504 -2.4892,54.48874 16.11173,107.40468 51.05224,145.14366 19.89936,21.49317 34.70394,29.54231 66.25226,35.93483 l 21.56089,4.37826 25.11307,-8.09566 c 14.5428,-4.65848 34.33243,-8.72965 47.08702,-9.74784 54.29465,-8.48905 38.32113,-7.28638 54.76963,-6.19566 -5.63759,3.48424 -1.40353,5.35837 24.61742,10.57393 13.56003,2.71795 30.56526,6.67902 37.83483,8.83914 7.26957,2.16012 25.93591,7.41494 41.46962,11.73045 15.5337,4.31548 30.40329,9.12091 33.04352,10.65653 6.80958,3.96057 29.59306,3.63445 43.86527,-0.66087 26.44975,-7.96018 36.86107,-22.8078 41.30439,-58.73485 1.45495,-11.76408 5.11268,-27.74432 8.17827,-35.52178 6.57744,-16.68709 5.63178,-22.27393 -6.19565,-36.43048 C 759.31414,412.40784 757.95643,406.36098 761.96556,377.29535 780.24415,244.77842 748.17784,184.84186 641.02628,151.27768 611.86054,142.14179 560.5891,136.74299 515.04786,136.73854 Z m 2.23044,265.42206 c 10.63608,0 11.64726,10.90573 8.34349,14.37393 -2.93741,3.08362 -9.023,4.83207 -13.1348,1.98261 -6.80659,-4.71695 -4.58073,-16.35654 4.79131,-16.35654 z"
       inkscape:connector-curvature="0"
       sodipodi:nodetypes="sssscccccsssssssssssssss" />
    <path
       d="m 737.08279,413.42323 c -8.91527,-9.78635 -11.40437,-16.75439 -11.28193,-31.58299 0.21756,-26.35681 16.84839,-55.78635 22.78404,-40.3183 0.96326,2.51019 -0.58638,5.65559 -3.94545,8.00837 -12.28096,8.60194 -14.6861,39.88046 -4.24919,55.26013 7.71175,11.3639 5.18606,17.95622 -3.30747,8.63279 z M 515.04786,136.73854 c -20.70056,-0.002 -40.21107,1.07662 -55.92615,3.46957 -95.8538,14.59569 -169.62216,106.7967 -174.71761,218.33504 -2.4892,54.48874 16.11173,107.40468 51.05224,145.14365 19.89936,21.4932 34.70394,29.5423 66.25226,35.9348 l 21.56089,4.3783 25.11307,-8.0957 c 14.5428,-4.6584 34.33243,-8.7296 47.08702,-9.7478 28.70554,-2.2915 28.66525,-2.2149 28.66525,-30.31743 v -23.37829 l 11.31741,-7.76522 c 6.21242,-4.27425 16.07657,-13.01516 21.97394,-19.41307 42.45878,-46.06232 33.09173,-110.39792 -19.24785,-132.09147 l -13.87828,-5.78261 -0.74348,-84.26097 -0.74348,-80.95662 c 1.45434,-0.20593 4.08267,-0.22761 7.68262,-0.16522 6.06118,0.1051 16.49461,1.2022 31.14351,2.56087 72.51908,6.726 134.56648,30.94457 163.15238,61.9566 29.49422,31.99744 41.04962,90.01387 30.64786,153.32192 -6.66538,40.56737 -3.67415,60.87092 10.57393,72.69575 10.56464,8.76789 12.27519,17.3014 6.52609,31.88699 -2.94613,7.47437 -6.52321,22.65971 -8.01305,33.78697 -4.92145,36.7574 -12.04711,47.68 -35.60439,54.7697 -17.62626,5.3047 -26.01144,4.7901 -48.8218,-2.974 -47.13566,-16.0438 -123.79543,-33.8183 -129.86103,-30.0696 -5.63759,3.4843 -1.40353,5.3584 24.61742,10.574 13.56003,2.7179 30.56526,6.679 37.83483,8.8391 7.26957,2.1601 25.93591,7.415 41.46962,11.7305 15.5337,4.3154 30.40329,9.1209 33.04352,10.6565 6.80958,3.9606 29.59306,3.6344 43.86527,-0.6609 26.44975,-7.9602 36.86107,-22.8078 41.30439,-58.7348 1.45495,-11.76411 5.11268,-27.74435 8.17827,-35.52181 6.57744,-16.68709 5.63178,-22.27393 -6.19565,-36.43048 C 759.31414,412.40784 757.95643,406.36098 761.96556,377.29535 780.24415,244.77842 748.17784,184.84186 641.02628,151.27768 611.86054,142.14179 560.5891,136.74299 515.04786,136.73854 Z m 2.23044,265.42206 c 10.63608,0 11.64726,10.90573 8.34349,14.37393 -2.93741,3.08362 -9.023,4.83207 -13.1348,1.98261 -6.80659,-4.71695 -4.58073,-16.35654 4.79131,-16.35654 z"
       style="fill:#56a8d6;fill-opacity:1;font-variant-east_asian:normal;opacity:1;stroke:none;stroke-width:1;stroke-linecap:butt;stroke-linejoin:miter;stroke-miterlimit:4;stroke-dasharray:none;stroke-dashoffset:0;stroke-opacity:1;marker:none"
       id="path3808"
       inkscape:connector-curvature="0" />
    <path
       inkscape:connector-curvature="0"
       id="path9531"
       style="opacity:1;fill:#56a8d6;fill-opacity:1;stroke:none;stroke-width:1;stroke-linecap:butt;stroke-linejoin:miter;stroke-miterlimit:4;stroke-dasharray:none;stroke-dashoffset:0;stroke-opacity:1;marker:none"
       d="m 515.04786,136.73854 c -20.70056,-0.002 -40.21107,1.07662 -55.92615,3.46957 -95.8538,14.59569 -169.62216,106.7967 -174.71761,218.33504 -2.4892,54.48874 16.11173,107.40468 51.05224,145.14365 19.89936,21.4932 34.70394,29.5423 66.25226,35.9348 l 21.56089,4.3783 25.11307,-8.0957 c 14.5428,-4.6584 34.33243,-8.7296 47.08702,-9.7478 28.70554,-2.2915 28.66525,-2.2149 28.66525,-30.31743 v -23.37829 l 11.31741,-7.76522 c 6.21242,-4.27425 16.07657,-13.01516 21.97394,-19.41307 42.45878,-46.06232 33.09173,-110.39792 -19.24785,-132.09147 l -13.87828,-5.78261 -0.74348,-84.26097 -0.74348,-80.95662 c -0.0289,-4.10038 -5.40462,-5.38088 -7.76523,-5.45218 z m 2.23044,265.42206 c 10.63608,0 11.64726,10.90573 8.34349,14.37393 -2.93741,3.08362 -9.023,4.83207 -13.1348,1.98261 -6.80659,-4.71695 -4.58073,-16.35654 4.79131,-16.35654 z"
       sodipodi:nodetypes="csscccccsccccccccsccs" />
    <path
       style="display:inline;opacity:1;fill:#fafaf5;fill-opacity:1;stroke:none;stroke-width:1;font-variant-east_asian:normal;stroke-linecap:butt;stroke-linejoin:miter;stroke-miterlimit:4;stroke-dasharray:none;stroke-dashoffset:0;stroke-opacity:1"
       d="M 149.15625 55.693359 C 147.40251 55.712059 145.79793 55.875951 144.59961 56.144531 L 125.09766 56.144531 C 111.88257 62.786533 99.418414 71.014777 87.875 80.611328 C 88.991007 81.964742 90.67025 82.751461 93.285156 82.714844 C 99.058016 90.457754 81.789825 85.012729 94.265625 90.980469 C 101.43991 96.340719 86.679713 99.416262 95.564453 104.22656 C 85.324503 109.23936 97.230187 130.44463 104.83594 135.75195 C 117.35413 145.74974 110.36603 114.58991 124.33398 112.96875 C 131.92391 104.74841 145.25362 99.462809 154.7207 91.193359 C 145.46859 90.480779 140.05031 85.013216 148.8125 81.628906 C 164.93903 97.306096 152.86445 74.214421 143.9375 70.556641 C 152.5754 67.949871 160.97783 69.848017 159.7793 63.085938 C 167.19608 57.938167 156.75579 55.612459 149.15625 55.693359 z M 228.95898 85.259766 C 228.60209 85.278666 228.33324 85.389822 228.19141 85.576172 C 209.15681 89.993442 201.60366 107.23987 192.1875 121.52539 C 178.3074 127.46236 178.82715 152.95576 194.33398 144.8125 C 198.48425 151.68925 191.4385 162.51907 203.52734 153.52734 C 213.27819 141.28563 205.23848 121.48284 221.83203 113.76367 C 223.04065 119.76575 206.51296 142.1916 225.80664 138.50781 C 243.24835 139.13216 213.13794 140.15105 221.62109 150.7207 C 212.80733 145.75963 217.38926 164.27241 205.88477 159.96484 C 195.918 165.10806 189.37507 157.56671 191.6582 149.31641 C 183.81771 153.6557 194.1165 165.90685 180.50586 166.64258 C 177.457 176.91364 152.39244 175.36358 166.65039 185.82227 C 172.98059 201.38637 143.05555 186.80107 151.54883 205.47852 C 158.81528 223.94768 174.03647 199.36785 180.21484 194.61719 C 191.76289 186.11908 208.70882 208.11534 200.00391 210.30078 C 210.96313 208.3376 208.37589 197.93894 198.99609 193.84961 C 193.79114 181.04304 215.48564 200.14356 214.2832 206.56445 C 221.93311 220.15437 218.78961 192.63962 226.57422 204.81641 C 225.66536 217.66113 257.8811 207.83853 242.49609 224.20898 C 229.2684 226.73654 216.23965 220.99457 204.85156 224.68555 C 194.25228 224.59645 194.80227 213.83889 190.94336 211.14844 C 177.46092 212.18759 160.7877 212.07321 151.76172 222.40625 C 142.00125 235.11072 127.93007 252.86387 138.56836 269.08594 C 149.21411 293.12517 175.60963 270.33422 190.78516 284.53125 C 195.29581 290.45077 186.87132 297.48455 196.95703 303.89648 C 200.75219 317.55504 192.64192 330.52334 201.96289 343.58008 C 206.78271 355.85923 209.80107 374.24587 227.74023 363.02539 C 246.72635 352.1861 241.66599 332.20999 257.33203 321.14258 C 244.93614 298.38353 272.49654 288.40979 279.37305 269.93359 C 264.34926 272.02023 250.9482 257.79707 247.31836 243.49414 C 241.00703 236.5469 242.65113 226.31035 249.70117 239.36133 C 259.39133 248.26922 259.59233 274.68354 277.51758 261.08594 C 282.83689 258.97518 294.12403 253.0082 296.51953 247.53711 C 295.39332 245.2128 294.14355 242.94585 292.76172 240.75 C 292.02999 240.41205 291.21495 240.08691 290.26172 239.78516 C 278.76723 247.68339 266.07015 216.19123 282.94922 234.46094 C 285.63311 235.54118 288.11719 236.50964 290.38477 237.21875 C 282.70677 226.52062 271.80648 217.70048 257.8457 211.91406 L 243.9668 206.13086 L 243.91211 200.00391 C 234.09999 200.29775 223.70804 197.78215 235.21094 186.98828 C 237.34981 185.77014 241.26161 187.94558 243.81641 189.04297 L 243.22461 121.86914 L 243.15625 114.5293 C 241.98574 112.00166 241.73403 109.81123 243.10938 109.24219 L 242.97656 94.789062 C 238.74562 92.442622 235.0131 90.529681 234.20508 89.550781 C 238.1458 88.655031 231.45744 85.127266 228.95898 85.259766 z M 88.542969 89.550781 C 81.581139 95.053881 101.77849 96.090281 88.542969 89.550781 z M 64.613281 103.18945 C 59.268261 109.22234 54.210866 115.58911 49.472656 122.26562 C 56.439853 127.15626 62.41207 135.02971 59.560547 125.84375 C 54.264557 122.17525 73.792889 131.72715 63.667969 119.80469 C 54.350269 105.56284 64.401738 113.43386 68.330078 116.75781 C 76.010965 110.22366 69.87446 106.98284 64.613281 103.18945 z M 150.79297 111.00977 C 143.88959 118.54969 134.7833 109.031 134.63477 115.51172 C 135.88589 117.46988 140.90208 131.44265 151.88086 121.12891 C 157.77319 118.77213 155.44292 112.8287 150.79297 111.00977 z M 44.371094 129.76562 C 42.449586 132.70958 40.580274 135.70129 38.779297 138.75 C 40.3341 150.04904 37.960893 162.16947 32.646484 169.39648 C 32.361761 165.24885 30.417564 162.27164 27.660156 159.90039 C 17.787912 181.13542 10.702836 204.30374 6.9277344 228.72266 C 16.84877 225.51511 29.563855 228.63652 32.513672 239.33594 C 26.490952 221.98368 44.164653 208.47208 53.970703 196.12695 C 55.967363 190.22628 67.830627 185.1597 63.748047 193.00195 C 70.703437 192.76378 81.242559 180.85561 68.886719 186.35156 C 68.711889 175.49221 58.061042 178.58501 54.607422 180.12695 C 61.008432 170.48871 93.885081 175.77383 80.119141 160.01953 C 69.452301 155.91917 70.324336 131.98622 59.535156 145.31641 C 60.117897 140.04477 50.911819 131.54432 44.371094 129.76562 z M 162.38477 145.66016 C 153.29969 151.53609 167.05813 163.79981 162.35938 169.58203 C 156.45218 179.34626 184.31136 168.89575 169.43164 161.10547 C 168.41183 154.66747 161.27932 146.86697 162.38477 145.66016 z M 156.18555 157.31641 C 143.05078 160.83938 153.20337 179.03147 157.85547 161.90039 C 158.11698 160.90719 158.47216 157.28321 156.18555 157.31641 z M 84.013672 170.48242 C 71.794292 178.38713 82.130637 186.27931 91.085938 182.72266 C 89.247428 177.95332 84.096502 174.94637 84.013672 170.48242 z M 189.83008 200.63086 C 182.16984 205.31274 195.127 208.90278 189.83008 200.63086 z M 30.472656 244.26367 C 29.181226 248.35106 54.704803 252.50743 37.095703 245.95898 L 34.472656 245.08398 L 30.472656 244.26367 z M 16.910156 247.25586 C 13.430534 250.53901 8.5950248 252.07279 4.3867188 251.68359 C 4.2632307 253.53873 4.1555684 255.39939 4.0703125 257.26562 C 4.0056536 258.68101 3.9659689 260.09479 3.9296875 261.50781 C 5.4975591 261.94011 7.0931522 262.34071 8.75 262.67383 C 19.18231 266.04032 27.76329 277.61844 36.9375 275.07227 C 42.12517 288.04608 21.562973 300.51047 37.626953 312.61133 C 46.013153 324.86162 60.110911 332.89912 52.488281 350.09766 C 48.075296 364.003 48.85228 378.92362 46.638672 392.5293 C 49.351931 395.9224 52.174161 399.22509 55.123047 402.41016 C 56.672259 404.08345 58.183883 405.64817 59.681641 407.16406 C 62.319397 396.13048 63.935741 385.06931 72.462891 377.41016 C 86.977741 377.51926 75.24849 362.58666 89.65625 364.53516 C 98.44795 353.60269 100.99336 340.55791 115.83008 336.2168 C 117.60232 322.94647 140.48985 302.6257 116.83594 297.45898 C 110.4071 294.4529 93.848291 293.37783 95.113281 291.89453 C 97.676171 278.72684 73.732676 274.97715 63.535156 269.58984 C 50.146216 260.57378 30.023821 284.56703 25.306641 263.89258 C 22.492001 257.3877 12.180486 257.29314 16.910156 247.25586 z M 50.289062 250.0918 C 42.548833 257.5465 66.236333 252.31896 50.289062 250.0918 z M 236.94531 300.88281 C 247.58139 300.88281 248.59283 311.78961 245.28906 315.25781 C 242.35165 318.34143 236.2661 320.08969 232.1543 317.24023 C 225.34771 312.52328 227.57327 300.88281 236.94531 300.88281 z M 276.14062 318.4668 C 259.32209 318.87836 261.55542 360.0378 273.2793 335.68555 C 274.39111 330.4011 278.84992 323.42267 276.14062 318.4668 z "
       transform="translate(280.33287,101.27761)"
       id="path3522-9" />
  </g>
</svg>
