<?xml version="1.0" encoding="UTF-8" standalone="no"?>
<!-- Generator: Adobe Illustrator 15.1.0, SVG Export Plug-In . SVG Version: 6.00 Build 0)  -->

<svg
   xmlns:dc="http://purl.org/dc/elements/1.1/"
   xmlns:cc="http://creativecommons.org/ns#"
   xmlns:rdf="http://www.w3.org/1999/02/22-rdf-syntax-ns#"
   xmlns:svg="http://www.w3.org/2000/svg"
   xmlns="http://www.w3.org/2000/svg"
   xmlns:sodipodi="http://sodipodi.sourceforge.net/DTD/sodipodi-0.dtd"
   xmlns:inkscape="http://www.inkscape.org/namespaces/inkscape"
   version="1.1"
   id="Layer_1"
   x="0px"
   y="0px"
   width="2000"
   height="968.54858"
   viewBox="0 0 1999.9999 968.54856"
   enable-background="new 0 0 743.814 800.002"
   xml:space="preserve"
   inkscape:version="0.48+devel r"
   sodipodi:docname="t-shirt_concept.svg"><metadata
     id="metadata80"><rdf:RDF><cc:Work
         rdf:about=""><dc:format>image/svg+xml</dc:format><dc:type
           rdf:resource="http://purl.org/dc/dcmitype/StillImage" /><dc:title></dc:title></cc:Work></rdf:RDF></metadata><defs
     id="defs78" /><sodipodi:namedview
     pagecolor="#ffffff"
     bordercolor="#666666"
     borderopacity="1"
     objecttolerance="10"
     gridtolerance="10"
     guidetolerance="10"
     inkscape:pageopacity="0"
     inkscape:pageshadow="2"
     inkscape:window-width="1375"
     inkscape:window-height="876"
     id="namedview76"
     showgrid="false"
     inkscape:object-paths="true"
     inkscape:snap-intersection-paths="true"
     fit-margin-top="0"
     fit-margin-left="0"
     fit-margin-right="0"
     fit-margin-bottom="0"
     inkscape:zoom="0.38308286"
     inkscape:cx="910.57772"
     inkscape:cy="571.41612"
     inkscape:window-x="1985"
     inkscape:window-y="24"
     inkscape:window-maximized="1"
     inkscape:current-layer="Layer_1" /><g
     id="side"
     display="none"
     style="display:none"
     transform="translate(255.48437,1109.1245)" /><g
     id="back"
     display="none"
     style="display:none"
     transform="translate(255.48437,1109.1245)" /><g
     id="secondary"
     transform="translate(255.48437,1109.1245)" /><path
     inkscape:connector-curvature="0"
     id="path830"
     style="fill:none;stroke:#100f0d;stroke-width:3.00463533;stroke-linecap:butt;stroke-linejoin:miter;stroke-miterlimit:4;stroke-dasharray:none;stroke-opacity:1"
     d="m 1856.4413,107.0097 -193.3092,-91.391811 -5.9043,-1.470457 -0.9295,-0.393314 -12.9304,-8.1970154 -5.9845,-4.0716902 c -38.1336,18.5170306 -84.5803,20.5595806 -123.4692,20.6489696 -38.8845,-0.08939 -83.6239,-2.29731 -123.5229,-20.4389059 l -15.3437,9.6585349 -2.2794,1.421292 -2.4046,1.246984 0.295,0.07151 -0.9788,0.59891 -5.8819,1.363189 -192.4064,90.953804 c 0,0 90.1315,84.12891 56.083,248.39101 l -13.3861,611.86209 599.6649,0 -13.4039,-611.86209 c -34.0529,-164.2621 56.0919,-248.39101 56.0919,-248.39101 z" /><path
     inkscape:connector-curvature="0"
     id="path834"
     style="fill:none;stroke:#100f0d;stroke-width:3.00499993;stroke-linecap:butt;stroke-linejoin:miter;stroke-miterlimit:4;stroke-dasharray:none;stroke-opacity:1"
     d="m 1227.4745,355.40071 c 33.6999,-162.55923 -54.17,-246.57194 -56.0025,-248.29716 -15.6923,5.13543 -63.1626,30.75446 -121.1451,157.85737 l -21.2255,38.05757 c 0,0 98.1586,136.21616 164.2755,148.22563 l 33.6685,-76.14195 0.4291,-19.70146 z" /><g
     id="g4891"
     transform="matrix(1.9754897,0,0,1.9754897,-371.14995,23.41787)"><path
       d="m 1127.6147,42.314483 -97.8538,-46.2628615 -2.9888,-0.7443507 -0.4705,-0.1990968 -6.5454,-4.1493588 -3.0294,-2.0611042 C 997.42347,-1.7289015 973.91194,-0.69495545 954.22624,-0.64970618 934.54281,-0.69495545 911.89555,-1.8126126 891.69853,-10.995954 l -7.76704,4.8891849 -1.15386,0.7194635 -1.2172,0.6312274 0.14932,0.0362 -0.49548,0.3031701 -2.9774,0.6900515 -97.39681,46.0411406 c 0,0 45.62485,42.586357 28.3894,125.736426 l -6.77608,309.72679 303.55252,0 -6.7851,-309.72679 c -17.2377,-83.150068 28.3939,-125.736426 28.3939,-125.736426"
       style="color:#000000;text-decoration:none;text-decoration-line:none;text-decoration-style:solid;text-decoration-color:#000000;clip-rule:nonzero;display:inline;overflow:visible;visibility:visible;opacity:1;isolation:auto;color-interpolation:sRGB;color-interpolation-filters:linearRGB;fill:#d6fff1;fill-opacity:1;fill-rule:nonzero;stroke:none;stroke-width:4;stroke-linecap:butt;stroke-linejoin:miter;stroke-miterlimit:4;stroke-dasharray:none;stroke-dashoffset:0;stroke-opacity:1;marker:none;color-rendering:auto;image-rendering:auto;shape-rendering:auto;text-rendering:auto;enable-background:accumulate"
       id="path828"
       inkscape:connector-curvature="0" /><path
       d="M 809.22946,168.05091 C 826.28844,85.76284 781.8084,43.235306 780.88079,42.361995 772.93727,44.961566 748.90765,57.930009 719.5567,122.26996 l -10.74444,19.26488 c 0,0 49.68823,68.95311 83.15686,75.03235 l 17.04314,-38.54333 0.2172,-9.97295"
       style="color:#000000;text-decoration:none;text-decoration-line:none;text-decoration-style:solid;text-decoration-color:#000000;clip-rule:nonzero;display:inline;overflow:visible;visibility:visible;opacity:1;isolation:auto;color-interpolation:sRGB;color-interpolation-filters:linearRGB;fill:#d6fff1;fill-opacity:1;fill-rule:nonzero;stroke:none;stroke-width:4;stroke-linecap:butt;stroke-linejoin:miter;stroke-miterlimit:4;stroke-dasharray:none;stroke-dashoffset:0;stroke-opacity:1;marker:none;color-rendering:auto;image-rendering:auto;shape-rendering:auto;text-rendering:auto;enable-background:accumulate"
       id="path832"
       inkscape:connector-curvature="0" /><path
       d="m 1188.9048,122.26996 c -29.2265,-64.052618 -53.3127,-77.163596 -61.4191,-79.828779 -2.6697,2.588259 -44.9574,45.068281 -28.2649,125.609729 l 0.2217,9.9639 17.0522,38.55238 c 33.455,-6.07924 83.1433,-75.03235 83.1433,-75.03235 l -10.7332,-19.26488"
       style="color:#000000;text-decoration:none;text-decoration-line:none;text-decoration-style:solid;text-decoration-color:#000000;clip-rule:nonzero;display:inline;overflow:visible;visibility:visible;opacity:1;isolation:auto;color-interpolation:sRGB;color-interpolation-filters:linearRGB;fill:#d6fff1;fill-opacity:1;fill-rule:nonzero;stroke:none;stroke-width:4;stroke-linecap:butt;stroke-linejoin:miter;stroke-miterlimit:4;stroke-dasharray:none;stroke-dashoffset:0;stroke-opacity:1;marker:none;color-rendering:auto;image-rendering:auto;shape-rendering:auto;text-rendering:auto;enable-background:accumulate"
       id="path836"
       inkscape:connector-curvature="0" /></g><path
     inkscape:connector-curvature="0"
     id="path838"
     style="fill:none;stroke:#100f0d;stroke-width:3.00463533;stroke-linecap:butt;stroke-linejoin:miter;stroke-miterlimit:4;stroke-dasharray:none;stroke-opacity:1"
     d="m 1977.5192,264.96092 c -57.7366,-126.53529 -105.3187,-152.43589 -121.3328,-157.70093 -5.2739,5.11307 -88.8128,89.03192 -55.837,248.14072 l 0.438,19.68358 33.6864,76.15983 c 66.09,-12.00947 164.2488,-148.22563 164.2488,-148.22563 l -21.2034,-38.05757 z" /><path
     inkscape:connector-curvature="0"
     id="path840"
     style="fill:none;stroke:#100f0d;stroke-width:2.25347304;stroke-linecap:butt;stroke-linejoin:miter;stroke-miterlimit:4;stroke-dasharray:9.01385664, 6.00925267;stroke-dashoffset:0;stroke-opacity:1"
     d="m 1035.6268,292.12637 c 0,0 98.1497,136.21169 164.2532,148.23458" /><path
     inkscape:connector-curvature="0"
     id="path842"
     style="fill:none;stroke:#100f0d;stroke-width:2.25347304;stroke-linecap:butt;stroke-linejoin:miter;stroke-miterlimit:4;stroke-dasharray:9.01385664, 6.00925267;stroke-dashoffset:0;stroke-opacity:1"
     d="m 1992.6843,292.12637 c 0,0 -98.1542,136.21169 -164.2576,148.23458" /><path
     inkscape:connector-curvature="0"
     id="path844"
     style="fill:none;stroke:#100f0d;stroke-width:2.25347304;stroke-linecap:butt;stroke-linejoin:miter;stroke-miterlimit:4;stroke-dasharray:9.01385664, 6.00925267;stroke-dashoffset:0;stroke-opacity:1"
     d="m 1213.9499,956.11145 599.6558,0" /><path
     inkscape:connector-curvature="0"
     id="path846"
     style="fill:#f3632a;fill-opacity:1;fill-rule:nonzero;stroke:none"
     d="m 1371.3871,14.24576 c 44.8378,26.00787 96.2278,31.344422 142.5271,31.469567 46.2993,-0.125147 97.6803,-5.461697 142.5315,-31.469567 0,0 0.1699,0.08939 0.9608,-0.01788 l -3.3877,-1.44364 -16.6354,-11.2988296 c -38.1336,18.5170306 -84.5803,20.5595806 -123.4692,20.6489696 -38.8845,-0.08939 -83.6239,-2.29731 -123.5229,-20.4389059 l -17.4577,10.9859679 -2.57,1.340843 1.0235,0.223473" /><path
     inkscape:connector-curvature="0"
     id="path848"
     style="color:#000000;text-decoration:none;text-decoration-line:none;text-decoration-style:solid;text-decoration-color:#000000;clip-rule:nonzero;display:inline;overflow:visible;visibility:visible;opacity:1;isolation:auto;color-interpolation:sRGB;color-interpolation-filters:linearRGB;fill:#d6fff1;fill-opacity:1;fill-rule:nonzero;stroke:none;stroke-width:4;stroke-linecap:butt;stroke-linejoin:miter;stroke-miterlimit:4;stroke-dasharray:none;stroke-dashoffset:0;stroke-opacity:1;marker:none;color-rendering:auto;image-rendering:auto;shape-rendering:auto;text-rendering:auto;enable-background:accumulate"
     d="m 1371.3871,14.24576 c 44.8378,26.00787 96.2278,31.344422 142.5271,31.469567 46.2993,-0.125147 97.6803,-5.461697 142.5315,-31.469567 0,0 0.1699,0.08939 0.9608,-0.01788 l -3.3877,-1.44364 -16.6354,-11.2988296 c -38.1336,18.5170306 -84.5803,20.5595806 -123.4692,20.6489696 -38.8845,-0.08939 -83.6239,-2.29731 -123.5229,-20.4389059 l -17.4577,10.9859679 -2.57,1.340843 1.0235,0.223473 z" /><g
     id="g5115"
     transform="matrix(1.9734598,0,0,1.9734598,-369.21293,23.891414)"><path
       d="m 606.78645,42.450231 -97.85609,-46.2583368 -3.24437,-0.814487 -10.14263,-6.3529982 c -19.29655,9.3711251 -42.45513,10.07248887 -62.14083,10.11321322 -19.68344,-0.0407243 -41.8583,-1.18779352 -62.05418,-10.37113422 l -10.96232,6.9525513 -2.97491,0.6923139 -97.40088,46.0388778 c 0,0 45.63027,42.584096 28.39301,125.729639 l -6.77856,309.74036 303.55297,0 -6.78287,-309.74036 C 561.15934,85.034327 606.78645,42.450231 606.78645,42.450231"
       style="color:#000000;text-decoration:none;text-decoration-line:none;text-decoration-style:solid;text-decoration-color:#000000;clip-rule:nonzero;display:inline;overflow:visible;visibility:visible;opacity:1;isolation:auto;color-interpolation:sRGB;color-interpolation-filters:linearRGB;fill:#d6fff1;fill-opacity:1;fill-rule:nonzero;stroke:none;stroke-width:4;stroke-linecap:butt;stroke-linejoin:miter;stroke-miterlimit:4;stroke-dasharray:none;stroke-dashoffset:0;stroke-opacity:1;marker:none;color-rendering:auto;image-rendering:auto;shape-rendering:auto;text-rendering:auto;enable-background:accumulate"
       id="path850"
       inkscape:connector-curvature="0" /><path
       d="m 606.78645,42.450231 -97.85609,-46.2583368 -3.24437,-0.814487 -10.14263,-6.3529982 c -19.29655,9.3711251 -42.45513,10.07248887 -62.14083,10.11321322 -19.68344,-0.0407243 -41.8583,-1.18779352 -62.05418,-10.37113422 l -10.96232,6.9525513 -2.97491,0.6923139 -97.40088,46.0388778 c 0,0 45.63027,42.584096 28.39301,125.729639 l -6.77856,309.74036 303.55297,0 -6.78287,-309.74036 C 561.15934,85.034327 606.78645,42.450231 606.78645,42.450231 Z"
       style="fill:none;stroke:#100f0d;stroke-width:1.52095723;stroke-linecap:butt;stroke-linejoin:miter;stroke-miterlimit:4;stroke-dasharray:none;stroke-opacity:1"
       id="path852"
       inkscape:connector-curvature="0" /><path
       d="M 288.40325,168.17987 C 305.4602,85.90085 260.9797,43.368791 260.05549,42.49548 c -7.94691,2.599571 -31.97676,15.572539 -61.32974,79.91023 l -10.73691,19.26714 c 0,0 49.68319,68.95085 83.1491,75.03009 l 17.04721,-38.54334 0.2181,-9.97973"
       style="color:#000000;text-decoration:none;text-decoration-line:none;text-decoration-style:solid;text-decoration-color:#000000;clip-rule:nonzero;display:inline;overflow:visible;visibility:visible;opacity:1;isolation:auto;color-interpolation:sRGB;color-interpolation-filters:linearRGB;fill:#d6fff1;fill-opacity:1;fill-rule:nonzero;stroke:none;stroke-width:4;stroke-linecap:butt;stroke-linejoin:miter;stroke-miterlimit:4;stroke-dasharray:none;stroke-dashoffset:0;stroke-opacity:1;marker:none;color-rendering:auto;image-rendering:auto;shape-rendering:auto;text-rendering:auto;enable-background:accumulate"
       id="path854"
       inkscape:connector-curvature="0" /><path
       d="M 288.40325,168.17987 C 305.4602,85.90085 260.9797,43.368791 260.05549,42.49548 c -7.94691,2.599571 -31.97676,15.572539 -61.32974,79.91023 l -10.73691,19.26714 c 0,0 49.68319,68.95085 83.1491,75.03009 l 17.04721,-38.54334 0.2181,-9.97973 z"
       style="fill:none;stroke:#100f0d;stroke-width:1.52095723;stroke-linecap:butt;stroke-linejoin:miter;stroke-miterlimit:4;stroke-dasharray:none;stroke-opacity:1"
       id="path856"
       inkscape:connector-curvature="0" /><path
       d="m 416.34808,47.69236 c 20.70154,0.938922 74.44185,-37.495814 79.74506,-58.389668 l 8.86886,5.5136242 C 504.52535,12.271225 447.02256,55.217315 429.14684,55.972978 L 416.34808,47.69236"
       style="color:#000000;text-decoration:none;text-decoration-line:none;text-decoration-style:solid;text-decoration-color:#000000;clip-rule:nonzero;display:inline;overflow:visible;visibility:visible;opacity:1;isolation:auto;color-interpolation:sRGB;color-interpolation-filters:linearRGB;fill:#d6fff1;fill-opacity:1;fill-rule:nonzero;stroke:none;stroke-width:4;stroke-linecap:butt;stroke-linejoin:miter;stroke-miterlimit:4;stroke-dasharray:none;stroke-dashoffset:0;stroke-opacity:1;marker:none;color-rendering:auto;image-rendering:auto;shape-rendering:auto;text-rendering:auto;enable-background:accumulate"
       id="path858"
       inkscape:connector-curvature="0" /><path
       d="m 416.34808,47.69236 c 20.70154,0.938922 74.44185,-37.495814 79.74506,-58.389668 l 8.86886,5.5136242 C 504.52535,12.271225 447.02256,55.217315 429.14684,55.972978 L 416.34808,47.69236 Z"
       style="fill:none;stroke:#100f0d;stroke-width:1.52095723;stroke-linecap:butt;stroke-linejoin:miter;stroke-miterlimit:4;stroke-dasharray:none;stroke-opacity:1"
       id="path860"
       inkscape:connector-curvature="0" /><path
       d="M 434.89802,42.771501 C 417.0155,38.647029 375.46671,8.5087477 370.58907,-10.697308 l -8.86502,5.5136242 c 0.31109,12.53405 30.8711,39.5501318 54.66928,52.8760438 4.75796,0.203622 11.26028,-1.676486 18.50469,-4.920859"
       style="color:#000000;text-decoration:none;text-decoration-line:none;text-decoration-style:solid;text-decoration-color:#000000;clip-rule:nonzero;display:inline;overflow:visible;visibility:visible;opacity:1;isolation:auto;color-interpolation:sRGB;color-interpolation-filters:linearRGB;fill:#d6fff1;fill-opacity:1;fill-rule:nonzero;stroke:none;stroke-width:4;stroke-linecap:butt;stroke-linejoin:miter;stroke-miterlimit:4;stroke-dasharray:none;stroke-dashoffset:0;stroke-opacity:1;marker:none;color-rendering:auto;image-rendering:auto;shape-rendering:auto;text-rendering:auto;enable-background:accumulate"
       id="path862"
       inkscape:connector-curvature="0" /><path
       d="M 434.89802,42.771501 C 417.0155,38.647029 375.46671,8.5087477 370.58907,-10.697308 l -8.86502,5.5136242 c 0.31109,12.53405 30.8711,39.5501318 54.66928,52.8760438 4.75796,0.203622 11.26028,-1.676486 18.50469,-4.920859 z"
       style="fill:none;stroke:#100f0d;stroke-width:1.52095723;stroke-linecap:butt;stroke-linejoin:miter;stroke-miterlimit:4;stroke-dasharray:none;stroke-opacity:1"
       id="path864"
       inkscape:connector-curvature="0" /><path
       d="m 370.58907,-10.697308 c 1.06154,4.1787705 3.87899,8.8824329 7.79486,13.7150558 18.11736,6.4434972 37.30125,8.0136472 55.0186,8.0521092 17.57482,-0.03846 36.59762,-1.5724126 54.59099,-7.8914743 4.11542,-4.9774205 7.01138,-9.7127575 8.07247,-13.7919797 l -0.52263,-0.361994 c -19.29655,9.3711251 -42.45513,10.07248887 -62.14083,10.11321322 -19.68344,-0.0407243 -41.8583,-1.18779352 -62.05418,-10.37113422 l -0.75928,0.536204"
       style="color:#000000;text-decoration:none;text-decoration-line:none;text-decoration-style:solid;text-decoration-color:#000000;clip-rule:nonzero;display:inline;overflow:visible;visibility:visible;opacity:1;isolation:auto;color-interpolation:sRGB;color-interpolation-filters:linearRGB;fill:#d6fff1;fill-opacity:1;fill-rule:nonzero;stroke:none;stroke-width:4;stroke-linecap:butt;stroke-linejoin:miter;stroke-miterlimit:4;stroke-dasharray:none;stroke-dashoffset:0;stroke-opacity:1;marker:none;color-rendering:auto;image-rendering:auto;shape-rendering:auto;text-rendering:auto;enable-background:accumulate"
       id="path866"
       inkscape:connector-curvature="0" /><path
       d="m 370.58907,-10.697308 c 1.06154,4.1787705 3.87899,8.8824329 7.79486,13.7150558 18.11736,6.4434972 37.30125,8.0136472 55.0186,8.0521092 17.57482,-0.03846 36.59762,-1.5724126 54.59099,-7.8914743 4.11542,-4.9774205 7.01138,-9.7127575 8.07247,-13.7919797 l -0.52263,-0.361994 c -19.29655,9.3711251 -42.45513,10.07248887 -62.14083,10.11321322 -19.68344,-0.0407243 -41.8583,-1.18779352 -62.05418,-10.37113422 l -0.75928,0.536204 z"
       style="fill:none;stroke:#100f0d;stroke-width:1.52095723;stroke-linecap:butt;stroke-linejoin:miter;stroke-miterlimit:4;stroke-dasharray:none;stroke-opacity:1"
       id="path868"
       inkscape:connector-curvature="0" /><path
       d="m 434.85729,41.968326 c 17.10197,-7.771563 38.53429,-23.337315 50.86924,-37.2763549 -17.35988,5.6448479 -35.51389,7.0950869 -52.324,7.1380739 -16.95717,-0.04299 -35.28086,-1.520376 -52.77559,-7.289659 14.36416,16.538611 40.99494,34.350989 54.23035,37.42794"
       style="color:#000000;text-decoration:none;text-decoration-line:none;text-decoration-style:solid;text-decoration-color:#000000;clip-rule:nonzero;display:inline;overflow:visible;visibility:visible;opacity:1;isolation:auto;color-interpolation:sRGB;color-interpolation-filters:linearRGB;fill:#d6fff1;fill-opacity:1;fill-rule:nonzero;stroke:none;stroke-width:4;stroke-linecap:butt;stroke-linejoin:miter;stroke-miterlimit:4;stroke-dasharray:none;stroke-dashoffset:0;stroke-opacity:1;marker:none;color-rendering:auto;image-rendering:auto;shape-rendering:auto;text-rendering:auto;enable-background:accumulate"
       id="path870"
       inkscape:connector-curvature="0" /><path
       d="M 668.07207,122.40571 C 638.85009,58.350827 614.75937,45.244374 606.65523,42.576929 603.98552,45.160663 561.70007,87.64521 578.39479,168.17987 l 0.21946,9.97068 17.05219,38.55239 c 33.45732,-6.07924 83.14555,-75.03009 83.14555,-75.03009 l -10.73992,-19.26714"
       style="color:#000000;text-decoration:none;text-decoration-line:none;text-decoration-style:solid;text-decoration-color:#000000;clip-rule:nonzero;display:inline;overflow:visible;visibility:visible;opacity:1;isolation:auto;color-interpolation:sRGB;color-interpolation-filters:linearRGB;fill:#d6fff1;fill-opacity:1;fill-rule:nonzero;stroke:none;stroke-width:4;stroke-linecap:butt;stroke-linejoin:miter;stroke-miterlimit:4;stroke-dasharray:none;stroke-dashoffset:0;stroke-opacity:1;marker:none;color-rendering:auto;image-rendering:auto;shape-rendering:auto;text-rendering:auto;enable-background:accumulate"
       id="path872"
       inkscape:connector-curvature="0" /><path
       d="M 668.07207,122.40571 C 638.85009,58.350827 614.75937,45.244374 606.65523,42.576929 603.98552,45.160663 561.70007,87.64521 578.39479,168.17987 l 0.21946,9.97068 17.05219,38.55239 c 33.45732,-6.07924 83.14555,-75.03009 83.14555,-75.03009 l -10.73992,-19.26714 z"
       style="fill:none;stroke:#100f0d;stroke-width:1.52095723;stroke-linecap:butt;stroke-linejoin:miter;stroke-miterlimit:4;stroke-dasharray:none;stroke-opacity:1"
       id="path874"
       inkscape:connector-curvature="0" /><path
       d="m 191.28796,136.15922 c 0,0 49.68138,68.94859 83.14549,75.03688"
       style="fill:none;stroke:#100f0d;stroke-width:1.1407162;stroke-linecap:butt;stroke-linejoin:miter;stroke-miterlimit:4;stroke-dasharray:4.56284669, 3.04190534;stroke-dashoffset:0;stroke-opacity:1"
       id="path876"
       inkscape:connector-curvature="0" /><path
       d="m 675.75314,136.15922 c 0,0 -49.68371,68.94859 -83.14329,75.03688"
       style="fill:none;stroke:#100f0d;stroke-width:1.1407162;stroke-linecap:butt;stroke-linejoin:miter;stroke-miterlimit:4;stroke-dasharray:4.56284669, 3.04190534;stroke-dashoffset:0;stroke-opacity:1"
       id="path878"
       inkscape:connector-curvature="0" /><path
       d="m 281.55772,472.27086 303.5498,0"
       style="fill:none;stroke:#100f0d;stroke-width:1.1407162;stroke-linecap:butt;stroke-linejoin:miter;stroke-miterlimit:4;stroke-dasharray:4.56284669, 3.04190534;stroke-dashoffset:0;stroke-opacity:1"
       id="path880"
       inkscape:connector-curvature="0" /></g><g
     transform="matrix(0.50027841,0,0,0.50027841,235.83485,118.62567)"
     id="g5179"><g
       id="g4203"
       transform="matrix(1.6359166,0,0,1.6359166,-31.450573,143.61769)"><path
         d="M 198.96,104.744 80.625,72.09 l 104.347,0 z"
         id="path4-3"
         inkscape:connector-curvature="0"
         style="fill:#aa5e7d" /><path
         d="M 325.484,215.094 355.03,88.954 405.878,126.4 Z"
         id="path6-4"
         inkscape:connector-curvature="0"
         style="fill:#91bebe" /><path
         d="m 259.441,241.42 17.698,90.126 42.247,-21.662 z"
         id="path8-4"
         inkscape:connector-curvature="0"
         style="fill:#007382" /><path
         d="M 232.868,279.223 198.96,104.744 259.441,241.42 232.868,279.223"
         id="path10-3"
         inkscape:connector-curvature="0"
         style="fill:#bf597d" /><path
         d="M 145.326,129.212 198.96,104.744 182.752,241.42 Z"
         id="path12-6"
         inkscape:connector-curvature="0"
         style="fill:#1e91a0" /><path
         d="M 431.526,72.09 405.878,126.4 355.03,88.922 431.526,72.09"
         id="path14-8"
         inkscape:connector-curvature="0"
         style="fill:#86ceb6" /><path
         d="m 300.902,144.428 24.582,70.666 -66.043,26.326 z"
         id="path16"
         inkscape:connector-curvature="0"
         style="fill:#bc215f" /><path
         d="m 258.868,439.786 -10.226,-69.884 3.968,69.724 z"
         id="path18-3"
         inkscape:connector-curvature="0"
         style="opacity:0.7;fill:#8978ab" /><path
         d="m 198.96,104.744 -16.208,136.676 76.689,0 z"
         id="path20-1"
         inkscape:connector-curvature="0"
         style="opacity:0.2;fill:#cd3b4b" /><path
         d="m 277.139,400.712 -28.497,-30.81 28.497,-38.356 z"
         id="path22-0"
         inkscape:connector-curvature="0"
         style="opacity:0.7;fill:#aa5e7d" /><path
         d="M 248.642,369.902 213.126,355.16 252.61,439.626 Z"
         id="path24-5"
         inkscape:connector-curvature="0"
         style="opacity:0.7;fill:#ae918c" /><path
         d="m 405.878,126.4 -80.394,88.694 -6.098,94.79 z"
         id="path26-8"
         inkscape:connector-curvature="0"
         style="opacity:0.8;fill:#6b3345" /><path
         d="M 300.902,144.461 355.03,88.956 331.936,72.09 Z"
         id="path28-6"
         inkscape:connector-curvature="0"
         style="fill:#1e91a0" /><path
         d="m 184.972,72.09 13.988,32.654 -53.634,24.468 z"
         id="path30-8"
         inkscape:connector-curvature="0"
         style="opacity:0.5;fill:#6b3345" /><path
         d="M 213.126,355.16 232.868,279.223 182.752,241.42 Z"
         id="path32-7"
         inkscape:connector-curvature="0"
         style="opacity:0.7;fill:#ab8d8d" /><path
         d="m 232.868,279.223 26.573,-37.803 -76.667,0.017 z"
         id="path34-8"
         inkscape:connector-curvature="0"
         style="opacity:0.5;fill:#234150" /><path
         d="m 277.139,331.546 -64.013,23.614 35.516,14.742 z"
         id="path36-8"
         inkscape:connector-curvature="0"
         style="fill:#e3525f" /><path
         d="M 319.386,309.884"
         id="path38-7"
         inkscape:connector-curvature="0"
         style="opacity:0.7;fill:#8978ab" /><path
         d="m 277.139,331.546 0,69.166 42.247,-90.828 z"
         id="path40-7"
         inkscape:connector-curvature="0"
         style="opacity:0.7;fill:#648c8c" /><path
         d="M 405.878,126.4 300.902,144.428 355.03,88.922 Z"
         id="path42-6"
         inkscape:connector-curvature="0"
         style="opacity:0.5;fill:#ab8d8d" /><path
         d="M 319.386,309.884 259.441,241.42 325.484,215.094 Z"
         id="path44-7"
         inkscape:connector-curvature="0"
         style="opacity:0.7;fill:#e3525f" /><path
         d="m 405.878,126.4 -80.394,88.694 -24.582,-70.666 z"
         id="path46-6"
         inkscape:connector-curvature="0"
         style="opacity:0.5;fill:#234150" /><path
         d="m 258.868,439.786 18.271,-39.074 -28.497,-30.81 z"
         id="path48-7"
         inkscape:connector-curvature="0"
         style="opacity:0.5;fill:#ab8d8d" /><path
         d="m 213.126,355.16 64.013,-23.614 -44.271,-52.323 z"
         id="path50-4"
         inkscape:connector-curvature="0"
         style="fill:#91bebe" /><path
         d="M 431.526,72.09 355.028,88.954 331.936,72.09 Z"
         id="path52-4"
         inkscape:connector-curvature="0"
         style="fill:#bf597d" /><path
         d="m 259.441,241.42 59.945,68.464 -86.518,-30.661 z"
         id="path54-3"
         inkscape:connector-curvature="0"
         style="opacity:0.5;fill:#007382" /><path
         d="m 182.752,241.42 -37.426,-30.952 67.8,144.692"
         id="path56-0"
         inkscape:connector-curvature="0"
         style="opacity:0.7;fill:#86ceb6" /><path
         d="M 184.972,72.09 145.326,129.212 80.625,72.09 Z"
         id="path58-0"
         inkscape:connector-curvature="0"
         style="opacity:0.5;fill:#aa5e7d" /><path
         d="m 319.386,309.884 -42.247,21.662 -44.271,-52.323 z"
         id="path60-8"
         inkscape:connector-curvature="0"
         style="opacity:0.5;fill:#6b3345" /><path
         d="M 198.96,104.744 182.752,241.42 145.326,210.468 Z"
         id="path62-2"
         inkscape:connector-curvature="0"
         style="opacity:0.5;fill:#234150" /><path
         d="m 198.96,104.744 -53.634,105.724 0,-81.256 z"
         id="path64-4"
         inkscape:connector-curvature="0"
         style="opacity:0.5;fill:#ae918c" /><path
         d="m 145.326,210.468 0,-81.256 L 80.625,72.09 Z"
         id="path66-9"
         inkscape:connector-curvature="0"
         style="opacity:0.7;fill:#91bebe" /></g><g
       style="fill:#007382;fill-opacity:1"
       transform="matrix(1.6391034,0,0,1.6391034,-799.66977,6.3214675)"
       id="g5805"><path
         inkscape:connector-curvature="0"
         id="path5769"
         style="color:#000000;font-style:normal;font-variant:normal;font-weight:bold;font-stretch:normal;font-size:medium;line-height:100%;font-family:AgencyFB;-inkscape-font-specification:'AgencyFB Bold';text-align:start;text-decoration:none;text-decoration-line:none;text-decoration-style:solid;text-decoration-color:#000000;letter-spacing:0px;word-spacing:0px;text-anchor:start;clip-rule:nonzero;visibility:visible;isolation:auto;color-interpolation:sRGB;color-interpolation-filters:linearRGB;fill:#007382;fill-opacity:1;fill-rule:nonzero;stroke:none;stroke-width:1;stroke-linecap:butt;stroke-linejoin:miter;stroke-miterlimit:4;stroke-dasharray:none;stroke-dashoffset:0;stroke-opacity:1;color-rendering:auto;image-rendering:auto;shape-rendering:auto;text-rendering:auto"
         d="m 947.554,217.0534 q 0,6.1 -6.3,6.1 l -19.3,0 q -6.3,0 -6.3,-6.1 l 0,-37.1 q 0,-6.1 6.3,-6.1 l 19.3,0 q 6.3,0 6.3,6.1 l 0,18.1 -3.1,3.1 -18.1,0 0,13.8 10.5,0 0,-8.2 10.7,0 0,10.3 0,0 z m -10.7,-35 -10.5,0 0,11.8 10.5,0 0,-11.8 z" /><path
         inkscape:connector-curvature="0"
         id="path5771"
         style="color:#000000;font-style:normal;font-variant:normal;font-weight:bold;font-stretch:normal;font-size:medium;line-height:100%;font-family:AgencyFB;-inkscape-font-specification:'AgencyFB Bold';text-align:start;text-decoration:none;text-decoration-line:none;text-decoration-style:solid;text-decoration-color:#000000;letter-spacing:0px;word-spacing:0px;text-anchor:start;clip-rule:nonzero;visibility:visible;isolation:auto;color-interpolation:sRGB;color-interpolation-filters:linearRGB;fill:#007382;fill-opacity:1;fill-rule:nonzero;stroke:none;stroke-width:1;stroke-linecap:butt;stroke-linejoin:miter;stroke-miterlimit:4;stroke-dasharray:none;stroke-dashoffset:0;stroke-opacity:1;color-rendering:auto;image-rendering:auto;shape-rendering:auto;text-rendering:auto"
         d="m 977.39306,223.1534 0,-40 -10.5,0.2 0,39.8 -11.2,0 0,-49.3 11.2,0 0,1.8 11.8,-1.6 q 1,-0.2 2,-0.3 1,-0.1 1.8,-0.1 6.1,0 6.1,6 l 0,43.5 -11.2,0 z" /><path
         inkscape:connector-curvature="0"
         id="path5773"
         style="color:#000000;font-style:normal;font-variant:normal;font-weight:bold;font-stretch:normal;font-size:medium;line-height:100%;font-family:AgencyFB;-inkscape-font-specification:'AgencyFB Bold';text-align:start;text-decoration:none;text-decoration-line:none;text-decoration-style:solid;text-decoration-color:#000000;letter-spacing:0px;word-spacing:0px;text-anchor:start;clip-rule:nonzero;visibility:visible;isolation:auto;color-interpolation:sRGB;color-interpolation-filters:linearRGB;fill:#007382;fill-opacity:1;fill-rule:nonzero;stroke:none;stroke-width:1;stroke-linecap:butt;stroke-linejoin:miter;stroke-miterlimit:4;stroke-dasharray:none;stroke-dashoffset:0;stroke-opacity:1;color-rendering:auto;image-rendering:auto;shape-rendering:auto;text-rendering:auto"
         d="m 996.71338,166.7534 0,-11.5 11.20002,0 0,11.5 -11.20002,0 z m 0.1,56.4 0,-49.3 11.00002,0 0,49.3 -11.00002,0 z" /><path
         inkscape:connector-curvature="0"
         id="path5775"
         style="color:#000000;font-style:normal;font-variant:normal;font-weight:bold;font-stretch:normal;font-size:medium;line-height:100%;font-family:AgencyFB;-inkscape-font-specification:'AgencyFB Bold';text-align:start;text-decoration:none;text-decoration-line:none;text-decoration-style:solid;text-decoration-color:#000000;letter-spacing:0px;word-spacing:0px;text-anchor:start;clip-rule:nonzero;visibility:visible;isolation:auto;color-interpolation:sRGB;color-interpolation-filters:linearRGB;fill:#007382;fill-opacity:1;fill-rule:nonzero;stroke:none;stroke-width:1;stroke-linecap:butt;stroke-linejoin:miter;stroke-miterlimit:4;stroke-dasharray:none;stroke-dashoffset:0;stroke-opacity:1;color-rendering:auto;image-rendering:auto;shape-rendering:auto;text-rendering:auto"
         d="m 875.854,266.7534 0,-11.5 11.2,0 0,11.5 -11.2,0 z m 0.1,56.4 0,-49.3 11,0 0,49.3 -11,0 z" /><path
         inkscape:connector-curvature="0"
         id="path5777"
         style="color:#000000;font-style:normal;font-variant:normal;font-weight:bold;font-stretch:normal;font-size:medium;line-height:100%;font-family:AgencyFB;-inkscape-font-specification:'AgencyFB Bold';text-align:start;text-decoration:none;text-decoration-line:none;text-decoration-style:solid;text-decoration-color:#000000;letter-spacing:0px;word-spacing:0px;text-anchor:start;clip-rule:nonzero;visibility:visible;isolation:auto;color-interpolation:sRGB;color-interpolation-filters:linearRGB;fill:#007382;fill-opacity:1;fill-rule:nonzero;stroke:none;stroke-width:1;stroke-linecap:butt;stroke-linejoin:miter;stroke-miterlimit:4;stroke-dasharray:none;stroke-dashoffset:0;stroke-opacity:1;color-rendering:auto;image-rendering:auto;shape-rendering:auto;text-rendering:auto"
         d="m 916.78525,323.1534 0,-1.7 -8.5,1.5 q -2.2,0.5 -4.2,0.5 -4.2,0 -6.6,-2.4 -2.4,-2.5 -2.4,-6.8 l 0,-30.5 q 0,-4.5 2.7,-7.2 2.7,-2.7 7.6,-2.7 l 11.4,0 0,-27.1 11.1,0 0,76.4 -11.1,0 z m 0,-40 -6.9,0 q -3.7,0 -3.7,3.7 l 0,23.6 q 0,3.6 3.5,3.6 0.4,0 1,0 0.6,0 1.1,-0.1 l 5,-0.4 0,-30.4 z" /><path
         inkscape:connector-curvature="0"
         id="path5779"
         style="color:#000000;font-style:normal;font-variant:normal;font-weight:bold;font-stretch:normal;font-size:medium;line-height:100%;font-family:AgencyFB;-inkscape-font-specification:'AgencyFB Bold';text-align:start;text-decoration:none;text-decoration-line:none;text-decoration-style:solid;text-decoration-color:#000000;letter-spacing:0px;word-spacing:0px;text-anchor:start;clip-rule:nonzero;visibility:visible;isolation:auto;color-interpolation:sRGB;color-interpolation-filters:linearRGB;fill:#007382;fill-opacity:1;fill-rule:nonzero;stroke:none;stroke-width:1;stroke-linecap:butt;stroke-linejoin:miter;stroke-miterlimit:4;stroke-dasharray:none;stroke-dashoffset:0;stroke-opacity:1;color-rendering:auto;image-rendering:auto;shape-rendering:auto;text-rendering:auto"
         d="m 936.20556,266.7534 0,-11.5 11.2,0 0,11.5 -11.2,0 z m 0.1,56.4 0,-49.3 11,0 0,49.3 -11,0 z" /><path
         inkscape:connector-curvature="0"
         id="path5781"
         style="color:#000000;font-style:normal;font-variant:normal;font-weight:bold;font-stretch:normal;font-size:medium;line-height:100%;font-family:AgencyFB;-inkscape-font-specification:'AgencyFB Bold';text-align:start;text-decoration:none;text-decoration-line:none;text-decoration-style:solid;text-decoration-color:#000000;letter-spacing:0px;word-spacing:0px;text-anchor:start;clip-rule:nonzero;visibility:visible;isolation:auto;color-interpolation:sRGB;color-interpolation-filters:linearRGB;fill:#007382;fill-opacity:1;fill-rule:nonzero;stroke:none;stroke-width:1;stroke-linecap:butt;stroke-linejoin:miter;stroke-miterlimit:4;stroke-dasharray:none;stroke-dashoffset:0;stroke-opacity:1;color-rendering:auto;image-rendering:auto;shape-rendering:auto;text-rendering:auto"
         d="m 835.85393,366.7534 0,-11.5 11.2,0 0,11.5 -11.2,0 z m 0.1,56.4 0,-49.3 11,0 0,49.3 -11,0 z" /><path
         inkscape:connector-curvature="0"
         id="path5783"
         style="color:#000000;font-style:normal;font-variant:normal;font-weight:bold;font-stretch:normal;font-size:medium;line-height:100%;font-family:AgencyFB;-inkscape-font-specification:'AgencyFB Bold';text-align:start;text-decoration:none;text-decoration-line:none;text-decoration-style:solid;text-decoration-color:#000000;letter-spacing:0px;word-spacing:0px;text-anchor:start;clip-rule:nonzero;visibility:visible;isolation:auto;color-interpolation:sRGB;color-interpolation-filters:linearRGB;fill:#007382;fill-opacity:1;fill-rule:nonzero;stroke:none;stroke-width:1;stroke-linecap:butt;stroke-linejoin:miter;stroke-miterlimit:4;stroke-dasharray:none;stroke-dashoffset:0;stroke-opacity:1;color-rendering:auto;image-rendering:auto;shape-rendering:auto;text-rendering:auto"
         d="m 887.08518,417.0534 q 0,6.1 -6.2,6.1 l -19.4,0 q -6.3,0 -6.3,-6.1 l 0,-37.1 q 0,-6.1 6.3,-6.1 l 19.4,0 q 6.2,0 6.2,6.1 l 0,11.7 -10.9,0 0,-8.5 -10,0 0,30.7 10,0 0,-9.4 10.9,0 0,12.6 0,0 z" /><path
         inkscape:connector-curvature="0"
         id="path5785"
         style="color:#000000;font-style:normal;font-variant:normal;font-weight:bold;font-stretch:normal;font-size:medium;line-height:100%;font-family:AgencyFB;-inkscape-font-specification:'AgencyFB Bold';text-align:start;text-decoration:none;text-decoration-line:none;text-decoration-style:solid;text-decoration-color:#000000;letter-spacing:0px;word-spacing:0px;text-anchor:start;clip-rule:nonzero;visibility:visible;isolation:auto;color-interpolation:sRGB;color-interpolation-filters:linearRGB;fill:#007382;fill-opacity:1;fill-rule:nonzero;stroke:none;stroke-width:1;stroke-linecap:butt;stroke-linejoin:miter;stroke-miterlimit:4;stroke-dasharray:none;stroke-dashoffset:0;stroke-opacity:1;color-rendering:auto;image-rendering:auto;shape-rendering:auto;text-rendering:auto"
         d="m 895.22893,366.7534 0,-11.5 11.2,0 0,11.5 -11.2,0 z m 0.1,56.4 0,-49.3 11,0 0,49.3 -11,0 z" /><path
         inkscape:connector-curvature="0"
         id="path5787"
         style="color:#000000;font-style:normal;font-variant:normal;font-weight:bold;font-stretch:normal;font-size:medium;line-height:100%;font-family:AgencyFB;-inkscape-font-specification:'AgencyFB Bold';text-align:start;text-decoration:none;text-decoration-line:none;text-decoration-style:solid;text-decoration-color:#000000;letter-spacing:0px;word-spacing:0px;text-anchor:start;clip-rule:nonzero;visibility:visible;isolation:auto;color-interpolation:sRGB;color-interpolation-filters:linearRGB;fill:#007382;fill-opacity:1;fill-rule:nonzero;stroke:none;stroke-width:1;stroke-linecap:butt;stroke-linejoin:miter;stroke-miterlimit:4;stroke-dasharray:none;stroke-dashoffset:0;stroke-opacity:1;color-rendering:auto;image-rendering:auto;shape-rendering:auto;text-rendering:auto"
         d="m 964.254,470.6534 -6.8,0 -2.2,-23.9 11.2,0 -2.2,23.9 z" /><path
         inkscape:connector-curvature="0"
         id="path5789"
         style="color:#000000;font-style:normal;font-variant:normal;font-weight:bold;font-stretch:normal;font-size:medium;line-height:100%;font-family:AgencyFB;-inkscape-font-specification:'AgencyFB Bold';text-align:start;text-decoration:none;text-decoration-line:none;text-decoration-style:solid;text-decoration-color:#000000;letter-spacing:0px;word-spacing:0px;text-anchor:start;clip-rule:nonzero;visibility:visible;isolation:auto;color-interpolation:sRGB;color-interpolation-filters:linearRGB;fill:#007382;fill-opacity:1;fill-rule:nonzero;stroke:none;stroke-width:1;stroke-linecap:butt;stroke-linejoin:miter;stroke-miterlimit:4;stroke-dasharray:none;stroke-dashoffset:0;stroke-opacity:1;color-rendering:auto;image-rendering:auto;shape-rendering:auto;text-rendering:auto"
         d="m 977.21338,523.1534 0,-53.9 -4.4,0 0,-1.5 5.9,-21 9.7,0 0,76.4 -11.2,0 z" /><path
         inkscape:connector-curvature="0"
         id="path5791"
         style="color:#000000;font-style:normal;font-variant:normal;font-weight:bold;font-stretch:normal;font-size:medium;line-height:100%;font-family:AgencyFB;-inkscape-font-specification:'AgencyFB Bold';text-align:start;text-decoration:none;text-decoration-line:none;text-decoration-style:solid;text-decoration-color:#000000;letter-spacing:0px;word-spacing:0px;text-anchor:start;clip-rule:nonzero;visibility:visible;isolation:auto;color-interpolation:sRGB;color-interpolation-filters:linearRGB;fill:#007382;fill-opacity:1;fill-rule:nonzero;stroke:none;stroke-width:1;stroke-linecap:butt;stroke-linejoin:miter;stroke-miterlimit:4;stroke-dasharray:none;stroke-dashoffset:0;stroke-opacity:1;color-rendering:auto;image-rendering:auto;shape-rendering:auto;text-rendering:auto"
         d="m 1031.1509,508.7534 0,14.4 -10.9,0 0,-14.4 -25.10002,0 0,-6.8 19.00002,-55.2 11.6,0 0,0.4 -17.8,51.9 12.3,0 0,-23 10.9,0 0,23 5.8,0 0,9.7 -5.8,0 z" /></g></g><text
     xml:space="preserve"
     style="color:#000000;font-style:normal;font-variant:normal;font-weight:bold;font-stretch:normal;font-size:48.32276535px;line-height:125%;font-family:AgencyFB;-inkscape-font-specification:'AgencyFB Bold';text-align:center;text-decoration:none;text-decoration-line:none;text-decoration-style:solid;text-decoration-color:#000000;letter-spacing:0px;word-spacing:0px;text-anchor:middle;clip-rule:nonzero;display:inline;overflow:visible;visibility:visible;opacity:1;isolation:auto;color-interpolation:sRGB;color-interpolation-filters:linearRGB;fill:#007382;fill-opacity:1;fill-rule:nonzero;stroke:none;stroke-width:1.63910341;stroke-linecap:butt;stroke-linejoin:miter;stroke-miterlimit:4;stroke-dasharray:none;stroke-dashoffset:0;stroke-opacity:1;color-rendering:auto;image-rendering:auto;shape-rendering:auto;text-rendering:auto;enable-background:accumulate"
     x="613.11499"
     y="944.43982"
     id="text4194"
     sodipodi:linespacing="125%"><tspan
       sodipodi:role="line"
       id="tspan4196"
       x="613.11499"
       y="944.43982"
       style="color:#000000;font-size:36.24207306px;text-decoration:none;text-decoration-line:none;text-decoration-style:solid;text-decoration-color:#000000;clip-rule:nonzero;display:inline;overflow:visible;visibility:visible;isolation:auto;color-interpolation:sRGB;color-interpolation-filters:linearRGB;fill:#007382;fill-opacity:1;fill-rule:nonzero;stroke:none;stroke-width:1.63910341;stroke-linecap:butt;stroke-linejoin:miter;stroke-miterlimit:4;stroke-dasharray:none;stroke-dashoffset:0;stroke-opacity:1;color-rendering:auto;image-rendering:auto;shape-rendering:auto;text-rendering:auto;enable-background:accumulate">the iCub Summer School</tspan></text>
<path
     id="path36102"
     style="fill:#fafaf5;fill-opacity:1"
     d="m 1510.0446,89.639475 c -4.1365,-4e-4 -8.0352,0.215136 -11.1755,0.693308 -19.154,2.916591 -33.8948,21.340697 -34.913,43.628907 -0.4974,10.88823 3.2195,21.46219 10.2015,29.0034 3.9764,4.29488 6.9347,5.9033 13.2389,7.18069 l 4.3084,0.87489 5.0182,-1.61772 c 2.9061,-0.93088 6.8605,-1.74441 9.4092,-1.94787 10.8495,-1.69632 7.6576,-1.456 10.9444,-1.23805 -1.1265,0.69624 -0.2805,1.07074 4.9192,2.11294 2.7096,0.54312 6.1077,1.33464 7.5604,1.76629 1.4526,0.43165 5.1826,1.48169 8.2866,2.34404 3.1041,0.86234 6.0754,1.82259 6.603,2.12945 1.3607,0.79142 5.9134,0.72625 8.7654,-0.13206 5.2853,-1.59065 7.3658,-4.55758 8.2536,-11.73672 0.2908,-2.35076 1.0217,-5.54402 1.6343,-7.09816 1.3143,-3.3345 1.1253,-4.4509 -1.2381,-7.27974 -3.0059,-3.59785 -3.2772,-4.80616 -2.4761,-10.61422 3.6525,-26.48025 -2.7551,-38.457106 -24.1667,-45.164085 -5.8281,-1.825583 -16.0734,-2.904401 -25.1737,-2.90529 z m 0.4457,53.038085 c 2.1253,0 2.3274,2.17925 1.6672,2.87228 -0.587,0.61619 -1.803,0.96557 -2.6247,0.39618 -1.3601,-0.94257 -0.9153,-3.26846 0.9575,-3.26846 z"
     inkscape:connector-curvature="0"
     sodipodi:nodetypes="sssscccccsssssssssssssss" /><path
     d="m 1554.4128,144.92812 c -1.7815,-1.95556 -2.2789,-3.34795 -2.2544,-6.31108 0.043,-5.26676 3.3667,-11.14754 4.5528,-8.05663 0.1925,0.5016 -0.1172,1.13013 -0.7884,1.60028 -2.454,1.71889 -2.9346,7.96913 -0.8491,11.04238 1.541,2.2708 1.0363,3.58811 -0.6609,1.72505 z m -44.3682,-55.288645 c -4.1365,-4e-4 -8.0352,0.215136 -11.1755,0.693308 -19.154,2.916591 -33.8948,21.340697 -34.913,43.628907 -0.4974,10.88823 3.2195,21.46219 10.2015,29.0034 3.9764,4.29488 6.9347,5.9033 13.2389,7.18068 l 4.3084,0.8749 5.0182,-1.61773 c 2.9061,-0.93086 6.8605,-1.74439 9.4092,-1.94786 5.7361,-0.4579 5.7281,-0.44259 5.7281,-6.05819 l 0,-4.67158 2.2615,-1.55169 c 1.2414,-0.8541 3.2125,-2.60076 4.3909,-3.87922 8.4844,-9.20443 6.6126,-22.06032 -3.8462,-26.39524 l -2.7732,-1.15552 -0.1486,-16.83749 -0.1485,-16.177191 c 0.2906,-0.04115 0.8158,-0.04548 1.5351,-0.03302 1.2112,0.021 3.2961,0.24023 6.2233,0.511727 14.4912,1.344026 26.8898,6.183514 32.602,12.380509 5.8937,6.3939 8.2028,17.98706 6.1242,30.63762 -1.3319,8.1064 -0.7342,12.16356 2.113,14.52647 2.1111,1.75204 2.4529,3.45726 1.3041,6.37183 -0.5888,1.49357 -1.3035,4.52799 -1.6013,6.7515 -0.9834,7.34506 -2.4073,9.52768 -7.1146,10.94438 -3.5222,1.06001 -5.1978,0.95718 -9.7559,-0.59428 -9.4189,-3.20596 -24.7374,-6.75776 -25.9495,-6.00868 -1.1265,0.69626 -0.2805,1.07075 4.9192,2.11296 2.7096,0.54311 6.1077,1.33463 7.5604,1.76628 1.4526,0.43164 5.1826,1.4817 8.2866,2.34405 3.1041,0.86233 6.0754,1.82259 6.603,2.12944 1.3607,0.79143 5.9134,0.72625 8.7654,-0.13206 5.2853,-1.59066 7.3658,-4.55758 8.2536,-11.73671 0.2908,-2.35077 1.0217,-5.54403 1.6343,-7.09817 1.3143,-3.3345 1.1253,-4.4509 -1.2381,-7.27974 -3.0059,-3.59785 -3.2772,-4.80616 -2.4761,-10.61422 3.6525,-26.48025 -2.7551,-38.457106 -24.1667,-45.164085 -5.8281,-1.825583 -16.0734,-2.904401 -25.1737,-2.90529 z m 0.4457,53.038085 c 2.1253,0 2.3274,2.17925 1.6672,2.87228 -0.587,0.61619 -1.803,0.96557 -2.6247,0.39618 -1.3601,-0.94257 -0.9153,-3.26846 0.9575,-3.26846 z"
     style="fill:#232323;fill-opacity:1"
     id="path3808"
     inkscape:connector-curvature="0" /><path
     d="m 1554.4128,144.92812 c -1.7815,-1.95556 -2.2789,-3.34796 -2.2544,-6.31109 0.043,-5.26676 3.3667,-11.14753 4.5528,-8.05662 0.1925,0.5016 -0.1172,1.13013 -0.7884,1.60027 -2.454,1.71889 -2.9347,7.96914 -0.8491,11.04239 1.541,2.27079 1.0363,3.58811 -0.6609,1.72505 z m -44.3683,-55.288652 c -4.1365,-4e-4 -8.0351,0.21514 -11.1754,0.69331 -19.1541,2.91659 -33.8948,21.340702 -34.913,43.628902 -0.4975,10.88824 3.2195,21.46219 10.2015,29.0034 3.9764,4.29489 6.9347,5.9033 13.2389,7.18069 l 4.3084,0.87489 5.0182,-1.61772 c 2.906,-0.93087 6.8605,-1.7444 9.4092,-1.94786 5.7361,-0.4579 5.7281,-0.4426 5.7281,-6.0582 l 0,-4.67157 2.2615,-1.55169 c 1.2414,-0.85411 3.2125,-2.60076 4.3909,-3.87923 8.4844,-9.20442 6.6126,-22.06032 -3.8462,-26.39524 l -2.7732,-1.15551 -0.1486,-16.83749 -0.1486,-16.177202 c 0.2907,-0.0411 0.8159,-0.0455 1.5352,-0.033 1.2112,0.021 3.2961,0.24023 6.2233,0.51173 14.4912,1.34402 26.8898,6.18351 32.602,12.380502 5.8937,6.39391 8.2027,17.98707 6.1242,30.63763 -1.3319,8.10639 -0.7342,12.16356 2.113,14.52646 2.111,1.75205 2.4529,3.45726 1.304,6.37183 -0.5887,1.49357 -1.3035,4.52799 -1.6012,6.7515 -0.9834,7.34507 -2.4073,9.52768 -7.1146,10.94438 -3.5222,1.06002 -5.1978,0.95719 -9.7559,-0.59428 -9.4189,-3.20596 -24.7375,-6.75776 -25.9495,-6.00867 -1.1266,0.69625 -0.2805,1.07074 4.9192,2.11295 2.7096,0.54311 6.1077,1.33464 7.5603,1.76628 1.4527,0.43164 5.1827,1.48171 8.2867,2.34405 3.104,0.86233 6.0754,1.82259 6.603,2.12944 1.3607,0.79143 5.9134,0.72625 8.7654,-0.13206 5.2853,-1.59065 7.3657,-4.55758 8.2536,-11.73671 0.2908,-2.35077 1.0217,-5.54403 1.6342,-7.09816 1.3144,-3.33451 1.1254,-4.4509 -1.238,-7.27974 -3.0059,-3.59785 -3.2772,-4.80617 -2.4761,-10.61422 3.6525,-26.48026 -2.7551,-38.457112 -24.1668,-45.164092 -5.828,-1.82558 -16.0734,-2.9044 -25.1737,-2.90529 z m 0.4457,53.038092 c 2.1254,0 2.3275,2.17924 1.6673,2.87228 -0.587,0.61618 -1.803,0.96557 -2.6247,0.39617 -1.3601,-0.94257 -0.9153,-3.26845 0.9574,-3.26845 z"
     style="color:#000000;text-decoration:none;text-decoration-line:none;text-decoration-style:solid;text-decoration-color:#000000;clip-rule:nonzero;display:inline;overflow:visible;visibility:visible;opacity:1;isolation:auto;color-interpolation:sRGB;color-interpolation-filters:linearRGB;fill:#0b5a64;fill-opacity:1;fill-rule:nonzero;stroke:none;stroke-width:4.10362101;stroke-linecap:butt;stroke-linejoin:miter;stroke-miterlimit:4;stroke-dasharray:none;stroke-dashoffset:0;stroke-opacity:1;color-rendering:auto;image-rendering:auto;shape-rendering:auto;text-rendering:auto;enable-background:accumulate"
     id="path5473"
     inkscape:connector-curvature="0" /></svg>