<?xml version="1.0" encoding="UTF-8" standalone="no"?>
<svg
   xmlns:dc="http://purl.org/dc/elements/1.1/"
   xmlns:cc="http://creativecommons.org/ns#"
   xmlns:rdf="http://www.w3.org/1999/02/22-rdf-syntax-ns#"
   xmlns:svg="http://www.w3.org/2000/svg"
   xmlns="http://www.w3.org/2000/svg"
   xmlns:sodipodi="http://sodipodi.sourceforge.net/DTD/sodipodi-0.dtd"
   xmlns:inkscape="http://www.inkscape.org/namespaces/inkscape"
   width="750"
   height="650"
   viewBox="0 0 750 650"
   enable-background="new 0 0 512 512"
   id="svg2"
   version="1.1"
   inkscape:version="0.48.4 r9939"
   sodipodi:docname="VVV3.svg">
  <metadata
     id="metadata76">
    <rdf:RDF>
      <cc:Work
         rdf:about="">
        <dc:format>image/svg+xml</dc:format>
        <dc:type
           rdf:resource="http://purl.org/dc/dcmitype/StillImage" />
        <dc:title />
      </cc:Work>
    </rdf:RDF>
  </metadata>
  <defs
     id="defs74" />
  <sodipodi:namedview
     pagecolor="#d6fff1"
     bordercolor="#666666"
     borderopacity="1"
     objecttolerance="10"
     gridtolerance="10"
     guidetolerance="10"
     inkscape:pageopacity="1"
     inkscape:pageshadow="2"
     inkscape:window-width="1375"
     inkscape:window-height="876"
     id="namedview72"
     showgrid="false"
     inkscape:zoom="0.65186405"
     inkscape:cx="511.42136"
     inkscape:cy="286.68124"
     inkscape:window-x="1985"
     inkscape:window-y="24"
     inkscape:window-maximized="1"
     inkscape:current-layer="svg2"
     fit-margin-top="0"
     fit-margin-left="0"
     fit-margin-right="0"
     fit-margin-bottom="0" />
  <rect
     style="color:#000000;fill:#b5e2ae;fill-opacity:1;fill-rule:nonzero;stroke:none;stroke-width:4;marker:none;visibility:visible;display:inline;overflow:visible;enable-background:accumulate"
     id="rect3016"
     width="750"
     height="650"
     x="0"
     y="0" />
  <g
     transform="translate(-7.5623709,-3.3000025)"
     id="g3217">
    <path
       style="fill:#faef88"
       inkscape:connector-curvature="0"
       id="path3029"
       d="m 384.21,185.189 0.009,-0.005 -0.009,-0.005 0,-0.019 -0.017,0.009 -42.752,-24.695 -42.777,24.71 0,49.356 -0.052,0.029 0,49.308 -0.042,0.024 -0.02,-0.011 -42.63,24.631 0,-0.066 0.006,-0.003 -0.006,-0.003 0,-49.089 0.009,-0.005 -0.009,-0.004 0,-0.022 -0.019,0.011 -42.527,-24.572 0,-49.322 0.011,-0.007 -0.001,0 0.074,-0.043 0,-49.357 0.048,-0.028 0,-49.394 0.009,-0.005 -0.009,-0.005 0,-0.018 -0.016,0.009 -42.752,-24.698 -42.775,24.712 0,49.358 -0.052,0.03 0,49.395 -0.078,0.044 0,49.15 -0.052,0.03 0,49.424 42.591,24.609 0,49.222 42.574,24.598 0,49.382 -0.02,0.012 0,49.422 42.775,24.712 0,-0.03 42.773,-24.708 0,-49.36 0.076,0.044 0,-0.03 42.765,-24.706 0,-49.185 42.763,-24.703 0,-49.306 0.082,-0.048 0,-49.355 0.05,-0.029 z" />
    <path
       style="fill:#d19ec4"
       inkscape:connector-curvature="0"
       id="path3031"
       d="m 127.781,234.619 42.773,-24.708 42.777,24.708 -42.777,24.717 z" />
    <path
       style="fill:#faef88"
       inkscape:connector-curvature="0"
       id="path3033"
       d="m 127.781,234.619 0,49.424 42.773,24.714 0,-49.421 z" />
    <path
       style="fill:#92d4f1"
       inkscape:connector-curvature="0"
       id="path3035"
       d="m 170.545,308.733 0,-49.426 42.777,-24.707 0,49.421 z" />
    <path
       style="fill:#ec7c82"
       inkscape:connector-curvature="0"
       id="path3037"
       d="m 127.833,185.439 42.777,-24.71 42.775,24.71 -42.775,24.715 z" />
    <path
       style="fill:#92d4f1"
       inkscape:connector-curvature="0"
       id="path3039"
       d="m 127.833,185.439 0,49.422 42.777,24.715 0,-49.422 z" />
    <path
       style="fill:#d19ec4"
       inkscape:connector-curvature="0"
       id="path3041"
       d="m 170.6,259.55 0,-49.425 42.774,-24.708 0,49.423 z" />
    <path
       style="fill:#f09255"
       inkscape:connector-curvature="0"
       id="path3043"
       d="M 127.911,136 170.69,111.29 213.467,136 170.69,160.71 z" />
    <path
       style="fill:#ec7c82"
       inkscape:connector-curvature="0"
       id="path3045"
       d="m 127.911,136 0,49.424 42.779,24.71 0,-49.424 z" />
    <path
       style="fill:#d6fff1;fill-opacity:1"
       inkscape:connector-curvature="0"
       id="path3047"
       d="m 170.682,210.11 0,-49.424 42.776,-24.712 0,49.422 z" />
    <path
       style="fill:#92d4f1"
       inkscape:connector-curvature="0"
       id="path3049"
       d="M 127.963,86.612 170.738,61.9 213.515,86.612 170.738,111.325 z" />
    <path
       style="fill:#f09255"
       inkscape:connector-curvature="0"
       id="path3051"
       d="m 127.963,86.612 0,49.425 42.775,24.712 0,-49.424 z" />
    <path
       style="fill:#faef88"
       inkscape:connector-curvature="0"
       id="path3053"
       d="m 170.733,160.721 0,-49.422 42.773,-24.71 0,49.422 z" />
    <path
       style="fill:#92d4f1"
       inkscape:connector-curvature="0"
       id="path3055"
       d="m 212.926,431.866 42.775,-24.715 42.778,24.715 -42.778,24.709 z" />
    <path
       style="fill:#f09255"
       inkscape:connector-curvature="0"
       id="path3057"
       d="m 212.926,431.866 0,49.422 42.775,24.712 0,-49.425 z" />
    <path
       style="fill:#d6fff1;fill-opacity:1"
       inkscape:connector-curvature="0"
       id="path3059"
       d="m 255.694,505.974 0,-49.424 42.78,-24.712 0,49.424 z" />
    <path
       style="fill:#d19ec4"
       inkscape:connector-curvature="0"
       id="path3061"
       d="m 212.946,382.472 42.775,-24.715 42.777,24.715 -42.777,24.71 z" />
    <path
       style="fill:#faef88"
       inkscape:connector-curvature="0"
       id="path3063"
       d="m 212.946,382.472 0,49.424 42.775,24.708 0,-49.422 z" />
    <path
       style="fill:#92d4f1"
       inkscape:connector-curvature="0"
       id="path3065"
       d="m 255.712,456.587 0,-49.427 42.775,-24.714 0,49.422 z" />
    <path
       style="fill:#faef88"
       inkscape:connector-curvature="0"
       id="path3067"
       d="m 170.372,308.452 42.777,-24.71 42.777,24.71 -42.777,24.71 z" />
    <path
       style="fill:#92d4f1"
       inkscape:connector-curvature="0"
       id="path3069"
       d="m 170.372,308.452 0,49.422 42.777,24.715 0,-49.427 z" />
    <g
       style="fill:#f09255"
       id="g3071">
      <path
         inkscape:connector-curvature="0"
         id="path3073"
         d="m 213.141,382.562 0,-49.423 42.777,-24.712 0,49.426 z" />
      <path
         inkscape:connector-curvature="0"
         id="path3075"
         d="m 170.376,259.355 42.777,-24.714 42.776,24.714 -42.776,24.71 z" />
    </g>
    <path
       style="fill:#ec7c82"
       inkscape:connector-curvature="0"
       id="path3077"
       d="m 170.376,259.355 0,49.421 42.777,24.713 0,-49.424 z" />
    <path
       style="fill:#d6fff1;fill-opacity:1"
       inkscape:connector-curvature="0"
       id="path3079"
       d="m 213.143,333.463 0,-49.424 42.777,-24.71 0,49.422 z" />
    <path
       style="fill:#f09255"
       inkscape:connector-curvature="0"
       id="path3081"
       d="m 255.774,357.812 42.776,-24.715 42.774,24.715 -42.774,24.709 z" />
    <path
       style="fill:#ec7c82"
       inkscape:connector-curvature="0"
       id="path3083"
       d="m 255.774,357.812 0,49.421 42.776,24.713 0,-49.425 z" />
    <path
       style="fill:#f09255"
       inkscape:connector-curvature="0"
       id="path3085"
       d="m 298.539,431.922 0,-49.425 42.776,-24.711 0,49.424 z" />
    <path
       style="fill:#d19ec4"
       inkscape:connector-curvature="0"
       id="path3087"
       d="m 255.774,308.604 42.776,-24.714 42.774,24.714 -42.774,24.709 z" />
    <path
       style="fill:#faef88"
       inkscape:connector-curvature="0"
       id="path3089"
       d="m 255.774,308.604 0,49.42 42.776,24.714 0,-49.425 z" />
    <path
       style="fill:#92d4f1"
       inkscape:connector-curvature="0"
       id="path3091"
       d="m 298.539,382.712 0,-49.424 42.776,-24.713 0,49.425 z" />
    <g
       style="fill:#ec7c82"
       id="g3093">
      <path
         inkscape:connector-curvature="0"
         id="path3095"
         d="m 298.53,283.925 42.778,-24.715 42.776,24.715 -42.776,24.714 z" />
      <path
         inkscape:connector-curvature="0"
         id="path3097"
         d="m 298.53,283.925 0,49.422 42.778,24.712 0,-49.42 z" />
    </g>
    <path
       style="fill:#faef88"
       inkscape:connector-curvature="0"
       id="path3099"
       d="m 341.301,358.034 0,-49.424 42.777,-24.71 0,49.422 z" />
    <path
       style="fill:#f09255"
       inkscape:connector-curvature="0"
       id="path3101"
       d="m 298.612,234.569 42.778,-24.712 42.781,24.712 -42.781,24.712 z" />
    <path
       style="fill:#92d4f1"
       inkscape:connector-curvature="0"
       id="path3103"
       d="m 298.612,234.569 0,49.424 42.778,24.713 0,-49.425 z" />
    <path
       style="fill:#d6fff1;fill-opacity:1"
       inkscape:connector-curvature="0"
       id="path3105"
       d="m 341.385,308.68 0,-49.422 42.775,-24.713 0,49.423 z" />
    <path
       style="fill:#ec7c82"
       inkscape:connector-curvature="0"
       id="path3107"
       d="m 298.664,185.184 42.777,-24.71 42.778,24.71 -42.778,24.714 z" />
    <path
       style="fill:#f09255"
       inkscape:connector-curvature="0"
       id="path3109"
       d="m 298.664,185.184 0,49.424 42.777,24.714 0,-49.424 z" />
    <path
       style="fill:#d19ec4"
       inkscape:connector-curvature="0"
       id="path3111"
       d="m 341.433,259.292 0,-49.422 42.777,-24.71 0,49.424 z" />
    <path
       style="fill:#faef88"
       inkscape:connector-curvature="0"
       id="path3113"
       d="m 314.556,437.861 c 0.719,0 3.8,-1.395 2.148,-1.395 -0.719,10e-4 -3.8,1.395 -2.148,1.395 z" />
  </g>
  <path
     style="font-size:100px;font-style:normal;font-variant:normal;font-weight:500;font-stretch:normal;line-height:89.99999762000000203%;letter-spacing:0px;word-spacing:0px;fill:#f09255;fill-opacity:1;stroke:none;font-family:'8-Bit Madness';-inkscape-font-specification:'8-Bit Madness'"
     d="m 523.03137,277.65 0,6.25 12.5,0 0,-6.25 z m -93.75,6.25 0,6.25 -6.25,0 0,25 6.25,0 0,6.25 25,0 0,-6.25 -18.75,0 0,-12.5 25,0 0,-12.5 -6.25,0 0,-6.25 z m 25,31.25 6.25,0 0,-6.25 -6.25,0 z m 18.75,-31.25 0,37.5 12.5,0 0,-31.25 12.5,0 0,31.25 12.5,0 0,-31.25 -6.25,0 0,-6.25 z m -37.5,6.25 12.5,0 0,6.25 -12.5,0 z m 87.5,0 0,31.25 12.5,0 0,-31.25 z m -50,71.25 0,12.5 -18.75,0 0,6.25 -6.25,0 0,25 6.25,0 0,6.25 31.25,0 0,-50 z m -50,6.25 0,6.25 12.5,0 0,-6.25 z m 75,0 0,6.25 12.5,0 0,-6.25 z m -75,12.5 0,31.25 12.5,0 0,-31.25 z m 37.5,0 12.5,0 0,25 -12.5,0 z m 37.5,0 0,31.25 12.5,0 0,-31.25 z m -75,77.5 0,6.25 12.5,0 0,-6.25 z m 75,0 0,6.25 12.5,0 0,-6.25 z m -43.75,6.25 0,6.25 -6.25,0 0,25 6.25,0 0,6.25 25,0 0,-6.25 -18.75,0 0,-25 18.75,0 0,-6.25 z m 25,6.25 0,6.25 6.25,0 0,-6.25 z m 0,25 6.25,0 0,-6.25 -6.25,0 z m -56.25,-25 0,31.25 12.5,0 0,-31.25 z m 75,0 0,31.25 12.5,0 0,-31.25 z m 31.75,77.5 0,18.75 12.5,0 0,-18.75 z m 31.25,0 0,6.25 -6.25,0 0,6.25 6.25,0 0,25 -6.25,0 0,6.25 25,0 0,-6.25 -6.25,0 0,-37.5 z m 31.25,0 0,31.25 18.75,0 0,12.5 12.5,0 0,-12.5 6.25,0 0,-6.25 -6.25,0 0,-25 -12.5,0 0,25 -6.25,0 0,-25 z"
     id="path3027"
     inkscape:connector-curvature="0"
     sodipodi:nodetypes="cccccccccccccccccccccccccccccccccccccccccccccccccccccccccccccccccccccccccccccccccccccccccccccccccccccccccccccccccccccccccccccccccccccccccccccccccccccccccccccc" />
</svg>
