<?xml version="1.0" encoding="UTF-8" standalone="no"?>
<svg
   xmlns:dc="http://purl.org/dc/elements/1.1/"
   xmlns:cc="http://creativecommons.org/ns#"
   xmlns:rdf="http://www.w3.org/1999/02/22-rdf-syntax-ns#"
   xmlns:svg="http://www.w3.org/2000/svg"
   xmlns="http://www.w3.org/2000/svg"
   xmlns:sodipodi="http://sodipodi.sourceforge.net/DTD/sodipodi-0.dtd"
   xmlns:inkscape="http://www.inkscape.org/namespaces/inkscape"
   width="750"
   height="650"
   viewBox="0 0 750 650"
   enable-background="new 0 0 512 512"
   id="svg2"
   version="1.1"
   inkscape:version="0.48+devel r"
   sodipodi:docname="VVV4.svg">
  <metadata
     id="metadata76">
    <rdf:RDF>
      <cc:Work
         rdf:about="">
        <dc:format>image/svg+xml</dc:format>
        <dc:type
           rdf:resource="http://purl.org/dc/dcmitype/StillImage" />
        <dc:title />
      </cc:Work>
    </rdf:RDF>
  </metadata>
  <defs
     id="defs74" />
  <sodipodi:namedview
     pagecolor="#d6fff1"
     bordercolor="#666666"
     borderopacity="1"
     objecttolerance="10"
     gridtolerance="10"
     guidetolerance="10"
     inkscape:pageopacity="1"
     inkscape:pageshadow="2"
     inkscape:window-width="1855"
     inkscape:window-height="1056"
     id="namedview72"
     showgrid="false"
     inkscape:zoom="0.65186405"
     inkscape:cx="372.58873"
     inkscape:cy="273.63879"
     inkscape:window-x="65"
     inkscape:window-y="24"
     inkscape:window-maximized="1"
     inkscape:current-layer="svg2"
     fit-margin-top="0"
     fit-margin-left="0"
     fit-margin-right="0"
     fit-margin-bottom="0" />
  <rect
     style="color:#000000;fill:#d6fff1;fill-opacity:1;fill-rule:nonzero;stroke:none;stroke-width:4;marker:none;visibility:visible;display:inline;overflow:visible;enable-background:accumulate"
     id="rect3016"
     width="750"
     height="650"
     x="-2.6613739e-06"
     y="0" />
  <g
     id="g3108">
    <g
       id="g3428"
       transform="translate(3.6458755,-7.943252)">
      <path
         d="m 175.216,91.156 -39.922,-23.065 -39.919,23.058 -0.003,-0.002 0,0.004 -0.008,0.005 0.008,0.005 0,138.333 39.879,23.024 0,0.034 39.926,-23.067 0.013,-138.314 z"
         id="path4"
         inkscape:connector-curvature="0"
         style="fill:#e5bd69" />
      <path
         d="m 234.355,264.035 -0.013,-0.008 0,-0.018 -0.016,0.01 -39.897,-23.049 -39.927,23.065 0,92.177 39.892,23.044 39.948,-23.068 0,-92.145 z"
         id="path6"
         inkscape:connector-curvature="0"
         style="fill:#9d729f" />
      <path
         d="m 296.217,390.779 -0.01,-0.005 0,-0.018 -0.016,0.009 -39.901,-23.053 -39.922,23.067 0,92.18 39.887,23.041 39.952,-23.064 0,-92.152 z"
         id="path8"
         inkscape:connector-curvature="0"
         style="fill:#87a45a" />
      <path
         d="m 356.572,333.444 -0.01,-0.005 0,-0.018 -0.015,0.009 -39.902,-23.053 -39.926,23.067 0,92.178 39.886,23.041 39.957,-23.065 0,-92.149 z"
         id="path10"
         inkscape:connector-curvature="0"
         style="fill:#c65861" />
      <path
         d="m 416.637,228.459 -39.928,-23.061 -39.92,23.058 -0.002,-10e-4 0,0.002 -0.004,0.002 0.004,0.002 0,138.341 39.885,23.026 0,0.029 39.922,-23.065 0.021,-138.321 z"
         id="path12"
         inkscape:connector-curvature="0"
         style="fill:#5c9cd0" />
      <path
         d="m 95.364,91.156 39.93,-23.065 39.922,23.065 -39.922,23.065 z"
         id="path14"
         inkscape:connector-curvature="0"
         style="fill:#f4d481" />
      <path
         d="m 95.372,91.147 0,138.347 39.905,23.039 0,-138.346 z"
         id="path16"
         inkscape:connector-curvature="0"
         style="fill:#faef88" />
      <path
         d="m 175.19,91.165 -39.939,23.039 0,138.348 39.926,-23.067 z"
         id="path18"
         inkscape:connector-curvature="0"
         style="fill:#e5bd69" />
      <path
         d="m 154.502,264.035 39.927,-23.065 39.926,23.065 -39.926,23.066 z"
         id="path20"
         inkscape:connector-curvature="0"
         style="fill:#af84a5" />
      <path
         d="m 154.502,264.035 0,92.177 39.892,23.044 0,-92.183 z"
         id="path22"
         inkscape:connector-curvature="0"
         style="fill:#d19ec4" />
      <path
         d="m 194.394,287.073 39.948,-23.064 0,92.179 -39.948,23.068 z"
         id="path24"
         inkscape:connector-curvature="0"
         style="fill:#9d729f" />
      <path
         d="m 216.368,390.779 39.922,-23.067 39.927,23.067 -39.927,23.062 z"
         id="path26"
         inkscape:connector-curvature="0"
         style="fill:#aabb6c" />
      <path
         d="m 216.368,390.779 0,92.18 39.887,23.041 0,-92.182 z"
         id="path28"
         inkscape:connector-curvature="0"
         style="fill:#c5d77a" />
      <path
         d="m 256.255,413.818 39.952,-23.062 0,92.18 L 256.255,506 z"
         id="path30"
         inkscape:connector-curvature="0"
         style="fill:#87a45a" />
      <path
         d="m 276.719,333.444 39.926,-23.067 39.927,23.067 -39.927,23.063 z"
         id="path32"
         inkscape:connector-curvature="0"
         style="fill:#d06e75" />
      <path
         d="m 276.719,333.444 0,92.178 39.886,23.041 0,-92.178 z"
         id="path34"
         inkscape:connector-curvature="0"
         style="fill:#ec7c82" />
      <path
         d="m 316.605,356.485 39.957,-23.064 0,92.177 -39.957,23.065 z"
         id="path36"
         inkscape:connector-curvature="0"
         style="fill:#c65861" />
      <path
         d="m 336.783,228.459 39.926,-23.061 39.928,23.061 -39.928,23.067 z"
         id="path38"
         inkscape:connector-curvature="0"
         style="fill:#97b5db" />
      <path
         d="m 336.787,228.455 0,138.347 39.906,23.039 0,-138.345 z"
         id="path40"
         inkscape:connector-curvature="0"
         style="fill:#92d4f1" />
      <path
         d="m 416.615,228.468 -39.943,23.043 0,138.346 39.922,-23.065 z"
         id="path42"
         inkscape:connector-curvature="0"
         style="fill:#5c9cd0" />
    </g>
    <path
       sodipodi:nodetypes="cccccccccccccccccccccccccccccccccccccccccccccccccccccccccccccccccccccccccccccccccccccccccccccccccccccccccccccccccccccccccccccccccccccccccccccccccccccccccccccc"
       inkscape:connector-curvature="0"
       id="path3027"
       d="m 544.24012,276.10225 0,6.25 12.5,0 0,-6.25 z m -93.75,6.25 0,6.25 -6.25,0 0,25 6.25,0 0,6.25 25,0 0,-6.25 -18.75,0 0,-12.5 25,0 0,-12.5 -6.25,0 0,-6.25 z m 25,31.25 6.25,0 0,-6.25 -6.25,0 z m 18.75,-31.25 0,37.5 12.5,0 0,-31.25 12.5,0 0,31.25 12.5,0 0,-31.25 -6.25,0 0,-6.25 z m -37.5,6.25 12.5,0 0,6.25 -12.5,0 z m 87.5,0 0,31.25 12.5,0 0,-31.25 z m -50,71.25 0,12.5 -18.75,0 0,6.25 -6.25,0 0,25 6.25,0 0,6.25 31.25,0 0,-50 z m -50,6.25 0,6.25 12.5,0 0,-6.25 z m 75,0 0,6.25 12.5,0 0,-6.25 z m -75,12.5 0,31.25 12.5,0 0,-31.25 z m 37.5,0 12.5,0 0,25 -12.5,0 z m 37.5,0 0,31.25 12.5,0 0,-31.25 z m -75,77.5 0,6.25 12.5,0 0,-6.25 z m 75,0 0,6.25 12.5,0 0,-6.25 z m -43.75,6.25 0,6.25 -6.25,0 0,25 6.25,0 0,6.25 25,0 0,-6.25 -18.75,0 0,-25 18.75,0 0,-6.25 z m 25,6.25 0,6.25 6.25,0 0,-6.25 z m 0,25 6.25,0 0,-6.25 -6.25,0 z m -56.25,-25 0,31.25 12.5,0 0,-31.25 z m 75,0 0,31.25 12.5,0 0,-31.25 z m -16.25,-382.5 0,18.75 12.5,0 0,-18.75 z m 31.25,0 0,6.25 -6.25,0 0,6.25 6.25,0 0,25 -6.25,0 0,6.25 25,0 0,-6.25 -6.25,0 0,-37.5 z m 31.25,0 0,31.25 18.75,0 0,12.5 12.5,0 0,-12.5 6.25,0 0,-6.25 -6.25,0 0,-25 -12.5,0 0,25 -6.25,0 0,-25 z"
       style="font-size:100px;font-style:normal;font-variant:normal;font-weight:500;font-stretch:normal;line-height:89.99999762%;letter-spacing:0px;word-spacing:0px;fill:#c65861;fill-opacity:1;stroke:none;font-family:'8-Bit Madness';-inkscape-font-specification:'8-Bit Madness'" />
  </g>
  <text
     sodipodi:linespacing="89.999998%"
     id="text3011"
     y="281.82004"
     x="798.88391"
     style="font-size:100px;font-style:normal;font-variant:normal;font-weight:500;font-stretch:normal;line-height:89.99999762%;letter-spacing:0px;word-spacing:0px;fill:#000000;fill-opacity:1;stroke:none;font-family:Abyssinica SIL;-inkscape-font-specification:Abyssinica SIL"
     xml:space="preserve"><tspan
       style="font-style:normal;font-variant:normal;font-weight:bold;font-stretch:normal;line-height:89.99999762%;fill:#4d4d4d;font-family:'Banda Regular';-inkscape-font-specification:'Banda Regular,  Bold'"
       y="281.82004"
       x="798.88391"
       id="tspan3014"
       sodipodi:role="line">eni</tspan><tspan
       style="font-style:normal;font-variant:normal;font-weight:bold;font-stretch:normal;line-height:89.99999762%;fill:#4d4d4d;font-family:'Banda Regular';-inkscape-font-specification:'Banda Regular,  Bold'"
       id="tspan3016"
       y="371.82004"
       x="798.88391"
       sodipodi:role="line">idi</tspan><tspan
       style="font-style:normal;font-variant:normal;font-weight:bold;font-stretch:normal;line-height:89.99999762%;fill:#4d4d4d;font-family:'Banda Regular';-inkscape-font-specification:'Banda Regular,  Bold'"
       id="tspan3018"
       y="461.82004"
       x="798.88391"
       sodipodi:role="line">ici</tspan><tspan
       style="font-style:normal;font-variant:normal;font-weight:bold;font-stretch:normal;line-height:89.99999762%;fill:#4d4d4d;font-family:'Banda Regular';-inkscape-font-specification:'Banda Regular,  Bold'"
       id="tspan3020"
       y="551.82001"
       x="798.88391"
       sodipodi:role="line">     '14</tspan><tspan
       style="font-style:normal;font-variant:normal;font-weight:normal;font-stretch:normal;line-height:89.99999762%;fill:#4d4d4d;font-family:'Banda Regular';-inkscape-font-specification:'Banda Regular, '"
       id="tspan3022"
       y="641.82001"
       x="798.88391"
       sodipodi:role="line" /></text>
</svg>
