<?xml version="1.0" encoding="UTF-8" standalone="no"?>
<svg
   xmlns:dc="http://purl.org/dc/elements/1.1/"
   xmlns:cc="http://creativecommons.org/ns#"
   xmlns:rdf="http://www.w3.org/1999/02/22-rdf-syntax-ns#"
   xmlns:svg="http://www.w3.org/2000/svg"
   xmlns="http://www.w3.org/2000/svg"
   xmlns:sodipodi="http://sodipodi.sourceforge.net/DTD/sodipodi-0.dtd"
   xmlns:inkscape="http://www.inkscape.org/namespaces/inkscape"
   width="1000"
   height="1600"
   viewBox="0 0 1000 1600"
   enable-background="new 0 0 512 512"
   id="svg2"
   version="1.1"
   inkscape:version="0.48+devel r"
   sodipodi:docname="VVV_B.svg">
  <metadata
     id="metadata76">
    <rdf:RDF>
      <cc:Work
         rdf:about="">
        <dc:format>image/svg+xml</dc:format>
        <dc:type
           rdf:resource="http://purl.org/dc/dcmitype/StillImage" />
        <dc:title></dc:title>
      </cc:Work>
    </rdf:RDF>
  </metadata>
  <defs
     id="defs74" />
  <sodipodi:namedview
     pagecolor="#ffffff"
     bordercolor="#666666"
     borderopacity="1"
     objecttolerance="10"
     gridtolerance="10"
     guidetolerance="10"
     inkscape:pageopacity="1"
     inkscape:pageshadow="2"
     inkscape:window-width="1855"
     inkscape:window-height="1056"
     id="namedview72"
     showgrid="false"
     inkscape:zoom="0.575625"
     inkscape:cx="500"
     inkscape:cy="800"
     inkscape:window-x="65"
     inkscape:window-y="24"
     inkscape:window-maximized="1"
     inkscape:current-layer="svg2"
     fit-margin-top="0"
     fit-margin-left="0"
     fit-margin-right="0"
     fit-margin-bottom="0" />
  <rect
     style="color:#000000;display:inline;overflow:visible;visibility:visible;fill:#d6fff1;fill-opacity:1;fill-rule:nonzero;stroke:none;stroke-width:4;marker:none;enable-background:accumulate"
     id="rect3016"
     width="1000"
     height="1600"
     x="0"
     y="0" />
  <g
     transform="matrix(1.6359166,0,0,1.6359166,-31.450573,143.61769)"
     id="g4203">
    <path
       style="fill:#aa5e7d"
       inkscape:connector-curvature="0"
       id="path4-3"
       d="M 198.96,104.744 80.625,72.09 l 104.347,0 z" />
    <path
       style="fill:#91bebe"
       inkscape:connector-curvature="0"
       id="path6-4"
       d="M 325.484,215.094 355.03,88.954 405.878,126.4 Z" />
    <path
       style="fill:#007382"
       inkscape:connector-curvature="0"
       id="path8-4"
       d="m 259.441,241.42 17.698,90.126 42.247,-21.662 z" />
    <path
       style="fill:#bf597d"
       inkscape:connector-curvature="0"
       id="path10-3"
       d="M 232.868,279.223 198.96,104.744 259.441,241.42 232.868,279.223" />
    <path
       style="fill:#1e91a0"
       inkscape:connector-curvature="0"
       id="path12-6"
       d="M 145.326,129.212 198.96,104.744 182.752,241.42 Z" />
    <path
       style="fill:#86ceb6"
       inkscape:connector-curvature="0"
       id="path14-8"
       d="M 431.526,72.09 405.878,126.4 355.03,88.922 431.526,72.09" />
    <path
       style="fill:#bc215f"
       inkscape:connector-curvature="0"
       id="path16"
       d="m 300.902,144.428 24.582,70.666 -66.043,26.326 z" />
    <path
       style="opacity:0.7;fill:#8978ab"
       inkscape:connector-curvature="0"
       id="path18-3"
       d="m 258.868,439.786 -10.226,-69.884 3.968,69.724 z" />
    <path
       style="opacity:0.2;fill:#cd3b4b"
       inkscape:connector-curvature="0"
       id="path20-1"
       d="m 198.96,104.744 -16.208,136.676 76.689,0 z" />
    <path
       style="opacity:0.7;fill:#aa5e7d"
       inkscape:connector-curvature="0"
       id="path22-0"
       d="m 277.139,400.712 -28.497,-30.81 28.497,-38.356 z" />
    <path
       style="opacity:0.7;fill:#ae918c"
       inkscape:connector-curvature="0"
       id="path24-5"
       d="M 248.642,369.902 213.126,355.16 252.61,439.626 Z" />
    <path
       style="opacity:0.8;fill:#6b3345"
       inkscape:connector-curvature="0"
       id="path26-8"
       d="m 405.878,126.4 -80.394,88.694 -6.098,94.79 z" />
    <path
       style="fill:#1e91a0"
       inkscape:connector-curvature="0"
       id="path28-6"
       d="M 300.902,144.461 355.03,88.956 331.936,72.09 Z" />
    <path
       style="opacity:0.5;fill:#6b3345"
       inkscape:connector-curvature="0"
       id="path30-8"
       d="m 184.972,72.09 13.988,32.654 -53.634,24.468 z" />
    <path
       style="opacity:0.7;fill:#ab8d8d"
       inkscape:connector-curvature="0"
       id="path32-7"
       d="M 213.126,355.16 232.868,279.223 182.752,241.42 Z" />
    <path
       style="opacity:0.5;fill:#234150"
       inkscape:connector-curvature="0"
       id="path34-8"
       d="m 232.868,279.223 26.573,-37.803 -76.667,0.017 z" />
    <path
       style="fill:#e3525f"
       inkscape:connector-curvature="0"
       id="path36-8"
       d="m 277.139,331.546 -64.013,23.614 35.516,14.742 z" />
    <path
       style="opacity:0.7;fill:#8978ab"
       inkscape:connector-curvature="0"
       id="path38-7"
       d="M 319.386,309.884" />
    <path
       style="opacity:0.7;fill:#648c8c"
       inkscape:connector-curvature="0"
       id="path40-7"
       d="m 277.139,331.546 0,69.166 42.247,-90.828 z" />
    <path
       style="opacity:0.5;fill:#ab8d8d"
       inkscape:connector-curvature="0"
       id="path42-6"
       d="M 405.878,126.4 300.902,144.428 355.03,88.922 Z" />
    <path
       style="opacity:0.7;fill:#e3525f"
       inkscape:connector-curvature="0"
       id="path44-7"
       d="M 319.386,309.884 259.441,241.42 325.484,215.094 Z" />
    <path
       style="opacity:0.5;fill:#234150"
       inkscape:connector-curvature="0"
       id="path46-6"
       d="m 405.878,126.4 -80.394,88.694 -24.582,-70.666 z" />
    <path
       style="opacity:0.5;fill:#ab8d8d"
       inkscape:connector-curvature="0"
       id="path48-7"
       d="m 258.868,439.786 18.271,-39.074 -28.497,-30.81 z" />
    <path
       style="fill:#91bebe"
       inkscape:connector-curvature="0"
       id="path50-4"
       d="m 213.126,355.16 64.013,-23.614 -44.271,-52.323 z" />
    <path
       style="fill:#bf597d"
       inkscape:connector-curvature="0"
       id="path52-4"
       d="M 431.526,72.09 355.028,88.954 331.936,72.09 Z" />
    <path
       style="opacity:0.5;fill:#007382"
       inkscape:connector-curvature="0"
       id="path54-3"
       d="m 259.441,241.42 59.945,68.464 -86.518,-30.661 z" />
    <path
       style="opacity:0.7;fill:#86ceb6"
       inkscape:connector-curvature="0"
       id="path56-0"
       d="m 182.752,241.42 -37.426,-30.952 67.8,144.692" />
    <path
       style="opacity:0.5;fill:#aa5e7d"
       inkscape:connector-curvature="0"
       id="path58-0"
       d="M 184.972,72.09 145.326,129.212 80.625,72.09 Z" />
    <path
       style="opacity:0.5;fill:#6b3345"
       inkscape:connector-curvature="0"
       id="path60-8"
       d="m 319.386,309.884 -42.247,21.662 -44.271,-52.323 z" />
    <path
       style="opacity:0.5;fill:#234150"
       inkscape:connector-curvature="0"
       id="path62-2"
       d="M 198.96,104.744 182.752,241.42 145.326,210.468 Z" />
    <path
       style="opacity:0.5;fill:#ae918c"
       inkscape:connector-curvature="0"
       id="path64-4"
       d="m 198.96,104.744 -53.634,105.724 0,-81.256 z" />
    <path
       style="opacity:0.7;fill:#91bebe"
       inkscape:connector-curvature="0"
       id="path66-9"
       d="m 145.326,210.468 0,-81.256 L 80.625,72.09 Z" />
  </g>
  <g
     id="g5805"
     transform="matrix(1.6391034,0,0,1.6391034,-799.66977,6.3214675)"
     style="fill:#007382;fill-opacity:1">
    <path
       d="m 947.554,217.0534 q 0,6.1 -6.3,6.1 l -19.3,0 q -6.3,0 -6.3,-6.1 l 0,-37.1 q 0,-6.1 6.3,-6.1 l 19.3,0 q 6.3,0 6.3,6.1 l 0,18.1 -3.1,3.1 -18.1,0 0,13.8 10.5,0 0,-8.2 10.7,0 0,10.3 0,0 z m -10.7,-35 -10.5,0 0,11.8 10.5,0 0,-11.8 z"
       style="color:#000000;font-style:normal;font-variant:normal;font-weight:bold;font-stretch:normal;font-size:medium;line-height:100%;font-family:AgencyFB;-inkscape-font-specification:'AgencyFB Bold';text-align:start;text-decoration:none;text-decoration-line:none;text-decoration-style:solid;text-decoration-color:#000000;letter-spacing:0px;word-spacing:0px;text-anchor:start;clip-rule:nonzero;visibility:visible;isolation:auto;color-interpolation:sRGB;color-interpolation-filters:linearRGB;fill:#007382;fill-opacity:1;fill-rule:nonzero;stroke:none;stroke-width:1;stroke-linecap:butt;stroke-linejoin:miter;stroke-miterlimit:4;stroke-dasharray:none;stroke-dashoffset:0;stroke-opacity:1;color-rendering:auto;image-rendering:auto;shape-rendering:auto;text-rendering:auto"
       id="path5769"
       inkscape:connector-curvature="0" />
    <path
       d="m 977.39306,223.1534 0,-40 -10.5,0.2 0,39.8 -11.2,0 0,-49.3 11.2,0 0,1.8 11.8,-1.6 q 1,-0.2 2,-0.3 1,-0.1 1.8,-0.1 6.1,0 6.1,6 l 0,43.5 -11.2,0 z"
       style="color:#000000;font-style:normal;font-variant:normal;font-weight:bold;font-stretch:normal;font-size:medium;line-height:100%;font-family:AgencyFB;-inkscape-font-specification:'AgencyFB Bold';text-align:start;text-decoration:none;text-decoration-line:none;text-decoration-style:solid;text-decoration-color:#000000;letter-spacing:0px;word-spacing:0px;text-anchor:start;clip-rule:nonzero;visibility:visible;isolation:auto;color-interpolation:sRGB;color-interpolation-filters:linearRGB;fill:#007382;fill-opacity:1;fill-rule:nonzero;stroke:none;stroke-width:1;stroke-linecap:butt;stroke-linejoin:miter;stroke-miterlimit:4;stroke-dasharray:none;stroke-dashoffset:0;stroke-opacity:1;color-rendering:auto;image-rendering:auto;shape-rendering:auto;text-rendering:auto"
       id="path5771"
       inkscape:connector-curvature="0" />
    <path
       d="m 996.71338,166.7534 0,-11.5 11.20002,0 0,11.5 -11.20002,0 z m 0.1,56.4 0,-49.3 11.00002,0 0,49.3 -11.00002,0 z"
       style="color:#000000;font-style:normal;font-variant:normal;font-weight:bold;font-stretch:normal;font-size:medium;line-height:100%;font-family:AgencyFB;-inkscape-font-specification:'AgencyFB Bold';text-align:start;text-decoration:none;text-decoration-line:none;text-decoration-style:solid;text-decoration-color:#000000;letter-spacing:0px;word-spacing:0px;text-anchor:start;clip-rule:nonzero;visibility:visible;isolation:auto;color-interpolation:sRGB;color-interpolation-filters:linearRGB;fill:#007382;fill-opacity:1;fill-rule:nonzero;stroke:none;stroke-width:1;stroke-linecap:butt;stroke-linejoin:miter;stroke-miterlimit:4;stroke-dasharray:none;stroke-dashoffset:0;stroke-opacity:1;color-rendering:auto;image-rendering:auto;shape-rendering:auto;text-rendering:auto"
       id="path5773"
       inkscape:connector-curvature="0" />
    <path
       d="m 875.854,266.7534 0,-11.5 11.2,0 0,11.5 -11.2,0 z m 0.1,56.4 0,-49.3 11,0 0,49.3 -11,0 z"
       style="color:#000000;font-style:normal;font-variant:normal;font-weight:bold;font-stretch:normal;font-size:medium;line-height:100%;font-family:AgencyFB;-inkscape-font-specification:'AgencyFB Bold';text-align:start;text-decoration:none;text-decoration-line:none;text-decoration-style:solid;text-decoration-color:#000000;letter-spacing:0px;word-spacing:0px;text-anchor:start;clip-rule:nonzero;visibility:visible;isolation:auto;color-interpolation:sRGB;color-interpolation-filters:linearRGB;fill:#007382;fill-opacity:1;fill-rule:nonzero;stroke:none;stroke-width:1;stroke-linecap:butt;stroke-linejoin:miter;stroke-miterlimit:4;stroke-dasharray:none;stroke-dashoffset:0;stroke-opacity:1;color-rendering:auto;image-rendering:auto;shape-rendering:auto;text-rendering:auto"
       id="path5775"
       inkscape:connector-curvature="0" />
    <path
       d="m 916.78525,323.1534 0,-1.7 -8.5,1.5 q -2.2,0.5 -4.2,0.5 -4.2,0 -6.6,-2.4 -2.4,-2.5 -2.4,-6.8 l 0,-30.5 q 0,-4.5 2.7,-7.2 2.7,-2.7 7.6,-2.7 l 11.4,0 0,-27.1 11.1,0 0,76.4 -11.1,0 z m 0,-40 -6.9,0 q -3.7,0 -3.7,3.7 l 0,23.6 q 0,3.6 3.5,3.6 0.4,0 1,0 0.6,0 1.1,-0.1 l 5,-0.4 0,-30.4 z"
       style="color:#000000;font-style:normal;font-variant:normal;font-weight:bold;font-stretch:normal;font-size:medium;line-height:100%;font-family:AgencyFB;-inkscape-font-specification:'AgencyFB Bold';text-align:start;text-decoration:none;text-decoration-line:none;text-decoration-style:solid;text-decoration-color:#000000;letter-spacing:0px;word-spacing:0px;text-anchor:start;clip-rule:nonzero;visibility:visible;isolation:auto;color-interpolation:sRGB;color-interpolation-filters:linearRGB;fill:#007382;fill-opacity:1;fill-rule:nonzero;stroke:none;stroke-width:1;stroke-linecap:butt;stroke-linejoin:miter;stroke-miterlimit:4;stroke-dasharray:none;stroke-dashoffset:0;stroke-opacity:1;color-rendering:auto;image-rendering:auto;shape-rendering:auto;text-rendering:auto"
       id="path5777"
       inkscape:connector-curvature="0" />
    <path
       d="m 936.20556,266.7534 0,-11.5 11.2,0 0,11.5 -11.2,0 z m 0.1,56.4 0,-49.3 11,0 0,49.3 -11,0 z"
       style="color:#000000;font-style:normal;font-variant:normal;font-weight:bold;font-stretch:normal;font-size:medium;line-height:100%;font-family:AgencyFB;-inkscape-font-specification:'AgencyFB Bold';text-align:start;text-decoration:none;text-decoration-line:none;text-decoration-style:solid;text-decoration-color:#000000;letter-spacing:0px;word-spacing:0px;text-anchor:start;clip-rule:nonzero;visibility:visible;isolation:auto;color-interpolation:sRGB;color-interpolation-filters:linearRGB;fill:#007382;fill-opacity:1;fill-rule:nonzero;stroke:none;stroke-width:1;stroke-linecap:butt;stroke-linejoin:miter;stroke-miterlimit:4;stroke-dasharray:none;stroke-dashoffset:0;stroke-opacity:1;color-rendering:auto;image-rendering:auto;shape-rendering:auto;text-rendering:auto"
       id="path5779"
       inkscape:connector-curvature="0" />
    <path
       d="m 835.85393,366.7534 0,-11.5 11.2,0 0,11.5 -11.2,0 z m 0.1,56.4 0,-49.3 11,0 0,49.3 -11,0 z"
       style="color:#000000;font-style:normal;font-variant:normal;font-weight:bold;font-stretch:normal;font-size:medium;line-height:100%;font-family:AgencyFB;-inkscape-font-specification:'AgencyFB Bold';text-align:start;text-decoration:none;text-decoration-line:none;text-decoration-style:solid;text-decoration-color:#000000;letter-spacing:0px;word-spacing:0px;text-anchor:start;clip-rule:nonzero;visibility:visible;isolation:auto;color-interpolation:sRGB;color-interpolation-filters:linearRGB;fill:#007382;fill-opacity:1;fill-rule:nonzero;stroke:none;stroke-width:1;stroke-linecap:butt;stroke-linejoin:miter;stroke-miterlimit:4;stroke-dasharray:none;stroke-dashoffset:0;stroke-opacity:1;color-rendering:auto;image-rendering:auto;shape-rendering:auto;text-rendering:auto"
       id="path5781"
       inkscape:connector-curvature="0" />
    <path
       d="m 887.08518,417.0534 q 0,6.1 -6.2,6.1 l -19.4,0 q -6.3,0 -6.3,-6.1 l 0,-37.1 q 0,-6.1 6.3,-6.1 l 19.4,0 q 6.2,0 6.2,6.1 l 0,11.7 -10.9,0 0,-8.5 -10,0 0,30.7 10,0 0,-9.4 10.9,0 0,12.6 0,0 z"
       style="color:#000000;font-style:normal;font-variant:normal;font-weight:bold;font-stretch:normal;font-size:medium;line-height:100%;font-family:AgencyFB;-inkscape-font-specification:'AgencyFB Bold';text-align:start;text-decoration:none;text-decoration-line:none;text-decoration-style:solid;text-decoration-color:#000000;letter-spacing:0px;word-spacing:0px;text-anchor:start;clip-rule:nonzero;visibility:visible;isolation:auto;color-interpolation:sRGB;color-interpolation-filters:linearRGB;fill:#007382;fill-opacity:1;fill-rule:nonzero;stroke:none;stroke-width:1;stroke-linecap:butt;stroke-linejoin:miter;stroke-miterlimit:4;stroke-dasharray:none;stroke-dashoffset:0;stroke-opacity:1;color-rendering:auto;image-rendering:auto;shape-rendering:auto;text-rendering:auto"
       id="path5783"
       inkscape:connector-curvature="0" />
    <path
       d="m 895.22893,366.7534 0,-11.5 11.2,0 0,11.5 -11.2,0 z m 0.1,56.4 0,-49.3 11,0 0,49.3 -11,0 z"
       style="color:#000000;font-style:normal;font-variant:normal;font-weight:bold;font-stretch:normal;font-size:medium;line-height:100%;font-family:AgencyFB;-inkscape-font-specification:'AgencyFB Bold';text-align:start;text-decoration:none;text-decoration-line:none;text-decoration-style:solid;text-decoration-color:#000000;letter-spacing:0px;word-spacing:0px;text-anchor:start;clip-rule:nonzero;visibility:visible;isolation:auto;color-interpolation:sRGB;color-interpolation-filters:linearRGB;fill:#007382;fill-opacity:1;fill-rule:nonzero;stroke:none;stroke-width:1;stroke-linecap:butt;stroke-linejoin:miter;stroke-miterlimit:4;stroke-dasharray:none;stroke-dashoffset:0;stroke-opacity:1;color-rendering:auto;image-rendering:auto;shape-rendering:auto;text-rendering:auto"
       id="path5785"
       inkscape:connector-curvature="0" />
    <path
       d="m 964.254,470.6534 -6.8,0 -2.2,-23.9 11.2,0 -2.2,23.9 z"
       style="color:#000000;font-style:normal;font-variant:normal;font-weight:bold;font-stretch:normal;font-size:medium;line-height:100%;font-family:AgencyFB;-inkscape-font-specification:'AgencyFB Bold';text-align:start;text-decoration:none;text-decoration-line:none;text-decoration-style:solid;text-decoration-color:#000000;letter-spacing:0px;word-spacing:0px;text-anchor:start;clip-rule:nonzero;visibility:visible;isolation:auto;color-interpolation:sRGB;color-interpolation-filters:linearRGB;fill:#007382;fill-opacity:1;fill-rule:nonzero;stroke:none;stroke-width:1;stroke-linecap:butt;stroke-linejoin:miter;stroke-miterlimit:4;stroke-dasharray:none;stroke-dashoffset:0;stroke-opacity:1;color-rendering:auto;image-rendering:auto;shape-rendering:auto;text-rendering:auto"
       id="path5787"
       inkscape:connector-curvature="0" />
    <path
       d="m 977.21338,523.1534 0,-53.9 -4.4,0 0,-1.5 5.9,-21 9.7,0 0,76.4 -11.2,0 z"
       style="color:#000000;font-style:normal;font-variant:normal;font-weight:bold;font-stretch:normal;font-size:medium;line-height:100%;font-family:AgencyFB;-inkscape-font-specification:'AgencyFB Bold';text-align:start;text-decoration:none;text-decoration-line:none;text-decoration-style:solid;text-decoration-color:#000000;letter-spacing:0px;word-spacing:0px;text-anchor:start;clip-rule:nonzero;visibility:visible;isolation:auto;color-interpolation:sRGB;color-interpolation-filters:linearRGB;fill:#007382;fill-opacity:1;fill-rule:nonzero;stroke:none;stroke-width:1;stroke-linecap:butt;stroke-linejoin:miter;stroke-miterlimit:4;stroke-dasharray:none;stroke-dashoffset:0;stroke-opacity:1;color-rendering:auto;image-rendering:auto;shape-rendering:auto;text-rendering:auto"
       id="path5789"
       inkscape:connector-curvature="0" />
    <path
       d="m 1031.1509,508.7534 0,14.4 -10.9,0 0,-14.4 -25.10002,0 0,-6.8 19.00002,-55.2 11.6,0 0,0.4 -17.8,51.9 12.3,0 0,-23 10.9,0 0,23 5.8,0 0,9.7 -5.8,0 z"
       style="color:#000000;font-style:normal;font-variant:normal;font-weight:bold;font-stretch:normal;font-size:medium;line-height:100%;font-family:AgencyFB;-inkscape-font-specification:'AgencyFB Bold';text-align:start;text-decoration:none;text-decoration-line:none;text-decoration-style:solid;text-decoration-color:#000000;letter-spacing:0px;word-spacing:0px;text-anchor:start;clip-rule:nonzero;visibility:visible;isolation:auto;color-interpolation:sRGB;color-interpolation-filters:linearRGB;fill:#007382;fill-opacity:1;fill-rule:nonzero;stroke:none;stroke-width:1;stroke-linecap:butt;stroke-linejoin:miter;stroke-miterlimit:4;stroke-dasharray:none;stroke-dashoffset:0;stroke-opacity:1;color-rendering:auto;image-rendering:auto;shape-rendering:auto;text-rendering:auto"
       id="path5791"
       inkscape:connector-curvature="0" />
  </g>
  <g
     id="g5866"
     transform="translate(1004.9405,-327.89735)">
    <path
       d="m 825.249,236.64294 0,-76.4 31.4,0 0,10.1 -20,0 0,22.3 17.2,0 0,9.9 -17.2,0 0,24 20.3,0 0,10.1 -31.7,0 z"
       style="font-style:normal;font-variant:normal;font-weight:bold;font-stretch:normal;font-size:medium;line-height:100%;font-family:AgencyFB;-inkscape-font-specification:'AgencyFB Bold';text-align:start;letter-spacing:0px;word-spacing:0px;text-anchor:start;fill:#3cafbe;fill-opacity:1;stroke:none;stroke-width:1px;stroke-linecap:butt;stroke-linejoin:miter;stroke-opacity:1"
       id="path5830"
       inkscape:connector-curvature="0" />
    <path
       d="m 893.40213,236.64294 -18.3,-48.1 q 0.1,1 0.3,2 0.2,0.8 0.3,1.8 0.1,0.9 0.1,1.7 l 0,42.6 -11.1,0 0,-76.4 10,0 18.3,47.1 q -0.2,-1 -0.4,-2 -0.2,-0.8 -0.3,-1.7 0,-1 0,-1.8 l 0,-41.6 11.1,0 0,76.4 -10,0 z"
       style="font-style:normal;font-variant:normal;font-weight:bold;font-stretch:normal;font-size:medium;line-height:100%;font-family:AgencyFB;-inkscape-font-specification:'AgencyFB Bold';text-align:start;letter-spacing:0px;word-spacing:0px;text-anchor:start;fill:#3cafbe;fill-opacity:1;stroke:none;stroke-width:1px;stroke-linecap:butt;stroke-linejoin:miter;stroke-opacity:1"
       id="path5832"
       inkscape:connector-curvature="0" />
    <path
       d="m 912.75369,236.64294 0,-76.4 11.4,0 0,76.4 -11.4,0 z"
       style="font-style:normal;font-variant:normal;font-weight:bold;font-stretch:normal;font-size:medium;line-height:100%;font-family:AgencyFB;-inkscape-font-specification:'AgencyFB Bold';text-align:start;letter-spacing:0px;word-spacing:0px;text-anchor:start;fill:#3cafbe;fill-opacity:1;stroke:none;stroke-width:1px;stroke-linecap:butt;stroke-linejoin:miter;stroke-opacity:1"
       id="path5834"
       inkscape:connector-curvature="0" />
    <path
       d="m 785.449,336.64294 0,-76.4 11.4,0 0,76.4 -11.4,0 z"
       style="font-style:normal;font-variant:normal;font-weight:bold;font-stretch:normal;font-size:medium;line-height:100%;font-family:AgencyFB;-inkscape-font-specification:'AgencyFB Bold';text-align:start;letter-spacing:0px;word-spacing:0px;text-anchor:start;fill:#3cafbe;fill-opacity:1;stroke:none;stroke-width:1px;stroke-linecap:butt;stroke-linejoin:miter;stroke-opacity:1"
       id="path5836"
       inkscape:connector-curvature="0" />
    <path
       d="m 844.44275,322.24294 q 0,6.6 -4,10.5 -3.9,3.9 -10.8,3.9 l -23.3,0 0,-76.4 23.3,0 q 7,0 10.9,4 3.9,3.9 3.9,10.5 l 0,47.5 0,0 z m -11.5,-45.8 q 0,-3.1 -1.8,-4.7 -1.8,-1.7 -4.9,-1.7 l -8.5,0 0,56.8 8.2,0 q 3.5,0 5.2,-1.7 1.8,-1.8 1.8,-4.8 l 0,-43.9 z"
       style="font-style:normal;font-variant:normal;font-weight:bold;font-stretch:normal;font-size:medium;line-height:100%;font-family:AgencyFB;-inkscape-font-specification:'AgencyFB Bold';text-align:start;letter-spacing:0px;word-spacing:0px;text-anchor:start;fill:#3cafbe;fill-opacity:1;stroke:none;stroke-width:1px;stroke-linecap:butt;stroke-linejoin:miter;stroke-opacity:1"
       id="path5838"
       inkscape:connector-curvature="0" />
    <path
       d="m 853.41775,336.64294 0,-76.4 11.4,0 0,76.4 -11.4,0 z"
       style="font-style:normal;font-variant:normal;font-weight:bold;font-stretch:normal;font-size:medium;line-height:100%;font-family:AgencyFB;-inkscape-font-specification:'AgencyFB Bold';text-align:start;letter-spacing:0px;word-spacing:0px;text-anchor:start;fill:#3cafbe;fill-opacity:1;stroke:none;stroke-width:1px;stroke-linecap:butt;stroke-linejoin:miter;stroke-opacity:1"
       id="path5840"
       inkscape:connector-curvature="0" />
    <path
       d="m 745.44923,436.64294 0,-76.4 11.4,0 0,76.4 -11.4,0 z"
       style="font-style:normal;font-variant:normal;font-weight:bold;font-stretch:normal;font-size:medium;line-height:100%;font-family:AgencyFB;-inkscape-font-specification:'AgencyFB Bold';text-align:start;letter-spacing:0px;word-spacing:0px;text-anchor:start;fill:#3cafbe;fill-opacity:1;stroke:none;stroke-width:1px;stroke-linecap:butt;stroke-linejoin:miter;stroke-opacity:1"
       id="path5842"
       inkscape:connector-curvature="0" />
    <path
       d="m 803.94298,429.64294 q 0,7 -7,7 l -23.8,0 q -6.8,0 -6.8,-7 l 0,-62.4 q 0,-7 6.8,-7 l 23.8,0 q 7,0 7,7 l 0,17.9 -11.4,0 0,-15.1 -14.8,0 0,56.8 14.8,0 0,-16.1 11.4,0 0,18.9 0,0 z"
       style="font-style:normal;font-variant:normal;font-weight:bold;font-stretch:normal;font-size:medium;line-height:100%;font-family:AgencyFB;-inkscape-font-specification:'AgencyFB Bold';text-align:start;letter-spacing:0px;word-spacing:0px;text-anchor:start;fill:#3cafbe;fill-opacity:1;stroke:none;stroke-width:1px;stroke-linecap:butt;stroke-linejoin:miter;stroke-opacity:1"
       id="path5844"
       inkscape:connector-curvature="0" />
    <path
       d="m 813.22267,436.64294 0,-76.4 11.4,0 0,76.4 -11.4,0 z"
       style="font-style:normal;font-variant:normal;font-weight:bold;font-stretch:normal;font-size:medium;line-height:100%;font-family:AgencyFB;-inkscape-font-specification:'AgencyFB Bold';text-align:start;letter-spacing:0px;word-spacing:0px;text-anchor:start;fill:#3cafbe;fill-opacity:1;stroke:none;stroke-width:1px;stroke-linecap:butt;stroke-linejoin:miter;stroke-opacity:1"
       id="path5846"
       inkscape:connector-curvature="0" />
    <path
       d="m 873.249,484.14294 -6.8,0 -2.2,-23.9 11.2,0 -2.2,23.9 z"
       style="font-style:normal;font-variant:normal;font-weight:bold;font-stretch:normal;font-size:medium;line-height:100%;font-family:AgencyFB;-inkscape-font-specification:'AgencyFB Bold';text-align:start;letter-spacing:0px;word-spacing:0px;text-anchor:start;fill:#3cafbe;fill-opacity:1;stroke:none;stroke-width:1px;stroke-linecap:butt;stroke-linejoin:miter;stroke-opacity:1"
       id="path5848"
       inkscape:connector-curvature="0" />
    <path
       d="m 886.20838,536.64294 0,-53.9 -4.4,0 0,-1.5 5.9,-21 9.7,0 0,76.4 -11.2,0 z"
       style="font-style:normal;font-variant:normal;font-weight:bold;font-stretch:normal;font-size:medium;line-height:100%;font-family:AgencyFB;-inkscape-font-specification:'AgencyFB Bold';text-align:start;letter-spacing:0px;word-spacing:0px;text-anchor:start;fill:#3cafbe;fill-opacity:1;stroke:none;stroke-width:1px;stroke-linecap:butt;stroke-linejoin:miter;stroke-opacity:1"
       id="path5850"
       inkscape:connector-curvature="0" />
    <path
       d="m 940.14588,522.24294 0,14.4 -10.9,0 0,-14.4 -25.1,0 0,-6.8 19,-55.2 11.6,0 0,0.4 -17.8,51.9 12.3,0 0,-23 10.9,0 0,23 5.8,0 0,9.7 -5.8,0 z"
       style="font-style:normal;font-variant:normal;font-weight:bold;font-stretch:normal;font-size:medium;line-height:100%;font-family:AgencyFB;-inkscape-font-specification:'AgencyFB Bold';text-align:start;letter-spacing:0px;word-spacing:0px;text-anchor:start;fill:#3cafbe;fill-opacity:1;stroke:none;stroke-width:1px;stroke-linecap:butt;stroke-linejoin:miter;stroke-opacity:1"
       id="path5852"
       inkscape:connector-curvature="0" />
  </g>
  <text
     xml:space="preserve"
     style="color:#000000;font-style:normal;font-variant:normal;font-weight:bold;font-stretch:normal;font-size:100px;line-height:125%;font-family:AgencyFB;-inkscape-font-specification:'AgencyFB Bold';text-align:center;text-decoration:none;text-decoration-line:none;text-decoration-style:solid;text-decoration-color:#000000;letter-spacing:0px;word-spacing:0px;text-anchor:middle;clip-rule:nonzero;display:inline;overflow:visible;visibility:visible;opacity:1;isolation:auto;color-interpolation:sRGB;color-interpolation-filters:linearRGB;fill:#007382;fill-opacity:1;fill-rule:nonzero;stroke:none;stroke-width:1.6391034;stroke-linecap:butt;stroke-linejoin:miter;stroke-miterlimit:4;stroke-dasharray:none;stroke-dashoffset:0;stroke-opacity:1;color-rendering:auto;image-rendering:auto;shape-rendering:auto;text-rendering:auto;enable-background:accumulate;blend_mode:normal;filter-blend-mode:normal;filter-gaussianBlur-deviation:0;"
     x="645.77643"
     y="1549.775"
     id="text4194"
     sodipodi:linespacing="125%"><tspan
       sodipodi:role="line"
       id="tspan4196"
       x="645.77643"
       y="1549.775"
       style="font-size:75px;color:#000000;text-decoration-line:none;text-decoration-style:solid;text-decoration-color:#000000;clip-rule:nonzero;display:inline;overflow:visible;visibility:visible;isolation:auto;blend_mode:normal;color-interpolation:sRGB;color-interpolation-filters:linearRGB;fill:#007382;fill-opacity:1;fill-rule:nonzero;stroke-width:1.6391034;stroke-linecap:butt;stroke-linejoin:miter;stroke-miterlimit:4;stroke-dasharray:none;stroke-dashoffset:0;stroke-opacity:1;filter-blend-mode:normal;filter-gaussianBlur-deviation:0;color-rendering:auto;image-rendering:auto;shape-rendering:auto;text-rendering:auto;enable-background:accumulate;stroke:none;">the iCub Summer School</tspan></text>
</svg>
