<?xml version="1.0" encoding="UTF-8" standalone="no"?>
<svg
   xmlns:dc="http://purl.org/dc/elements/1.1/"
   xmlns:cc="http://creativecommons.org/ns#"
   xmlns:rdf="http://www.w3.org/1999/02/22-rdf-syntax-ns#"
   xmlns:svg="http://www.w3.org/2000/svg"
   xmlns="http://www.w3.org/2000/svg"
   xmlns:sodipodi="http://sodipodi.sourceforge.net/DTD/sodipodi-0.dtd"
   xmlns:inkscape="http://www.inkscape.org/namespaces/inkscape"
   width="1000"
   height="1600"
   viewBox="0 0 1000 1600"
   enable-background="new 0 0 512 512"
   id="svg2"
   version="1.1"
   inkscape:version="0.48+devel r"
   sodipodi:docname="VVV_C.svg">
  <metadata
     id="metadata76">
    <rdf:RDF>
      <cc:Work
         rdf:about="">
        <dc:format>image/svg+xml</dc:format>
        <dc:type
           rdf:resource="http://purl.org/dc/dcmitype/StillImage" />
        <dc:title></dc:title>
      </cc:Work>
    </rdf:RDF>
  </metadata>
  <defs
     id="defs74" />
  <sodipodi:namedview
     pagecolor="#ffffff"
     bordercolor="#666666"
     borderopacity="1"
     objecttolerance="10"
     gridtolerance="10"
     guidetolerance="10"
     inkscape:pageopacity="1"
     inkscape:pageshadow="2"
     inkscape:window-width="1855"
     inkscape:window-height="1056"
     id="namedview72"
     showgrid="false"
     inkscape:zoom="0.38182424"
     inkscape:cx="735.19061"
     inkscape:cy="1037.6891"
     inkscape:window-x="65"
     inkscape:window-y="24"
     inkscape:window-maximized="1"
     inkscape:current-layer="svg2"
     fit-margin-top="0"
     fit-margin-left="0"
     fit-margin-right="0"
     fit-margin-bottom="0" />
  <rect
     style="color:#000000;display:inline;overflow:visible;visibility:visible;fill:#d6fff1;fill-opacity:1;fill-rule:nonzero;stroke:none;stroke-width:4;marker:none;enable-background:accumulate"
     id="rect3016"
     width="1000"
     height="1600"
     x="0"
     y="0" />
  <g
     transform="matrix(1.6117424,0,0,1.6117424,-25.140078,149.67665)"
     id="g4205">
    <path
       style="fill:#ffb2b4"
       inkscape:connector-curvature="0"
       id="path4"
       d="M 198.121,102.56 77.914,70.004 183.937,69.412 Z" />
    <path
       style="fill:#a5d2d2"
       inkscape:connector-curvature="0"
       id="path6"
       d="M 326.473,214.488 356.456,87.106 408.02,124.524 Z" />
    <path
       style="fill:#007382"
       inkscape:connector-curvature="0"
       id="path8"
       d="m 259.477,241.203 17.959,91.443 42.843,-21.973 z" />
    <path
       style="fill:#e14f5f"
       inkscape:connector-curvature="0"
       id="path10"
       d="m 232.507,279.559 -34.386,-176.999 61.356,138.643 -26.97,38.356" />
    <path
       style="fill:#1e91a0"
       inkscape:connector-curvature="0"
       id="path12"
       d="M 143.732,127.376 198.121,102.56 181.698,241.203 Z" />
    <path
       style="fill:#5ac8b1"
       inkscape:connector-curvature="0"
       id="path14"
       d="M 434.088,70.004 408.02,124.524 356.456,87.106 434.088,70.004" />
    <g
       style="fill:#738a88"
       id="g16">
      <path
         style="opacity:0.7"
         inkscape:connector-curvature="0"
         id="path18"
         d="m 301.557,142.802 24.916,71.686 -66.996,26.715 z" />
      <path
         style="opacity:0.7"
         inkscape:connector-curvature="0"
         id="path20"
         d="m 258.884,442.623 -10.353,-71.072 4,71.072 z" />
    </g>
    <path
       style="opacity:0.5;fill:#ff6d7d"
       inkscape:connector-curvature="0"
       id="path22"
       d="m 198.121,102.56 -16.423,138.643 77.779,0 z" />
    <path
       style="opacity:0.7;fill:#ffb2b4"
       inkscape:connector-curvature="0"
       id="path24"
       d="m 277.747,402.812 -29.216,-31.261 28.905,-38.905 z" />
    <path
       style="opacity:0.7;fill:#b99093"
       inkscape:connector-curvature="0"
       id="path26"
       d="m 248.531,371.551 -36.043,-14.96 40.043,86.032 z" />
    <path
       style="fill:#c23c61"
       inkscape:connector-curvature="0"
       id="path28"
       d="m 408.02,124.524 -81.547,89.964 -6.194,96.185 z" />
    <path
       style="fill:#1e91a0"
       inkscape:connector-curvature="0"
       id="path30"
       d="M 301.557,142.802 356.456,87.106 333.031,70.004 Z" />
    <path
       style="opacity:0.5;fill:#c23c61"
       inkscape:connector-curvature="0"
       id="path32"
       d="m 183.937,69.412 14.184,33.148 -54.389,24.816 z" />
    <path
       style="opacity:0.7;fill:#a23c54"
       inkscape:connector-curvature="0"
       id="path34"
       d="m 212.488,356.591 20.019,-77.032 -50.809,-38.356 z" />
    <path
       style="opacity:0.5;fill:#908e8a"
       inkscape:connector-curvature="0"
       id="path36"
       d="m 232.507,279.559 26.97,-38.356 -77.779,0 z" />
    <path
       style="fill:#ff6d7d"
       inkscape:connector-curvature="0"
       id="path38"
       d="m 277.436,332.646 -64.948,23.945 36.043,14.96 z" />
    <path
       style="opacity:0.7;fill:#738a88"
       inkscape:connector-curvature="0"
       id="path40"
       d="M 320.279,310.673" />
    <path
       style="opacity:0.7;fill:#648c8c"
       inkscape:connector-curvature="0"
       id="path42"
       d="m 277.436,332.646 0.311,70.166 42.532,-92.139 z" />
    <path
       style="opacity:0.5;fill:#a5d2d2"
       inkscape:connector-curvature="0"
       id="path44"
       d="M 408.02,124.524 301.557,142.802 356.456,87.106 Z" />
    <path
       style="opacity:0.7;fill:#ff5252"
       inkscape:connector-curvature="0"
       id="path46"
       d="m 320.279,310.673 -60.802,-69.47 66.996,-26.715 z" />
    <path
       style="opacity:0.5;fill:#648c8c"
       inkscape:connector-curvature="0"
       id="path48"
       d="m 408.02,124.524 -81.547,89.964 -24.916,-71.686 z" />
    <path
       style="opacity:0.7;fill:#a23c54"
       inkscape:connector-curvature="0"
       id="path50"
       d="m 258.884,442.623 18.863,-39.811 -29.216,-31.261 z" />
    <path
       style="opacity:0.7;fill:#a5d2d2"
       inkscape:connector-curvature="0"
       id="path52"
       d="m 212.488,356.591 64.948,-23.945 -44.929,-53.087 z" />
    <path
       style="fill:#ffb2b4"
       inkscape:connector-curvature="0"
       id="path54"
       d="M 434.088,70.004 356.456,87.106 333.031,70.004 Z" />
    <path
       style="opacity:0.5;fill:#007382"
       inkscape:connector-curvature="0"
       id="path56"
       d="m 259.477,241.203 60.802,69.47 -87.772,-31.114 z" />
    <path
       style="opacity:0.7;fill:#5ac8b1"
       inkscape:connector-curvature="0"
       id="path58"
       d="m 181.698,241.203 -37.966,-31.391 68.756,146.779" />
    <path
       style="opacity:0.5;fill:#ffb2b4"
       inkscape:connector-curvature="0"
       id="path60"
       d="M 183.937,69.412 143.732,127.376 77.914,70.004 Z" />
    <path
       style="opacity:0.5;fill:#c23c61"
       inkscape:connector-curvature="0"
       id="path62"
       d="m 320.279,310.673 -42.843,21.973 -44.929,-53.087 z" />
    <path
       style="opacity:0.5;fill:#007382"
       inkscape:connector-curvature="0"
       id="path64"
       d="M 198.121,102.56 181.698,241.203 143.732,209.812 Z" />
    <path
       style="opacity:0.5;fill:#b99093"
       inkscape:connector-curvature="0"
       id="path66"
       d="m 198.121,102.56 -54.389,107.252 0,-82.436 z" />
    <path
       style="opacity:0.7;fill:#ff6d7d"
       inkscape:connector-curvature="0"
       id="path68"
       d="m 143.732,209.812 0,-82.436 -65.818,-57.372 z" />
  </g>
  <g
     id="g5805"
     transform="matrix(1.6391034,0,0,1.6391034,-799.66977,6.3214675)"
     style="fill:#6c909a;fill-opacity:1">
    <path
       d="m 947.554,217.0534 q 0,6.1 -6.3,6.1 l -19.3,0 q -6.3,0 -6.3,-6.1 l 0,-37.1 q 0,-6.1 6.3,-6.1 l 19.3,0 q 6.3,0 6.3,6.1 l 0,18.1 -3.1,3.1 -18.1,0 0,13.8 10.5,0 0,-8.2 10.7,0 0,10.3 0,0 z m -10.7,-35 -10.5,0 0,11.8 10.5,0 0,-11.8 z"
       style="color:#000000;font-style:normal;font-variant:normal;font-weight:bold;font-stretch:normal;font-size:medium;line-height:100%;font-family:AgencyFB;-inkscape-font-specification:'AgencyFB Bold';text-align:start;text-decoration:none;text-decoration-line:none;text-decoration-style:solid;text-decoration-color:#000000;letter-spacing:0px;word-spacing:0px;text-anchor:start;clip-rule:nonzero;visibility:visible;isolation:auto;color-interpolation:sRGB;color-interpolation-filters:linearRGB;fill:#6c909a;fill-opacity:1;fill-rule:nonzero;stroke:none;stroke-width:1;stroke-linecap:butt;stroke-linejoin:miter;stroke-miterlimit:4;stroke-dasharray:none;stroke-dashoffset:0;stroke-opacity:1;color-rendering:auto;image-rendering:auto;shape-rendering:auto;text-rendering:auto"
       id="path5769"
       inkscape:connector-curvature="0" />
    <path
       d="m 977.39306,223.1534 0,-40 -10.5,0.2 0,39.8 -11.2,0 0,-49.3 11.2,0 0,1.8 11.8,-1.6 q 1,-0.2 2,-0.3 1,-0.1 1.8,-0.1 6.1,0 6.1,6 l 0,43.5 -11.2,0 z"
       style="color:#000000;font-style:normal;font-variant:normal;font-weight:bold;font-stretch:normal;font-size:medium;line-height:100%;font-family:AgencyFB;-inkscape-font-specification:'AgencyFB Bold';text-align:start;text-decoration:none;text-decoration-line:none;text-decoration-style:solid;text-decoration-color:#000000;letter-spacing:0px;word-spacing:0px;text-anchor:start;clip-rule:nonzero;visibility:visible;isolation:auto;color-interpolation:sRGB;color-interpolation-filters:linearRGB;fill:#6c909a;fill-opacity:1;fill-rule:nonzero;stroke:none;stroke-width:1;stroke-linecap:butt;stroke-linejoin:miter;stroke-miterlimit:4;stroke-dasharray:none;stroke-dashoffset:0;stroke-opacity:1;color-rendering:auto;image-rendering:auto;shape-rendering:auto;text-rendering:auto"
       id="path5771"
       inkscape:connector-curvature="0" />
    <path
       d="m 996.71338,166.7534 0,-11.5 11.20002,0 0,11.5 -11.20002,0 z m 0.1,56.4 0,-49.3 11.00002,0 0,49.3 -11.00002,0 z"
       style="color:#000000;font-style:normal;font-variant:normal;font-weight:bold;font-stretch:normal;font-size:medium;line-height:100%;font-family:AgencyFB;-inkscape-font-specification:'AgencyFB Bold';text-align:start;text-decoration:none;text-decoration-line:none;text-decoration-style:solid;text-decoration-color:#000000;letter-spacing:0px;word-spacing:0px;text-anchor:start;clip-rule:nonzero;visibility:visible;isolation:auto;color-interpolation:sRGB;color-interpolation-filters:linearRGB;fill:#6c909a;fill-opacity:1;fill-rule:nonzero;stroke:none;stroke-width:1;stroke-linecap:butt;stroke-linejoin:miter;stroke-miterlimit:4;stroke-dasharray:none;stroke-dashoffset:0;stroke-opacity:1;color-rendering:auto;image-rendering:auto;shape-rendering:auto;text-rendering:auto"
       id="path5773"
       inkscape:connector-curvature="0" />
    <path
       d="m 875.854,266.7534 0,-11.5 11.2,0 0,11.5 -11.2,0 z m 0.1,56.4 0,-49.3 11,0 0,49.3 -11,0 z"
       style="color:#000000;font-style:normal;font-variant:normal;font-weight:bold;font-stretch:normal;font-size:medium;line-height:100%;font-family:AgencyFB;-inkscape-font-specification:'AgencyFB Bold';text-align:start;text-decoration:none;text-decoration-line:none;text-decoration-style:solid;text-decoration-color:#000000;letter-spacing:0px;word-spacing:0px;text-anchor:start;clip-rule:nonzero;visibility:visible;isolation:auto;color-interpolation:sRGB;color-interpolation-filters:linearRGB;fill:#6c909a;fill-opacity:1;fill-rule:nonzero;stroke:none;stroke-width:1;stroke-linecap:butt;stroke-linejoin:miter;stroke-miterlimit:4;stroke-dasharray:none;stroke-dashoffset:0;stroke-opacity:1;color-rendering:auto;image-rendering:auto;shape-rendering:auto;text-rendering:auto"
       id="path5775"
       inkscape:connector-curvature="0" />
    <path
       d="m 916.78525,323.1534 0,-1.7 -8.5,1.5 q -2.2,0.5 -4.2,0.5 -4.2,0 -6.6,-2.4 -2.4,-2.5 -2.4,-6.8 l 0,-30.5 q 0,-4.5 2.7,-7.2 2.7,-2.7 7.6,-2.7 l 11.4,0 0,-27.1 11.1,0 0,76.4 -11.1,0 z m 0,-40 -6.9,0 q -3.7,0 -3.7,3.7 l 0,23.6 q 0,3.6 3.5,3.6 0.4,0 1,0 0.6,0 1.1,-0.1 l 5,-0.4 0,-30.4 z"
       style="color:#000000;font-style:normal;font-variant:normal;font-weight:bold;font-stretch:normal;font-size:medium;line-height:100%;font-family:AgencyFB;-inkscape-font-specification:'AgencyFB Bold';text-align:start;text-decoration:none;text-decoration-line:none;text-decoration-style:solid;text-decoration-color:#000000;letter-spacing:0px;word-spacing:0px;text-anchor:start;clip-rule:nonzero;visibility:visible;isolation:auto;color-interpolation:sRGB;color-interpolation-filters:linearRGB;fill:#6c909a;fill-opacity:1;fill-rule:nonzero;stroke:none;stroke-width:1;stroke-linecap:butt;stroke-linejoin:miter;stroke-miterlimit:4;stroke-dasharray:none;stroke-dashoffset:0;stroke-opacity:1;color-rendering:auto;image-rendering:auto;shape-rendering:auto;text-rendering:auto"
       id="path5777"
       inkscape:connector-curvature="0" />
    <path
       d="m 936.20556,266.7534 0,-11.5 11.2,0 0,11.5 -11.2,0 z m 0.1,56.4 0,-49.3 11,0 0,49.3 -11,0 z"
       style="color:#000000;font-style:normal;font-variant:normal;font-weight:bold;font-stretch:normal;font-size:medium;line-height:100%;font-family:AgencyFB;-inkscape-font-specification:'AgencyFB Bold';text-align:start;text-decoration:none;text-decoration-line:none;text-decoration-style:solid;text-decoration-color:#000000;letter-spacing:0px;word-spacing:0px;text-anchor:start;clip-rule:nonzero;visibility:visible;isolation:auto;color-interpolation:sRGB;color-interpolation-filters:linearRGB;fill:#6c909a;fill-opacity:1;fill-rule:nonzero;stroke:none;stroke-width:1;stroke-linecap:butt;stroke-linejoin:miter;stroke-miterlimit:4;stroke-dasharray:none;stroke-dashoffset:0;stroke-opacity:1;color-rendering:auto;image-rendering:auto;shape-rendering:auto;text-rendering:auto"
       id="path5779"
       inkscape:connector-curvature="0" />
    <path
       d="m 835.85393,366.7534 0,-11.5 11.2,0 0,11.5 -11.2,0 z m 0.1,56.4 0,-49.3 11,0 0,49.3 -11,0 z"
       style="color:#000000;font-style:normal;font-variant:normal;font-weight:bold;font-stretch:normal;font-size:medium;line-height:100%;font-family:AgencyFB;-inkscape-font-specification:'AgencyFB Bold';text-align:start;text-decoration:none;text-decoration-line:none;text-decoration-style:solid;text-decoration-color:#000000;letter-spacing:0px;word-spacing:0px;text-anchor:start;clip-rule:nonzero;visibility:visible;isolation:auto;color-interpolation:sRGB;color-interpolation-filters:linearRGB;fill:#6c909a;fill-opacity:1;fill-rule:nonzero;stroke:none;stroke-width:1;stroke-linecap:butt;stroke-linejoin:miter;stroke-miterlimit:4;stroke-dasharray:none;stroke-dashoffset:0;stroke-opacity:1;color-rendering:auto;image-rendering:auto;shape-rendering:auto;text-rendering:auto"
       id="path5781"
       inkscape:connector-curvature="0" />
    <path
       d="m 887.08518,417.0534 q 0,6.1 -6.2,6.1 l -19.4,0 q -6.3,0 -6.3,-6.1 l 0,-37.1 q 0,-6.1 6.3,-6.1 l 19.4,0 q 6.2,0 6.2,6.1 l 0,11.7 -10.9,0 0,-8.5 -10,0 0,30.7 10,0 0,-9.4 10.9,0 0,12.6 0,0 z"
       style="color:#000000;font-style:normal;font-variant:normal;font-weight:bold;font-stretch:normal;font-size:medium;line-height:100%;font-family:AgencyFB;-inkscape-font-specification:'AgencyFB Bold';text-align:start;text-decoration:none;text-decoration-line:none;text-decoration-style:solid;text-decoration-color:#000000;letter-spacing:0px;word-spacing:0px;text-anchor:start;clip-rule:nonzero;visibility:visible;isolation:auto;color-interpolation:sRGB;color-interpolation-filters:linearRGB;fill:#6c909a;fill-opacity:1;fill-rule:nonzero;stroke:none;stroke-width:1;stroke-linecap:butt;stroke-linejoin:miter;stroke-miterlimit:4;stroke-dasharray:none;stroke-dashoffset:0;stroke-opacity:1;color-rendering:auto;image-rendering:auto;shape-rendering:auto;text-rendering:auto"
       id="path5783"
       inkscape:connector-curvature="0" />
    <path
       d="m 895.22893,366.7534 0,-11.5 11.2,0 0,11.5 -11.2,0 z m 0.1,56.4 0,-49.3 11,0 0,49.3 -11,0 z"
       style="color:#000000;font-style:normal;font-variant:normal;font-weight:bold;font-stretch:normal;font-size:medium;line-height:100%;font-family:AgencyFB;-inkscape-font-specification:'AgencyFB Bold';text-align:start;text-decoration:none;text-decoration-line:none;text-decoration-style:solid;text-decoration-color:#000000;letter-spacing:0px;word-spacing:0px;text-anchor:start;clip-rule:nonzero;visibility:visible;isolation:auto;color-interpolation:sRGB;color-interpolation-filters:linearRGB;fill:#6c909a;fill-opacity:1;fill-rule:nonzero;stroke:none;stroke-width:1;stroke-linecap:butt;stroke-linejoin:miter;stroke-miterlimit:4;stroke-dasharray:none;stroke-dashoffset:0;stroke-opacity:1;color-rendering:auto;image-rendering:auto;shape-rendering:auto;text-rendering:auto"
       id="path5785"
       inkscape:connector-curvature="0" />
    <path
       d="m 964.254,470.6534 -6.8,0 -2.2,-23.9 11.2,0 -2.2,23.9 z"
       style="color:#000000;font-style:normal;font-variant:normal;font-weight:bold;font-stretch:normal;font-size:medium;line-height:100%;font-family:AgencyFB;-inkscape-font-specification:'AgencyFB Bold';text-align:start;text-decoration:none;text-decoration-line:none;text-decoration-style:solid;text-decoration-color:#000000;letter-spacing:0px;word-spacing:0px;text-anchor:start;clip-rule:nonzero;visibility:visible;isolation:auto;color-interpolation:sRGB;color-interpolation-filters:linearRGB;fill:#6c909a;fill-opacity:1;fill-rule:nonzero;stroke:none;stroke-width:1;stroke-linecap:butt;stroke-linejoin:miter;stroke-miterlimit:4;stroke-dasharray:none;stroke-dashoffset:0;stroke-opacity:1;color-rendering:auto;image-rendering:auto;shape-rendering:auto;text-rendering:auto"
       id="path5787"
       inkscape:connector-curvature="0" />
    <path
       d="m 977.21338,523.1534 0,-53.9 -4.4,0 0,-1.5 5.9,-21 9.7,0 0,76.4 -11.2,0 z"
       style="color:#000000;font-style:normal;font-variant:normal;font-weight:bold;font-stretch:normal;font-size:medium;line-height:100%;font-family:AgencyFB;-inkscape-font-specification:'AgencyFB Bold';text-align:start;text-decoration:none;text-decoration-line:none;text-decoration-style:solid;text-decoration-color:#000000;letter-spacing:0px;word-spacing:0px;text-anchor:start;clip-rule:nonzero;visibility:visible;isolation:auto;color-interpolation:sRGB;color-interpolation-filters:linearRGB;fill:#6c909a;fill-opacity:1;fill-rule:nonzero;stroke:none;stroke-width:1;stroke-linecap:butt;stroke-linejoin:miter;stroke-miterlimit:4;stroke-dasharray:none;stroke-dashoffset:0;stroke-opacity:1;color-rendering:auto;image-rendering:auto;shape-rendering:auto;text-rendering:auto"
       id="path5789"
       inkscape:connector-curvature="0" />
    <path
       d="m 1031.1509,508.7534 0,14.4 -10.9,0 0,-14.4 -25.10002,0 0,-6.8 19.00002,-55.2 11.6,0 0,0.4 -17.8,51.9 12.3,0 0,-23 10.9,0 0,23 5.8,0 0,9.7 -5.8,0 z"
       style="color:#000000;font-style:normal;font-variant:normal;font-weight:bold;font-stretch:normal;font-size:medium;line-height:100%;font-family:AgencyFB;-inkscape-font-specification:'AgencyFB Bold';text-align:start;text-decoration:none;text-decoration-line:none;text-decoration-style:solid;text-decoration-color:#000000;letter-spacing:0px;word-spacing:0px;text-anchor:start;clip-rule:nonzero;visibility:visible;isolation:auto;color-interpolation:sRGB;color-interpolation-filters:linearRGB;fill:#6c909a;fill-opacity:1;fill-rule:nonzero;stroke:none;stroke-width:1;stroke-linecap:butt;stroke-linejoin:miter;stroke-miterlimit:4;stroke-dasharray:none;stroke-dashoffset:0;stroke-opacity:1;color-rendering:auto;image-rendering:auto;shape-rendering:auto;text-rendering:auto"
       id="path5791"
       inkscape:connector-curvature="0" />
  </g>
  <g
     id="g5866"
     transform="translate(438.59957,-796.95272)">
    <path
       d="m 825.249,236.64294 0,-76.4 31.4,0 0,10.1 -20,0 0,22.3 17.2,0 0,9.9 -17.2,0 0,24 20.3,0 0,10.1 -31.7,0 z"
       style="font-style:normal;font-variant:normal;font-weight:bold;font-stretch:normal;font-size:medium;line-height:100%;font-family:AgencyFB;-inkscape-font-specification:'AgencyFB Bold';text-align:start;letter-spacing:0px;word-spacing:0px;text-anchor:start;fill:#3cafbe;fill-opacity:1;stroke:none;stroke-width:1px;stroke-linecap:butt;stroke-linejoin:miter;stroke-opacity:1"
       id="path5830"
       inkscape:connector-curvature="0" />
    <path
       d="m 893.40213,236.64294 -18.3,-48.1 q 0.1,1 0.3,2 0.2,0.8 0.3,1.8 0.1,0.9 0.1,1.7 l 0,42.6 -11.1,0 0,-76.4 10,0 18.3,47.1 q -0.2,-1 -0.4,-2 -0.2,-0.8 -0.3,-1.7 0,-1 0,-1.8 l 0,-41.6 11.1,0 0,76.4 -10,0 z"
       style="font-style:normal;font-variant:normal;font-weight:bold;font-stretch:normal;font-size:medium;line-height:100%;font-family:AgencyFB;-inkscape-font-specification:'AgencyFB Bold';text-align:start;letter-spacing:0px;word-spacing:0px;text-anchor:start;fill:#3cafbe;fill-opacity:1;stroke:none;stroke-width:1px;stroke-linecap:butt;stroke-linejoin:miter;stroke-opacity:1"
       id="path5832"
       inkscape:connector-curvature="0" />
    <path
       d="m 912.75369,236.64294 0,-76.4 11.4,0 0,76.4 -11.4,0 z"
       style="font-style:normal;font-variant:normal;font-weight:bold;font-stretch:normal;font-size:medium;line-height:100%;font-family:AgencyFB;-inkscape-font-specification:'AgencyFB Bold';text-align:start;letter-spacing:0px;word-spacing:0px;text-anchor:start;fill:#3cafbe;fill-opacity:1;stroke:none;stroke-width:1px;stroke-linecap:butt;stroke-linejoin:miter;stroke-opacity:1"
       id="path5834"
       inkscape:connector-curvature="0" />
    <path
       d="m 785.449,336.64294 0,-76.4 11.4,0 0,76.4 -11.4,0 z"
       style="font-style:normal;font-variant:normal;font-weight:bold;font-stretch:normal;font-size:medium;line-height:100%;font-family:AgencyFB;-inkscape-font-specification:'AgencyFB Bold';text-align:start;letter-spacing:0px;word-spacing:0px;text-anchor:start;fill:#3cafbe;fill-opacity:1;stroke:none;stroke-width:1px;stroke-linecap:butt;stroke-linejoin:miter;stroke-opacity:1"
       id="path5836"
       inkscape:connector-curvature="0" />
    <path
       d="m 844.44275,322.24294 q 0,6.6 -4,10.5 -3.9,3.9 -10.8,3.9 l -23.3,0 0,-76.4 23.3,0 q 7,0 10.9,4 3.9,3.9 3.9,10.5 l 0,47.5 0,0 z m -11.5,-45.8 q 0,-3.1 -1.8,-4.7 -1.8,-1.7 -4.9,-1.7 l -8.5,0 0,56.8 8.2,0 q 3.5,0 5.2,-1.7 1.8,-1.8 1.8,-4.8 l 0,-43.9 z"
       style="font-style:normal;font-variant:normal;font-weight:bold;font-stretch:normal;font-size:medium;line-height:100%;font-family:AgencyFB;-inkscape-font-specification:'AgencyFB Bold';text-align:start;letter-spacing:0px;word-spacing:0px;text-anchor:start;fill:#3cafbe;fill-opacity:1;stroke:none;stroke-width:1px;stroke-linecap:butt;stroke-linejoin:miter;stroke-opacity:1"
       id="path5838"
       inkscape:connector-curvature="0" />
    <path
       d="m 853.41775,336.64294 0,-76.4 11.4,0 0,76.4 -11.4,0 z"
       style="font-style:normal;font-variant:normal;font-weight:bold;font-stretch:normal;font-size:medium;line-height:100%;font-family:AgencyFB;-inkscape-font-specification:'AgencyFB Bold';text-align:start;letter-spacing:0px;word-spacing:0px;text-anchor:start;fill:#3cafbe;fill-opacity:1;stroke:none;stroke-width:1px;stroke-linecap:butt;stroke-linejoin:miter;stroke-opacity:1"
       id="path5840"
       inkscape:connector-curvature="0" />
    <path
       d="m 745.44923,436.64294 0,-76.4 11.4,0 0,76.4 -11.4,0 z"
       style="font-style:normal;font-variant:normal;font-weight:bold;font-stretch:normal;font-size:medium;line-height:100%;font-family:AgencyFB;-inkscape-font-specification:'AgencyFB Bold';text-align:start;letter-spacing:0px;word-spacing:0px;text-anchor:start;fill:#3cafbe;fill-opacity:1;stroke:none;stroke-width:1px;stroke-linecap:butt;stroke-linejoin:miter;stroke-opacity:1"
       id="path5842"
       inkscape:connector-curvature="0" />
    <path
       d="m 803.94298,429.64294 q 0,7 -7,7 l -23.8,0 q -6.8,0 -6.8,-7 l 0,-62.4 q 0,-7 6.8,-7 l 23.8,0 q 7,0 7,7 l 0,17.9 -11.4,0 0,-15.1 -14.8,0 0,56.8 14.8,0 0,-16.1 11.4,0 0,18.9 0,0 z"
       style="font-style:normal;font-variant:normal;font-weight:bold;font-stretch:normal;font-size:medium;line-height:100%;font-family:AgencyFB;-inkscape-font-specification:'AgencyFB Bold';text-align:start;letter-spacing:0px;word-spacing:0px;text-anchor:start;fill:#3cafbe;fill-opacity:1;stroke:none;stroke-width:1px;stroke-linecap:butt;stroke-linejoin:miter;stroke-opacity:1"
       id="path5844"
       inkscape:connector-curvature="0" />
    <path
       d="m 813.22267,436.64294 0,-76.4 11.4,0 0,76.4 -11.4,0 z"
       style="font-style:normal;font-variant:normal;font-weight:bold;font-stretch:normal;font-size:medium;line-height:100%;font-family:AgencyFB;-inkscape-font-specification:'AgencyFB Bold';text-align:start;letter-spacing:0px;word-spacing:0px;text-anchor:start;fill:#3cafbe;fill-opacity:1;stroke:none;stroke-width:1px;stroke-linecap:butt;stroke-linejoin:miter;stroke-opacity:1"
       id="path5846"
       inkscape:connector-curvature="0" />
    <path
       d="m 873.249,484.14294 -6.8,0 -2.2,-23.9 11.2,0 -2.2,23.9 z"
       style="font-style:normal;font-variant:normal;font-weight:bold;font-stretch:normal;font-size:medium;line-height:100%;font-family:AgencyFB;-inkscape-font-specification:'AgencyFB Bold';text-align:start;letter-spacing:0px;word-spacing:0px;text-anchor:start;fill:#3cafbe;fill-opacity:1;stroke:none;stroke-width:1px;stroke-linecap:butt;stroke-linejoin:miter;stroke-opacity:1"
       id="path5848"
       inkscape:connector-curvature="0" />
    <path
       d="m 886.20838,536.64294 0,-53.9 -4.4,0 0,-1.5 5.9,-21 9.7,0 0,76.4 -11.2,0 z"
       style="font-style:normal;font-variant:normal;font-weight:bold;font-stretch:normal;font-size:medium;line-height:100%;font-family:AgencyFB;-inkscape-font-specification:'AgencyFB Bold';text-align:start;letter-spacing:0px;word-spacing:0px;text-anchor:start;fill:#3cafbe;fill-opacity:1;stroke:none;stroke-width:1px;stroke-linecap:butt;stroke-linejoin:miter;stroke-opacity:1"
       id="path5850"
       inkscape:connector-curvature="0" />
    <path
       d="m 940.14588,522.24294 0,14.4 -10.9,0 0,-14.4 -25.1,0 0,-6.8 19,-55.2 11.6,0 0,0.4 -17.8,51.9 12.3,0 0,-23 10.9,0 0,23 5.8,0 0,9.7 -5.8,0 z"
       style="font-style:normal;font-variant:normal;font-weight:bold;font-stretch:normal;font-size:medium;line-height:100%;font-family:AgencyFB;-inkscape-font-specification:'AgencyFB Bold';text-align:start;letter-spacing:0px;word-spacing:0px;text-anchor:start;fill:#3cafbe;fill-opacity:1;stroke:none;stroke-width:1px;stroke-linecap:butt;stroke-linejoin:miter;stroke-opacity:1"
       id="path5852"
       inkscape:connector-curvature="0" />
  </g>
  <text
     xml:space="preserve"
     style="color:#000000;font-style:normal;font-variant:normal;font-weight:bold;font-stretch:normal;font-size:100px;line-height:125%;font-family:AgencyFB;-inkscape-font-specification:'AgencyFB Bold';text-align:center;text-decoration:none;text-decoration-line:none;text-decoration-style:solid;text-decoration-color:#000000;letter-spacing:0px;word-spacing:0px;text-anchor:middle;clip-rule:nonzero;display:inline;overflow:visible;visibility:visible;opacity:1;isolation:auto;color-interpolation:sRGB;color-interpolation-filters:linearRGB;fill:#6c909a;fill-opacity:1;fill-rule:nonzero;stroke:none;stroke-width:1.6391034;stroke-linecap:butt;stroke-linejoin:miter;stroke-miterlimit:4;stroke-dasharray:none;stroke-dashoffset:0;stroke-opacity:1;color-rendering:auto;image-rendering:auto;shape-rendering:auto;text-rendering:auto;enable-background:accumulate;blend_mode:normal;filter-blend-mode:normal;filter-gaussianBlur-deviation:0;"
     x="645.77643"
     y="1549.775"
     id="text4194"
     sodipodi:linespacing="125%"><tspan
       sodipodi:role="line"
       id="tspan4196"
       x="645.77643"
       y="1549.775"
       style="font-size:75px;color:#000000;text-decoration-line:none;text-decoration-style:solid;text-decoration-color:#000000;clip-rule:nonzero;display:inline;overflow:visible;visibility:visible;isolation:auto;blend_mode:normal;color-interpolation:sRGB;color-interpolation-filters:linearRGB;fill:#6c909a;fill-opacity:1;fill-rule:nonzero;stroke-width:1.6391034;stroke-linecap:butt;stroke-linejoin:miter;stroke-miterlimit:4;stroke-dasharray:none;stroke-dashoffset:0;stroke-opacity:1;filter-blend-mode:normal;filter-gaussianBlur-deviation:0;color-rendering:auto;image-rendering:auto;shape-rendering:auto;text-rendering:auto;enable-background:accumulate;stroke:none;">the iCub Summer School</tspan></text>
</svg>
