<?xml version="1.0" encoding="UTF-8" standalone="no"?>
<svg
   xmlns:dc="http://purl.org/dc/elements/1.1/"
   xmlns:cc="http://creativecommons.org/ns#"
   xmlns:rdf="http://www.w3.org/1999/02/22-rdf-syntax-ns#"
   xmlns:svg="http://www.w3.org/2000/svg"
   xmlns="http://www.w3.org/2000/svg"
   xmlns:sodipodi="http://sodipodi.sourceforge.net/DTD/sodipodi-0.dtd"
   xmlns:inkscape="http://www.inkscape.org/namespaces/inkscape"
   width="1000"
   height="1600"
   viewBox="0 0 1000 1600"
   enable-background="new 0 0 512 512"
   id="svg2"
   version="1.1"
   inkscape:version="0.48+devel r"
   sodipodi:docname="VVV_A.svg">
  <metadata
     id="metadata76">
    <rdf:RDF>
      <cc:Work
         rdf:about="">
        <dc:format>image/svg+xml</dc:format>
        <dc:type
           rdf:resource="http://purl.org/dc/dcmitype/StillImage" />
        <dc:title></dc:title>
      </cc:Work>
    </rdf:RDF>
  </metadata>
  <defs
     id="defs74" />
  <sodipodi:namedview
     pagecolor="#ffffff"
     bordercolor="#666666"
     borderopacity="1"
     objecttolerance="10"
     gridtolerance="10"
     guidetolerance="10"
     inkscape:pageopacity="1"
     inkscape:pageshadow="2"
     inkscape:window-width="1855"
     inkscape:window-height="1056"
     id="namedview72"
     showgrid="false"
     inkscape:zoom="0.21818528"
     inkscape:cx="-641.94973"
     inkscape:cy="579.8536"
     inkscape:window-x="65"
     inkscape:window-y="24"
     inkscape:window-maximized="1"
     inkscape:current-layer="svg2"
     fit-margin-top="0"
     fit-margin-left="0"
     fit-margin-right="0"
     fit-margin-bottom="0" />
  <g
     id="g4286"
     transform="translate(-1000,0)">
    <g
       id="g5474">
      <rect
         style="color:#000000;display:inline;overflow:visible;visibility:visible;fill:#d6fff1;fill-opacity:1;fill-rule:nonzero;stroke:none;stroke-width:4;marker:none;enable-background:accumulate"
         id="rect3016"
         width="1000"
         height="1600"
         x="1000"
         y="0" />
      <g
         id="g4236"
         transform="matrix(1.6391034,0,0,1.6391034,642.93617,22.694735)">
        <g
           transform="translate(198.37391,72.919737)"
           id="g3341">
          <path
             style="fill:#ffb2b4"
             inkscape:connector-curvature="0"
             d="m 198.962,104.902 -118.486,-32.08 104.758,0 z"
             id="path4" />
          <path
             style="fill:#a5d2d2"
             inkscape:connector-curvature="0"
             d="m 325.491,215.25 29.545,-126.138 50.852,37.44 z"
             id="path6" />
          <path
             style="opacity:0.3;fill:#007382"
             inkscape:connector-curvature="0"
             d="m 259.447,241.574 17.698,90.124 42.251,-21.653 z"
             id="path8" />
          <path
             style="fill:#e6d2be"
             inkscape:connector-curvature="0"
             d="m 232.875,279.375 -33.913,-174.473 60.485,136.672 -26.572,37.801"
             id="path10" />
          <path
             style="fill:#3cafbe"
             inkscape:connector-curvature="0"
             d="m 145.322,129.364 53.64,-24.462 -16.213,136.672 z"
             id="path12" />
          <path
             style="fill:#96ffdc"
             inkscape:connector-curvature="0"
             d="m 431.238,72.822 -25.35,53.73 -50.852,-37.472 76.202,-16.258"
             id="path14" />
          <g
             style="fill:#f7e2cb"
             id="g16">
            <path
               style="opacity:0.7"
               inkscape:connector-curvature="0"
               d="m 300.898,144.59 24.593,70.66 -66.044,26.324 z"
               id="path18" />
            <path
               style="opacity:0.7"
               inkscape:connector-curvature="0"
               d="m 258.875,439.785 -10.231,-69.721 3.976,69.721 z"
               id="path20" />
          </g>
          <path
             style="opacity:0.5;fill:#ff6d7d"
             inkscape:connector-curvature="0"
             d="m 198.962,104.902 -16.213,136.672 76.698,0 z"
             id="path22" />
          <path
             style="opacity:0.7;fill:#ffb2b4"
             inkscape:connector-curvature="0"
             d="m 277.145,400.867 -28.501,-30.803 28.501,-38.366 z"
             id="path24" />
          <path
             style="opacity:0.7;fill:#efe8d8"
             inkscape:connector-curvature="0"
             d="m 248.644,370.064 -35.514,-14.74 39.49,84.461 z"
             id="path26" />
          <path
             style="fill:#ffd1b8"
             inkscape:connector-curvature="0"
             d="m 405.888,126.552 -80.397,88.698 -6.095,94.795 z"
             id="path28" />
          <path
             style="fill:#3cafbe"
             inkscape:connector-curvature="0"
             d="M 300.898,144.59 355.036,89.08 331.709,72.804 Z"
             id="path30" />
          <path
             style="opacity:0.5;fill:#ffd1b8"
             inkscape:connector-curvature="0"
             d="m 185.234,72.822 13.728,32.08 -53.64,24.432 z"
             id="path32" />
          <path
             style="opacity:0.7;fill:#bfb5a1"
             inkscape:connector-curvature="0"
             d="m 213.13,355.324 19.745,-75.949 -50.126,-37.801 z"
             id="path34" />
          <path
             style="opacity:0.5;fill:#d6d4d0"
             inkscape:connector-curvature="0"
             d="m 232.875,279.375 26.572,-37.801 -76.698,0 z"
             id="path36" />
          <path
             style="fill:#ff6d7d"
             inkscape:connector-curvature="0"
             d="m 277.145,331.698 -64.015,23.626 35.514,14.74 z"
             id="path38" />
          <path
             style="opacity:0.7;fill:#f7e2cb"
             inkscape:connector-curvature="0"
             d="M 319.396,310.045"
             id="path40" />
          <path
             style="opacity:0.7;fill:#ffffff"
             inkscape:connector-curvature="0"
             d="m 277.145,331.698 0,69.169 42.251,-90.822 z"
             id="path42" />
          <path
             style="opacity:0.5;fill:#a5d2d2"
             inkscape:connector-curvature="0"
             d="M 405.888,126.552 300.898,144.59 355.036,89.08 Z"
             id="path44" />
          <path
             style="opacity:0.7;fill:#baffff"
             inkscape:connector-curvature="0"
             d="M 319.396,310.045 259.447,241.574 325.491,215.25 Z"
             id="path46" />
          <path
             style="opacity:0.5;fill:#82aaaa"
             inkscape:connector-curvature="0"
             d="M 405.888,126.552 325.491,215.25 300.898,144.59 Z"
             id="path48" />
          <path
             style="opacity:0.7;fill:#bfb5a1"
             inkscape:connector-curvature="0"
             d="m 258.875,439.785 18.27,-38.918 -28.501,-30.803 z"
             id="path50" />
          <path
             style="opacity:0.7;fill:#a5d2d2"
             inkscape:connector-curvature="0"
             d="m 213.13,355.324 64.015,-23.626 -44.27,-52.323 z"
             id="path52" />
          <path
             style="fill:#ffffff"
             inkscape:connector-curvature="0"
             d="M 431.238,72.822 355.036,89.112 331.709,72.804 Z"
             id="path54" />
          <path
             style="opacity:0.5;fill:#efe8d8"
             inkscape:connector-curvature="0"
             d="m 259.447,241.574 59.949,68.471 -86.521,-30.67 z"
             id="path56" />
          <path
             style="opacity:0.7;fill:#96ffdc"
             inkscape:connector-curvature="0"
             d="M 182.749,241.574 145.322,210.632 213.13,355.324"
             id="path58" />
          <path
             style="opacity:0.5;fill:#ffb2b4"
             inkscape:connector-curvature="0"
             d="M 185.234,72.822 145.322,129.364 80.476,72.822 Z"
             id="path60" />
          <path
             style="opacity:0.5;fill:#ffd1b8"
             inkscape:connector-curvature="0"
             d="m 319.396,310.045 -42.251,21.653 -44.27,-52.323 z"
             id="path62" />
          <path
             style="opacity:0.3;fill:#007382"
             inkscape:connector-curvature="0"
             d="M 198.962,104.902 182.749,241.574 145.322,210.632 Z"
             id="path64" />
          <path
             style="opacity:0.5;fill:#efe8d8"
             inkscape:connector-curvature="0"
             d="m 198.962,104.902 -53.64,105.73 0,-81.268 z"
             id="path66" />
          <path
             style="opacity:0.7;fill:#ff6d7d"
             inkscape:connector-curvature="0"
             d="m 145.322,210.632 0,-81.268 -64.846,-56.542 z"
             id="path68" />
        </g>
        <g
           transform="translate(-270.02929,-9.9891633)"
           id="g5805">
          <path
             inkscape:connector-curvature="0"
             id="path5769"
             style="color:#000000;font-style:normal;font-variant:normal;font-weight:bold;font-stretch:normal;font-size:medium;line-height:100%;font-family:AgencyFB;-inkscape-font-specification:'AgencyFB Bold';text-align:start;text-decoration:none;text-decoration-line:none;text-decoration-style:solid;text-decoration-color:#000000;letter-spacing:0px;word-spacing:0px;text-anchor:start;clip-rule:nonzero;visibility:visible;isolation:auto;color-interpolation:sRGB;color-interpolation-filters:linearRGB;fill:#3cafbe;fill-opacity:1;fill-rule:nonzero;stroke:none;stroke-width:1;stroke-linecap:butt;stroke-linejoin:miter;stroke-miterlimit:4;stroke-dasharray:none;stroke-dashoffset:0;stroke-opacity:1;color-rendering:auto;image-rendering:auto;shape-rendering:auto;text-rendering:auto"
             d="m 947.554,217.0534 q 0,6.1 -6.3,6.1 l -19.3,0 q -6.3,0 -6.3,-6.1 l 0,-37.1 q 0,-6.1 6.3,-6.1 l 19.3,0 q 6.3,0 6.3,6.1 l 0,18.1 -3.1,3.1 -18.1,0 0,13.8 10.5,0 0,-8.2 10.7,0 0,10.3 0,0 z m -10.7,-35 -10.5,0 0,11.8 10.5,0 0,-11.8 z" />
          <path
             inkscape:connector-curvature="0"
             id="path5771"
             style="color:#000000;font-style:normal;font-variant:normal;font-weight:bold;font-stretch:normal;font-size:medium;line-height:100%;font-family:AgencyFB;-inkscape-font-specification:'AgencyFB Bold';text-align:start;text-decoration:none;text-decoration-line:none;text-decoration-style:solid;text-decoration-color:#000000;letter-spacing:0px;word-spacing:0px;text-anchor:start;clip-rule:nonzero;visibility:visible;isolation:auto;color-interpolation:sRGB;color-interpolation-filters:linearRGB;fill:#3cafbe;fill-opacity:1;fill-rule:nonzero;stroke:none;stroke-width:1;stroke-linecap:butt;stroke-linejoin:miter;stroke-miterlimit:4;stroke-dasharray:none;stroke-dashoffset:0;stroke-opacity:1;color-rendering:auto;image-rendering:auto;shape-rendering:auto;text-rendering:auto"
             d="m 977.39306,223.1534 0,-40 -10.5,0.2 0,39.8 -11.2,0 0,-49.3 11.2,0 0,1.8 11.8,-1.6 q 1,-0.2 2,-0.3 1,-0.1 1.8,-0.1 6.1,0 6.1,6 l 0,43.5 -11.2,0 z" />
          <path
             inkscape:connector-curvature="0"
             id="path5773"
             style="color:#000000;font-style:normal;font-variant:normal;font-weight:bold;font-stretch:normal;font-size:medium;line-height:100%;font-family:AgencyFB;-inkscape-font-specification:'AgencyFB Bold';text-align:start;text-decoration:none;text-decoration-line:none;text-decoration-style:solid;text-decoration-color:#000000;letter-spacing:0px;word-spacing:0px;text-anchor:start;clip-rule:nonzero;visibility:visible;isolation:auto;color-interpolation:sRGB;color-interpolation-filters:linearRGB;fill:#3cafbe;fill-opacity:1;fill-rule:nonzero;stroke:none;stroke-width:1;stroke-linecap:butt;stroke-linejoin:miter;stroke-miterlimit:4;stroke-dasharray:none;stroke-dashoffset:0;stroke-opacity:1;color-rendering:auto;image-rendering:auto;shape-rendering:auto;text-rendering:auto"
             d="m 996.71338,166.7534 0,-11.5 11.20002,0 0,11.5 -11.20002,0 z m 0.1,56.4 0,-49.3 11.00002,0 0,49.3 -11.00002,0 z" />
          <path
             inkscape:connector-curvature="0"
             id="path5775"
             style="color:#000000;font-style:normal;font-variant:normal;font-weight:bold;font-stretch:normal;font-size:medium;line-height:100%;font-family:AgencyFB;-inkscape-font-specification:'AgencyFB Bold';text-align:start;text-decoration:none;text-decoration-line:none;text-decoration-style:solid;text-decoration-color:#000000;letter-spacing:0px;word-spacing:0px;text-anchor:start;clip-rule:nonzero;visibility:visible;isolation:auto;color-interpolation:sRGB;color-interpolation-filters:linearRGB;fill:#3cafbe;fill-opacity:1;fill-rule:nonzero;stroke:none;stroke-width:1;stroke-linecap:butt;stroke-linejoin:miter;stroke-miterlimit:4;stroke-dasharray:none;stroke-dashoffset:0;stroke-opacity:1;color-rendering:auto;image-rendering:auto;shape-rendering:auto;text-rendering:auto"
             d="m 875.854,266.7534 0,-11.5 11.2,0 0,11.5 -11.2,0 z m 0.1,56.4 0,-49.3 11,0 0,49.3 -11,0 z" />
          <path
             inkscape:connector-curvature="0"
             id="path5777"
             style="color:#000000;font-style:normal;font-variant:normal;font-weight:bold;font-stretch:normal;font-size:medium;line-height:100%;font-family:AgencyFB;-inkscape-font-specification:'AgencyFB Bold';text-align:start;text-decoration:none;text-decoration-line:none;text-decoration-style:solid;text-decoration-color:#000000;letter-spacing:0px;word-spacing:0px;text-anchor:start;clip-rule:nonzero;visibility:visible;isolation:auto;color-interpolation:sRGB;color-interpolation-filters:linearRGB;fill:#3cafbe;fill-opacity:1;fill-rule:nonzero;stroke:none;stroke-width:1;stroke-linecap:butt;stroke-linejoin:miter;stroke-miterlimit:4;stroke-dasharray:none;stroke-dashoffset:0;stroke-opacity:1;color-rendering:auto;image-rendering:auto;shape-rendering:auto;text-rendering:auto"
             d="m 916.78525,323.1534 0,-1.7 -8.5,1.5 q -2.2,0.5 -4.2,0.5 -4.2,0 -6.6,-2.4 -2.4,-2.5 -2.4,-6.8 l 0,-30.5 q 0,-4.5 2.7,-7.2 2.7,-2.7 7.6,-2.7 l 11.4,0 0,-27.1 11.1,0 0,76.4 -11.1,0 z m 0,-40 -6.9,0 q -3.7,0 -3.7,3.7 l 0,23.6 q 0,3.6 3.5,3.6 0.4,0 1,0 0.6,0 1.1,-0.1 l 5,-0.4 0,-30.4 z" />
          <path
             inkscape:connector-curvature="0"
             id="path5779"
             style="color:#000000;font-style:normal;font-variant:normal;font-weight:bold;font-stretch:normal;font-size:medium;line-height:100%;font-family:AgencyFB;-inkscape-font-specification:'AgencyFB Bold';text-align:start;text-decoration:none;text-decoration-line:none;text-decoration-style:solid;text-decoration-color:#000000;letter-spacing:0px;word-spacing:0px;text-anchor:start;clip-rule:nonzero;visibility:visible;isolation:auto;color-interpolation:sRGB;color-interpolation-filters:linearRGB;fill:#3cafbe;fill-opacity:1;fill-rule:nonzero;stroke:none;stroke-width:1;stroke-linecap:butt;stroke-linejoin:miter;stroke-miterlimit:4;stroke-dasharray:none;stroke-dashoffset:0;stroke-opacity:1;color-rendering:auto;image-rendering:auto;shape-rendering:auto;text-rendering:auto"
             d="m 936.20556,266.7534 0,-11.5 11.2,0 0,11.5 -11.2,0 z m 0.1,56.4 0,-49.3 11,0 0,49.3 -11,0 z" />
          <path
             inkscape:connector-curvature="0"
             id="path5781"
             style="color:#000000;font-style:normal;font-variant:normal;font-weight:bold;font-stretch:normal;font-size:medium;line-height:100%;font-family:AgencyFB;-inkscape-font-specification:'AgencyFB Bold';text-align:start;text-decoration:none;text-decoration-line:none;text-decoration-style:solid;text-decoration-color:#000000;letter-spacing:0px;word-spacing:0px;text-anchor:start;clip-rule:nonzero;visibility:visible;isolation:auto;color-interpolation:sRGB;color-interpolation-filters:linearRGB;fill:#3cafbe;fill-opacity:1;fill-rule:nonzero;stroke:none;stroke-width:1;stroke-linecap:butt;stroke-linejoin:miter;stroke-miterlimit:4;stroke-dasharray:none;stroke-dashoffset:0;stroke-opacity:1;color-rendering:auto;image-rendering:auto;shape-rendering:auto;text-rendering:auto"
             d="m 835.85393,366.7534 0,-11.5 11.2,0 0,11.5 -11.2,0 z m 0.1,56.4 0,-49.3 11,0 0,49.3 -11,0 z" />
          <path
             inkscape:connector-curvature="0"
             id="path5783"
             style="color:#000000;font-style:normal;font-variant:normal;font-weight:bold;font-stretch:normal;font-size:medium;line-height:100%;font-family:AgencyFB;-inkscape-font-specification:'AgencyFB Bold';text-align:start;text-decoration:none;text-decoration-line:none;text-decoration-style:solid;text-decoration-color:#000000;letter-spacing:0px;word-spacing:0px;text-anchor:start;clip-rule:nonzero;visibility:visible;isolation:auto;color-interpolation:sRGB;color-interpolation-filters:linearRGB;fill:#3cafbe;fill-opacity:1;fill-rule:nonzero;stroke:none;stroke-width:1;stroke-linecap:butt;stroke-linejoin:miter;stroke-miterlimit:4;stroke-dasharray:none;stroke-dashoffset:0;stroke-opacity:1;color-rendering:auto;image-rendering:auto;shape-rendering:auto;text-rendering:auto"
             d="m 887.08518,417.0534 q 0,6.1 -6.2,6.1 l -19.4,0 q -6.3,0 -6.3,-6.1 l 0,-37.1 q 0,-6.1 6.3,-6.1 l 19.4,0 q 6.2,0 6.2,6.1 l 0,11.7 -10.9,0 0,-8.5 -10,0 0,30.7 10,0 0,-9.4 10.9,0 0,12.6 0,0 z" />
          <path
             inkscape:connector-curvature="0"
             id="path5785"
             style="color:#000000;font-style:normal;font-variant:normal;font-weight:bold;font-stretch:normal;font-size:medium;line-height:100%;font-family:AgencyFB;-inkscape-font-specification:'AgencyFB Bold';text-align:start;text-decoration:none;text-decoration-line:none;text-decoration-style:solid;text-decoration-color:#000000;letter-spacing:0px;word-spacing:0px;text-anchor:start;clip-rule:nonzero;visibility:visible;isolation:auto;color-interpolation:sRGB;color-interpolation-filters:linearRGB;fill:#3cafbe;fill-opacity:1;fill-rule:nonzero;stroke:none;stroke-width:1;stroke-linecap:butt;stroke-linejoin:miter;stroke-miterlimit:4;stroke-dasharray:none;stroke-dashoffset:0;stroke-opacity:1;color-rendering:auto;image-rendering:auto;shape-rendering:auto;text-rendering:auto"
             d="m 895.22893,366.7534 0,-11.5 11.2,0 0,11.5 -11.2,0 z m 0.1,56.4 0,-49.3 11,0 0,49.3 -11,0 z" />
          <path
             inkscape:connector-curvature="0"
             id="path5787"
             style="color:#000000;font-style:normal;font-variant:normal;font-weight:bold;font-stretch:normal;font-size:medium;line-height:100%;font-family:AgencyFB;-inkscape-font-specification:'AgencyFB Bold';text-align:start;text-decoration:none;text-decoration-line:none;text-decoration-style:solid;text-decoration-color:#000000;letter-spacing:0px;word-spacing:0px;text-anchor:start;clip-rule:nonzero;visibility:visible;isolation:auto;color-interpolation:sRGB;color-interpolation-filters:linearRGB;fill:#3cafbe;fill-opacity:1;fill-rule:nonzero;stroke:none;stroke-width:1;stroke-linecap:butt;stroke-linejoin:miter;stroke-miterlimit:4;stroke-dasharray:none;stroke-dashoffset:0;stroke-opacity:1;color-rendering:auto;image-rendering:auto;shape-rendering:auto;text-rendering:auto"
             d="m 964.254,470.6534 -6.8,0 -2.2,-23.9 11.2,0 -2.2,23.9 z" />
          <path
             inkscape:connector-curvature="0"
             id="path5789"
             style="color:#000000;font-style:normal;font-variant:normal;font-weight:bold;font-stretch:normal;font-size:medium;line-height:100%;font-family:AgencyFB;-inkscape-font-specification:'AgencyFB Bold';text-align:start;text-decoration:none;text-decoration-line:none;text-decoration-style:solid;text-decoration-color:#000000;letter-spacing:0px;word-spacing:0px;text-anchor:start;clip-rule:nonzero;visibility:visible;isolation:auto;color-interpolation:sRGB;color-interpolation-filters:linearRGB;fill:#3cafbe;fill-opacity:1;fill-rule:nonzero;stroke:none;stroke-width:1;stroke-linecap:butt;stroke-linejoin:miter;stroke-miterlimit:4;stroke-dasharray:none;stroke-dashoffset:0;stroke-opacity:1;color-rendering:auto;image-rendering:auto;shape-rendering:auto;text-rendering:auto"
             d="m 977.21338,523.1534 0,-53.9 -4.4,0 0,-1.5 5.9,-21 9.7,0 0,76.4 -11.2,0 z" />
          <path
             inkscape:connector-curvature="0"
             id="path5791"
             style="color:#000000;font-style:normal;font-variant:normal;font-weight:bold;font-stretch:normal;font-size:medium;line-height:100%;font-family:AgencyFB;-inkscape-font-specification:'AgencyFB Bold';text-align:start;text-decoration:none;text-decoration-line:none;text-decoration-style:solid;text-decoration-color:#000000;letter-spacing:0px;word-spacing:0px;text-anchor:start;clip-rule:nonzero;visibility:visible;isolation:auto;color-interpolation:sRGB;color-interpolation-filters:linearRGB;fill:#3cafbe;fill-opacity:1;fill-rule:nonzero;stroke:none;stroke-width:1;stroke-linecap:butt;stroke-linejoin:miter;stroke-miterlimit:4;stroke-dasharray:none;stroke-dashoffset:0;stroke-opacity:1;color-rendering:auto;image-rendering:auto;shape-rendering:auto;text-rendering:auto"
             d="m 1031.1509,508.7534 0,14.4 -10.9,0 0,-14.4 -25.10002,0 0,-6.8 19.00002,-55.2 11.6,0 0,0.4 -17.8,51.9 12.3,0 0,-23 10.9,0 0,23 5.8,0 0,9.7 -5.8,0 z" />
        </g>
      </g>
      <text
         xml:space="preserve"
         style="color:#000000;font-style:normal;font-variant:normal;font-weight:bold;font-stretch:normal;font-size:100px;line-height:125%;font-family:AgencyFB;-inkscape-font-specification:'AgencyFB Bold';text-align:center;text-decoration:none;text-decoration-line:none;text-decoration-style:solid;text-decoration-color:#000000;letter-spacing:0px;word-spacing:0px;text-anchor:middle;clip-rule:nonzero;display:inline;overflow:visible;visibility:visible;opacity:1;isolation:auto;color-interpolation:sRGB;color-interpolation-filters:linearRGB;fill:#3cafbe;fill-opacity:1;fill-rule:nonzero;stroke:none;stroke-width:1px;stroke-linecap:butt;stroke-linejoin:miter;stroke-miterlimit:4;stroke-dasharray:none;stroke-dashoffset:0;stroke-opacity:1;color-rendering:auto;image-rendering:auto;shape-rendering:auto;text-rendering:auto;enable-background:accumulate"
         x="1645.7764"
         y="1549.775"
         id="text4194"
         sodipodi:linespacing="125%"><tspan
           sodipodi:role="line"
           id="tspan4196"
           x="1645.7764"
           y="1549.775"
           style="font-size:75px">the iCub Summer School</tspan></text>
    </g>
  </g>
</svg>
