<?xml version="1.0" encoding="UTF-8" standalone="no"?>
<!-- Created with Inkscape (http://www.inkscape.org/) -->

<svg
   xmlns:dc="http://purl.org/dc/elements/1.1/"
   xmlns:cc="http://creativecommons.org/ns#"
   xmlns:rdf="http://www.w3.org/1999/02/22-rdf-syntax-ns#"
   xmlns:svg="http://www.w3.org/2000/svg"
   xmlns="http://www.w3.org/2000/svg"
   xmlns:sodipodi="http://sodipodi.sourceforge.net/DTD/sodipodi-0.dtd"
   xmlns:inkscape="http://www.inkscape.org/namespaces/inkscape"
   width="1003.6718"
   height="589.00824"
   id="svg2"
   version="1.1"
   inkscape:version="0.48+devel r"
   viewBox="0 0 1003.6718 589.00824"
   sodipodi:docname="logo_test_1.svg">
  <defs
     id="defs4" />
  <sodipodi:namedview
     id="base"
     pagecolor="#ffffff"
     bordercolor="#666666"
     borderopacity="1.0"
     inkscape:pageopacity="0.0"
     inkscape:pageshadow="2"
     inkscape:zoom="0.46704502"
     inkscape:cx="362.67014"
     inkscape:cy="237.48423"
     inkscape:document-units="px"
     inkscape:current-layer="layer1"
     showgrid="false"
     inkscape:window-width="1375"
     inkscape:window-height="876"
     inkscape:window-x="1985"
     inkscape:window-y="24"
     inkscape:window-maximized="1"
     fit-margin-top="40"
     fit-margin-left="40"
     fit-margin-right="40"
     fit-margin-bottom="40" />
  <metadata
     id="metadata7">
    <rdf:RDF>
      <cc:Work
         rdf:about="">
        <dc:format>image/svg+xml</dc:format>
        <dc:type
           rdf:resource="http://purl.org/dc/dcmitype/StillImage" />
        <dc:title></dc:title>
      </cc:Work>
    </rdf:RDF>
  </metadata>
  <g
     inkscape:label="Layer 1"
     inkscape:groupmode="layer"
     id="layer1"
     transform="translate(-30.164133,-368.505)">
    <text
       xml:space="preserve"
       style="font-style:normal;font-variant:normal;font-weight:bold;font-stretch:normal;font-size:100px;line-height:125%;font-family:AgencyFB;-inkscape-font-specification:'AgencyFB Bold';text-align:center;letter-spacing:0px;word-spacing:0px;text-anchor:middle;fill:#000000;fill-opacity:1;stroke:none;stroke-width:1px;stroke-linecap:butt;stroke-linejoin:miter;stroke-opacity:1"
       x="512.19531"
       y="192.50504"
       id="text4137"
       sodipodi:linespacing="125%"><tspan
         sodipodi:role="line"
         id="tspan4139"
         x="512.19531"
         y="192.50504"
         style="font-style:normal;font-variant:normal;font-weight:normal;font-stretch:normal;font-size:400px;font-family:SquareFont;-inkscape-font-specification:SquareFont">YARP</tspan></text>
    <g
       id="g4505"
       transform="translate(3.2878469e-6,0)">
      <g
         id="g4493">
        <text
           sodipodi:linespacing="125%"
           id="text4182"
           y="804.64996"
           x="615.71375"
           style="color:#000000;font-style:normal;font-variant:normal;font-weight:normal;font-stretch:normal;font-size:82.9024353px;line-height:125%;font-family:SquareFont;-inkscape-font-specification:SquareFont;text-indent:0;text-align:center;text-decoration:none;text-decoration-line:none;text-decoration-style:solid;text-decoration-color:#000000;letter-spacing:0px;word-spacing:0px;text-transform:none;direction:ltr;block-progression:tb;writing-mode:lr-tb;baseline-shift:baseline;text-anchor:middle;clip-rule:nonzero;display:inline;overflow:visible;visibility:visible;opacity:0.8;isolation:auto;color-interpolation:sRGB;color-interpolation-filters:linearRGB;fill:#5677fc;fill-opacity:1;fill-rule:nonzero;stroke:none;stroke-width:1px;stroke-linecap:butt;stroke-linejoin:miter;stroke-miterlimit:4;stroke-dasharray:none;stroke-dashoffset:0;stroke-opacity:1;color-rendering:auto;image-rendering:auto;shape-rendering:auto;text-rendering:auto;enable-background:accumulate"
           xml:space="preserve"><tspan
             style="color:#000000;font-style:normal;font-variant:normal;font-weight:normal;font-stretch:normal;font-size:82.9024353px;line-height:125%;font-family:SquareFont;-inkscape-font-specification:SquareFont;text-indent:0;text-align:center;text-decoration:none;text-decoration-line:none;text-decoration-style:solid;text-decoration-color:#000000;letter-spacing:0px;word-spacing:0px;text-transform:none;direction:ltr;block-progression:tb;writing-mode:lr-tb;baseline-shift:baseline;text-anchor:middle;clip-rule:nonzero;display:inline;overflow:visible;visibility:visible;isolation:auto;color-interpolation:sRGB;color-interpolation-filters:linearRGB;fill:#5677fc;fill-opacity:1;fill-rule:nonzero;stroke:none;stroke-width:1px;stroke-linecap:butt;stroke-linejoin:miter;stroke-miterlimit:4;stroke-dasharray:none;stroke-dashoffset:0;stroke-opacity:1;color-rendering:auto;image-rendering:auto;shape-rendering:auto;text-rendering:auto;enable-background:accumulate"
             y="804.64996"
             x="615.71375"
             id="tspan4184"
             sodipodi:role="line">another</tspan></text>
        <text
           xml:space="preserve"
           style="font-style:normal;font-variant:normal;font-weight:bold;font-stretch:normal;font-size:117.49653625px;line-height:125%;font-family:AgencyFB;-inkscape-font-specification:'AgencyFB Bold';text-align:center;letter-spacing:0px;word-spacing:0px;text-anchor:middle;opacity:0.8;fill:#8bc34a;fill-opacity:1;stroke:none;stroke-width:1px;stroke-linecap:butt;stroke-linejoin:miter;stroke-opacity:1"
           x="721.78094"
           y="917.51324"
           id="text4155"
           sodipodi:linespacing="125%"><tspan
             sodipodi:role="line"
             id="tspan4157"
             x="721.78094"
             y="917.51324"
             style="font-style:normal;font-variant:normal;font-weight:normal;font-stretch:normal;font-family:SquareFont;-inkscape-font-specification:SquareFont;fill:#8bc34a;fill-opacity:1">platform</tspan></text>
      </g>
      <g
         id="g4499">
        <text
           xml:space="preserve"
           style="font-style:normal;font-variant:normal;font-weight:bold;font-stretch:normal;font-size:82.9024353px;line-height:125%;font-family:AgencyFB;-inkscape-font-specification:'AgencyFB Bold';text-align:center;letter-spacing:0px;word-spacing:0px;text-anchor:middle;opacity:0.8;fill:#5677fc;fill-opacity:1;stroke:none;stroke-width:1px;stroke-linecap:butt;stroke-linejoin:miter;stroke-opacity:1"
           x="333.19095"
           y="804.64996"
           id="text4151"
           sodipodi:linespacing="125%"><tspan
             sodipodi:role="line"
             id="tspan4153"
             x="333.19095"
             y="804.64996"
             style="font-style:normal;font-variant:normal;font-weight:normal;font-stretch:normal;font-family:SquareFont;-inkscape-font-specification:SquareFont;fill:#5677fc;fill-opacity:1">yet</tspan></text>
        <text
           sodipodi:linespacing="125%"
           id="text4186"
           y="917.51324"
           x="236.65581"
           style="font-style:normal;font-variant:normal;font-weight:bold;font-stretch:normal;font-size:117.49653625px;line-height:125%;font-family:AgencyFB;-inkscape-font-specification:'AgencyFB Bold';text-align:center;letter-spacing:0px;word-spacing:0px;text-anchor:middle;opacity:0.8;fill:#009688;fill-opacity:1;stroke:none;stroke-width:1px;stroke-linecap:butt;stroke-linejoin:miter;stroke-opacity:1"
           xml:space="preserve"><tspan
             style="font-style:normal;font-variant:normal;font-weight:normal;font-stretch:normal;font-family:SquareFont;-inkscape-font-specification:SquareFont;fill:#009688;fill-opacity:1"
             y="917.51324"
             x="236.65581"
             id="tspan4188"
             sodipodi:role="line">robot</tspan></text>
      </g>
    </g>
    <g
       transform="matrix(3.8530017,0,0,3.8530017,-332.61194,403.12457)"
       id="g3">
      <rect
         style="fill:#a8dbd8"
         x="4.3169999"
         y="61.028"
         width="4.086"
         height="12.146"
         id="rect5" />
      <rect
         style="fill:#a8dbd8"
         x="60.665001"
         y="61.028"
         width="4.0900002"
         height="12.146"
         id="rect7" />
      <polygon
         style="fill:#a8dbd8"
         points="27.278,91.828 30.087,104.688 16.132,104.688 18.927,91.828 18.927,75.194 27.278,75.194 "
         id="polygon9" />
      <polygon
         style="fill:#a8dbd8"
         points="41.715,91.828 38.911,104.688 52.87,104.688 50.073,91.828 50.073,75.194 41.715,75.194 "
         id="polygon11" />
      <path
         style="fill:#5b6a78"
         inkscape:connector-curvature="0"
         d="m 29.557,9.708 3.972,-3.964 c 0.506,-0.541 1.433,-0.541 1.942,0 l 3.971,3.964 c 0.564,0.563 0.564,1.445 0,1.983 l -3.971,3.956 c -0.046,0.054 -0.113,0.104 -0.162,0.15 l 0,5.96 -1.607,0 0,-5.96 C 33.64,15.752 33.583,15.701 33.53,15.647 l -3.972,-3.956 c -0.565,-0.539 -0.565,-1.42 -0.001,-1.983 m 0.859,0.669 3.759,-3.758 c 0.178,-0.178 0.475,-0.178 0.65,0 l 3.755,3.758 c 0.186,0.188 0.186,0.479 0,0.634 l -3.755,3.793 c -0.176,0.166 -0.473,0.166 -0.65,0 l -3.759,-3.793 c -0.188,-0.155 -0.188,-0.446 0,-0.634"
         id="path13" />
      <path
         style="fill:#5b6a78"
         inkscape:connector-curvature="0"
         d="m 31.626,19.612 5.746,0 c 0.405,0 0.774,0.357 0.774,0.785 l 0,0.531 c 0,0.43 -0.369,0.77 -0.774,0.77 l -5.746,0 c -0.424,0 -0.777,-0.34 -0.777,-0.77 l 0,-0.531 c 0,-0.428 0.353,-0.785 0.777,-0.785"
         id="path15" />
      <path
         style="fill:#a8dbd8"
         inkscape:connector-curvature="0"
         d="m 15.706,30.024 37.584,0 c 0.625,0 1.188,0.535 1.188,1.193 l 0,1.19 c 0,0.668 -0.562,1.206 -1.188,1.206 l -37.584,0 c -0.622,0 -1.188,-0.537 -1.188,-1.206 l 0,-1.19 c 0,-0.658 0.566,-1.193 1.188,-1.193"
         id="path17" />
      <rect
         style="fill:#a8dbd8"
         x="3.3080001"
         y="53.338001"
         width="9.8629999"
         height="8.2080002"
         id="rect19" />
      <path
         style="fill:#5b6a78"
         inkscape:connector-curvature="0"
         d="m 2.081,54.736 1.227,0 0,5.406 -1.227,0 c -0.701,0 -1.285,-0.562 -1.285,-1.24 l 0,-2.919 c 0,-0.663 0.584,-1.247 1.285,-1.247"
         id="path21" />
      <rect
         style="fill:#5b6a78"
         x="2.9909999"
         y="71.177002"
         width="6.7579999"
         height="6.7249999"
         id="rect23" />
      <path
         style="fill:#5b6a78"
         inkscape:connector-curvature="0"
         d="m 9.765,77.899 c 0.918,0.912 1.492,2.172 1.492,3.565 0,2.113 -1.305,3.92 -3.215,4.612 l 0,-6.034 -3.346,0 0,6.034 C 2.79,85.384 1.443,83.577 1.443,81.464 c 0,-1.396 0.613,-2.653 1.53,-3.565 l 6.792,0 z"
         id="path25" />
      <rect
         style="fill:#a8dbd8"
         x="55.907001"
         y="53.338001"
         width="9.8319998"
         height="8.2080002"
         id="rect27" />
      <path
         style="fill:#5b6a78"
         inkscape:connector-curvature="0"
         d="m 66.991,54.736 -1.252,0 0,5.406 1.252,0 c 0.704,0 1.264,-0.562 1.264,-1.238 l 0,-2.919 c 0,-0.665 -0.56,-1.249 -1.264,-1.249"
         id="path29" />
      <rect
         style="fill:#5b6a78"
         x="59.318001"
         y="71.177002"
         width="6.7620001"
         height="6.7249999"
         id="rect31" />
      <path
         style="fill:#5b6a78"
         inkscape:connector-curvature="0"
         d="m 59.314,77.899 c -0.92,0.912 -1.528,2.172 -1.528,3.565 0,2.113 1.347,3.92 3.25,4.612 l 0,-6.034 3.35,0 0,6.034 c 1.909,-0.692 3.255,-2.499 3.255,-4.612 0,-1.396 -0.611,-2.653 -1.531,-3.565 l -6.796,0 z"
         id="path33" />
      <path
         style="fill:#5b6a78"
         inkscape:connector-curvature="0"
         d="m 17.388,72.13 11.437,0 c 0.804,0 1.401,0.631 1.401,1.4 l 0,4.197 c 0,0.75 -0.598,1.396 -1.401,1.396 l -11.437,0 c -0.801,0 -1.4,-0.646 -1.4,-1.396 l 0,-4.197 c -10e-4,-0.769 0.599,-1.4 1.4,-1.4"
         id="path35" />
      <path
         style="fill:#5b6a78"
         inkscape:connector-curvature="0"
         d="m 14.874,104.271 16.465,0 c 0.32,0 0.581,0.246 0.581,0.564 l 0,2.516 c 0,0.287 -0.261,0.551 -0.581,0.551 l -16.465,0 c -0.322,0 -0.571,-0.264 -0.571,-0.551 l 0,-2.516 c 0,-0.318 0.249,-0.564 0.571,-0.564"
         id="path37" />
      <path
         style="fill:#5b6a78"
         inkscape:connector-curvature="0"
         d="m 13.769,106.089 18.686,0 c 0.508,0 0.938,0.416 0.938,0.921 l 0,2.99 -20.57,0 0,-2.99 c -0.002,-0.505 0.424,-0.921 0.946,-0.921"
         id="path39" />
      <path
         style="fill:#5b6a78"
         inkscape:connector-curvature="0"
         d="m 51.607,72.13 -11.438,0 c -0.795,0 -1.397,0.631 -1.397,1.4 l 0,4.197 c 0,0.75 0.604,1.396 1.397,1.396 l 11.438,0 c 0.773,0 1.397,-0.646 1.397,-1.396 l 0,-4.197 c 0.004,-0.769 -0.62,-1.4 -1.397,-1.4"
         id="path41" />
      <path
         style="fill:#5b6a78"
         inkscape:connector-curvature="0"
         d="m 54.122,104.271 -16.455,0 c -0.319,0 -0.592,0.246 -0.592,0.564 l 0,2.516 c 0,0.287 0.271,0.551 0.592,0.551 l 16.455,0 c 0.317,0 0.573,-0.264 0.573,-0.551 l 0,-2.516 c 0,-0.318 -0.256,-0.564 -0.573,-0.564"
         id="path43" />
      <path
         style="fill:#5b6a78"
         inkscape:connector-curvature="0"
         d="m 55.232,106.089 -18.723,0 c -0.479,0 -0.901,0.416 -0.901,0.921 l 0,2.99 20.567,0 0,-2.99 c 0,-0.505 -0.428,-0.921 -0.943,-0.921"
         id="path45" />
      <rect
         style="fill:#5b6a78"
         x="24.726"
         y="40.157001"
         width="19.549"
         height="5.921"
         id="rect47" />
      <path
         style="fill:#a8dbd8"
         inkscape:connector-curvature="0"
         d="m 24.942,20.449 19.119,0 c 1.828,0 3.379,1.532 3.379,3.403 l 0,14.22 c 0,1.869 -1.551,3.382 -3.379,3.382 l -19.119,0 c -1.833,0 -3.377,-1.513 -3.377,-3.382 l 0,-14.22 c 10e-4,-1.871 1.544,-3.403 3.377,-3.403"
         id="path49" />
      <path
         style="fill:#a8dbd8"
         inkscape:connector-curvature="0"
         d="m 22.517,44.7 23.972,0 c 4.446,0 8.062,3.62 8.062,8.042 l 0,9.764 c 0.031,0.11 0.037,0.243 0.037,0.388 l 0,9.131 c 0,1.098 -0.912,1.978 -1.989,1.978 l -36.196,0 c -1.084,0 -1.996,-0.88 -1.996,-1.978 l 0,-9.131 c 0,-0.145 0.008,-0.275 0.037,-0.388 l 0,-9.764 c 0,-4.422 3.622,-8.042 8.073,-8.042"
         id="path51" />
      <path
         style="fill:#a8dbd8"
         inkscape:connector-curvature="0"
         d="m 29.688,25.188 c 2.524,0 4.563,2.061 4.563,4.583 0,2.522 -2.039,4.593 -4.563,4.593 -2.546,0 -4.612,-2.071 -4.612,-4.593 -0.001,-2.522 2.066,-4.583 4.612,-4.583"
         id="path53" />
      <path
         style="fill:#ffffff"
         inkscape:connector-curvature="0"
         d="m 29.688,25.723 c 2.214,0 4.06,1.829 4.06,4.047 0,2.244 -1.846,4.058 -4.06,4.058 -2.271,0 -4.046,-1.814 -4.046,-4.058 0,-2.218 1.775,-4.047 4.046,-4.047"
         id="path55" />
      <path
         style="fill:#5b6a78"
         inkscape:connector-curvature="0"
         d="m 29.688,27.29 c 1.373,0 2.483,1.114 2.483,2.48 0,1.377 -1.11,2.476 -2.483,2.476 -1.364,0 -2.53,-1.099 -2.53,-2.476 -0.001,-1.366 1.165,-2.48 2.53,-2.48"
         id="path57" />
      <path
         style="fill:#ffffff"
         inkscape:connector-curvature="0"
         d="m 39.309,25.723 c 2.271,0 4.057,1.829 4.057,4.047 0,2.244 -1.785,4.058 -4.057,4.058 -2.211,0 -4.054,-1.814 -4.054,-4.058 0,-2.218 1.843,-4.047 4.054,-4.047"
         id="path59" />
      <path
         style="fill:#5b6a78"
         inkscape:connector-curvature="0"
         d="m 39.309,27.29 c 1.375,0 2.494,1.114 2.494,2.48 0,1.377 -1.119,2.476 -2.494,2.476 -1.371,0 -2.479,-1.099 -2.479,-2.476 -10e-4,-1.366 1.108,-2.48 2.479,-2.48"
         id="path61" />
      <path
         style="fill:#ffffff"
         inkscape:connector-curvature="0"
         d="m 29.579,38.446 10.369,0 c 0.528,0 1,0.445 1,1.019 0,0.566 -0.472,1.022 -1,1.022 l -10.369,0 c -0.584,0 -1.023,-0.457 -1.023,-1.022 0,-0.573 0.439,-1.019 1.023,-1.019"
         id="path63" />
      <path
         style="fill:#5b6a78"
         inkscape:connector-curvature="0"
         d="m 18.837,26.815 2.729,0 0,10.011 -2.729,0 c -0.654,0 -1.131,-0.521 -1.131,-1.151 l 0,-7.728 c 0,-0.62 0.477,-1.132 1.131,-1.132"
         id="path65" />
      <path
         style="fill:#5b6a78"
         inkscape:connector-curvature="0"
         d="m 50.159,26.815 -2.722,0 0,10.011 2.722,0 c 0.646,0 1.128,-0.521 1.128,-1.151 l 0,-7.728 c 0,-0.62 -0.478,-1.132 -1.128,-1.132"
         id="path67" />
      <path
         style="fill:#ffffff"
         inkscape:connector-curvature="0"
         d="m 25.327,49.672 18.353,0 c 1.098,0 1.99,0.918 1.99,2.016 l 0,12.872 c 0,1.096 -0.895,2.004 -1.99,2.004 l -18.353,0 c -1.11,0 -2.041,-0.908 -2.041,-2.004 l 0,-12.872 c 0,-1.098 0.931,-2.016 2.041,-2.016"
         id="path69" />
      <path
         style="fill:#a8dbd8"
         inkscape:connector-curvature="0"
         d="m 25.327,51.114 18.353,0 c 0.336,0 0.6,0.251 0.6,0.574 l 0,12.872 c 0,0.312 -0.264,0.584 -0.6,0.584 l -18.353,0 c -0.332,0 -0.605,-0.271 -0.605,-0.584 l 0,-12.872 c 0,-0.322 0.273,-0.574 0.605,-0.574"
         id="path71" />
      <path
         style="fill:#5b6a78"
         inkscape:connector-curvature="0"
         d="m 30.538,65.144 -2.631,0 0,-14.03 2.631,0 0,14.03 z m 2.643,-14.03 2.637,0 0,14.03 -2.637,0 0,-14.03 z m 5.271,0 2.644,0 0,14.03 -2.644,0 0,-14.03 z"
         id="path73" />
      <path
         style="fill:#5b6a78"
         inkscape:connector-curvature="0"
         d="m 43.63,67.784 3.277,0 c 0.875,0 1.582,0.736 1.582,1.613 l 0,1.347 c 0,0.907 -0.707,1.646 -1.582,1.646 l -3.277,0 c -0.887,0 -1.646,-0.738 -1.646,-1.646 l 0,-1.347 c -0.002,-0.875 0.759,-1.613 1.646,-1.613"
         id="path75" />
      <path
         style="fill:#ffffff"
         inkscape:connector-curvature="0"
         d="m 38.986,69.073 1.229,0 c 0.183,0 0.362,0.158 0.362,0.383 l 0,1.232 c 0,0.223 -0.182,0.407 -0.362,0.407 l -1.229,0 c -0.225,0 -0.406,-0.188 -0.406,-0.407 l 0,-1.232 c 0,-0.225 0.186,-0.383 0.406,-0.383"
         id="path77" />
      <path
         style="fill:#ffffff"
         inkscape:connector-curvature="0"
         d="m 50.298,69.073 1.24,0 c 0.226,0 0.412,0.158 0.412,0.383 l 0,1.232 c 0,0.223 -0.188,0.407 -0.412,0.407 l -1.24,0 c -0.219,0 -0.403,-0.188 -0.403,-0.407 l 0,-1.232 c 0,-0.225 0.184,-0.383 0.403,-0.383"
         id="path79" />
      <path
         style="fill:#5b6a78"
         inkscape:connector-curvature="0"
         d="m 17.952,88.722 10.371,0 c 0.568,0 1.086,0.488 1.086,1.086 l 0,3.291 c 0,0.627 -0.518,1.114 -1.086,1.114 l -10.371,0 c -0.639,0 -1.15,-0.487 -1.15,-1.114 l 0,-3.291 c 0,-0.6 0.512,-1.086 1.15,-1.086"
         id="path81" />
      <path
         style="fill:#5b6a78"
         inkscape:connector-curvature="0"
         d="m 51.046,88.722 -10.362,0 c -0.578,0 -1.086,0.488 -1.086,1.086 l 0,3.291 c 0,0.627 0.508,1.114 1.086,1.114 l 10.362,0 c 0.64,0 1.146,-0.487 1.146,-1.114 l 0,-3.291 c -10e-4,-0.6 -0.506,-1.086 -1.146,-1.086"
         id="path83" />
      <rect
         style="fill:#a8dbd8"
         x="1.71"
         y="77.899002"
         width="9.3199997"
         height="0.67400002"
         id="rect85" />
      <rect
         style="fill:#a8dbd8"
         x="58.050999"
         y="77.899002"
         width="9.3149996"
         height="0.67400002"
         id="rect87" />
      <path
         style="fill:#5b6a78"
         inkscape:connector-curvature="0"
         d="m 14.708,50.742 -6.521,0 3.301,13.911 2.922,0 0,-1.76 c 0,-0.146 0.006,-0.279 0.035,-0.391 l 0,-9.764 c -10e-4,-0.689 0.091,-1.354 0.263,-1.996"
         id="path89" />
      <path
         style="fill:#5b6a78"
         inkscape:connector-curvature="0"
         d="m 54.372,50.742 6.51,0 -3.291,13.911 -2.92,0 0,-1.76 c 0,-0.146 -0.012,-0.279 -0.034,-0.391 l 0,-9.764 c -10e-4,-0.689 -0.095,-1.354 -0.265,-1.996"
         id="path91" />
    </g>
    <g
       id="g4321">
      <path
         sodipodi:nodetypes="cccc"
         inkscape:connector-curvature="0"
         id="path4227"
         d="m 1452.885,268.54946 25,-25 -25,0 z"
         style="color:#000000;font-style:normal;font-variant:normal;font-weight:normal;font-stretch:normal;font-size:medium;line-height:normal;font-family:sans-serif;text-indent:0;text-align:start;text-decoration:none;text-decoration-line:none;text-decoration-style:solid;text-decoration-color:#000000;letter-spacing:normal;word-spacing:normal;text-transform:none;direction:ltr;block-progression:tb;writing-mode:lr-tb;baseline-shift:baseline;text-anchor:start;clip-rule:nonzero;display:inline;overflow:visible;visibility:visible;opacity:1;isolation:auto;color-interpolation:sRGB;color-interpolation-filters:linearRGB;fill:#44aa00;fill-opacity:1;fill-rule:evenodd;stroke:none;stroke-width:1px;stroke-linecap:butt;stroke-linejoin:miter;stroke-miterlimit:4;stroke-dasharray:none;stroke-dashoffset:0;stroke-opacity:1;color-rendering:auto;image-rendering:auto;shape-rendering:auto;text-rendering:auto;enable-background:accumulate" />
      <path
         style="color:#000000;font-style:normal;font-variant:normal;font-weight:normal;font-stretch:normal;font-size:medium;line-height:normal;font-family:sans-serif;text-indent:0;text-align:start;text-decoration:none;text-decoration-line:none;text-decoration-style:solid;text-decoration-color:#000000;letter-spacing:normal;word-spacing:normal;text-transform:none;direction:ltr;block-progression:tb;writing-mode:lr-tb;baseline-shift:baseline;text-anchor:start;clip-rule:nonzero;display:inline;overflow:visible;visibility:visible;opacity:1;isolation:auto;color-interpolation:sRGB;color-interpolation-filters:linearRGB;fill:#55d400;fill-opacity:1;fill-rule:evenodd;stroke:none;stroke-width:1px;stroke-linecap:butt;stroke-linejoin:miter;stroke-miterlimit:4;stroke-dasharray:none;stroke-dashoffset:0;stroke-opacity:1;color-rendering:auto;image-rendering:auto;shape-rendering:auto;text-rendering:auto;enable-background:accumulate"
         d="m 1452.885,381.6354 25,25 -25,0 z"
         id="path4236"
         inkscape:connector-curvature="0"
         sodipodi:nodetypes="cccc" />
      <path
         inkscape:connector-curvature="0"
         id="path4251"
         d="m 1348.4316,243.54946 25,25 0,-25 -25,0 z"
         style="color:#000000;font-style:normal;font-variant:normal;font-weight:normal;font-stretch:normal;font-size:medium;line-height:normal;font-family:sans-serif;text-indent:0;text-align:start;text-decoration:none;text-decoration-line:none;text-decoration-style:solid;text-decoration-color:#000000;letter-spacing:normal;word-spacing:normal;text-transform:none;direction:ltr;block-progression:tb;writing-mode:lr-tb;baseline-shift:baseline;text-anchor:start;clip-rule:nonzero;display:inline;overflow:visible;visibility:visible;opacity:1;isolation:auto;color-interpolation:sRGB;color-interpolation-filters:linearRGB;fill:#44aa00;fill-opacity:1;fill-rule:evenodd;stroke:none;stroke-width:1px;stroke-linecap:butt;stroke-linejoin:miter;stroke-miterlimit:4;stroke-dasharray:none;stroke-dashoffset:0;stroke-opacity:1;color-rendering:auto;image-rendering:auto;shape-rendering:auto;text-rendering:auto;enable-background:accumulate" />
      <path
         inkscape:connector-curvature="0"
         id="path4238"
         d="m 1373.4316,381.6354 -25,25 25,0 0,-25 z"
         style="color:#000000;font-style:normal;font-variant:normal;font-weight:normal;font-stretch:normal;font-size:medium;line-height:normal;font-family:sans-serif;text-indent:0;text-align:start;text-decoration:none;text-decoration-line:none;text-decoration-style:solid;text-decoration-color:#000000;letter-spacing:normal;word-spacing:normal;text-transform:none;direction:ltr;block-progression:tb;writing-mode:lr-tb;baseline-shift:baseline;text-anchor:start;clip-rule:nonzero;display:inline;overflow:visible;visibility:visible;opacity:1;isolation:auto;color-interpolation:sRGB;color-interpolation-filters:linearRGB;fill:#55d400;fill-opacity:1;fill-rule:evenodd;stroke:none;stroke-width:1px;stroke-linecap:butt;stroke-linejoin:miter;stroke-miterlimit:4;stroke-dasharray:none;stroke-dashoffset:0;stroke-opacity:1;color-rendering:auto;image-rendering:auto;shape-rendering:auto;text-rendering:auto;enable-background:accumulate" />
      <path
         inkscape:connector-curvature="0"
         id="path4268"
         d="m 1234.7601,291.59634 0,69.33594 88.0859,0 0,-69.33594 z"
         style="font-style:normal;font-variant:normal;font-weight:normal;font-stretch:normal;font-size:400px;line-height:125%;font-family:SquareFont;-inkscape-font-specification:SquareFont;text-align:center;letter-spacing:0px;word-spacing:0px;text-anchor:middle;opacity:0.8;fill:#000000;fill-opacity:1;stroke:none;stroke-width:1px;stroke-linecap:butt;stroke-linejoin:miter;stroke-opacity:1" />
      <path
         id="path4271"
         d="m 1417.846,411.59634 -120,-120 0,120 120,0 z"
         style="color:#000000;font-style:normal;font-variant:normal;font-weight:normal;font-stretch:normal;font-size:medium;line-height:normal;font-family:sans-serif;text-indent:0;text-align:start;text-decoration:none;text-decoration-line:none;text-decoration-style:solid;text-decoration-color:#000000;letter-spacing:normal;word-spacing:normal;text-transform:none;direction:ltr;block-progression:tb;writing-mode:lr-tb;baseline-shift:baseline;text-anchor:start;clip-rule:nonzero;display:inline;overflow:visible;visibility:visible;opacity:1;isolation:auto;color-interpolation:sRGB;color-interpolation-filters:linearRGB;fill:#ffff00;fill-opacity:1;fill-rule:evenodd;stroke:none;stroke-width:1px;stroke-linecap:butt;stroke-linejoin:miter;stroke-miterlimit:4;stroke-dasharray:none;stroke-dashoffset:0;stroke-opacity:1;color-rendering:auto;image-rendering:auto;shape-rendering:auto;text-rendering:auto;enable-background:accumulate"
         inkscape:connector-curvature="0" />
      <path
         inkscape:connector-curvature="0"
         style="color:#000000;font-style:normal;font-variant:normal;font-weight:normal;font-stretch:normal;font-size:medium;line-height:normal;font-family:sans-serif;text-indent:0;text-align:start;text-decoration:none;text-decoration-line:none;text-decoration-style:solid;text-decoration-color:#000000;letter-spacing:normal;word-spacing:normal;text-transform:none;direction:ltr;block-progression:tb;writing-mode:lr-tb;baseline-shift:baseline;text-anchor:start;clip-rule:nonzero;display:inline;overflow:visible;visibility:visible;opacity:1;isolation:auto;color-interpolation:sRGB;color-interpolation-filters:linearRGB;fill:#44aa00;fill-opacity:1;fill-rule:evenodd;stroke:none;stroke-width:1px;stroke-linecap:butt;stroke-linejoin:miter;stroke-miterlimit:4;stroke-dasharray:none;stroke-dashoffset:0;stroke-opacity:1;color-rendering:auto;image-rendering:auto;shape-rendering:auto;text-rendering:auto;enable-background:accumulate"
         d="m 1297.846,291.59634 25,25 0,-25 -25,0 z"
         id="path4240" />
    </g>
    <path
       d="m 1223.6471,504.01343 0,69.33594 88.0859,0 0,-69.33594 -88.0859,0 z m -53.9062,232.42187 0,-280.46875 192.578,0 0,163.08594 -65.8203,0 65.8203,117.38281 -50.5859,0 -69.1406,-117.38281 -18.9453,0 0,117.38281 -53.9062,0 z"
       style="font-style:normal;font-variant:normal;font-weight:normal;font-stretch:normal;font-size:400px;line-height:125%;font-family:SquareFont;-inkscape-font-specification:SquareFont;text-align:center;letter-spacing:0px;word-spacing:0px;text-anchor:middle;opacity:0.8;fill:#000000;fill-opacity:1;stroke:none;stroke-width:1px;stroke-linecap:butt;stroke-linejoin:miter;stroke-opacity:1"
       id="path4332"
       inkscape:connector-curvature="0" />
    <path
       d="m 1430.6784,736.4353 -53.9062,0 0,-280.46875 192.578,0 0,163.08594 -138.6718,0 0,117.38281 z m 0,-232.42187 0,69.33594 88.0859,0 0,-69.33594 -88.0859,0 z"
       style="font-style:normal;font-variant:normal;font-weight:normal;font-stretch:normal;font-size:400px;line-height:125%;font-family:SquareFont;-inkscape-font-specification:SquareFont;text-align:center;letter-spacing:0px;word-spacing:0px;text-anchor:middle;opacity:0.8;fill:#000000;fill-opacity:1;stroke:none;stroke-width:1px;stroke-linecap:butt;stroke-linejoin:miter;stroke-opacity:1"
       id="path4334"
       inkscape:connector-curvature="0" />
    <g
       id="g4456"
       transform="translate(22.500093,0)">
      <g
         style="opacity:0.8;fill:#5677fc;fill-opacity:1"
         transform="translate(347.66404,-13.38843)"
         id="g4239">
        <path
           inkscape:connector-curvature="0"
           style="font-style:normal;font-variant:normal;font-weight:normal;font-stretch:normal;font-size:400px;line-height:125%;font-family:SquareFont;-inkscape-font-specification:SquareFont;text-align:center;letter-spacing:0px;word-spacing:0px;text-anchor:middle;fill:#5677fc;fill-opacity:1;stroke:none;stroke-width:1px;stroke-linecap:butt;stroke-linejoin:miter;stroke-opacity:1"
           d="m -158.00781,421.89343 0,117.38281 -88.08594,0 0,-117.38281 -53.90625,0 0,163.08594 192.57812,0 0,-163.08594 -50.58593,0 z"
           id="path4165" />
        <path
           inkscape:connector-curvature="0"
           id="path4167"
           style="font-style:normal;font-variant:normal;font-weight:normal;font-stretch:normal;font-size:400px;line-height:125%;font-family:SquareFont;-inkscape-font-specification:SquareFont;text-align:center;letter-spacing:0px;word-spacing:0px;text-anchor:middle;fill:#5677fc;fill-opacity:1;stroke:none;stroke-width:1px;stroke-linecap:butt;stroke-linejoin:miter;stroke-opacity:1"
           d="m -176.75792,702.36218 -53.9062,0 0,-117.383 53.9062,0 z"
           sodipodi:nodetypes="ccccc" />
      </g>
      <g
         transform="translate(-9.9999694,0)"
         id="g4418">
        <path
           style="color:#000000;font-style:normal;font-variant:normal;font-weight:normal;font-stretch:normal;font-size:400px;line-height:125%;font-family:SquareFont;-inkscape-font-specification:SquareFont;text-align:center;text-decoration:none;text-decoration-line:none;text-decoration-style:solid;text-decoration-color:#000000;letter-spacing:0px;word-spacing:0px;text-anchor:middle;clip-rule:nonzero;display:inline;overflow:visible;visibility:visible;opacity:0.8;isolation:auto;color-interpolation:sRGB;color-interpolation-filters:linearRGB;fill:#5677fc;fill-opacity:1;fill-rule:nonzero;stroke:none;stroke-width:1px;stroke-linecap:butt;stroke-linejoin:miter;stroke-miterlimit:4;stroke-dasharray:none;stroke-dashoffset:0;stroke-opacity:1;color-rendering:auto;image-rendering:auto;shape-rendering:auto;text-rendering:auto;enable-background:accumulate"
           d="m 307.74189,608.59094 0,80.38281 53.90625,0 0,-80.38281 -53.90625,0 z"
           id="path4270"
           inkscape:connector-curvature="0" />
        <g
           id="g4482"
           transform="translate(86.511137,4.275243e-6)"
           style="opacity:1">
          <path
             style="font-style:normal;font-variant:normal;font-weight:normal;font-stretch:normal;font-size:400px;line-height:125%;font-family:SquareFont;-inkscape-font-specification:SquareFont;text-align:center;letter-spacing:0px;word-spacing:0px;text-anchor:middle;fill:#5b6a78;fill-opacity:1;stroke:none;stroke-width:1px;stroke-linecap:butt;stroke-linejoin:miter;stroke-opacity:1"
             d="m 213.18388,675.32075 0,13.653 70,0 0,-13.653 -70,0 z"
             id="path4388"
             inkscape:connector-curvature="0" />
          <path
             inkscape:connector-curvature="0"
             id="path4480"
             d="m 218.19888,668.97375 0,12.676 59.97,0 0,-12.676 -59.97,0 z"
             style="font-style:normal;font-variant:normal;font-weight:normal;font-stretch:normal;font-size:400px;line-height:125%;font-family:SquareFont;-inkscape-font-specification:SquareFont;text-align:center;letter-spacing:0px;word-spacing:0px;text-anchor:middle;fill:#5b6a78;fill-opacity:1;stroke:none;stroke-width:1px;stroke-linecap:butt;stroke-linejoin:miter;stroke-opacity:1" />
        </g>
        <path
           style="color:#000000;font-style:normal;font-variant:normal;font-weight:normal;font-stretch:normal;font-size:400px;line-height:125%;font-family:SquareFont;-inkscape-font-specification:SquareFont;text-align:center;text-decoration:none;text-decoration-line:none;text-decoration-style:solid;text-decoration-color:#000000;letter-spacing:0px;word-spacing:0px;text-anchor:middle;clip-rule:nonzero;display:inline;overflow:visible;visibility:visible;opacity:0.8;isolation:auto;color-interpolation:sRGB;color-interpolation-filters:linearRGB;fill:#5677fc;fill-opacity:1;fill-rule:nonzero;stroke:none;stroke-width:1px;stroke-linecap:butt;stroke-linejoin:miter;stroke-miterlimit:4;stroke-dasharray:none;stroke-dashoffset:0;stroke-opacity:1;color-rendering:auto;image-rendering:auto;shape-rendering:auto;text-rendering:auto;enable-background:accumulate"
           d="m 471.9797,608.59094 0,80.38281 50.58595,0 0,-80.38281 -50.58595,0 z"
           id="path4180"
           inkscape:connector-curvature="0" />
        <path
           sodipodi:nodetypes="ccccc"
           inkscape:connector-curvature="0"
           id="path4265"
           d="m 299.69501,608.59118 0,-200.08618 232.57767,0 0,200.08618 c -77.52589,-4.5e-4 -155.05177,0 -232.57767,0 z"
           style="color:#000000;font-style:normal;font-variant:normal;font-weight:normal;font-stretch:normal;font-size:400px;line-height:125%;font-family:SquareFont;-inkscape-font-specification:SquareFont;text-align:center;text-decoration:none;text-decoration-line:none;text-decoration-style:solid;text-decoration-color:#000000;letter-spacing:0px;word-spacing:0px;text-anchor:middle;clip-rule:nonzero;display:inline;overflow:visible;visibility:visible;opacity:0.8;isolation:auto;color-interpolation:sRGB;color-interpolation-filters:linearRGB;fill:#5677fc;fill-opacity:1;fill-rule:nonzero;stroke:none;stroke-width:1px;stroke-linecap:butt;stroke-linejoin:miter;stroke-miterlimit:4;stroke-dasharray:none;stroke-dashoffset:0;stroke-opacity:1;color-rendering:auto;image-rendering:auto;shape-rendering:auto;text-rendering:auto;enable-background:accumulate" />
        <g
           id="g4298"
           transform="translate(19.999735,0)">
          <path
             inkscape:connector-curvature="0"
             id="path4162"
             d="m 335.98411,538.59118 0,30 120,0 0,-30 z"
             style="font-style:normal;font-variant:normal;font-weight:normal;font-stretch:normal;font-size:400px;line-height:125%;font-family:SquareFont;-inkscape-font-specification:SquareFont;text-align:center;letter-spacing:0px;word-spacing:0px;text-anchor:middle;fill:#ffffff;fill-opacity:1;stroke:none;stroke-width:1px;stroke-linecap:butt;stroke-linejoin:miter;stroke-opacity:1" />
          <g
             id="g4290">
            <g
               id="g4253"
               transform="translate(0,-3.8570012)">
              <path
                 inkscape:connector-curvature="0"
                 id="path4233"
                 d="m 323.02903,442.36218 0,60 50,0 0,-60 -50,0 z"
                 style="font-style:normal;font-variant:normal;font-weight:normal;font-stretch:normal;font-size:400px;line-height:125%;font-family:SquareFont;-inkscape-font-specification:SquareFont;text-align:center;letter-spacing:0px;word-spacing:0px;text-anchor:middle;fill:#ffffff;fill-opacity:1;stroke:none;stroke-width:1px;stroke-linecap:butt;stroke-linejoin:miter;stroke-opacity:1" />
              <path
                 style="font-style:normal;font-variant:normal;font-weight:normal;font-stretch:normal;font-size:400px;line-height:125%;font-family:SquareFont;-inkscape-font-specification:SquareFont;text-align:center;letter-spacing:0px;word-spacing:0px;text-anchor:middle;fill:#5b6a78;fill-opacity:1;stroke:none;stroke-width:1px;stroke-linecap:butt;stroke-linejoin:miter;stroke-opacity:1"
                 d="m 333.02903,452.36218 0,40 30,0 0,-40 -30,0 z"
                 id="path4245"
                 inkscape:connector-curvature="0" />
            </g>
            <g
               id="g4286">
              <path
                 id="path4226"
                 d="m 418.93919,438.50518 0,60 50,0 0,-60 -50,0 z"
                 style="font-style:normal;font-variant:normal;font-weight:normal;font-stretch:normal;font-size:400px;line-height:125%;font-family:SquareFont;-inkscape-font-specification:SquareFont;text-align:center;letter-spacing:0px;word-spacing:0px;text-anchor:middle;fill:#ffffff;fill-opacity:1;stroke:none;stroke-width:1px;stroke-linecap:butt;stroke-linejoin:miter;stroke-opacity:1"
                 inkscape:connector-curvature="0" />
              <path
                 inkscape:connector-curvature="0"
                 id="path4247"
                 d="m 428.93919,448.50518 0,40 30,0 0,-40 -30,0 z"
                 style="font-style:normal;font-variant:normal;font-weight:normal;font-stretch:normal;font-size:400px;line-height:125%;font-family:SquareFont;-inkscape-font-specification:SquareFont;text-align:center;letter-spacing:0px;word-spacing:0px;text-anchor:middle;fill:#5b6a78;fill-opacity:1;stroke:none;stroke-width:1px;stroke-linecap:butt;stroke-linejoin:miter;stroke-opacity:1" />
            </g>
          </g>
        </g>
        <path
           inkscape:connector-curvature="0"
           id="path4284"
           d="m 532.27267,473.54818 0,60 20,0 0,-60 -20,0 z"
           style="font-style:normal;font-variant:normal;font-weight:normal;font-stretch:normal;font-size:400px;line-height:125%;font-family:SquareFont;-inkscape-font-specification:SquareFont;text-align:center;letter-spacing:0px;word-spacing:0px;text-anchor:middle;fill:#5b6a78;fill-opacity:1;stroke:none;stroke-width:1px;stroke-linecap:butt;stroke-linejoin:miter;stroke-opacity:1" />
        <path
           style="font-style:normal;font-variant:normal;font-weight:normal;font-stretch:normal;font-size:400px;line-height:125%;font-family:SquareFont;-inkscape-font-specification:SquareFont;text-align:center;letter-spacing:0px;word-spacing:0px;text-anchor:middle;fill:#5b6a78;fill-opacity:1;stroke:none;stroke-width:1px;stroke-linecap:butt;stroke-linejoin:miter;stroke-opacity:1"
           d="m 279.69501,473.54818 0,60 20,0 0,-60 -20,0 z"
           id="path4308"
           inkscape:connector-curvature="0" />
        <g
           transform="translate(249.0888,4.2752429e-6)"
           id="g4486"
           style="opacity:1">
          <path
             inkscape:connector-curvature="0"
             id="path4488"
             d="m 213.18388,675.32075 0,13.653 70,0 0,-13.653 -70,0 z"
             style="font-style:normal;font-variant:normal;font-weight:normal;font-stretch:normal;font-size:400px;line-height:125%;font-family:SquareFont;-inkscape-font-specification:SquareFont;text-align:center;letter-spacing:0px;word-spacing:0px;text-anchor:middle;fill:#5b6a78;fill-opacity:1;stroke:none;stroke-width:1px;stroke-linecap:butt;stroke-linejoin:miter;stroke-opacity:1" />
          <path
             style="font-style:normal;font-variant:normal;font-weight:normal;font-stretch:normal;font-size:400px;line-height:125%;font-family:SquareFont;-inkscape-font-specification:SquareFont;text-align:center;letter-spacing:0px;word-spacing:0px;text-anchor:middle;fill:#5b6a78;fill-opacity:1;stroke:none;stroke-width:1px;stroke-linecap:butt;stroke-linejoin:miter;stroke-opacity:1"
             d="m 218.19888,668.97375 0,12.676 59.97,0 0,-12.676 -59.97,0 z"
             id="path4490"
             inkscape:connector-curvature="0" />
        </g>
      </g>
      <g
         transform="translate(-20.000467,0)"
         id="g4440">
        <path
           style="font-style:normal;font-variant:normal;font-weight:normal;font-stretch:normal;font-size:400px;line-height:125%;font-family:SquareFont;-inkscape-font-specification:SquareFont;text-align:center;letter-spacing:0px;word-spacing:0px;text-anchor:middle;opacity:0.8;fill:#009688;fill-opacity:1;stroke:none;stroke-width:1px;stroke-linecap:butt;stroke-linejoin:miter;stroke-opacity:1"
           d="m 591.72702,408.505 0,163.08594 116.9921,0 50.586,0 31.623,-32.83008 32.8301,32.83008 17.0898,0 150.4883,0 0,-163.08594 -150.4883,0 -17.0898,0 -31.2754,33.17774 -8.1777,-8.17774 -25,-25 -50.586,0 -116.9921,0 z m 53.9062,48.04688 63.0859,0 25,25 0,22.47265 -20.6113,21.86328 -67.4746,0 0,-69.33593 z m 224.4805,0 70.6367,0 0,69.33593 -64.0625,0 -24.0234,-24.02343 0,-27.19727 17.4492,-18.11523 z"
           id="path4223"
           inkscape:connector-curvature="0" />
        <path
           style="font-style:normal;font-variant:normal;font-weight:normal;font-stretch:normal;font-size:400px;line-height:125%;font-family:SquareFont;-inkscape-font-specification:SquareFont;text-align:center;letter-spacing:0px;word-spacing:0px;text-anchor:middle;opacity:0.8;fill:#8bc34a;fill-opacity:1;stroke:none;stroke-width:1px;stroke-linecap:butt;stroke-linejoin:miter;stroke-opacity:1"
           d="m 791.09375,178.08594 0,142.38281 53.90625,0 0,-117.38281 -11.81641,0 -17.08984,0 z m -207.03125,25 0,117.38281 53.90625,0 0,-117.38281 z m 72.85156,0 69.14063,117.38281 50.58593,0 -65.82031,-117.38281 -9.76562,0 z"
           transform="translate(7.6640399,368.505)"
           id="path4336"
           inkscape:connector-curvature="0"
           sodipodi:nodetypes="cccccccccccccccccc" />
      </g>
    </g>
  </g>
</svg>
